<svg width="85" height="85" viewBox="0 0 85 85" fill="none" xmlns="http://www.w3.org/2000/svg">
<g clip-path="url(#clip0_413_1171)">
<path d="M84.2721 42.4999C84.2775 47.3367 83.4628 52.1388 81.863 56.6985C81.862 56.7015 81.861 56.7035 81.86 56.7065C81.853 56.7277 81.846 56.7469 81.838 56.7681V56.7691C81.4967 57.7362 81.1217 58.6872 80.713 59.622C79.682 61.9793 78.4405 64.2371 77.0039 66.3674C76.6556 66.8863 76.2949 67.3968 75.9219 67.8989C75.5116 68.4541 75.0882 68.9982 74.6518 69.5312C74.2495 70.0228 73.8365 70.505 73.4128 70.9778C72.9094 71.5411 72.3909 72.09 71.8575 72.6243C70.6019 73.8855 69.2688 75.0656 67.866 76.1576C67.6198 76.3504 67.371 76.5398 67.1194 76.7259C66.5339 77.162 65.9367 77.5826 65.3279 77.9878C63.9886 78.8807 62.5995 79.695 61.1673 80.4267C60.9201 80.5539 60.6709 80.6791 60.4207 80.8002C59.4529 81.2717 58.4653 81.7054 57.4581 82.1015C57.1709 82.2156 56.8827 82.3256 56.5914 82.4316C56.5424 82.4508 56.4933 82.4689 56.4433 82.4861C52.9896 83.7434 49.387 84.5369 45.7281 84.8463C45.4739 84.8695 45.2193 84.889 44.9645 84.9049C44.6942 84.924 44.4237 84.9395 44.1528 84.9513C43.9386 84.9624 43.7254 84.9705 43.5102 84.9765C43.4662 84.9785 43.4211 84.9806 43.3771 84.9806C43.0879 84.9896 42.7976 84.9954 42.5064 84.9977C42.3833 84.9987 42.2602 84.9997 42.136 84.9997C42.078 84.9997 42.0199 84.9997 41.9619 84.9987C41.1222 84.9957 40.2888 84.9681 39.4618 84.916C39.4447 84.9149 39.4277 84.9129 39.4107 84.9129C39.1145 84.8927 38.8192 84.8715 38.525 84.8453C37.4771 84.7565 36.4405 84.6286 35.4153 84.4617C35.1791 84.4243 34.9436 84.3839 34.7087 84.3405C33.6888 84.1588 32.6823 83.9398 31.6891 83.6834C31.3939 83.6077 31.1003 83.5286 30.8084 83.4461C29.1236 82.9732 27.4699 82.394 25.8571 81.7118C24.9313 81.3201 24.0229 80.8968 23.1318 80.4419C22.7305 80.2369 22.3331 80.0256 21.9398 79.8079C21.8327 79.7493 21.7266 79.6898 21.6205 79.6302C20.8458 79.1941 20.0872 78.7345 19.3446 78.2513C18.736 77.8565 18.1389 77.446 17.553 77.0197C17.481 76.9692 17.4099 76.9167 17.3389 76.8642C16.8895 76.5341 16.4474 76.1956 16.0127 75.8486C15.0669 75.0925 14.1548 74.298 13.2764 73.4652C12.6689 72.8898 12.079 72.2962 11.5069 71.6845C8.17309 68.1284 5.47225 64.0191 3.52304 59.5372C3.10868 58.5832 2.72836 57.6117 2.38206 56.6228C2.38094 56.6206 2.38026 56.6182 2.38006 56.6157C0.799706 52.0804 -0.00509552 47.3072 2.42741e-05 42.4999C2.42741e-05 24.656 10.9033 9.38026 26.3566 3.08099C31.8638 0.845592 37.7763 -0.194067 43.7085 0.0297936C49.6408 0.253654 55.4598 1.73601 60.786 4.38022C74.7019 11.3185 84.2721 25.7826 84.2721 42.4999Z" fill="#F2F2F2"/>
<path d="M60.7859 4.38022V58.0865H26.3564V3.08099C31.8637 0.845592 37.7761 -0.194067 43.7084 0.0297936C49.6407 0.253654 55.4596 1.73601 60.7859 4.38022Z" fill="white"/>
<path d="M34.6419 28.8715C35.5759 27.3135 36.6826 25.6499 38.4158 25.1411C40.4231 24.552 42.485 25.7224 44.234 26.8773C49.4644 30.3314 54.5014 34.0747 59.3219 38.09L59.3167 38.1505C55.5637 37.8894 51.8107 37.6284 48.0578 37.3673C45.3463 37.1787 42.5416 36.9641 40.1454 35.6703C39.2361 35.1794 38.3497 34.5236 37.3194 34.4779C36.0392 34.4211 34.923 35.3229 34.0458 36.265C28.857 41.8381 27.3555 50.3607 21.5342 55.257C25.2049 46.1262 29.5879 37.3033 34.6419 28.8715Z" fill="#F2F2F2"/>
<path d="M63.3043 5.75004C63.2172 5.69149 63.1292 5.63597 63.0421 5.57944C60.525 3.95574 57.8272 2.63666 55.0042 1.64946L54.3496 10.7572H50.2001V0.31995C49.9389 0.265437 49.6756 0.213953 49.4124 0.165497V10.7572H44.4812C41.7665 10.7572 39.163 9.66944 37.2434 7.73329C35.3239 5.79714 34.2455 3.17116 34.2455 0.433026V0.433016C33.9812 0.490557 33.719 0.552137 33.4568 0.617754V10.7572H29.4403L28.8168 2.07244C25.9158 3.19463 23.1617 4.67036 20.6158 6.46679C20.5718 6.49707 20.5277 6.52837 20.4847 6.55865C20.2635 6.71512 20.0453 6.87463 19.8281 7.03615V57.7321H31.6652L31.4561 54.8097L30.3051 22.8136H53.4839L52.3329 54.8097L52.1237 57.7321H63.8298V6.10135C63.6556 5.98223 63.4804 5.86513 63.3043 5.75004ZM33.4568 20.1637H30.1149L29.4974 11.5526H33.4568V20.1637ZM49.4124 20.1637H43.7996V19.9931C43.7996 19.911 43.7836 19.8298 43.7525 19.7541C43.7213 19.6783 43.6757 19.6095 43.6181 19.5515C43.5606 19.4936 43.4923 19.4477 43.4171 19.4164C43.3419 19.3851 43.2614 19.369 43.1801 19.3692H40.74C40.6588 19.3692 40.5783 19.3853 40.5033 19.4166C40.4282 19.448 40.36 19.4939 40.3026 19.5518C40.2451 19.6098 40.1996 19.6786 40.1685 19.7543C40.1374 19.83 40.1214 19.9111 40.1215 19.9931V20.1637H34.2455V11.5526H49.4124V20.1637ZM50.2001 20.1637V11.5526H54.2926L53.6751 20.1637H50.2001Z" fill="#3F3D56"/>
<path d="M81.8631 56.6983C81.8621 56.7013 81.8611 56.7033 81.8601 56.7063C81.8531 56.7275 81.8461 56.7467 81.838 56.7679V56.7689C81.4968 57.736 81.1218 58.687 80.7131 59.6218L3.5231 59.537C3.10875 58.583 2.72843 57.6115 2.38213 56.6225C2.38101 56.6203 2.38032 56.6179 2.38013 56.6155L81.8631 56.6983Z" fill="#3F3D56"/>
<path d="M53.0164 57.0304H39.5049V58.8475H53.0164V57.0304Z" fill="white"/>
<path d="M21.6195 74.8251C21.6675 74.398 21.7339 73.9737 21.8186 73.5521C22.2818 71.2658 23.2758 69.1229 24.7191 67.2993C25.5448 67.3457 26.2684 67.2185 26.3375 65.6053C26.3505 65.3186 26.5617 65.0693 26.6077 64.7866C26.5297 64.7977 26.4486 64.8038 26.3705 64.8088C26.3455 64.8098 26.3195 64.8118 26.2955 64.8129H26.2865C26.1998 64.817 26.1138 64.7956 26.0389 64.7515C25.9639 64.7074 25.9033 64.6423 25.8642 64.5642C25.8252 64.486 25.8094 64.3981 25.8188 64.3111C25.8282 64.2241 25.8623 64.1417 25.9171 64.0739C25.9512 64.0325 25.9852 63.9901 26.0192 63.9477C26.0703 63.8821 26.1233 63.8185 26.1754 63.7539C26.1814 63.7468 26.1864 63.7408 26.1924 63.7337C26.2514 63.66 26.3105 63.5863 26.3705 63.5126C26.262 63.3427 26.1161 63.2004 25.9442 63.0967C25.3486 62.7444 24.5269 62.9887 24.0966 63.5318C23.6652 64.0749 23.5831 64.8381 23.7333 65.5165C23.8614 66.098 24.1406 66.631 24.4539 67.1377C24.4219 67.1791 24.3878 67.2195 24.3558 67.2619C23.7655 68.0278 23.251 68.85 22.8195 69.717C22.9416 68.7549 21.4493 65.2823 20.8718 64.5463C20.1782 63.663 18.757 64.0487 18.6349 65.1692C18.6339 65.1793 18.6319 65.1904 18.6309 65.2015C18.717 65.25 18.8011 65.3014 18.8831 65.357C18.9862 65.4265 19.0661 65.5257 19.1123 65.6418C19.1585 65.7579 19.1689 65.8853 19.142 66.0074C19.1152 66.1295 19.0524 66.2406 18.9619 66.3261C18.8715 66.4116 18.7575 66.4676 18.6349 66.4866L18.6219 66.4886C17.4749 68.1412 21.1531 72.4426 22.0749 71.4776C21.8431 72.1344 21.6581 72.8071 21.5214 73.4905C21.3986 74.0933 21.3131 74.7032 21.2652 75.3167C21.2068 76.0893 21.2105 76.8655 21.2762 77.6375C21.2743 77.6285 21.273 77.6194 21.2722 77.6103C21.067 75.9284 17.557 73.4279 16.5321 73.6359C15.9416 73.756 15.3601 73.7287 15.4502 74.3294C15.4512 74.3395 15.4532 74.3486 15.4542 74.3587C15.6134 74.4235 15.7681 74.4987 15.9176 74.5838C16.0037 74.6322 16.0877 74.6847 16.1698 74.7392C16.2663 74.8044 16.3427 74.8957 16.39 75.0026C16.4373 75.1096 16.4537 75.2279 16.4373 75.3438C16.4208 75.4598 16.3723 75.5687 16.2972 75.658C16.222 75.7473 16.1234 75.8134 16.0127 75.8487C16.4481 76.1949 16.8901 76.5335 17.3388 76.8642C17.4099 76.9167 17.4809 76.9692 17.553 77.0197C18.1385 77.4457 18.7357 77.8562 19.3445 78.2513C20.0872 78.7338 20.8458 79.1935 21.6205 79.6303C21.7266 79.6898 21.8326 79.7494 21.9397 79.8079C21.6705 78.6905 21.5341 77.5448 21.5334 76.3948C21.5331 75.8704 21.5619 75.3463 21.6195 74.8251ZM22.1669 71.2181L22.1689 71.2151C22.1689 71.217 22.1682 71.2188 22.1669 71.2201V71.2181ZM21.3692 78.4774L21.3382 78.4078C21.3392 78.3563 21.3392 78.3058 21.3382 78.2533C21.3382 78.2392 21.3352 78.2251 21.3352 78.2109C21.3472 78.3008 21.3572 78.3906 21.3703 78.4805L21.3692 78.4774ZM25.9662 78.6147C25.9772 78.5683 25.9862 78.536 25.9972 78.4895C25.9932 78.4794 25.9892 78.4693 25.9852 78.4603C25.6519 77.6597 23.8924 79.2739 23.1318 80.4419C24.0225 80.8962 24.931 81.3195 25.8571 81.7119C25.9191 81.6331 25.9832 81.5554 26.0462 81.4766C26.0523 81.4696 26.0573 81.4635 26.0623 81.4565C26.1984 81.2869 26.3355 81.1193 26.4706 80.9497C26.4716 80.9164 26.4716 80.8831 26.4716 80.8508C26.4703 80.3645 26.4111 79.8802 26.2955 79.4082C26.2025 79.4125 26.1105 79.3879 26.0318 79.3377C25.9532 79.2875 25.8917 79.2142 25.8558 79.1276C25.8198 79.041 25.8112 78.9453 25.8309 78.8536C25.8507 78.7619 25.8979 78.6785 25.9662 78.6147V78.6147Z" fill="white"/>
<path d="M47.6165 57.6046C47.8569 57.7718 48.1306 57.8838 48.4185 57.9327C48.7063 57.9816 49.0014 57.9663 49.2827 57.8878C49.5641 57.8093 49.825 57.6695 50.047 57.4783C50.269 57.2871 50.4468 57.0492 50.5677 56.7812L57.6332 57.4477L55.8986 54.1655L49.4551 54.0357C48.9952 53.8605 48.4877 53.8616 48.0286 54.0387C47.5695 54.2158 47.1908 54.5565 46.9642 54.9965C46.7376 55.4364 46.6788 55.9448 46.799 56.4255C46.9193 56.9062 47.2101 57.3257 47.6165 57.6046V57.6046Z" fill="#FFB6B6"/>
<path d="M54.7808 57.3799L64.5582 58.4855L64.5919 58.442C64.6563 58.3589 71.0539 50.0989 72.1288 48.1326C72.7902 46.9512 73.031 45.5773 72.8114 44.2388L72.804 44.2061L72.7786 44.1844C72.2574 43.7438 71.6029 43.4956 70.923 43.4805C70.2431 43.4655 69.5784 43.6846 69.0385 44.1017C66.4427 46.1295 64.3496 48.7382 62.9245 51.7217L62.1159 53.4198L54.7808 54.1495V57.3799Z" fill="#6C63FF"/>
<path d="M46.8483 80.4815L44.9647 84.9051C44.6945 84.9243 44.4239 84.9398 44.153 84.9515C43.9389 84.9626 43.7257 84.9707 43.5105 84.9768L43.4374 85L43.3774 84.9808C43.0881 84.9899 42.7979 84.9956 42.5066 84.998C42.3835 84.999 42.2604 85 42.1363 85C42.0783 85 42.0202 85 41.9622 84.999L42.0873 84.5669L42.2344 84.0551L42.8189 82.028L43.6626 79.1015L44.9177 79.6446L46.8483 80.4815Z" fill="#FFB6B6"/>
<path d="M60.421 80.8005C59.4532 81.2719 58.4657 81.7057 57.4585 82.1017L56.4736 80.431L59.6483 79.0248L60.421 80.8005Z" fill="#FFB6B6"/>
<path d="M67.1197 73.207V76.7262C66.5342 77.1623 65.937 77.5829 65.3281 77.988V73.207H67.1197Z" fill="#CACACA"/>
<path d="M73.4131 70.9781C72.9096 71.5414 72.3912 72.0902 71.8577 72.6246C70.6022 73.8858 69.2691 75.0659 67.8663 76.1578H59.8795C59.6674 76.1579 59.4578 76.1122 59.2647 76.0239C59.0716 75.9357 58.8993 75.8068 58.7595 75.646L58.7585 75.643C58.592 75.4534 58.4762 75.2241 58.4222 74.9767L58.4212 74.9747C58.3987 74.8685 58.3873 74.7602 58.3872 74.6516V72.4843C58.3875 72.0851 58.5447 71.7023 58.8245 71.4199C59.1043 71.1375 59.4837 70.9786 59.8795 70.9781H73.4131Z" fill="#3F3D56"/>
<path d="M76.7037 62.5185L75.838 66.2597C75.9226 66.8017 75.9508 67.3512 75.9221 67.8991C75.5117 68.4543 75.0883 68.9984 74.652 69.5315C74.2496 70.0231 73.8366 70.5053 73.4129 70.9781C72.9095 71.5414 72.391 72.0902 71.8576 72.6246C70.4684 73.0647 68.831 73.2444 67.1195 73.2565C66.529 73.2616 65.9295 73.2454 65.328 73.2131C62.8889 73.0839 60.4218 72.6892 58.4011 72.2793C57.8666 72.1723 57.3642 72.0633 56.9018 71.9573C56.0261 71.7584 55.2934 71.5727 54.763 71.4313C54.1655 71.2739 53.8252 71.1719 53.8252 71.1719L51.5522 75.011L49.4885 78.4958L46.8292 81.919C46.575 81.9422 46.3204 81.9618 46.0655 81.9776C45.7953 81.9967 45.5247 82.0122 45.2538 82.024C45.0397 82.0351 44.8265 82.0432 44.6113 82.0492L44.5382 82.0725L44.4782 82.0533L43.5133 81.7434L43.1881 81.6394L42.0181 81.2639C42.0181 81.2639 42.2793 80.434 42.7367 79.05C42.9048 78.5422 44.0958 74.7879 45.3419 71.5101C45.7112 70.5369 46.0936 69.5496 46.4869 68.5674C46.8092 67.7608 47.1374 66.9572 47.4697 66.1648C48.0472 64.7909 50.8376 64.0499 54.1234 63.6612C54.2905 63.642 54.4587 63.6229 54.6278 63.6047C56.3023 63.427 58.0788 63.3352 59.7402 63.2928C60.5719 63.2716 61.3746 63.2635 62.1212 63.2625C62.3624 63.2625 62.597 63.2631 62.8248 63.2645H62.8258C63.4414 63.2675 64.0079 63.2766 64.5063 63.2867C64.6034 63.2887 64.6974 63.2918 64.7895 63.2938H64.7905C64.8526 63.2948 64.9136 63.2968 64.9737 63.2978C66.0636 63.3261 66.7322 63.3604 66.7322 63.3604L66.9914 61.3091L67.0444 60.8952L67.0945 60.5015V60.5005L67.1005 60.451L67.1415 60.45L67.8622 60.4359L73.9193 60.3168L76.4993 60.2065L76.7037 62.5185Z" fill="#2F2E41"/>
<path d="M60.2668 79.1146C60.0196 79.2418 59.7704 79.367 59.5202 79.4882C58.5524 79.9596 57.5649 80.3933 56.5577 80.7894C56.2704 80.9035 55.9822 81.0135 55.6909 81.1195C55.6589 81.0741 55.6259 81.0286 55.5928 80.9832C54.2037 79.0601 53.3389 77.8346 51.5524 75.011C50.8048 73.8299 50.0531 72.5983 49.3235 71.3405L54.606 68.8531L55.1985 68.5745L56.902 71.9573L58.4213 74.9747L58.7596 75.646L60.2668 79.1146Z" fill="#2F2E41"/>
<path d="M68.8352 38.3664C71.523 38.3664 73.7019 36.1686 73.7019 33.4576C73.7019 30.7466 71.523 28.5489 68.8352 28.5489C66.1474 28.5489 63.9685 30.7466 63.9685 33.4576C63.9685 36.1686 66.1474 38.3664 68.8352 38.3664Z" fill="#FFB6B6"/>
<path d="M77.5225 48.7156C77.4825 44.6615 77.6006 45.8355 77.2823 44.4394C76.4276 40.6861 72.8795 40.0016 72.261 39.9168C72.1951 39.7399 72.0939 39.5786 71.9635 39.4428C71.8332 39.3071 71.6765 39.1999 71.5033 39.1278C71.3301 39.0558 71.1441 39.0204 70.9567 39.024C70.7694 39.0276 70.5848 39.07 70.4144 39.1486L69.2303 39.768C68.0823 40.298 68.7791 41.0636 68.3827 42.272L67.9664 43.5541L64.5544 53.0666L65.245 56.6856L65.246 56.6876L65.7114 59.1256L67.0914 60.7113L67.0656 60.4581L67.0346 60.5066L67.0336 60.5076L66.9535 60.6277C67.0646 60.6893 67.1747 60.7499 67.2828 60.8104C67.563 60.9659 67.8363 61.1183 68.1025 61.2677C68.1665 61.3041 68.2296 61.3394 68.2926 61.3757H68.2936C68.3337 61.398 68.3737 61.4202 68.4127 61.4424C69.4116 62.0057 65.7144 63.0313 66.5361 63.5129C66.6502 63.5795 66.7633 63.6461 66.8744 63.7117C70.6577 65.9437 73.6762 68.7239 74.6521 69.5315C75.0884 68.9985 75.5118 68.4544 75.9221 67.8991C76.2945 67.3974 76.6551 66.8869 77.0041 66.3677C77.0651 65.9619 77.1062 65.5561 77.1462 65.1583C77.1942 64.6798 76.944 60.2471 77.0281 59.7595C77.0651 59.5435 76.923 59.3386 76.7859 59.1407C76.6588 58.956 76.5387 58.7823 76.5637 58.6188C76.5897 58.4502 76.7739 58.2665 76.953 58.0878C77.1482 57.892 77.3504 57.6901 77.3794 57.4771C77.4595 56.8835 77.1302 56.2879 77.1922 55.6903C77.2943 54.7181 77.3727 53.7429 77.4274 52.7647C77.5045 51.414 77.5362 50.0643 77.5225 48.7156Z" fill="#6C63FF"/>
<path d="M50.0726 58.6581C50.2736 58.4445 50.5185 58.2779 50.7901 58.1701C51.0618 58.0623 51.3536 58.0159 51.645 58.0341C51.9364 58.0524 52.2202 58.1348 52.4766 58.2757C52.7329 58.4166 52.9556 58.6124 53.1288 58.8494L59.9057 56.7263L58.8801 60.2991L52.6019 61.7675C52.1878 62.0346 51.691 62.1392 51.2055 62.0615C50.7201 61.9838 50.2798 61.7292 49.968 61.3459C49.6563 60.9626 49.4947 60.4774 49.514 59.982C49.5333 59.4866 49.732 59.0156 50.0726 58.6582L50.0726 58.6581Z" fill="#FFB6B6"/>
<path d="M58.2886 60.6346L70.8676 58.0188L67.603 58.8344C67.64 58.7357 71.3091 48.929 71.7548 46.7291C72.0374 45.4027 71.8617 44.0188 71.2569 42.807L71.2402 42.7779L71.2095 42.7649C70.5819 42.5008 69.8838 42.4604 69.2303 42.6502C68.5768 42.84 68.007 43.2488 67.6147 43.8091C65.7352 46.5246 64.5071 49.6435 64.0274 52.9197L63.7567 54.7836L59.3218 56.1218L58.2886 60.6346Z" fill="#6C63FF"/>
<path d="M34.846 56.6399C34.8901 56.7694 34.9737 56.8815 35.0849 56.96C35.1961 57.0386 35.3291 57.0796 35.4648 57.0771L38.1163 57.0083C38.253 57.0056 38.3852 56.9584 38.4931 56.8736C38.601 56.7889 38.6788 56.6712 38.7149 56.5382L39.0901 52.4914C39.2232 52.5522 39.3681 52.5822 39.5143 52.5793C39.7706 52.5728 40.0139 52.4639 40.1907 52.2764C40.3674 52.089 40.4631 51.8384 40.4566 51.5798C40.4502 51.3212 40.3422 51.0758 40.1564 50.8975C39.9705 50.7193 39.7221 50.6228 39.4657 50.6293C39.4073 50.6291 39.3491 50.6352 39.292 50.6475C39.2298 50.5797 39.1544 50.5258 39.0703 50.4893C38.9863 50.4527 38.8956 50.4343 38.8041 50.4352L34.7256 50.5414C34.6918 50.5427 34.6581 50.5469 34.625 50.554C34.5356 50.5709 34.4507 50.6068 34.3762 50.6595C34.3017 50.7121 34.2392 50.7803 34.193 50.8593C34.1468 50.9384 34.1179 51.0265 34.1083 51.1177C34.0987 51.209 34.1086 51.3013 34.1373 51.3884L34.846 56.6399ZM39.167 52.2166L39.434 51.2523C39.4644 51.1409 39.4651 51.0234 39.4361 50.9116C39.449 50.9116 39.4605 50.9054 39.4734 50.9053C39.6565 50.9015 39.8336 50.9711 39.9659 51.0988C40.0982 51.2264 40.1749 51.4018 40.1792 51.5865C40.1835 51.7711 40.115 51.9499 39.9887 52.0837C39.8625 52.2175 39.6888 52.2954 39.5058 52.3002C39.3874 52.3039 39.2703 52.275 39.167 52.2166Z" fill="#2F2E41"/>
<path d="M34.625 50.554C34.7119 51.0552 35.6888 51.4075 36.8635 51.3462C37.9437 51.296 38.8269 50.9135 38.9887 50.46C38.9288 50.4422 38.8666 50.4338 38.8041 50.4352L34.7256 50.5414C34.6918 50.5427 34.6581 50.5469 34.625 50.554Z" fill="#3F3D56"/>
<path d="M16.8887 46.8906V55.5424C16.8888 55.6526 16.9322 55.7584 17.0095 55.8363C17.0868 55.9143 17.1916 55.9581 17.3009 55.9582H30.0122C30.1216 55.9581 30.2264 55.9143 30.3037 55.8363C30.381 55.7584 30.4244 55.6526 30.4245 55.5424V46.8906C30.4242 46.7804 30.3807 46.6749 30.3034 46.597C30.2262 46.5191 30.1215 46.4754 30.0122 46.4752H17.3009C17.1917 46.4754 17.087 46.5191 17.0097 46.597C16.9325 46.6749 16.8889 46.7804 16.8887 46.8906Z" fill="#3F3D56"/>
<path d="M17.187 46.9983V55.4357C17.1871 55.4946 17.2104 55.5511 17.2517 55.5927C17.293 55.6344 17.3489 55.6578 17.4073 55.6579H29.9066C29.965 55.6578 30.021 55.6344 30.0623 55.5927C30.1036 55.5511 30.1268 55.4946 30.1269 55.4357V46.9983C30.1269 46.9393 30.1037 46.8827 30.0624 46.841C30.0211 46.7992 29.965 46.7757 29.9066 46.7756H17.4073C17.3489 46.7757 17.2928 46.7992 17.2515 46.841C17.2102 46.8827 17.187 46.9393 17.187 46.9983Z" fill="#6C63FF"/>
<path d="M16.623 57.2297C16.6462 57.2592 16.6758 57.2829 16.7095 57.2992C16.7432 57.3155 16.7801 57.3238 16.8175 57.3236H30.4283C30.4655 57.3236 30.5023 57.3152 30.5359 57.299C30.5695 57.2828 30.5991 57.2593 30.6225 57.2301C30.646 57.201 30.6627 57.1669 30.6714 57.1304C30.6802 57.0939 30.6808 57.0559 30.6731 57.0192L30.4618 56.0069C30.4531 55.9657 30.4342 55.9272 30.407 55.8952C30.3798 55.8631 30.345 55.8385 30.3059 55.8234C30.2776 55.8122 30.2474 55.8065 30.217 55.8065H17.0279C16.9975 55.8065 16.9674 55.8122 16.939 55.8234C16.8999 55.8385 16.8652 55.8631 16.8379 55.8952C16.8107 55.9272 16.7919 55.9657 16.7831 56.0069L16.5718 57.0192C16.5643 57.0559 16.565 57.0939 16.5738 57.1303C16.5827 57.1667 16.5995 57.2007 16.623 57.2297Z" fill="#2F2E41"/>
<path d="M29.75 56.2425H30.0715C30.0985 56.2425 30.1204 56.2204 30.1204 56.1932V56.0381C30.1204 56.0109 30.0985 55.9888 30.0715 55.9888H29.75C29.723 55.9888 29.7012 56.0109 29.7012 56.0381V56.1932C29.7012 56.2204 29.723 56.2425 29.75 56.2425Z" fill="#3F3D56"/>
<path d="M28.9114 56.2425H29.2329C29.2599 56.2425 29.2817 56.2204 29.2817 56.1932V56.0381C29.2817 56.0109 29.2599 55.9888 29.2329 55.9888H28.9114C28.8844 55.9888 28.8625 56.0109 28.8625 56.0381V56.1932C28.8625 56.2204 28.8844 56.2425 28.9114 56.2425Z" fill="#3F3D56"/>
<path d="M28.073 56.2425H28.3945C28.4215 56.2425 28.4434 56.2204 28.4434 56.1932V56.0381C28.4434 56.0109 28.4215 55.9888 28.3945 55.9888H28.073C28.046 55.9888 28.0242 56.0109 28.0242 56.0381V56.1932C28.0242 56.2204 28.046 56.2425 28.073 56.2425Z" fill="#3F3D56"/>
<path d="M27.2346 56.2425H27.5561C27.5831 56.2425 27.605 56.2204 27.605 56.1932V56.0381C27.605 56.0109 27.5831 55.9888 27.5561 55.9888H27.2346C27.2076 55.9888 27.1858 56.0109 27.1858 56.0381V56.1932C27.1858 56.2204 27.2076 56.2425 27.2346 56.2425Z" fill="#3F3D56"/>
<path d="M26.3963 56.2425H26.7177C26.7447 56.2425 26.7666 56.2204 26.7666 56.1932V56.0381C26.7666 56.0109 26.7447 55.9888 26.7177 55.9888H26.3963C26.3693 55.9888 26.3474 56.0109 26.3474 56.0381V56.1932C26.3474 56.2204 26.3693 56.2425 26.3963 56.2425Z" fill="#3F3D56"/>
<path d="M25.5579 56.2425H25.8794C25.9063 56.2425 25.9282 56.2204 25.9282 56.1932V56.0381C25.9282 56.0109 25.9063 55.9888 25.8794 55.9888H25.5579C25.5309 55.9888 25.509 56.0109 25.509 56.0381V56.1932C25.509 56.2204 25.5309 56.2425 25.5579 56.2425Z" fill="#3F3D56"/>
<path d="M24.7195 56.2425H25.041C25.068 56.2425 25.0898 56.2204 25.0898 56.1932V56.0381C25.0898 56.0109 25.068 55.9888 25.041 55.9888H24.7195C24.6925 55.9888 24.6706 56.0109 24.6706 56.0381V56.1932C24.6706 56.2204 24.6925 56.2425 24.7195 56.2425Z" fill="#3F3D56"/>
<path d="M23.8811 56.2425H24.2026C24.2296 56.2425 24.2515 56.2204 24.2515 56.1932V56.0381C24.2515 56.0109 24.2296 55.9888 24.2026 55.9888H23.8811C23.8541 55.9888 23.8323 56.0109 23.8323 56.0381V56.1932C23.8323 56.2204 23.8541 56.2425 23.8811 56.2425Z" fill="#3F3D56"/>
<path d="M23.0425 56.2425H23.364C23.391 56.2425 23.4128 56.2204 23.4128 56.1932V56.0381C23.4128 56.0109 23.391 55.9888 23.364 55.9888H23.0425C23.0155 55.9888 22.9936 56.0109 22.9936 56.0381V56.1932C22.9936 56.2204 23.0155 56.2425 23.0425 56.2425Z" fill="#3F3D56"/>
<path d="M22.2041 56.2425H22.5256C22.5526 56.2425 22.5745 56.2204 22.5745 56.1932V56.0381C22.5745 56.0109 22.5526 55.9888 22.5256 55.9888H22.2041C22.1771 55.9888 22.1553 56.0109 22.1553 56.0381V56.1932C22.1553 56.2204 22.1771 56.2425 22.2041 56.2425Z" fill="#3F3D56"/>
<path d="M21.3657 56.2425H21.6872C21.7142 56.2425 21.7361 56.2204 21.7361 56.1932V56.0381C21.7361 56.0109 21.7142 55.9888 21.6872 55.9888H21.3657C21.3388 55.9888 21.3169 56.0109 21.3169 56.0381V56.1932C21.3169 56.2204 21.3388 56.2425 21.3657 56.2425Z" fill="#3F3D56"/>
<path d="M20.5274 56.2425H20.8488C20.8758 56.2425 20.8977 56.2204 20.8977 56.1932V56.0381C20.8977 56.0109 20.8758 55.9888 20.8488 55.9888H20.5274C20.5004 55.9888 20.4785 56.0109 20.4785 56.0381V56.1932C20.4785 56.2204 20.5004 56.2425 20.5274 56.2425Z" fill="#3F3D56"/>
<path d="M19.689 56.2425H20.0105C20.0375 56.2425 20.0593 56.2204 20.0593 56.1932V56.0381C20.0593 56.0109 20.0375 55.9888 20.0105 55.9888H19.689C19.662 55.9888 19.6401 56.0109 19.6401 56.0381V56.1932C19.6401 56.2204 19.662 56.2425 19.689 56.2425Z" fill="#3F3D56"/>
<path d="M18.8506 56.2425H19.1721C19.1991 56.2425 19.2209 56.2204 19.2209 56.1932V56.0381C19.2209 56.0109 19.1991 55.9888 19.1721 55.9888H18.8506C18.8236 55.9888 18.8017 56.0109 18.8017 56.0381V56.1932C18.8017 56.2204 18.8236 56.2425 18.8506 56.2425Z" fill="#3F3D56"/>
<path d="M18.0122 56.2425H18.3337C18.3607 56.2425 18.3826 56.2204 18.3826 56.1932V56.0381C18.3826 56.0109 18.3607 55.9888 18.3337 55.9888H18.0122C17.9852 55.9888 17.9634 56.0109 17.9634 56.0381V56.1932C17.9634 56.2204 17.9852 56.2425 18.0122 56.2425Z" fill="#3F3D56"/>
<path d="M17.1736 56.2425H17.4951C17.5221 56.2425 17.5439 56.2204 17.5439 56.1932V56.0381C17.5439 56.0109 17.5221 55.9888 17.4951 55.9888H17.1736C17.1466 55.9888 17.1247 56.0109 17.1247 56.0381V56.1932C17.1247 56.2204 17.1466 56.2425 17.1736 56.2425Z" fill="#3F3D56"/>
<path d="M29.7598 56.6653H30.0813C30.1083 56.6653 30.1301 56.6433 30.1301 56.6161V56.4609C30.1301 56.4337 30.1083 56.4116 30.0813 56.4116H29.7598C29.7328 56.4116 29.7109 56.4337 29.7109 56.4609V56.6161C29.7109 56.6433 29.7328 56.6653 29.7598 56.6653Z" fill="#3F3D56"/>
<path d="M28.9214 56.6653H29.2429C29.2699 56.6653 29.2917 56.6433 29.2917 56.6161V56.4609C29.2917 56.4337 29.2699 56.4116 29.2429 56.4116H28.9214C28.8944 56.4116 28.8725 56.4337 28.8725 56.4609V56.6161C28.8725 56.6433 28.8944 56.6653 28.9214 56.6653Z" fill="#3F3D56"/>
<path d="M28.083 56.6653H28.4045C28.4315 56.6653 28.4534 56.6433 28.4534 56.6161V56.4609C28.4534 56.4337 28.4315 56.4116 28.4045 56.4116H28.083C28.056 56.4116 28.0342 56.4337 28.0342 56.4609V56.6161C28.0342 56.6433 28.056 56.6653 28.083 56.6653Z" fill="#3F3D56"/>
<path d="M27.2446 56.6653H27.5661C27.5931 56.6653 27.615 56.6433 27.615 56.6161V56.4609C27.615 56.4337 27.5931 56.4116 27.5661 56.4116H27.2446C27.2177 56.4116 27.1958 56.4337 27.1958 56.4609V56.6161C27.1958 56.6433 27.2177 56.6653 27.2446 56.6653Z" fill="#3F3D56"/>
<path d="M26.4063 56.6653H26.7278C26.7547 56.6653 26.7766 56.6433 26.7766 56.6161V56.4609C26.7766 56.4337 26.7547 56.4116 26.7278 56.4116H26.4063C26.3793 56.4116 26.3574 56.4337 26.3574 56.4609V56.6161C26.3574 56.6433 26.3793 56.6653 26.4063 56.6653Z" fill="#3F3D56"/>
<path d="M25.5676 56.6653H25.8891C25.9161 56.6653 25.938 56.6433 25.938 56.6161V56.4609C25.938 56.4337 25.9161 56.4116 25.8891 56.4116H25.5676C25.5407 56.4116 25.5188 56.4337 25.5188 56.4609V56.6161C25.5188 56.6433 25.5407 56.6653 25.5676 56.6653Z" fill="#3F3D56"/>
<path d="M24.7293 56.6653H25.0507C25.0777 56.6653 25.0996 56.6433 25.0996 56.6161V56.4609C25.0996 56.4337 25.0777 56.4116 25.0507 56.4116H24.7293C24.7023 56.4116 24.6804 56.4337 24.6804 56.4609V56.6161C24.6804 56.6433 24.7023 56.6653 24.7293 56.6653Z" fill="#3F3D56"/>
<path d="M23.8909 56.6653H24.2124C24.2394 56.6653 24.2612 56.6433 24.2612 56.6161V56.4609C24.2612 56.4337 24.2394 56.4116 24.2124 56.4116H23.8909C23.8639 56.4116 23.842 56.4337 23.842 56.4609V56.6161C23.842 56.6433 23.8639 56.6653 23.8909 56.6653Z" fill="#3F3D56"/>
<path d="M23.0525 56.6653H23.374C23.401 56.6653 23.4229 56.6433 23.4229 56.6161V56.4609C23.4229 56.4337 23.401 56.4116 23.374 56.4116H23.0525C23.0255 56.4116 23.0036 56.4337 23.0036 56.4609V56.6161C23.0036 56.6433 23.0255 56.6653 23.0525 56.6653Z" fill="#3F3D56"/>
<path d="M22.2141 56.6653H22.5356C22.5626 56.6653 22.5845 56.6433 22.5845 56.6161V56.4609C22.5845 56.4337 22.5626 56.4116 22.5356 56.4116H22.2141C22.1871 56.4116 22.1653 56.4337 22.1653 56.4609V56.6161C22.1653 56.6433 22.1871 56.6653 22.2141 56.6653Z" fill="#3F3D56"/>
<path d="M21.3757 56.6653H21.6972C21.7242 56.6653 21.7461 56.6433 21.7461 56.6161V56.4609C21.7461 56.4337 21.7242 56.4116 21.6972 56.4116H21.3757C21.3488 56.4116 21.3269 56.4337 21.3269 56.4609V56.6161C21.3269 56.6433 21.3488 56.6653 21.3757 56.6653Z" fill="#3F3D56"/>
<path d="M20.5374 56.6653H20.8589C20.8858 56.6653 20.9077 56.6433 20.9077 56.6161V56.4609C20.9077 56.4337 20.8858 56.4116 20.8589 56.4116H20.5374C20.5104 56.4116 20.4885 56.4337 20.4885 56.4609V56.6161C20.4885 56.6433 20.5104 56.6653 20.5374 56.6653Z" fill="#3F3D56"/>
<path d="M19.6987 56.6653H20.0202C20.0472 56.6653 20.0691 56.6433 20.0691 56.6161V56.4609C20.0691 56.4337 20.0472 56.4116 20.0202 56.4116H19.6987C19.6718 56.4116 19.6499 56.4337 19.6499 56.4609V56.6161C19.6499 56.6433 19.6718 56.6653 19.6987 56.6653Z" fill="#3F3D56"/>
<path d="M18.8604 56.6653H19.1819C19.2088 56.6653 19.2307 56.6433 19.2307 56.6161V56.4609C19.2307 56.4337 19.2088 56.4116 19.1819 56.4116H18.8604C18.8334 56.4116 18.8115 56.4337 18.8115 56.4609V56.6161C18.8115 56.6433 18.8334 56.6653 18.8604 56.6653Z" fill="#3F3D56"/>
<path d="M18.022 56.6653H18.3435C18.3705 56.6653 18.3923 56.6433 18.3923 56.6161V56.4609C18.3923 56.4337 18.3705 56.4116 18.3435 56.4116H18.022C17.995 56.4116 17.9731 56.4337 17.9731 56.4609V56.6161C17.9731 56.6433 17.995 56.6653 18.022 56.6653Z" fill="#3F3D56"/>
<path d="M17.1836 56.6653H17.5051C17.5321 56.6653 17.554 56.6433 17.554 56.6161V56.4609C17.554 56.4337 17.5321 56.4116 17.5051 56.4116H17.1836C17.1566 56.4116 17.1347 56.4337 17.1347 56.4609V56.6161C17.1347 56.6433 17.1566 56.6653 17.1836 56.6653Z" fill="#3F3D56"/>
<path d="M22.8009 57.1727H26.0569C26.0838 57.1727 26.1057 57.1507 26.1057 57.1234V56.9683C26.1057 56.9411 26.0838 56.919 26.0569 56.919H22.8009C22.7739 56.919 22.7521 56.9411 22.7521 56.9683V57.1234C22.7521 57.1507 22.7739 57.1727 22.8009 57.1727Z" fill="#3F3D56"/>
<path d="M47.3365 56.7593L53.0253 51.7427C53.2958 51.5042 52.78 52.2148 53.0165 52.4877C53.253 52.7605 54.1522 52.4922 53.8817 52.7307L48.1929 57.7473L46.7522 58.0791L47.3365 56.7593Z" fill="#3F3D56"/>
<path d="M47.3365 56.7593L47.4744 56.6377C47.6584 56.7308 47.8227 56.8593 47.9578 57.0159C48.1178 57.2001 48.234 57.4186 48.2976 57.6549L48.1929 57.7473L47.0447 58.0116L46.7522 58.0791L46.8741 57.8026L47.3365 56.7593Z" fill="#CCCCCC"/>
<path d="M46.8741 57.8026C46.9168 57.8215 46.9544 57.8503 46.984 57.8866C47.0136 57.9229 47.0344 57.9657 47.0446 58.0115L46.7522 58.079L46.8741 57.8026Z" fill="#3F3D56"/>
<path d="M84.4543 40.6808C83.9178 41.4904 83.0591 42.0507 82.1343 42.3283C81.7587 42.441 81.3708 42.5075 80.9793 42.5261C80.931 42.0796 80.8152 41.6432 80.636 41.232C80.6543 41.6697 80.5939 42.1071 80.4579 42.5231C79.87 42.4895 79.2953 42.3342 78.7695 42.0668C77.7436 41.5368 76.9539 40.5233 76.7787 39.3735C76.5726 38.0308 77.1761 36.7124 77.3943 35.3718C77.6135 34.0312 77.2021 32.3332 75.901 31.9809C74.9102 31.7124 75.0212 31.8285 74.1975 32.4453C75.0544 33.7231 71.8896 38.4059 70.5945 37.9975C69.8622 37.7667 69.3934 37.089 69.2423 37.089C68.2244 38.8576 70.1411 41.8377 68.2094 42.4565L68.3686 42.296C69.5346 40.8494 67.0975 37.7876 68.2635 36.3409C68.5888 35.9361 68.9351 35.4566 68.839 34.9448C68.7479 34.4582 67.9822 34.2008 67.758 34.6006C68.1614 33.6688 67.5659 32.4251 66.58 32.1858C65.7043 31.9728 65.7203 32.2353 64.8416 32.3494C64.7841 31.9663 64.6768 31.5926 64.5223 31.2379C64.5384 31.6201 64.4942 32.0024 64.3912 32.3706C64.0807 32.3645 63.781 32.2552 63.5384 32.0597C62.8218 31.4772 62.967 30.2537 63.6065 29.5864C64.247 28.9191 65.1989 28.6788 66.1066 28.5234C66.3705 26.6699 71.4407 26.4765 72.1128 28.3285C72.399 26.9455 74.1155 26.2278 75.4496 26.6568C76.7838 27.0859 77.7095 28.3427 78.197 29.6671C78.6844 30.9906 78.8205 32.415 79.1208 33.794C79.421 35.173 79.9284 36.5772 80.9733 37.517C82.0182 38.4558 83.7207 38.7668 84.8216 37.8946C85.1689 38.8031 84.9898 39.8702 84.4543 40.6808Z" fill="#2F2E41"/>
</g>
<defs>
<clipPath id="clip0_413_1171">
<rect width="85" height="85" fill="white"/>
</clipPath>
</defs>
</svg>
