<svg width="112" height="130" viewBox="0 0 112 130" fill="none" xmlns="http://www.w3.org/2000/svg">
<path d="M55.8379 130C86.6763 130 111.676 104.961 111.676 74.0741C111.676 43.1871 86.6763 18.1482 55.8379 18.1482C24.9995 18.1482 0 43.1871 0 74.0741C0 104.961 24.9995 130 55.8379 130Z" fill="#3F3D56"/>
<path d="M55.8376 125.37C84.1232 125.37 107.053 102.404 107.053 74.0741C107.053 45.7439 84.1232 22.7778 55.8376 22.7778C27.5521 22.7778 4.62207 45.7439 4.62207 74.0741C4.62207 102.404 27.5521 125.37 55.8376 125.37Z" fill="white"/>
<path d="M55.6531 81.111C59.4313 81.111 62.4942 78.0434 62.4942 74.2592C62.4942 70.475 59.4313 67.4073 55.6531 67.4073C51.8749 67.4073 48.812 70.475 48.812 74.2592C48.812 78.0434 51.8749 81.111 55.6531 81.111Z" fill="#3F3D56"/>
<path d="M57.1321 25.3703H54.1738V30.9259H57.1321V25.3703Z" fill="#3F3D56"/>
<path d="M81.803 109.883L79.187 111.274L81.7914 116.172L84.4074 114.781L81.803 109.883Z" fill="#3F3D56"/>
<path d="M34.1371 112.164L31.521 110.773L28.9166 115.671L31.5327 117.062L34.1371 112.164Z" fill="#3F3D56"/>
<path d="M9.81307 57.8331L8.89746 60.6511L14.1819 62.3681L15.0975 59.5501L9.81307 57.8331Z" fill="#3F3D56"/>
<path d="M101.718 59.719L100.803 56.901L95.5274 58.6151L96.443 61.433L101.718 59.719Z" fill="#3F3D56"/>
<path d="M63.0487 4.62964H48.627V21.2963H63.0487V4.62964Z" fill="#3F3D56"/>
<path d="M55.8377 9.25926C65.0279 9.25926 72.4781 7.1865 72.4781 4.62963C72.4781 2.07275 65.0279 0 55.8377 0C46.6474 0 39.1973 2.07275 39.1973 4.62963C39.1973 7.1865 46.6474 9.25926 55.8377 9.25926Z" fill="#3F3D56"/>
<path d="M51.78 36.63C51.84 35.72 52.23 35.25 52.86 35.25C53.47 35.25 53.86 35.64 53.86 36.31C53.86 36.94 53.64 37.34 52.64 38.3C51.55 39.35 50.91 40.19 50.46 41.13V42.02H55.19V41.02H51.76C52.07 40.4 52.57 39.84 53.62 38.9C54.79 37.81 55.16 37.17 55.16 36.32C55.16 35 54.25 34.26 52.88 34.26C51.63 34.26 50.7 35 50.53 36.37L51.78 36.63ZM60.2991 34.39H56.2591L56.1091 38.67L57.1491 38.82C57.3191 38.27 57.7191 37.96 58.2291 37.96C58.9291 37.96 59.3391 38.52 59.3391 39.51C59.3391 40.57 58.8891 41.19 58.1691 41.19C57.6091 41.19 57.2191 40.87 57.0791 40.13L55.8591 40.5C56.1291 41.62 56.9791 42.16 58.1791 42.16C59.6191 42.16 60.6191 41.1 60.6191 39.49C60.6191 37.98 59.7291 36.99 58.4691 36.99C57.8991 36.99 57.4291 37.25 57.1591 37.65C57.1891 37.43 57.2091 37.16 57.2191 36.93L57.2791 35.39H60.2991V34.39Z" fill="#2F2E41"/>
<path d="M85.1547 61.9246L86.4032 65.7668L90.52 64.5869L90.3413 63.5515C89.7657 63.5597 89.3473 63.2751 89.1897 62.7901C88.9733 62.1243 89.3792 61.5614 90.3208 61.2554C91.3289 60.9279 92.0576 61.1643 92.2801 61.849C92.4532 62.3816 92.2693 62.8514 91.6088 63.2132L92.3377 64.2592C93.3195 63.6563 93.5704 62.681 93.1995 61.5398C92.7546 60.1702 91.4374 59.5467 89.9062 60.0443C88.4701 60.5109 87.8036 61.6632 88.193 62.8616C88.3691 63.4037 88.7616 63.7703 89.2255 63.9035C89.007 63.943 88.744 64.0074 88.5222 64.0689L87.039 64.4878L86.1058 61.6156L85.1547 61.9246Z" fill="#2F2E41"/>
<path d="M73.7378 103.425L72.8372 103.904C72.5523 104.497 72.1816 105.056 71.6881 105.534L72.3576 106.367C72.7587 105.95 73.0699 105.513 73.2833 105.105L75.8373 109.908L74.5128 110.612L74.9682 111.469L78.606 109.535L78.1506 108.678L76.888 109.349L73.7378 103.425ZM77.8317 101.158C76.4719 101.88 76.2249 103.269 77.5535 105.768C78.8821 108.266 80.1366 108.879 81.5228 108.142C82.9002 107.41 83.1197 105.991 81.7911 103.492C80.4671 101.002 79.1914 100.435 77.8317 101.158ZM78.2964 102.032C79.0028 101.656 79.6004 102.12 80.6567 104.106C81.7084 106.084 81.7732 106.888 81.058 107.268C80.3605 107.639 79.7441 107.14 78.6878 105.153C77.6268 103.158 77.6077 102.398 78.2964 102.032Z" fill="#2F2E41"/>
<path d="M35.0866 102.634L34.186 102.156C33.5349 102.251 32.8638 102.257 32.1918 102.115L31.8755 103.136C32.4456 103.235 32.9821 103.248 33.4397 103.197L30.8857 108L29.5613 107.296L29.1059 108.153L32.7437 110.087L33.1991 109.23L31.9365 108.559L35.0866 102.634ZM40.9869 105.828L37.4198 103.932L35.278 107.64L36.1259 108.261C36.5342 107.855 37.0329 107.769 37.4832 108.009C38.1013 108.337 38.2004 109.024 37.7356 109.898C37.2379 110.834 36.5495 111.17 35.9138 110.832C35.4194 110.569 35.2253 110.104 35.4491 109.385L34.1982 109.139C33.9107 110.254 34.4077 111.13 35.4673 111.694C36.7387 112.37 38.1193 111.903 38.8751 110.482C39.5841 109.148 39.263 107.856 38.1505 107.265C37.6472 106.997 37.1102 107.006 36.684 107.233C36.8138 107.052 36.9582 106.823 37.075 106.625L37.8509 105.293L40.5174 106.711L40.9869 105.828Z" fill="#2F2E41"/>
<path d="M21.9134 58.9051C22.7603 59.2433 23.0868 59.7595 22.8921 60.3587C22.7036 60.9388 22.2122 61.1892 21.575 60.9822C20.9758 60.7875 20.6634 60.4546 20.0594 59.2069C19.3976 57.8458 18.7965 56.9776 18.0415 56.2591L17.1951 55.9841L15.7334 60.4826L16.6845 60.7916L17.7444 57.5295C18.2383 58.0159 18.6164 58.6645 19.1859 59.9536C19.861 61.4031 20.3553 61.9528 21.1637 62.2154C22.4191 62.6233 23.4041 61.9866 23.8275 60.6836C24.2137 59.4948 23.7973 58.3816 22.5469 57.7966L21.9134 58.9051ZM22.1621 65.8089C22.638 64.3443 21.8512 63.1739 19.1597 62.2994C16.4682 61.4248 15.1401 61.8555 14.655 63.3487C14.1729 64.8323 15.0009 66.0056 17.6924 66.8801C20.3743 67.7516 21.6863 67.2736 22.1621 65.8089ZM21.2206 65.503C20.9734 66.2639 20.2214 66.3455 18.0815 65.6502C15.9511 64.958 15.3462 64.425 15.5965 63.6546C15.8406 62.9033 16.6307 62.834 18.7706 63.5293C20.92 64.2277 21.4616 64.7612 21.2206 65.503Z" fill="#2F2E41"/>
</svg>
