<svg width="72" height="72" viewBox="0 0 72 72" fill="none" xmlns="http://www.w3.org/2000/svg">
<path fill-rule="evenodd" clip-rule="evenodd" d="M35.9999 64.7999C43.6382 64.7999 50.9636 61.7657 56.3646 56.3646C61.7657 50.9636 64.7999 43.6382 64.7999 35.9999C64.7999 28.3617 61.7657 21.0363 56.3646 15.6353C50.9636 10.2342 43.6382 7.19995 35.9999 7.19995C28.3617 7.19995 21.0363 10.2342 15.6353 15.6353C10.2342 21.0363 7.19995 28.3617 7.19995 35.9999C7.19995 43.6382 10.2342 50.9636 15.6353 56.3646C21.0363 61.7657 28.3617 64.7999 35.9999 64.7999ZM49.3451 31.3451C50.0009 30.6662 50.3638 29.7568 50.3556 28.8129C50.3474 27.869 49.9688 26.9661 49.3013 26.2986C48.6338 25.6311 47.7309 25.2525 46.787 25.2443C45.8431 25.2361 44.9337 25.599 44.2547 26.2547L32.3999 38.1096L27.7451 33.4548C27.0662 32.799 26.1568 32.4361 25.2129 32.4443C24.269 32.4525 23.3661 32.8311 22.6986 33.4986C22.0311 34.1661 21.6525 35.069 21.6443 36.0129C21.6361 36.9568 21.999 37.8662 22.6548 38.5451L29.8547 45.7451C30.5299 46.42 31.4454 46.7992 32.3999 46.7992C33.3545 46.7992 34.27 46.42 34.9451 45.7451L49.3451 31.3451Z" fill="#6C63FF"/>
</svg>
