<svg width="46" height="60" viewBox="0 0 46 60" fill="none" xmlns="http://www.w3.org/2000/svg">
<path d="M32.7802 30.6022C26.9125 30.6022 21.5635 29.1792 16.8818 26.3726C11.9304 23.4056 1.7191 25.123 0.953351 26.6369L0.0144043 28.8958L2.66066 2.74103L2.76022 2.64839C2.97802 2.44017 8.28139 -2.40144 22.1763 4.40789C32.7225 9.57477 41.3435 7.13965 44.5606 5.8529C44.7251 5.78657 44.9038 5.76309 45.08 5.78466C45.2561 5.80622 45.4238 5.87212 45.5675 5.97618C45.7111 6.08025 45.826 6.21906 45.9012 6.37959C45.9764 6.54012 46.0096 6.71712 45.9976 6.89397L44.543 27.969C44.5297 28.1777 44.4535 28.3776 44.3245 28.5424C44.1955 28.7072 44.0197 28.8292 43.82 28.8924C40.2469 30.0127 36.5252 30.5891 32.7802 30.6022Z" fill="#7879F1"/>
<path d="M1.60833 1.8833C1.18192 1.88379 0.773119 2.05322 0.471605 2.35443C0.170091 2.65563 0.000489725 3.06401 0 3.48998V57.6167C0 58.0428 0.169445 58.4515 0.471065 58.7528C0.772685 59.0541 1.18177 59.2234 1.60833 59.2234C2.03488 59.2234 2.44397 59.0541 2.74559 58.7528C3.04721 58.4515 3.21665 58.0428 3.21665 57.6167V3.48998C3.21616 3.06401 3.04656 2.65563 2.74505 2.35443C2.44353 2.05322 2.03473 1.88379 1.60833 1.8833Z" fill="#434343"/>
</svg>
