<svg width="385" height="251" viewBox="0 0 385 251" fill="none" xmlns="http://www.w3.org/2000/svg">
<g clip-path="url(#clip0_324_1712)">
<path d="M184.064 191.652C184.281 194.45 185.359 197.346 187.627 198.997C189.895 200.647 193.503 200.616 195.235 198.399C195.817 197.566 196.245 196.636 196.498 195.653C197.958 191.044 198.994 186 197.394 181.436C193.786 181.202 189.604 179.506 186.895 182.486C184.708 184.913 183.812 188.417 184.064 191.652Z" fill="#3F3D56"/>
<path d="M200.813 163.453C200.334 167.52 199.519 171.57 199.603 175.666C199.634 177.246 199.802 178.813 199.806 180.401C199.812 184.524 198.725 188.575 196.656 192.142C196.438 192.561 196.146 192.938 195.795 193.254C194.966 193.925 193.716 193.869 192.785 193.355C191.876 192.79 191.137 191.988 190.647 191.036C188.04 186.574 187.966 181.149 186.934 176.089C186.143 172.217 184.757 168.465 184.257 164.547C183.931 162.026 183.98 159.455 183.462 156.965C183.305 156.213 182.864 155.084 182.573 153.975C182.307 152.985 182.16 152.013 182.433 151.345C182.99 149.977 184.813 150.509 185.999 150.593C190.177 150.902 194.373 150.892 198.549 150.562C198.962 150.53 199.431 150.513 199.722 150.806C199.848 150.955 199.944 151.127 200.002 151.313C200.334 152.223 200.588 153.159 200.761 154.111C201.338 157.158 201.177 160.351 200.813 163.453Z" fill="#FABDBD"/>
<g opacity="0.1">
<path opacity="0.1" d="M199.204 150.561C198.988 150.539 198.771 150.539 198.556 150.561C196.554 150.722 194.549 150.803 192.547 150.813C194.766 150.818 196.985 150.734 199.204 150.561Z" fill="black"/>
<path opacity="0.1" d="M193.492 193.355C192.583 192.79 191.844 191.988 191.354 191.036C188.747 186.574 188.673 181.149 187.641 176.089C186.85 172.217 185.464 168.464 184.963 164.547C184.638 162.026 184.687 159.455 184.169 156.965C184.012 156.213 183.571 155.084 183.28 153.975C183.014 152.985 182.867 152.013 183.14 151.345C183.256 151.071 183.451 150.838 183.701 150.676C183.95 150.514 184.243 150.43 184.54 150.436C183.655 150.376 182.79 150.481 182.44 151.345C182.167 152.013 182.314 152.985 182.58 153.975C182.871 155.084 183.312 156.213 183.469 156.965C183.987 159.455 183.938 162.026 184.264 164.547C184.764 168.468 186.15 172.221 186.941 176.089C187.973 181.149 188.047 186.581 190.654 191.036C191.144 191.988 191.883 192.79 192.792 193.355C193.351 193.664 193.991 193.794 194.626 193.726C194.228 193.674 193.844 193.548 193.492 193.355Z" fill="black"/>
</g>
<path d="M214.046 184.902C211.946 189.099 212.296 195.044 212.296 195.044C212.646 209.034 207.046 238.412 207.046 238.412H202.147C202.147 238.412 201.447 205.886 202.147 203.088C202.847 200.29 201.797 190.498 200.747 176.858C199.966 166.716 202.091 157.525 203.232 153.492C203.624 152.093 203.897 151.327 203.897 151.327C203.897 151.327 211.946 139.436 216.495 145.032C217.545 146.333 218.102 148.959 218.294 152.275C218.917 163.215 215.655 181.681 214.046 184.902Z" fill="#FABDBD"/>
<path opacity="0.1" d="M218.294 152.275C218.102 148.96 217.552 146.33 216.495 145.032C215.48 143.787 214.291 143.41 213.059 143.574C214.013 143.732 214.869 144.255 215.445 145.032C216.495 146.333 217.052 148.96 217.244 152.275C217.867 163.215 214.605 181.681 212.996 184.902C210.896 189.099 211.246 195.045 211.246 195.045C211.596 209.034 205.996 238.412 205.996 238.412H207.046C207.046 238.412 212.646 209.034 212.296 195.045C212.296 195.045 211.946 189.099 214.046 184.902C215.655 181.681 218.917 163.215 218.294 152.275Z" fill="black"/>
<path d="M199.599 237.135C199.208 237.442 198.87 237.811 198.598 238.227C197.972 239.409 198.861 240.822 199.813 241.762C200.764 242.703 201.912 243.71 201.912 245.05C201.912 246.127 201.097 247.05 200.183 247.624C199.694 247.932 199.078 248.323 199.179 248.904C199.215 249.051 199.278 249.19 199.365 249.313C200.148 250.513 201.538 251.216 202.945 251.482C204.352 251.747 205.804 251.632 207.235 251.517C207.45 251.524 207.659 251.452 207.823 251.314C207.927 251.174 207.982 251.005 207.981 250.831C208.051 250.09 208.005 249.306 208.331 248.638C208.786 247.725 209.832 247.26 210.43 246.442C211.27 245.323 211.155 243.766 210.836 242.406C210.136 239.444 208.579 236.065 206.241 234.012C203.533 231.655 201.408 235.432 199.599 237.135Z" fill="#3F3D56"/>
<path d="M210.203 60.8505C212.156 57.9337 211.648 53.8558 209.653 50.953C207.659 48.0502 204.453 46.2246 201.146 45.0459C196.687 43.4581 191.77 42.9161 187.189 44.1087C183.543 45.0564 180.267 47.0394 176.83 48.5713C170.75 51.2823 164.14 52.5969 157.484 52.4184C150.096 52.212 142.002 50.32 135.804 54.3559C124.458 61.7319 129.504 81.8067 118.771 90.029C115.877 92.2464 112.234 93.2151 109.014 94.9253C105.794 96.6356 102.743 99.6118 102.82 103.256C102.855 105.005 103.625 106.673 104.569 108.152C108.594 114.528 116.118 118.473 123.653 118.4C131.188 118.326 138.541 114.322 142.884 108.159C143.972 106.617 144.931 104.9 146.509 103.872C149.659 101.808 153.81 103.253 157.568 103.56C165.936 104.242 174.307 97.9646 175.973 89.7283C176.673 86.2134 176.55 82.0131 179.382 79.8062C181.667 78.0261 184.883 78.4073 187.781 78.103C193.079 77.5539 197.261 74.2559 200.138 69.9472C201.457 67.9712 201.611 65.6104 203.41 64.0541C205.349 62.3439 208.348 63.6065 210.203 60.8505Z" fill="#3F3D56"/>
<g opacity="0.1">
<path opacity="0.1" d="M150.485 53.0939C153.554 53.178 156.623 52.9436 159.644 52.3944C158.811 52.4189 157.971 52.4189 157.134 52.3944C151.335 52.2335 145.102 51.0374 139.692 52.4783C143.262 52.5133 146.954 52.9959 150.485 53.0939Z" fill="black"/>
<path opacity="0.1" d="M139.503 104.568C137.925 105.596 136.966 107.313 135.877 108.856C132.532 113.548 127.643 116.917 122.064 118.372C122.474 118.39 122.883 118.4 123.296 118.397C130.838 118.323 138.184 114.319 142.527 108.156C143.615 106.614 144.574 104.897 146.152 103.869L146.425 103.701C143.955 103.361 141.529 103.243 139.503 104.568Z" fill="black"/>
<path opacity="0.1" d="M209.3 50.9427C207.309 48.0539 204.1 46.2143 200.792 45.0357C196.334 43.4479 191.417 42.9058 186.836 44.0984C186.731 44.1229 186.629 44.1544 186.528 44.1823C189.128 44.3273 191.694 44.8504 194.143 45.7352C197.45 46.9138 200.659 48.7534 202.651 51.6422C204.642 54.531 205.153 58.6369 203.2 61.5398C201.345 64.3062 198.346 63.0436 196.383 64.7468C194.584 66.3032 194.43 68.6639 193.111 70.6399C190.636 74.3366 187.193 77.2849 182.906 78.404C184.379 78.2292 185.933 78.2502 187.403 78.0963C192.701 77.5472 196.883 74.2492 199.76 69.9404C201.079 67.9644 201.233 65.6037 203.032 64.0474C204.996 62.3442 207.995 63.6067 209.85 60.8403C211.806 57.9235 211.298 53.8316 209.3 50.9427Z" fill="black"/>
<path opacity="0.1" d="M180.757 78.7959C177.877 79.0966 174.661 78.7189 172.358 80.4991C169.527 82.7059 169.663 86.9063 168.949 90.4211C167.721 96.566 162.73 101.634 156.805 103.519L157.222 103.557C165.59 104.239 173.961 97.9614 175.627 89.7251C176.326 86.2103 176.204 82.01 179.035 79.8031C179.685 79.3171 180.423 78.9609 181.208 78.7539C181.051 78.7574 180.908 78.7819 180.757 78.7959Z" fill="black"/>
</g>
<path d="M265.315 48.3299C265.315 48.3299 256.916 65.1173 254.117 71.4125C251.317 77.7078 225.769 87.1507 222.27 87.5004C221.331 87.629 220.457 88.05 219.771 88.7035C217.794 90.4522 216.67 93.4459 216.67 93.4459C216.67 93.4459 218.07 102.889 216.32 118.627C216.285 118.931 216.254 119.235 216.226 119.529C214.7 134.505 217.895 138.037 217.895 138.037C217.895 138.037 183.949 150.978 184.999 134.19C185.327 128.906 185.278 125.045 184.953 121.817C184.597 118.512 183.924 115.249 182.944 112.073C182.115 109.174 181.124 105.994 180.099 101.665C179.605 99.5044 178.955 97.3829 178.153 95.317C178.129 95.254 178.104 95.1911 178.083 95.1316C176.333 90.7914 174.584 89.389 173.583 88.9343C172.638 88.5235 171.737 88.0172 170.895 87.4234C167.661 85.0907 160.721 79.8621 154.541 73.6858C146.142 65.2921 137.743 45.3571 137.743 45.3571C137.743 45.3571 135.293 33.8158 140.892 24.373C146.492 14.9301 144.042 42.909 144.042 42.909C144.042 42.909 154.191 56.5487 156.641 62.844C157.901 66.0825 159.903 67.7403 161.54 68.6006C164.246 70.0083 166.837 71.6267 169.289 73.441C170.945 74.6923 172.687 75.8281 174.5 76.8404C178.412 78.9388 183.098 81.3065 187.004 81.9291C187.614 82.0298 188.23 82.0824 188.848 82.0865C189.141 82.0958 189.433 82.0376 189.7 81.9163C189.967 81.795 190.202 81.6139 190.388 81.387C191.438 80.1524 191.413 77.4944 191.172 75.3086C191.043 74.1762 190.851 73.0518 190.598 71.9406C190.598 71.9406 201.972 64.771 201.622 73.5144C201.568 74.4806 201.657 75.4494 201.888 76.3893C202.074 77.2519 202.486 78.0497 203.082 78.701C203.678 79.3524 204.436 79.8339 205.279 80.0965C206.645 80.4968 208.09 80.5437 209.479 80.2329C209.912 80.1589 210.33 80.0161 210.717 79.8097C211.767 79.1102 222.266 75.9626 225.416 75.6128C228.566 75.2631 244.314 67.5689 244.314 67.5689L261.462 43.7868C261.462 43.7868 261.112 29.7974 268.112 24.2016C275.111 18.6058 265.315 48.3299 265.315 48.3299Z" fill="#FABDBD"/>
<g opacity="0.1">
<path opacity="0.1" d="M216.226 117.431C215.92 120.241 215.786 123.068 215.823 125.895C215.858 124.048 215.981 121.939 216.226 119.529C216.254 119.236 216.285 118.931 216.32 118.627C216.933 113.241 217.225 107.823 217.195 102.403C217.141 107.123 216.849 111.838 216.32 116.529C216.299 116.833 216.254 117.137 216.226 117.431Z" fill="black"/>
<path opacity="0.1" d="M190.962 71.7168C190.727 71.8532 190.612 71.9371 190.612 71.9371C190.952 73.4332 191.177 74.9532 191.284 76.4837C191.355 74.8877 191.246 73.2888 190.962 71.7168Z" fill="black"/>
<path opacity="0.1" d="M144.207 41.0099C144.378 38.5618 144.633 34.1726 144.584 30.2695C144.525 35.4876 144.06 40.8106 144.06 40.8106L144.207 41.0099Z" fill="black"/>
<path opacity="0.1" d="M185.023 133.781C185.023 133.917 185.023 134.054 184.998 134.19C183.949 150.977 217.895 138.037 217.895 138.037C217.498 137.501 217.199 136.9 217.01 136.26C211.897 138.079 186.202 146.536 185.023 133.781Z" fill="black"/>
<path opacity="0.1" d="M265.316 46.2315C265.316 46.2315 256.916 63.0189 254.117 69.3141C251.317 75.6094 225.77 85.0523 222.27 85.402C221.331 85.5306 220.457 85.9516 219.771 86.6051C217.794 88.3538 216.67 91.3475 216.67 91.3475C216.67 91.3475 216.754 91.9176 216.856 93.0018C217.248 92.1029 218.256 90.0395 219.771 88.7035C220.457 88.05 221.331 87.629 222.27 87.5004C225.77 87.1507 251.317 77.7078 254.117 71.4125C256.916 65.1173 265.316 48.3299 265.316 48.3299C265.316 48.3299 271.233 30.371 270.583 24.999C270.044 31.8818 265.316 46.2315 265.316 46.2315Z" fill="black"/>
<path opacity="0.1" d="M184.953 119.718C184.597 116.414 183.924 113.151 182.944 109.975C182.115 107.075 181.124 103.896 180.099 99.5664C179.605 97.4061 178.955 95.2846 178.153 93.2187C178.129 93.1557 178.104 93.0928 178.083 93.0333C176.333 88.6931 174.584 87.2906 173.583 86.836C172.638 86.4252 171.737 85.9189 170.895 85.3251C167.661 82.9924 160.721 77.7638 154.541 71.5875C146.142 63.1938 137.743 43.2588 137.743 43.2588C137.432 41.5759 137.259 39.8706 137.225 38.1597C137.139 40.5705 137.313 42.9835 137.743 45.3572C137.743 45.3572 146.142 65.2922 154.541 73.6859C160.721 79.8622 167.661 85.0908 170.895 87.4235C171.744 88.0186 172.651 88.5249 173.604 88.9344C174.601 89.389 176.347 90.7915 178.104 95.1317C178.125 95.1912 178.15 95.2541 178.174 95.3171C178.973 97.3833 179.619 99.5048 180.11 101.665C181.135 105.995 182.125 109.174 182.955 112.073C183.935 115.249 184.607 118.512 184.964 121.817C185.111 123.279 185.198 124.87 185.223 126.66C185.265 124.343 185.175 122.025 184.953 119.718Z" fill="black"/>
</g>
<path d="M219.614 104.526C219.079 105.408 218.611 106.33 218.214 107.282C217.685 108.75 217.682 110.349 217.584 111.905C217.444 114.089 217.112 116.257 216.59 118.382C216.506 118.774 216.388 119.157 216.24 119.529C216.135 119.78 215.998 120.015 215.83 120.229C215.644 120.457 215.424 120.656 215.179 120.82C214.804 121.07 214.407 121.287 213.993 121.467C209.122 123.74 203.809 125.748 198.493 124.964C196.246 124.572 194.071 123.84 192.043 122.796C190.118 121.862 187.942 120.753 185.947 121.53C185.641 121.685 185.311 121.788 184.97 121.834C184.905 121.835 184.839 121.829 184.775 121.817C184.117 121.691 184.117 119.473 183.966 118.819C183.392 116.308 183.305 114.273 182.962 112.09C182.779 110.884 182.497 109.694 182.118 108.534C180.718 104.302 180.295 99.7902 180.295 95.3555C180.295 95.1352 178.72 95.3555 178.195 95.3346C178.062 95.3346 177.989 95.3136 178.02 95.2681C178.051 95.2246 178.086 95.1847 178.125 95.1492C178.308 95.0005 178.522 94.8942 178.752 94.8379L179.165 94.7155C181.327 94.1035 183.714 93.8482 185.331 92.3268C187.011 90.7565 187.431 88.2489 187.357 85.9546C187.336 85.2167 186.976 83.426 187.035 81.9396C187.645 82.0403 188.262 82.093 188.88 82.097C189.173 82.1064 189.464 82.0481 189.731 81.9268C189.998 81.8055 190.234 81.6244 190.419 81.3976C191.003 82.5272 191.508 83.6958 191.931 84.8949C192.526 86.3568 192.981 87.8957 193.853 89.2177C195.252 91.372 197.835 92.7885 200.404 92.5716C202.973 92.3548 205.363 90.3823 205.821 87.8502C206.224 85.6294 205.289 82.4328 205.31 80.1245C206.676 80.5248 208.121 80.5718 209.51 80.2609C209.569 80.4034 209.619 80.5494 209.661 80.6981C210.448 83.398 211.498 86.4967 214.14 87.455C215.848 88.0705 217.867 87.6089 219.446 88.5042C219.567 88.5739 219.684 88.651 219.796 88.735C220.16 89.0058 220.474 89.3384 220.723 89.7178C221.371 90.7875 221.756 91.9957 221.846 93.2431C222.25 97.1426 221.473 101.073 219.614 104.526Z" fill="#6C63FF"/>
<path opacity="0.1" d="M201.888 76.3858C200.142 77.0583 198.262 77.3109 196.401 77.1231C194.539 76.9354 192.748 76.3126 191.172 75.3051C191.043 74.1728 190.851 73.0484 190.598 71.9372C190.598 71.9372 201.972 64.7676 201.622 73.511C201.568 74.4771 201.657 75.446 201.888 76.3858Z" fill="black"/>
<path d="M197.594 76.4837C204.165 76.4837 209.493 71.1599 209.493 64.5927C209.493 58.0255 204.165 52.7017 197.594 52.7017C191.022 52.7017 185.695 58.0255 185.695 64.5927C185.695 71.1599 191.022 76.4837 197.594 76.4837Z" fill="#FABDBD"/>
<path d="M176.774 94.1453C176.774 94.1453 199.872 79.4564 271.615 95.1945C343.358 110.933 385.003 98.3421 385.003 98.3421V114.78C385.003 114.78 304.511 123.523 273.715 114.78C242.918 106.036 199.078 100.993 183.725 114.531L176.774 94.1453Z" fill="#F86D70"/>
<path opacity="0.1" d="M176.774 94.1453C176.774 94.1453 199.872 79.4564 271.615 95.1945C343.358 110.933 385.003 98.3421 385.003 98.3421V114.78C385.003 114.78 304.511 123.523 273.715 114.78C242.918 106.036 199.078 100.993 183.725 114.531L176.774 94.1453Z" fill="black"/>
<path d="M177.474 94.845C177.474 94.845 199.872 80.1561 271.615 95.8942C343.358 111.632 384.304 99.0418 384.304 99.0418L384.654 114.08C384.654 114.08 304.862 122.824 274.065 114.08C243.268 105.337 199.778 99.2447 184.425 112.783L177.474 94.845Z" fill="#F86D70"/>
<path d="M169.054 117.438C169.054 117.438 145.956 132.127 74.2136 116.389C2.47075 100.651 5.9704 113.241 5.9704 113.241V96.8034C5.9704 96.8034 41.3169 88.06 72.1138 96.8034C102.911 105.547 146.751 110.59 162.104 97.0518L169.054 117.438Z" fill="#F86D70"/>
<path opacity="0.1" d="M169.054 117.438C169.054 117.438 145.956 132.127 74.2136 116.389C2.47075 100.651 5.9704 113.241 5.9704 113.241V96.8034C5.9704 96.8034 41.3169 88.06 72.1138 96.8034C102.911 105.547 146.751 110.59 162.104 97.0518L169.054 117.438Z" fill="black"/>
<path d="M168.354 116.739C168.354 116.739 145.956 131.428 74.2135 115.689C2.4707 99.9513 6.67028 112.542 6.67028 112.542L6.32031 97.5031C6.32031 97.5031 40.9668 88.7597 71.7638 97.5031C102.561 106.247 146.051 112.339 161.404 98.8007L168.354 116.739Z" fill="#F86D70"/>
<path d="M187.361 66.5617C187.011 64.3793 186.472 61.6304 188.299 60.3818C188.95 59.987 189.704 59.7924 190.465 59.8222C194.248 59.7838 197.863 62.4173 201.573 61.6479C202.753 61.4006 203.837 60.8178 204.694 59.9696C205.552 59.1213 206.145 58.0437 206.404 56.8664C206.663 55.689 206.576 54.462 206.153 53.3329C205.731 52.2038 204.991 51.2207 204.023 50.5018C202.563 49.4176 200.719 49.0259 198.934 48.6587C194.241 47.6934 189.342 46.7316 184.708 47.9592C180.075 49.1868 175.84 53.3381 176.211 58.1015C176.386 60.3818 177.548 62.4523 178.762 64.3968C179.686 65.8727 183.284 72.7905 185.03 72.8954C187.494 73.0388 187.602 67.9886 187.361 66.5617Z" fill="#3F3D56"/>
<path d="M216.845 132.092C216.845 132.092 192.698 138.037 184.649 132.092C184.649 132.092 181.149 145.732 182.199 152.726C182.199 152.726 199.347 153.775 201.097 154.825C201.097 154.825 201.447 152.027 203.197 153.426C203.197 153.426 209.146 146.431 219.995 152.726C219.995 152.726 222.095 136.289 216.845 132.092Z" fill="#6C63FF"/>
<path opacity="0.1" d="M204.03 50.5018C203.781 50.3215 203.52 50.158 203.249 50.0122C203.971 50.8327 204.465 51.8282 204.682 52.8992C204.898 53.9703 204.83 55.0793 204.483 56.1156C204.136 57.1519 203.523 58.079 202.705 58.8043C201.888 59.5297 200.894 60.0278 199.823 60.249C196.113 61.0184 192.498 58.3849 188.715 58.4234C187.954 58.3935 187.2 58.5881 186.549 58.9829C184.722 60.2315 185.257 62.9804 185.607 65.1628C185.838 66.5897 185.744 71.6399 183.287 71.5035H183.245C183.921 72.3254 184.55 72.8815 185.037 72.9024C187.487 73.0388 187.588 68.0061 187.357 66.5617C187.007 64.3794 186.472 61.6304 188.299 60.3819C188.95 59.9871 189.704 59.7925 190.465 59.8223C194.248 59.7838 197.863 62.4173 201.573 61.6479C202.753 61.4007 203.837 60.8179 204.694 59.9697C205.551 59.1214 206.145 58.0438 206.404 56.8664C206.663 55.6891 206.575 54.462 206.153 53.3329C205.731 52.2038 204.991 51.2207 204.023 50.5018H204.03Z" fill="black"/>
<g opacity="0.1">
<path opacity="0.1" d="M30.223 33.8895C30.223 33.8895 4.05612 22.8938 0.626459 42.7239C0.626459 42.7239 -1.16186 45.812 1.32639 48.3651C1.32639 48.3651 1.86184 46.9976 4.39208 48.4141C5.29533 48.9104 6.25381 49.2989 7.2478 49.5717C8.591 49.942 10.0182 49.8659 11.3144 49.3549C11.3144 49.3549 19.92 48.8897 27.1573 37.6387C27.1573 37.6387 30.258 35.7221 30.4155 35.0052L25.229 35.3549C25.229 35.3549 25.6245 39.1496 23.4792 41.4263C23.4792 41.4263 25.3865 35.5403 24.4696 35.3724C24.2841 35.3374 21.7293 35.6767 21.7293 35.6767C21.7293 35.6767 22.3908 42.2727 18.9296 45.6861C18.9296 45.6861 22.1423 38.9747 20.7424 35.7956L16.9173 36.5335C16.9173 36.5335 17.9672 43.4723 14.1806 47.5117C14.1806 47.5117 17.2918 40.3771 16.0914 36.7504L12.4238 37.9814C12.4238 37.9814 13.3092 44.7733 10.142 48.1238C10.142 48.1238 12.9067 39.5168 11.6049 38.3312C11.6049 38.3312 8.30819 39.6672 7.60126 40.4296C7.60126 40.4296 8.12621 45.3259 6.11041 47.0746C6.11041 47.0746 7.34929 41.1291 6.73685 40.8842C6.73685 40.8842 2.90473 43.7661 1.73935 46.2527C1.73935 46.2527 3.1952 42.4546 6.2539 40.3072C6.2539 40.3072 3.68515 39.8735 1.70435 40.9472C1.70435 40.9472 3.03072 38.4256 7.1813 39.6217C7.1813 39.6217 10.2575 37.4953 10.8734 37.5233C10.8734 37.5233 6.94683 35.7746 4.10861 35.9879C4.10861 35.9879 7.14981 34.2393 11.8358 37.1631L15.4895 35.8411C15.4895 35.8411 10.4185 33.2425 7.87424 33.253C7.87424 33.253 11.2549 31.9485 16.4414 35.5857L20.1825 34.8198C20.1825 34.8198 15.9829 32.2493 13.1517 31.6512C13.1517 31.6512 16.5499 31.1161 21.2639 34.645L23.8256 34.4281C23.8256 34.4281 20.725 32.606 19.787 32.1618C18.8491 31.7177 18.8911 31.4274 18.8911 31.4274C21.1234 31.8147 23.204 32.8149 24.9 34.3162C24.9 34.3162 30.1985 34.2148 30.223 33.8895Z" fill="#6C63FF"/>
</g>
<g opacity="0.1">
<path opacity="0.1" d="M29.2571 14.1781C29.2571 14.1781 19.969 -7.25022 6.63887 2.57737C6.63887 2.57737 3.81465 3.39576 3.83915 6.31956C3.83915 6.31956 4.93804 5.81244 5.63097 8.09272C5.89005 8.90249 6.24237 9.67945 6.68086 10.408C7.26082 11.3879 8.14401 12.1526 9.19711 12.5868C9.19711 12.5868 14.5726 17.2103 25.2955 14.6468C25.2955 14.6468 28.2317 15.2763 28.7357 14.9371L25.4565 12.1881C25.4565 12.1881 23.5317 14.6678 20.9489 14.7902C20.9489 14.7902 25.439 12.377 24.9875 11.7545C24.8965 11.6286 23.1887 10.3765 23.1887 10.3765C23.1887 10.3765 19.8185 14.6713 15.8394 14.7377C15.8394 14.7377 21.5754 12.5763 22.5553 9.89386L19.864 8.14518C19.864 8.14518 16.5254 12.8631 11.9793 13.1079C11.9793 13.1079 17.8937 10.6598 19.2481 7.80593L16.3679 6.44896C16.3679 6.44896 13.0222 10.9955 9.23911 11.1669C9.23911 11.1669 15.787 7.62757 15.6855 6.18316C15.6855 6.18316 12.9662 5.09897 12.1053 5.16193C12.1053 5.16193 9.63107 8.36202 7.42279 8.27108C7.42279 8.27108 11.5489 5.44172 11.3214 4.94859C11.3214 4.94859 7.40179 4.47994 5.2915 5.29833C5.2915 5.29833 8.3222 3.8714 11.3634 4.34005C11.3634 4.34005 10.086 2.61585 8.3047 2.13671C8.3047 2.13671 10.5305 1.39177 12.3153 4.46595C12.3153 4.46595 15.353 4.95208 15.7065 5.31581C15.7065 5.31581 14.3766 2.03179 12.5568 0.5524C12.5568 0.5524 15.3565 1.25188 16.4764 5.64806L19.3986 6.94558C19.3986 6.94558 17.8692 2.51442 16.3329 1.077C16.3329 1.077 19.0871 2.22414 20.095 7.33729L22.7513 9.01252C22.7513 9.01252 21.7189 5.09548 20.382 3.14395C20.382 3.14395 22.7058 4.75623 23.4967 9.53713L25.1415 10.8661C25.1415 10.8661 24.3366 8.01927 24.0321 7.22188C23.7277 6.42448 23.9201 6.27759 23.9201 6.27759C25.0236 7.77964 25.6887 9.55807 25.8414 11.4152C25.8414 11.4152 29.0681 14.36 29.2571 14.1781Z" fill="#6C63FF"/>
</g>
</g>
<defs>
<clipPath id="clip0_324_1712">
<rect width="385" height="256" fill="white"/>
</clipPath>
</defs>
</svg>
