<svg width="93" height="126" viewBox="0 0 93 126" fill="none" xmlns="http://www.w3.org/2000/svg">
<path d="M92.3752 79.0244C92.3752 113.806 71.6982 125.949 46.1876 125.949C45.5967 125.949 45.0058 125.941 44.4192 125.928C43.2374 125.903 42.0641 125.847 40.9078 125.767C17.8841 124.139 0 111.37 0 79.0244C0 45.5563 42.774 3.3196 45.9963 0.187021C45.9963 0.18646 45.9964 0.185907 45.9966 0.185387C45.9968 0.184866 45.9972 0.184383 45.9976 0.183986C45.9979 0.183589 45.9984 0.183287 45.9989 0.183078C45.9994 0.182868 46 0.182755 46.0006 0.182766C46.1239 0.0595032 46.1876 0 46.1876 0C46.1876 0 92.3752 44.2472 92.3752 79.0244Z" fill="#6C63FF"/>
<path d="M44.5037 120.628L61.3974 97.0293L44.4612 123.221L44.4187 125.928C43.237 125.903 42.0637 125.847 40.9074 125.767L42.7268 90.9724L42.7141 90.7004L42.7438 90.6536L42.9181 87.3638L25.9395 61.1087L42.9691 84.8985L43.0116 85.5956L44.3847 59.3065L29.8504 32.1759L44.5633 54.6948L45.9959 0.187008L46.0001 0V0.182766L45.7621 43.1633L60.2326 26.1233L45.7025 46.8655L45.3199 70.4045L58.834 47.8133L45.2647 73.8686L45.0521 86.9558L64.6622 55.5109L44.9756 91.5207L44.5037 120.628Z" fill="#3F3D56"/>
</svg>
