<svg width="332" height="303" viewBox="0 0 332 303" fill="none" xmlns="http://www.w3.org/2000/svg">
<path d="M295.49 285.276C295.609 290.899 294.828 296.506 293.177 301.886C293.119 302.081 293.05 302.277 292.98 302.472H258.934C259.42 300.09 260.193 297.774 261.235 295.575C264.068 289.598 268.694 284.482 273.262 279.402C279.554 272.401 285.694 265.458 286.666 256.354C289.16 260.133 291.15 264.217 292.587 268.504C290.828 269.152 289.213 270.136 287.834 271.401C287.452 271.757 287.048 272.275 287.244 272.769C287.429 273.183 287.938 273.321 288.389 273.413C289.476 273.62 290.563 273.826 291.65 274.022C292.506 274.194 293.373 274.355 294.241 274.516C295.003 278.055 295.421 281.658 295.49 285.276Z" fill="#F2F2F2"/>
<path d="M324.09 281.551C318.631 284.85 315.161 289.954 312.328 295.667C309.863 296.226 307.586 297.414 305.725 299.116C305.331 299.472 304.927 299.989 305.135 300.484C305.308 300.897 305.829 301.035 306.28 301.127C307.355 301.334 308.454 301.541 309.529 301.737C309.425 301.978 309.321 302.231 309.217 302.472H273.135C274.773 300.277 276.587 298.216 278.559 296.311C278.987 295.885 279.426 295.483 279.878 295.069C284.477 290.938 289.758 287.625 295.49 285.276C304.519 281.524 314.393 280.238 324.09 281.551Z" fill="#F2F2F2"/>
<path d="M279.149 302.472H247.022C246.846 299.915 246.862 297.349 247.068 294.794C247.764 286.885 250.176 279.221 254.139 272.329C258.102 265.437 263.522 259.481 270.024 254.871C268.359 260.768 269.215 266.631 270.949 272.516C270.706 272.597 270.464 272.666 270.244 272.757C268.484 273.405 266.87 274.389 265.491 275.654C265.109 276.011 264.704 276.528 264.901 277.022C265.074 277.436 265.595 277.574 266.046 277.666C267.133 277.873 268.22 278.08 269.295 278.275C270.163 278.448 271.03 278.609 271.898 278.781C272.302 278.85 272.707 278.93 273.112 279.011C273.17 279.149 273.204 279.275 273.262 279.402C275.298 284.977 277.518 290.598 278.559 296.311C278.816 297.745 278.994 299.191 279.091 300.645C279.125 301.254 279.149 301.863 279.149 302.472Z" fill="#F2F2F2"/>
<path d="M33.3098 21.6156C39.315 21.6156 44.1831 16.7768 44.1831 10.8078C44.1831 4.83881 39.315 0 33.3098 0C27.3047 0 22.4365 4.83881 22.4365 10.8078C22.4365 16.7768 27.3047 21.6156 33.3098 21.6156Z" fill="#FD6584"/>
<path d="M57.6467 5.69077C57.3393 4.69109 56.7446 3.80253 55.9357 3.13439C55.1269 2.46625 54.1393 2.04766 53.0943 1.93011C53.0706 1.9268 53.0482 1.93117 53.0247 1.92966C52.9943 1.92043 52.9633 1.91333 52.9319 1.90842C47.9594 1.26963 42.2194 3.63352 40.147 8.31929C39.6414 7.63396 38.9755 7.08129 38.2069 6.709C37.4383 6.33671 36.59 6.15599 35.7354 6.18246C34.6335 6.25545 33.5809 6.66422 32.7211 7.35311C31.8612 8.04201 31.2358 8.97757 30.93 10.0324C30.8975 10.1615 30.9071 10.2976 30.9576 10.4209C31.0081 10.5442 31.0968 10.6483 31.2108 10.7181C31.5392 10.9947 31.9283 11.1911 32.3468 11.2913C33.2498 11.4814 34.1561 11.6556 35.0656 11.8139C36.8402 12.1226 38.6241 12.3721 40.4173 12.5626C44.0574 12.9503 47.7199 13.0879 51.379 12.9744C52.5977 12.9367 53.773 12.8965 54.8896 12.3619C55.7019 11.9631 56.3959 11.3611 56.9035 10.6151C57.3816 9.89801 57.696 9.08556 57.8244 8.23483C57.9528 7.38409 57.8921 6.51572 57.6467 5.69077Z" fill="#F0F0F0"/>
<path d="M35.0471 20.1009C34.7397 19.1012 34.145 18.2127 33.3361 17.5446C32.5273 16.8764 31.5397 16.4578 30.4947 16.3403C30.471 16.337 30.4486 16.3413 30.4251 16.3398C30.3947 16.3306 30.3637 16.3235 30.3323 16.3186C25.3598 15.6798 19.6198 18.0437 17.5474 22.7294C17.0418 22.0441 16.3759 21.4914 15.6073 21.1191C14.8387 20.7468 13.9904 20.5661 13.1358 20.5926C12.0339 20.6656 10.9813 21.0744 10.1214 21.7633C9.26156 22.4522 8.63617 23.3877 8.33041 24.4426C8.29788 24.5717 8.30756 24.7077 8.35804 24.831C8.40852 24.9543 8.49717 25.0584 8.61117 25.1282C8.93958 25.4049 9.32865 25.6012 9.74716 25.7014C10.6502 25.8916 11.5565 26.0658 12.4659 26.224C14.2406 26.5327 16.0245 26.7823 17.8177 26.9727C21.4578 27.3605 25.1204 27.4981 28.7795 27.3846C29.9981 27.3468 31.1734 27.3066 32.29 26.772C33.1023 26.3732 33.7963 25.7712 34.3039 25.0252C34.782 24.3081 35.0964 23.4957 35.2248 22.645C35.3532 21.7942 35.2925 20.9259 35.0471 20.1009Z" fill="#F0F0F0"/>
<path d="M139.649 187.85C139.374 188.251 138.65 188.728 138.368 189.123L138.669 188.216L138.566 188.006L137.926 186.733L121.619 154.068L121.613 154.062L93.9702 98.7145V98.7081L93.3359 97.4413V97.4349L79.6555 70.0414L79.0088 68.7427C79.4954 68.7554 79.9821 68.7745 80.4689 68.8L81.1222 70.105L94.7645 97.4349L94.7708 97.4413L95.405 98.7081V98.7145L122.343 152.655V152.661L122.977 153.928V153.934L139.284 186.574L139.501 187.013L139.649 187.85Z" fill="#3F3D56"/>
<path d="M137.83 98.7146H15.7939C16.1207 98.2881 16.4535 97.8616 16.7994 97.4414H136.824C137.17 97.8616 137.503 98.2881 137.83 98.7146Z" fill="#3F3D56"/>
<path d="M153.291 152.661C153.252 153.088 153.208 153.514 153.15 153.934H121.888V152.661H153.291Z" fill="#3F3D56"/>
<path d="M20.4377 93.2461V195.69C19.9958 195.225 19.573 194.754 19.1567 194.283V94.653C19.573 94.1819 19.9958 93.7108 20.4377 93.2461Z" fill="#3F3D56"/>
<path d="M138.965 186.732H19.7974V188.006H138.965V186.732Z" fill="#3F3D56"/>
<path d="M138.861 187.85H139.008V187.64C138.964 187.713 138.914 187.783 138.861 187.85ZM137.875 98.5583C137.548 98.1318 137.215 97.7053 136.869 97.2851C130.066 88.801 121.52 81.8575 111.802 76.9184C102.083 71.9793 91.4166 69.1583 80.5138 68.6438C80.0272 68.6183 79.5405 68.5992 79.0537 68.5865C78.3235 68.5674 77.5932 68.5547 76.8568 68.5547C66.2643 68.5491 55.7857 70.7265 46.0825 74.9494C36.3794 79.1724 27.6626 85.3492 20.4823 93.0898C20.0405 93.5545 19.6176 94.0256 19.2014 94.4967C18.388 95.4071 17.6023 96.3366 16.8444 97.2851C16.4985 97.7053 16.1657 98.1318 15.8389 98.5583C5.01521 112.584 -0.567733 129.913 0.0456573 147.579C0.659048 165.245 7.43063 182.15 19.2014 195.4C19.6176 195.871 20.0405 196.342 20.4823 196.807C28.2225 205.139 37.7339 211.651 48.3247 215.869C58.9154 220.087 70.319 221.905 81.7056 221.191C93.0923 220.477 104.176 217.249 114.149 211.741C124.122 206.233 132.735 198.585 139.36 189.352C139.643 188.958 139.924 188.563 140.199 188.162C147.302 177.933 151.765 166.125 153.195 153.778C153.253 153.358 153.297 152.932 153.336 152.505C153.585 150.022 153.711 147.503 153.713 144.948C153.733 128.171 148.164 111.859 137.875 98.5583V98.5583ZM151.907 153.778C150.513 165.63 146.274 176.975 139.546 186.857C139.373 187.118 139.194 187.379 139.008 187.64C138.964 187.713 138.914 187.783 138.861 187.85C138.816 187.92 138.765 187.99 138.714 188.06C132.18 197.339 123.618 205.027 113.67 210.549C103.721 216.07 92.6443 219.281 81.2694 219.941C69.8945 220.602 58.5169 218.694 47.9894 214.361C37.462 210.028 28.0579 203.383 20.4823 194.923C20.0404 194.439 19.6113 193.955 19.2014 193.458C7.93909 180.269 1.61226 163.615 1.29359 146.318C0.974913 129.022 6.684 112.148 17.4529 98.5583C17.7925 98.1318 18.1318 97.7053 18.484 97.2851C18.7148 96.9986 18.9515 96.7185 19.2014 96.4384C19.6113 95.9418 20.0404 95.458 20.4823 94.9742C27.5577 87.061 36.2402 80.7284 45.9574 76.394C55.6747 72.0595 66.2059 69.8216 76.8567 69.8279C77.8112 69.8279 78.7591 69.847 79.7004 69.8852C80.1936 69.8979 80.6805 69.9234 81.1671 69.9489C91.5904 70.5411 101.777 73.2763 111.082 77.9816C120.388 82.6869 128.61 89.2599 135.229 97.2851C135.582 97.7052 135.921 98.1318 136.261 98.5583C148.346 113.834 154.007 133.169 152.055 152.505C152.01 152.932 151.965 153.358 151.907 153.778L151.907 153.778ZM138.861 187.85H139.008V187.64C138.964 187.713 138.914 187.783 138.861 187.85H138.861Z" fill="#CCCCCC"/>
<path d="M67.1704 44.3306C67.1704 44.6807 67.159 45.0279 67.1362 45.3721C67.0082 47.3574 66.5036 49.3008 65.649 51.0997C65.6424 51.115 65.6346 51.1293 65.628 51.1436C65.5882 51.227 65.5474 51.3104 65.5054 51.3927C65.2513 51.9015 64.9693 52.3961 64.6608 52.8743C63.2517 55.0694 61.3202 56.8858 59.0372 58.1628C56.7541 59.4399 54.1898 60.1383 51.5707 60.1964L51.7286 69.2218L53.7877 68.1441L54.1554 68.8388L51.7441 70.1008L52.0389 86.8632L52.0421 87.0871L50.45 87.4393L50.4533 87.2144L50.9546 60.1975C48.8465 60.1674 46.7654 59.7214 44.8321 58.8853C42.8989 58.0492 41.152 56.8397 39.6928 55.327C39.5924 55.2239 39.493 55.1174 39.3958 55.0121L39.3848 55C38.169 53.6822 37.1858 52.1699 36.4766 50.5268C36.492 50.5443 36.5086 50.5608 36.5241 50.5784C29.945 34.1446 33.7726 26.5262 44.0959 30.1242C44.1511 30.0968 44.2075 30.0704 44.2627 30.043C47.8734 28.3143 52.0058 27.9971 55.8407 29.1543C59.6757 30.3114 62.9332 32.8586 64.9677 36.2907C65.0649 36.4531 65.1588 36.6189 65.2493 36.7857C66.5131 39.1019 67.1735 41.6957 67.1704 44.3306Z" fill="#E5E5E5"/>
<path d="M85.9452 30.3517C85.7527 33.5047 84.9319 36.5883 83.5306 39.4235C80.8342 44.8475 76.1011 48.9599 70.2024 50.4942C70.1925 50.4994 70.1814 50.5016 70.1703 50.5006C68.6861 50.8854 67.1627 51.1011 65.6294 51.1436H65.5013C65.3411 51.1499 65.181 51.1499 65.0209 51.1499C64.912 51.1499 64.8032 51.1499 64.6943 51.1436C59.2024 51.0594 53.9641 48.8318 50.1104 44.9417C46.2567 41.0516 44.0966 35.8112 44.0967 30.3517V30.1225C44.1063 28.7952 44.3002 27.4755 44.6731 26.201C44.6731 26.1946 44.6795 26.1883 44.6795 26.1819C45.3751 23.967 46.6297 21.966 48.3238 20.3696C52.5189 16.2443 59.1606 13.6533 65.0209 9.5535C77.856 0.577225 87.2838 9.50895 85.9452 30.3517Z" fill="#E5E5E5"/>
<path opacity="0.2" d="M83.5305 39.4235C80.8341 44.8475 76.101 48.96 70.2022 50.4942C70.1924 50.4994 70.1813 50.5016 70.1702 50.5006C68.6899 50.8659 67.1733 51.0666 65.6485 51.099H65.5011C65.2321 51.1054 64.9631 51.1054 64.6941 51.099C59.1875 50.9625 53.9564 48.6762 50.1327 44.735C46.3091 40.7938 44.2004 35.5146 44.2631 30.0398C44.2826 28.7505 44.4198 27.4656 44.673 26.201C44.673 26.1947 44.6794 26.1883 44.6794 26.1819C45.375 23.967 46.6296 21.966 48.3237 20.3696C47.7547 23.0673 47.7309 25.8504 48.2536 28.5573C48.7763 31.2641 49.8351 33.8407 51.3685 36.1372C52.9018 38.4338 54.8791 40.4045 57.1855 41.9348C59.4918 43.465 62.0812 44.5244 64.803 45.0512C65.0016 45.0894 65.2001 45.1276 65.3987 45.1594C65.9751 45.2549 66.5515 45.3249 67.1344 45.3695C70.137 45.6117 73.1568 45.2057 75.9868 44.1794C78.8169 43.1531 81.3902 41.5308 83.5305 39.4235Z" fill="black"/>
<path d="M65.7302 64.1269L68.8892 62.4741L68.4072 61.5639L65.7089 62.9757L65.5061 51.3929V51.3915L65.5012 51.1462V51.1025L65.3964 45.1603L65.2496 36.7857L65.1371 30.3511H65.0781L64.968 36.2903V36.2918L64.8058 45.0533L64.6937 51.0986L64.6932 51.149L64.6609 52.8739L64.0205 87.4739L64.0161 87.7024L66.1532 88.2987L66.1494 88.0682L65.7302 64.1269Z" fill="#3F3D56"/>
<path d="M141.955 105.101C128.672 102.455 115.348 100.055 101.861 98.5868C89.073 97.0918 76.1774 96.7211 63.3239 97.4792C51.7158 98.2575 40.0082 100.082 29.1032 104.243C20.7 107.449 11.7426 112.299 7.20346 120.389C2.82798 128.186 4.53456 137.179 9.29891 144.373C15.0314 153.03 23.9704 158.962 33.2641 163.297C43.8457 168.233 55.1638 171.433 66.4963 174.155C72.2438 175.535 78.0225 176.782 83.8016 178.024C85.0072 178.282 85.5224 176.442 84.3124 176.182C72.6582 173.679 60.9704 171.168 49.6056 167.544C39.0888 164.191 28.3262 159.896 19.7138 152.855C12.7464 147.158 6.12177 138.838 6.53302 129.379C6.94759 119.843 14.9971 113.185 22.8867 109.086C32.7465 103.965 43.9487 101.47 54.9254 100.166C67.4941 98.7737 80.1692 98.6024 92.7713 99.6542C109.614 100.928 126.207 103.883 142.737 107.193" fill="black"/>
<path d="M79.5979 120.288C85.1874 123.065 88.5904 126.732 88.5904 130.755C88.5904 139.42 72.8148 146.445 53.3548 146.445C44.8941 146.445 37.1321 145.116 31.0581 142.903C37.5095 146.108 46.8745 148.126 57.3012 148.126C76.7611 148.126 92.5368 141.101 92.5368 132.436C92.5368 127.538 87.4945 123.165 79.5979 120.288Z" fill="#F1F1F1"/>
<path d="M92.0312 126.24C98.3383 129.374 102.178 133.512 102.178 138.051C102.178 147.829 84.3772 155.756 62.419 155.756C52.8721 155.756 44.1136 154.256 37.2598 151.759C44.5394 155.376 55.1067 157.653 66.872 157.653C88.8303 157.653 106.631 149.726 106.631 139.948C106.631 134.421 100.942 129.487 92.0312 126.24Z" fill="#F1F1F1"/>
<path d="M74.8396 122.91C78.7776 124.866 81.1751 127.45 81.1751 130.284C81.1751 136.389 70.0607 141.338 56.3507 141.338C51.0093 141.407 45.6958 140.563 40.6421 138.843C45.1873 141.101 51.7851 142.523 59.131 142.523C72.8411 142.523 83.9554 137.574 83.9554 131.468C83.9554 128.018 80.403 124.937 74.8396 122.91Z" fill="#F1F1F1"/>
<path d="M53.8703 134.601C45.7726 134.601 41.8346 132.393 39.957 130.541C39.6144 130.201 39.381 129.767 39.2864 129.295C39.1918 128.823 39.2402 128.334 39.4256 127.89C39.6109 127.445 39.9248 127.065 40.3275 126.798C40.7302 126.531 41.2036 126.389 41.6877 126.389H69.9377C70.3223 126.389 70.6974 126.508 71.0108 126.729C71.3242 126.951 71.5603 127.264 71.6863 127.625C71.8123 127.986 71.8218 128.378 71.7136 128.745C71.6054 129.111 71.3848 129.436 71.0826 129.672C68.2048 131.921 62.8828 134.601 53.8703 134.601Z" fill="#3F3D56"/>
<path d="M59.7363 106.343C57.534 104.68 54.7697 103.928 52.0224 104.245C56.8998 105.442 53.0509 112.142 57.4926 119.091C59.9132 122.877 55.2057 124.734 50.7212 125.242C53.1213 125.818 55.6478 125.555 57.8758 124.497C60.1038 123.439 61.8975 121.651 62.9553 119.434C64.0131 117.216 64.2705 114.704 63.6843 112.32C63.0981 109.936 61.7039 107.825 59.7363 106.343V106.343Z" fill="#3F3D56"/>
<path d="M54.7369 102.85H53.6968V127.46H54.7369V102.85Z" fill="#3F3D56"/>
<path d="M154.835 109.757C152.073 107.823 148.954 106.449 145.657 105.714C142.36 104.978 138.95 104.895 135.621 105.469C132.291 106.043 129.109 107.264 126.254 109.061C123.399 110.857 120.929 113.196 118.983 115.942C110.801 127.49 102.591 157.773 108.387 175.316C125.673 157.167 152.23 155.281 161.057 145.393C170.489 134.828 166.454 117.89 154.835 109.757Z" fill="#6C63FF"/>
<path d="M139.67 135.908C144.305 135.908 148.062 132.174 148.062 127.567C148.062 122.96 144.305 119.226 139.67 119.226C135.036 119.226 131.279 122.96 131.279 127.567C131.279 132.174 135.036 135.908 139.67 135.908Z" fill="white"/>
<path d="M101.293 184.4C104.329 184.4 106.789 181.954 106.789 178.937C106.789 175.92 104.329 173.474 101.293 173.474C98.2576 173.474 95.7969 175.92 95.7969 178.937C95.7969 181.954 98.2576 184.4 101.293 184.4Z" fill="#6C63FF"/>
<path opacity="0.2" d="M148.648 125.642C149.204 126.588 149.567 127.634 149.716 128.719C149.865 129.804 149.798 130.908 149.518 131.967C149.238 133.027 148.75 134.021 148.084 134.893C147.417 135.765 146.584 136.499 145.633 137.051C144.681 137.603 143.629 137.964 142.538 138.112C141.446 138.26 140.335 138.193 139.27 137.915C138.204 137.637 137.204 137.152 136.326 136.49C135.449 135.827 134.711 135 134.155 134.054C135.653 135.36 137.57 136.093 139.562 136.123C141.554 136.153 143.492 135.477 145.029 134.217C146.566 132.956 147.601 131.193 147.949 129.243C148.298 127.293 147.937 125.283 146.931 123.574C147.612 124.167 148.192 124.865 148.648 125.642Z" fill="#231F20"/>
<path opacity="0.2" d="M161.073 145.433C152.247 155.32 125.689 157.206 108.403 175.355C107.863 173.696 107.448 171.998 107.16 170.278C124.438 153.778 149.517 151.693 158.045 142.14C165.678 133.59 164.49 120.866 157.601 112.013C167.049 120.718 169.717 135.751 161.073 145.433Z" fill="#231F20"/>
<path d="M251.567 296.307H245.303L242.323 272.292H251.568L251.567 296.307Z" fill="#FFB6B6"/>
<path d="M253.164 302.343L232.967 302.342V302.088C232.967 300.016 233.796 298.028 235.27 296.563C236.744 295.098 238.744 294.274 240.829 294.274H240.829L244.518 291.492L251.402 294.275L253.165 294.275L253.164 302.343Z" fill="#2F2E41"/>
<path d="M227.293 292.384L221.183 293.755L212.955 270.982L221.973 268.959L227.293 292.384Z" fill="#FFB6B6"/>
<path d="M230.189 297.921L210.488 302.342L210.432 302.095C209.973 300.073 210.34 297.953 211.453 296.201C212.567 294.449 214.335 293.208 216.368 292.752L216.369 292.751L219.351 289.23L226.682 290.437L228.402 290.051L230.189 297.921Z" fill="#2F2E41"/>
<path d="M259.5 149.493C262.437 158.297 262.126 167.854 258.794 178.11L257.37 235.858C259.725 238.434 261.202 248.937 257.575 256.458C252.731 266.502 256.068 280.39 252.644 287.053H242.712L240.271 259.926L238.122 256.867L237.794 232.399C236.475 229.295 234.947 226.216 237.63 222.62L237.558 218.37L237.177 195.715L222.198 217.486C221.773 222.414 219.239 224.995 215.884 226.664L220.523 247.015C228.636 253.917 226.652 264.6 226.786 274.49L229.446 286.16L217.222 287.246L211.828 271.42L205.763 261.668L195.214 222.679L202.571 205.709L205.577 198.773L222.368 160.039L259.5 149.493Z" fill="#2F2E41"/>
<path d="M155.73 118.094C156.219 118.58 156.81 118.954 157.461 119.188C158.111 119.422 158.806 119.512 159.495 119.451C160.184 119.39 160.851 119.179 161.45 118.834C162.048 118.488 162.563 118.017 162.959 117.452L179.151 121.977L176.493 113.7L161.524 110.673C160.526 110.075 159.342 109.863 158.197 110.075C157.052 110.288 156.025 110.91 155.31 111.825C154.596 112.74 154.244 113.884 154.322 115.039C154.399 116.194 154.9 117.282 155.73 118.094Z" fill="#FFB8B8"/>
<path d="M168.973 111.41L184.778 111.295C189.04 110.11 193.533 110.009 197.845 111.001L198.684 111.193L205.28 110.45C209.212 102.637 216.509 95.5731 226.304 89.0659C227.781 87.8826 229.493 87.0236 231.328 86.5456C233.164 86.0676 235.08 85.9813 236.951 86.2924C238.822 86.6035 240.606 87.3051 242.184 88.3508C243.763 89.3965 245.101 90.7626 246.11 92.3594C247.932 95.25 248.574 98.7236 247.903 102.069C247.233 105.414 245.301 108.378 242.504 110.354L212.656 127.797C210.038 129.327 207.063 130.154 204.025 130.195L203.953 130.232L186.927 123.891L178.168 122.784L166.292 119.353L168.973 111.41Z" fill="#6C63FF"/>
<path d="M232.383 74.75C240.619 74.75 247.295 68.1139 247.295 59.928C247.295 51.742 240.619 45.106 232.383 45.106C224.147 45.106 217.471 51.742 217.471 59.928C217.471 68.1139 224.147 74.75 232.383 74.75Z" fill="#FFB8B8"/>
<path d="M246.309 69.3284C247.414 67.7609 248.198 65.2504 248.661 63.4154C249.281 60.9993 249.383 58.4808 248.96 56.023C248.538 53.5653 247.601 51.2232 246.209 49.1485C245.696 48.3029 244.96 47.6127 244.081 47.1521C243.179 46.7517 241.989 46.8471 241.36 47.6045C241.359 46.9399 241.22 46.2827 240.952 45.6735C240.685 45.0642 240.295 44.516 239.806 44.0625C238.82 43.1605 237.637 42.4992 236.349 42.131C233.869 41.3792 231.23 41.3089 228.713 41.9276C226.196 42.5462 223.894 43.8307 222.052 45.6447C221.332 46.3725 221.589 42.7358 220.79 43.3764C220.016 44.0646 219.001 44.4243 217.964 44.3785C216.943 44.2704 215.065 47.8863 215.055 46.866C213.981 47.9357 213.507 52.4468 213.843 53.9206C214.179 55.3945 219.177 54.7431 220.61 55.2483C221.559 55.5829 222.59 55.5942 223.573 55.812C225.321 56.2609 226.843 57.3303 227.852 58.8182C228.861 60.3062 229.286 62.1098 229.049 63.8885C229.678 63.048 230.439 62.314 231.303 61.7147C231.739 61.4189 232.239 61.2307 232.762 61.1657C233.286 61.1008 233.817 61.161 234.312 61.3414C234.759 61.5797 235.153 61.9065 235.468 62.3014C235.783 62.6964 236.014 63.1513 236.146 63.6382C236.472 64.5911 236.598 65.6028 236.929 66.5538C237.902 69.344 238.404 72.273 241.115 72.9346C243.255 73.4567 244.8 71.4687 246.309 69.3284Z" fill="#2F2E41"/>
<path d="M260.773 146.555L259.135 143.3C257.131 130.958 255.151 119.446 257.841 109.091C258.01 100.052 255.199 91.5597 247.394 86.9223L243.874 84.8293L242.091 80.3359L225.68 80.7344L225.632 86.6247L219.754 95.9426V95.981L220.121 146.685L221.744 151.917L219.295 158.004L220.595 161.888L252.949 156.747L256.711 156.146C257.145 156.008 257.564 155.827 257.962 155.604C259.312 154.859 260.37 153.684 260.966 152.268C261 152.186 261.029 152.109 261.058 152.028C261.311 151.367 261.458 150.67 261.492 149.963C261.551 148.785 261.303 147.611 260.773 146.555Z" fill="#6C63FF"/>
<path opacity="0.2" d="M261.492 149.963C261.458 150.67 261.312 151.367 261.058 152.027L257.962 155.604C257.565 155.826 257.146 156.008 256.711 156.146L252.949 156.746L258.392 146.574L246.429 120.541L261.492 149.963Z" fill="black"/>
<path d="M274.513 180.074C273.912 179.667 273.409 179.134 273.038 178.513C272.667 177.891 272.438 177.197 272.366 176.478C272.294 175.758 272.382 175.032 272.623 174.351C272.864 173.669 273.253 173.048 273.762 172.532L265.888 156.807L275.004 157.91L281.083 172.674C281.899 173.581 282.352 174.754 282.356 175.97C282.36 177.187 281.915 178.363 281.105 179.275C280.295 180.187 279.177 180.772 277.962 180.92C276.747 181.067 275.52 180.766 274.513 180.074Z" fill="#FFB8B8"/>
<path d="M242.592 125.968L248.566 125.148C248.566 125.148 249.142 134.099 252 135.456C254.857 136.813 253.894 137.036 254.231 138.472C254.568 139.908 256.092 142.078 258.356 143.068C260.619 144.057 270.914 168.941 270.914 168.941L279.583 166.931C278.781 164.771 278.253 162.52 278.011 160.23C277.706 156.767 273.758 148.597 272.458 147.384C271.158 146.171 271.672 144.033 270.998 141.161C270.324 138.289 270.792 140.952 269.669 136.165C268.546 131.378 255.919 102.689 255.39 98.2692C254.861 93.8492 248.665 91.2476 248.665 91.2476L243.849 92.3639L242.592 125.968Z" fill="#6C63FF"/>
<path d="M143.388 303H331.398C331.558 303 331.711 302.937 331.824 302.825C331.937 302.712 332 302.56 332 302.401C332 302.243 331.937 302.09 331.824 301.978C331.711 301.866 331.558 301.803 331.398 301.803H143.388C143.229 301.803 143.075 301.866 142.963 301.978C142.85 302.09 142.786 302.243 142.786 302.401C142.786 302.56 142.85 302.712 142.963 302.825C143.075 302.937 143.229 303 143.388 303Z" fill="#CCCCCC"/>
</svg>
