<svg width="375" height="225" viewBox="0 0 375 225" fill="none" xmlns="http://www.w3.org/2000/svg">
<path d="M30.0421 154.283C30.0393 153.792 30.1208 153.306 30.2817 152.855C30.4426 152.404 30.6793 151.998 30.9771 151.661C31.2748 151.324 31.6273 151.065 32.0124 150.899C32.3976 150.733 32.8071 150.664 33.2154 150.697C33.6238 150.729 34.0222 150.862 34.3857 151.087C34.7493 151.312 35.0702 151.625 35.3285 152.006C35.5868 152.386 35.7768 152.826 35.8868 153.299C35.9968 153.772 36.0243 154.266 35.9677 154.752L44.5211 168.181C44.8861 169.056 45.0276 170.041 44.9279 171.012C44.8282 171.983 44.4917 172.897 43.9606 173.64L43.2896 174.578L40.2111 173.84L36.7218 170.149L37.1324 165.966L32.8222 157.846L32.8278 157.84C32.0733 157.783 31.3655 157.383 30.8481 156.722C30.3306 156.061 30.0425 155.189 30.0421 154.283Z" fill="#FFB9B9"/>
<path d="M89.1907 219.934L90.5869 213.717L71.2502 204.303L69.1896 213.478L89.1907 219.934Z" fill="#FFB8B8"/>
<path d="M93.8621 223.142L98.3638 203.097L98.1523 203.028C96.4263 202.471 94.5864 202.759 93.0374 203.828C91.4883 204.897 90.3569 206.66 89.8921 208.729L89.892 208.73L87.1425 220.973L93.8621 223.142Z" fill="#2F2E41"/>
<path d="M62.5575 218.941L66.9004 215.154L56.7847 193.269L50.3748 198.857L62.5575 218.941Z" fill="#FFB8B8"/>
<path d="M64.5092 224.954L78.5132 212.745L78.3844 212.532C77.3331 210.799 75.7506 209.638 73.985 209.304C72.2195 208.969 70.4155 209.489 68.9698 210.75L68.9694 210.75L60.4163 218.207L64.5092 224.954Z" fill="#2F2E41"/>
<path d="M25.6385 188.358L36.5675 175.629C37.5214 174.519 38.7777 173.858 40.1054 173.769C41.4331 173.68 42.7429 174.169 43.794 175.146L64.4297 202.629L62.5824 206.074L42.8791 190.08L29.5382 210.995L16.813 203.367L25.6385 188.358Z" fill="#2F2E41"/>
<path d="M30.3585 191.064L38.3631 190.326L44.1599 188.641C44.4874 188.029 44.963 187.551 45.5233 187.271C46.0835 186.992 46.7015 186.924 47.2946 187.078C47.8878 187.231 48.4276 187.598 48.842 188.129C49.2564 188.661 49.5255 189.331 49.6132 190.051C49.701 190.771 49.6032 191.506 49.3331 192.157C49.0629 192.808 48.6332 193.345 48.1016 193.696C47.5699 194.046 46.9616 194.193 46.3581 194.118C45.7546 194.043 45.1847 193.748 44.7248 193.273L44.7256 193.278L41.2364 195.001L26.2537 201.152L24.4065 199.43L30.3585 191.064Z" fill="#FFB9B9"/>
<path d="M11.0663 217.639L15.5817 221.084H20.9181L45.7525 210.011L82.0807 217.885L83.1069 208.534L49.8572 191.064L20.7126 202.629L11.0663 217.639Z" fill="#2F2E41"/>
<path d="M20.7118 157.846C16.291 157.846 12.7072 153.55 12.7072 148.25C12.7072 142.95 16.291 138.654 20.7118 138.654C25.1326 138.654 28.7163 142.95 28.7163 148.25C28.7163 153.55 25.1326 157.846 20.7118 157.846Z" fill="#FFB9B9"/>
<path d="M0.000217438 186.564C0.000312805 192.356 0.761524 198.111 2.25585 203.619L2.85516 205.828L5.72858 221.576L8.80724 222.561L11.0649 219.116L15.5803 215.179L18.8642 208.781L21.6802 203.156L22.5586 201.399L25.6373 182.945L37.3362 175.071L41.2358 174.333L40.4149 171.626L36.9257 165.967L33.4366 165.475L32.4103 164.49L31.5894 164.983L27.0637 167.073L12.3908 159.641L10.244 160.061L2.85519 167.443C0.966301 173.564 -0.00038147 180.038 0.000217438 186.564Z" fill="#CCCCCC"/>
<path opacity="0.1" d="M2.24144 184.421L10.0406 190.572L21.682 203.156L22.5604 201.399L25.0234 186.636H24.4076L18.045 172.61L2.24144 184.421Z" fill="black"/>
<path d="M18.0445 171.134L24.4071 185.159L28.1015 190.08L31.3853 191.065L22.5599 202.629L10.0401 189.096L2.24094 182.944L18.0445 171.134Z" fill="#CCCCCC"/>
<path d="M26.9378 141.115L27.8051 141.515C27.9367 141.408 28.0495 141.271 28.1371 141.112C28.2246 140.953 28.2851 140.775 28.3152 140.588C28.3452 140.4 28.3442 140.208 28.3123 140.021C28.2803 139.834 28.218 139.657 28.1288 139.499C28.1242 139.491 28.1194 139.483 28.1146 139.475L29.7173 139.385C28.6885 137.742 27.3804 136.38 25.8797 135.389C24.3789 134.397 22.7196 133.799 21.0117 133.634C19.3038 133.469 17.5861 133.741 15.9722 134.431C14.3584 135.122 12.8853 136.215 11.6503 137.639C11.5773 137.338 10.7819 137.924 10.4571 138.518C10.348 138.028 9.60219 140.398 9.3384 142.073C9.21627 141.515 8.74672 142.416 9.15809 143.28C8.89744 143.234 8.77971 144.034 8.98149 144.479C8.69631 144.319 8.74439 145.273 9.05357 145.911C8.64666 145.867 9.08829 155.915 15.1947 155.183C15.6199 152.841 15.5001 152.987 16.0007 149.976C16.2337 149.679 16.4888 149.409 16.7436 149.139L18.1214 147.681C19.7235 145.986 21.1809 143.893 23.3152 143.26C24.7819 142.824 25.7094 142.726 24.91 140.744C25.6322 141.106 26.3066 141.643 27.0353 141.979C27.0255 141.702 26.9236 141.392 26.9378 141.115Z" fill="#2F2E41"/>
<path d="M16.7103 151.08C15.9168 151.08 15.2736 150.309 15.2736 149.358C15.2736 148.406 15.9168 147.635 16.7103 147.635C17.5037 147.635 18.147 148.406 18.147 149.358C18.147 150.309 17.5037 151.08 16.7103 151.08Z" fill="#FFB9B9"/>
<path d="M83.708 108.678L84.1465 116.57L77.563 117.096L77.1246 109.203L83.708 108.678Z" fill="#E6E6E6"/>
<path d="M87.9569 112.868L79.9626 113.506L80.495 123.09L88.4893 122.452L87.9569 112.868ZM80.3334 113.895L87.6324 113.313L88.1185 122.063L80.8195 122.646L80.3334 113.895Z" fill="#CCCCCC"/>
<path d="M46.5047 85.2728L52.9556 86.9346L51.5695 94.6682L45.1186 93.0065L46.5047 85.2728Z" fill="#E6E6E6"/>
<path d="M51.0326 81.5273L49.3495 90.9182L57.1826 92.936L58.8657 83.5452L51.0326 81.5273ZM49.7632 90.5976L51.3 82.0234L58.452 83.8657L56.9152 92.44L49.7632 90.5976Z" fill="#CCCCCC"/>
<path d="M53.2831 122.413L58.0986 127.82L53.5881 133.593L48.7725 128.186L53.2831 122.413Z" fill="#E6E6E6"/>
<path d="M48.4245 121.604L54.2719 128.17L59.749 121.16L53.9016 114.594L48.4245 121.604ZM54.2558 127.58L48.9169 121.585L53.9177 115.184L59.2567 121.179L54.2558 127.58Z" fill="#CCCCCC"/>
<path d="M200.4 155.679H200.65C296.786 155.679 375 120.76 375 77.8391C375 34.9184 296.786 0 200.648 0C104.51 0 26.2957 34.9184 26.2957 77.8391C26.3049 88.3673 31.0943 98.7853 40.3745 108.464C49.6548 118.143 63.2333 126.881 80.2899 134.151L45.2125 151.706L47.011 152.046C76.0853 157.55 105.544 150.048 117.585 146.29C143.014 152.443 171.477 155.67 200.4 155.679ZM200.648 1.24999C295.242 1.24999 372.2 35.6078 372.2 77.8391C372.2 120.07 295.242 154.429 200.648 154.429C171.815 154.439 143.443 151.199 118.165 145.007L117.395 144.818L116.68 145.046C105.749 148.518 77.7032 155.941 49.929 151.223L84.1943 134.075L83.197 133.658C66.1243 126.495 52.5167 117.847 43.2123 108.247C33.908 98.6479 29.1038 88.2996 29.0956 77.8398C29.0956 35.6078 106.054 1.24999 200.648 1.24999Z" fill="#3F3D56"/>
</svg>
