<svg width="375" height="225" viewBox="0 0 375 225" fill="none" xmlns="http://www.w3.org/2000/svg">
<path d="M344.959 154.282C344.961 153.792 344.88 153.306 344.719 152.855C344.558 152.404 344.321 151.997 344.024 151.661C343.726 151.324 343.373 151.065 342.988 150.899C342.603 150.733 342.194 150.664 341.785 150.696C341.377 150.729 340.979 150.861 340.615 151.087C340.251 151.312 339.93 151.625 339.672 152.005C339.414 152.386 339.224 152.826 339.114 153.299C339.004 153.771 338.976 154.266 339.033 154.752L330.48 168.18C330.115 169.055 329.973 170.04 330.073 171.011C330.173 171.982 330.509 172.897 331.04 173.639L331.711 174.578L334.79 173.84L338.279 170.149L337.868 165.966L342.178 157.846L342.173 157.84C342.927 157.782 343.635 157.382 344.153 156.722C344.67 156.061 344.958 155.189 344.959 154.282Z" fill="#FFB9B9"/>
<path d="M285.81 219.933L284.414 213.716L303.75 204.302L305.811 213.477L285.81 219.933Z" fill="#FFB8B8"/>
<path d="M281.138 223.141L276.637 203.096L276.848 203.028C278.574 202.471 280.414 202.758 281.963 203.828C283.512 204.897 284.644 206.66 285.108 208.729L285.109 208.729L287.858 220.972L281.138 223.141Z" fill="#2F2E41"/>
<path d="M312.443 218.94L308.1 215.154L318.216 193.269L324.626 198.857L312.443 218.94Z" fill="#FFB8B8"/>
<path d="M310.491 224.954L296.487 212.744L296.616 212.532C297.667 210.799 299.25 209.637 301.015 209.303C302.781 208.969 304.585 209.489 306.03 210.749L306.031 210.749L314.584 218.207L310.491 224.954Z" fill="#2F2E41"/>
<path d="M349.362 188.357L338.433 175.629C337.479 174.518 336.223 173.858 334.895 173.769C333.567 173.68 332.257 174.168 331.206 175.145L310.571 202.629L312.418 206.073L332.121 190.08L345.462 210.995L358.187 203.367L349.362 188.357Z" fill="#2F2E41"/>
<path d="M344.642 191.063L336.637 190.325L330.841 188.64C330.513 188.028 330.037 187.55 329.477 187.271C328.917 186.991 328.299 186.924 327.706 187.077C327.113 187.231 326.573 187.598 326.158 188.129C325.744 188.66 325.475 189.331 325.387 190.051C325.3 190.77 325.397 191.505 325.667 192.156C325.938 192.808 326.367 193.345 326.899 193.695C327.431 194.046 328.039 194.193 328.642 194.117C329.246 194.042 329.816 193.747 330.276 193.273L330.275 193.278L333.764 195L348.747 201.152L350.594 199.429L344.642 191.063Z" fill="#FFB9B9"/>
<path d="M363.934 217.639L359.418 221.084H354.082L329.248 210.011L292.919 217.885L291.893 208.534L325.143 191.064L354.287 202.629L363.934 217.639Z" fill="#2F2E41"/>
<path d="M354.289 157.846C358.71 157.846 362.293 153.55 362.293 148.25C362.293 142.95 358.71 138.653 354.289 138.653C349.868 138.653 346.284 142.95 346.284 148.25C346.284 153.55 349.868 157.846 354.289 157.846Z" fill="#FFB9B9"/>
<path d="M375 186.563C375 192.355 374.239 198.11 372.744 203.618L372.145 205.828L369.272 221.575L366.193 222.56L363.935 219.115L359.42 215.178L356.136 208.78L353.32 203.155L352.442 201.398L349.363 182.944L337.664 175.07L333.764 174.332L334.585 171.625L338.075 165.966L341.564 165.474L342.59 164.489L343.411 164.982L347.937 167.072L362.609 159.64L364.756 160.06L372.145 167.442C374.034 173.563 375.001 180.037 375 186.563Z" fill="#CCCCCC"/>
<path opacity="0.1" d="M372.759 184.421L364.96 190.572L353.318 203.156L352.44 201.399L349.977 186.636H350.593L356.955 172.61L372.759 184.421Z" fill="black"/>
<path d="M356.956 171.134L350.593 185.159L346.898 190.08L343.615 191.065L352.44 202.629L364.96 189.096L372.759 182.944L356.956 171.134Z" fill="#CCCCCC"/>
<path d="M348.063 141.114L347.195 141.514C347.064 141.408 346.951 141.271 346.863 141.112C346.776 140.952 346.715 140.774 346.685 140.587C346.655 140.4 346.656 140.207 346.688 140.021C346.72 139.834 346.783 139.657 346.872 139.499C346.876 139.491 346.881 139.482 346.886 139.474L345.283 139.384C346.312 137.742 347.62 136.379 349.121 135.388C350.622 134.397 352.281 133.799 353.989 133.634C355.697 133.469 357.414 133.74 359.028 134.431C360.642 135.121 362.115 136.214 363.35 137.638C363.423 137.337 364.219 137.923 364.543 138.518C364.652 138.027 365.398 140.397 365.662 142.073C365.784 141.515 366.254 142.415 365.842 143.279C366.103 143.234 366.221 144.033 366.019 144.479C366.304 144.318 366.256 145.272 365.947 145.91C366.354 145.867 365.912 155.915 359.806 155.182C359.381 152.841 359.5 152.986 359 149.975C358.767 149.679 358.512 149.408 358.257 149.139L356.879 147.681C355.277 145.985 353.82 143.893 351.685 143.259C350.219 142.824 349.291 142.725 350.09 140.744C349.368 141.105 348.694 141.643 347.965 141.978C347.975 141.701 348.077 141.391 348.063 141.114Z" fill="#2F2E41"/>
<path d="M358.29 151.08C359.084 151.08 359.727 150.308 359.727 149.357C359.727 148.406 359.084 147.635 358.29 147.635C357.497 147.635 356.854 148.406 356.854 149.357C356.854 150.308 357.497 151.08 358.29 151.08Z" fill="#FFB9B9"/>
<path d="M291.293 108.678L290.855 116.57L297.438 117.096L297.877 109.203L291.293 108.678Z" fill="#E6E6E6"/>
<path d="M287.044 112.868L295.039 113.506L294.506 123.09L286.512 122.452L287.044 112.868ZM294.668 113.895L287.369 113.313L286.883 122.063L294.182 122.646L294.668 113.895Z" fill="#CCCCCC"/>
<path d="M328.496 85.2728L322.045 86.9346L323.431 94.6682L329.882 93.0065L328.496 85.2728Z" fill="#E6E6E6"/>
<path d="M323.968 81.5273L325.651 90.9182L317.818 92.936L316.135 83.5452L323.968 81.5273ZM325.237 90.5976L323.7 82.0234L316.549 83.8657L318.085 92.44L325.237 90.5976Z" fill="#CCCCCC"/>
<path d="M321.718 122.413L316.903 127.82L321.413 133.593L326.229 128.186L321.718 122.413Z" fill="#E6E6E6"/>
<path d="M326.577 121.604L320.729 128.17L315.252 121.16L321.1 114.594L326.577 121.604ZM320.745 127.58L326.084 121.585L321.083 115.184L315.745 121.179L320.745 127.58Z" fill="#CCCCCC"/>
<path d="M174.599 155.679H174.349C78.2136 155.679 0 120.76 0 77.8391C0 34.9184 78.2136 0 174.351 0C270.489 0 348.703 34.9184 348.703 77.8391C348.694 88.3673 343.905 98.7853 334.625 108.464C325.344 118.143 311.766 126.881 294.709 134.151L329.787 151.706L327.988 152.046C298.914 157.55 269.455 150.048 257.414 146.29C231.986 152.443 203.523 155.67 174.599 155.679ZM174.351 1.24999C79.7577 1.24999 2.79979 35.6078 2.79979 77.8391C2.79979 120.07 79.7577 154.429 174.351 154.429C203.184 154.439 231.556 151.199 256.834 145.007L257.604 144.818L258.32 145.046C269.251 148.518 297.296 155.941 325.07 151.223L290.805 134.075L291.802 133.658C308.875 126.495 322.483 117.847 331.787 108.247C341.091 98.6479 345.895 88.2996 345.904 77.8398C345.904 35.6078 268.946 1.24999 174.351 1.24999Z" fill="#3F3D56"/>
</svg>
