<svg width="513" height="596" viewBox="0 0 513 596" fill="none" xmlns="http://www.w3.org/2000/svg">
<path d="M0 0V596H513V0H0ZM27.3718 546.627C25.6254 546.627 23.9183 546.11 22.4663 545.141C21.0143 544.173 19.8826 542.796 19.2143 541.185C18.546 539.574 18.3711 537.801 18.7118 536.091C19.0525 534.38 19.8935 532.809 21.1283 531.576C22.3631 530.343 23.9364 529.504 25.6492 529.164C27.362 528.823 29.1373 528.998 30.7507 529.665C32.3641 530.333 33.7431 531.463 34.7133 532.912C35.6835 534.362 36.2014 536.067 36.2014 537.811C36.2014 540.149 35.2711 542.392 33.6153 544.045C31.9594 545.698 29.7135 546.627 27.3718 546.627ZM27.3718 503.426C25.6254 503.426 23.9183 502.909 22.4663 501.94C21.0143 500.971 19.8826 499.594 19.2143 497.983C18.546 496.372 18.3711 494.6 18.7118 492.889C19.0525 491.179 19.8935 489.608 21.1283 488.375C22.3631 487.142 23.9364 486.303 25.6492 485.962C27.362 485.622 29.1373 485.797 30.7507 486.464C32.3641 487.131 33.7431 488.261 34.7133 489.711C35.6835 491.161 36.2014 492.866 36.2014 494.609C36.2014 496.948 35.2711 499.19 33.6153 500.844C31.9594 502.497 29.7135 503.426 27.3718 503.426ZM27.3718 461.107C25.6254 461.107 23.9183 460.589 22.4663 459.621C21.0143 458.652 19.8826 457.275 19.2143 455.664C18.546 454.053 18.3711 452.28 18.7118 450.57C19.0525 448.86 19.8935 447.289 21.1283 446.056C22.3631 444.823 23.9364 443.983 25.6492 443.643C27.362 443.303 29.1373 443.477 30.7507 444.145C32.3641 444.812 33.7431 445.942 34.7133 447.392C35.6835 448.842 36.2014 450.546 36.2014 452.29C36.2014 454.628 35.2711 456.871 33.6153 458.524C31.9594 460.178 29.7135 461.107 27.3718 461.107ZM27.3718 417.905C25.6254 417.905 23.9183 417.388 22.4663 416.419C21.0143 415.451 19.8826 414.074 19.2143 412.463C18.546 410.852 18.3711 409.079 18.7118 407.369C19.0525 405.659 19.8935 404.088 21.1283 402.854C22.3631 401.621 23.9364 400.782 25.6492 400.442C27.362 400.101 29.1373 400.276 30.7507 400.943C32.3641 401.611 33.7431 402.741 34.7133 404.191C35.6835 405.64 36.2014 407.345 36.2014 409.089C36.2014 411.427 35.2711 413.67 33.6153 415.323C31.9594 416.976 29.7135 417.905 27.3718 417.905ZM27.3718 374.704C25.6254 374.704 23.9183 374.187 22.4663 373.218C21.0143 372.25 19.8826 370.873 19.2143 369.262C18.546 367.651 18.3711 365.878 18.7118 364.168C19.0525 362.457 19.8935 360.886 21.1283 359.653C22.3631 358.42 23.9364 357.581 25.6492 357.24C27.362 356.9 29.1373 357.075 30.7507 357.742C32.3641 358.409 33.7431 359.539 34.7133 360.989C35.6835 362.439 36.2014 364.144 36.2014 365.888C36.2014 368.226 35.2711 370.468 33.6153 372.122C31.9594 373.775 29.7135 374.704 27.3718 374.704ZM27.3718 332.385C25.6254 332.385 23.9183 331.868 22.4663 330.899C21.0143 329.93 19.8826 328.553 19.2143 326.942C18.546 325.331 18.3711 323.558 18.7118 321.848C19.0525 320.138 19.8935 318.567 21.1283 317.334C22.3631 316.101 23.9364 315.261 25.6492 314.921C27.362 314.581 29.1373 314.755 30.7507 315.423C32.3641 316.09 33.7431 317.22 34.7133 318.67C35.6835 320.12 36.2014 321.824 36.2014 323.568C36.2014 325.906 35.2711 328.149 33.6153 329.802C31.9594 331.456 29.7135 332.385 27.3718 332.385ZM27.3718 289.183C25.6254 289.183 23.9183 288.666 22.4663 287.698C21.0143 286.729 19.8826 285.352 19.2143 283.741C18.546 282.13 18.3711 280.357 18.7118 278.647C19.0525 276.937 19.8935 275.366 21.1283 274.133C22.3631 272.9 23.9364 272.06 25.6492 271.72C27.362 271.38 29.1373 271.554 30.7507 272.221C32.3641 272.889 33.7431 274.019 34.7133 275.469C35.6835 276.919 36.2014 278.623 36.2014 280.367C36.2014 282.705 35.2711 284.948 33.6153 286.601C31.9594 288.255 29.7135 289.183 27.3718 289.183ZM27.3718 245.982C25.6254 245.982 23.9183 245.465 22.4663 244.496C21.0143 243.528 19.8826 242.151 19.2143 240.54C18.546 238.929 18.3711 237.156 18.7118 235.446C19.0525 233.735 19.8935 232.164 21.1283 230.931C22.3631 229.698 23.9364 228.859 25.6492 228.519C27.362 228.178 29.1373 228.353 30.7507 229.02C32.3641 229.688 33.7431 230.818 34.7133 232.267C35.6835 233.717 36.2014 235.422 36.2014 237.166C36.2014 239.504 35.2711 241.747 33.6153 243.4C31.9594 245.053 29.7135 245.982 27.3718 245.982ZM27.3718 203.663C25.6254 203.663 23.9183 203.146 22.4663 202.177C21.0143 201.208 19.8826 199.831 19.2143 198.22C18.546 196.609 18.3711 194.836 18.7118 193.126C19.0525 191.416 19.8935 189.845 21.1283 188.612C22.3631 187.379 23.9364 186.539 25.6492 186.199C27.362 185.859 29.1373 186.033 30.7507 186.701C32.3641 187.368 33.7431 188.498 34.7133 189.948C35.6835 191.398 36.2014 193.102 36.2014 194.846C36.2014 197.184 35.2711 199.427 33.6153 201.08C31.9594 202.734 29.7135 203.663 27.3718 203.663ZM27.3718 160.462C25.6254 160.462 23.9183 159.944 22.4663 158.976C21.0143 158.007 19.8826 156.63 19.2143 155.019C18.546 153.408 18.3711 151.635 18.7118 149.925C19.0525 148.215 19.8935 146.644 21.1283 145.411C22.3631 144.178 23.9364 143.338 25.6492 142.998C27.362 142.658 29.1373 142.832 30.7507 143.5C32.3641 144.167 33.7431 145.297 34.7133 146.747C35.6835 148.197 36.2014 149.901 36.2014 151.645C36.2014 153.983 35.2711 156.226 33.6153 157.879C31.9594 159.533 29.7135 160.462 27.3718 160.462ZM27.3718 117.26C25.6254 117.26 23.9183 116.743 22.4663 115.774C21.0143 114.806 19.8826 113.429 19.2143 111.818C18.546 110.207 18.3711 108.434 18.7118 106.724C19.0525 105.014 19.8935 103.443 21.1283 102.21C22.3631 100.977 23.9364 100.137 25.6492 99.7966C27.362 99.4564 29.1373 99.631 30.7507 100.298C32.3641 100.966 33.7431 102.096 34.7133 103.546C35.6835 104.995 36.2014 106.7 36.2014 108.444C36.2014 110.782 35.2711 113.025 33.6153 114.678C31.9594 116.331 29.7135 117.26 27.3718 117.26ZM27.3718 75.8225C25.6254 75.8225 23.9183 75.3054 22.4663 74.3366C21.0143 73.3679 19.8826 71.9909 19.2143 70.3799C18.546 68.7689 18.3711 66.9961 18.7118 65.2859C19.0525 63.5756 19.8935 62.0047 21.1283 60.7717C22.3631 59.5386 23.9364 58.6989 25.6492 58.3588C27.362 58.0186 29.1373 58.1932 30.7507 58.8605C32.3641 59.5278 33.7431 60.6578 34.7133 62.1077C35.6835 63.5576 36.2014 65.2622 36.2014 67.0059C36.2014 69.3442 35.2711 71.5867 33.6153 73.2402C31.9594 74.8936 29.7135 75.8225 27.3718 75.8225Z" fill="#F2F2F2"/>
<path opacity="0.3" d="M513 45.2625V43.4992H60.7088V0H58.9429V43.4992H0V45.2625H58.9429V86.4024H0V88.1657H58.9429V129.306H0V131.069H58.9429V172.208H0V173.971H58.9429V215.11H0V216.873H58.9429V258.013H0V259.777H58.9429V300.916H0V302.679H58.9429V343.819H0V345.582H58.9429V386.721H0V388.484H58.9429V429.623H0V431.387H58.9429V472.527H0V474.29H58.9429V515.429H0V517.192H58.9429V558.331H0V560.095H58.9429V596H60.7088V560.095H513V558.331H60.7088V517.192H513V515.429H60.7088V474.29H513V472.527H60.7088V431.387H513V429.623H60.7088V388.484H513V386.721H60.7088V345.582H513V343.819H60.7088V302.679H513V300.916H60.7088V259.777H513V258.013H60.7088V216.873H513V215.11H60.7088V173.971H513V172.208H60.7088V131.069H513V129.306H60.7088V88.1657H513V86.4024H60.7088V45.2625H513Z" fill="#3F3D56"/>
</svg>
