<svg width="608" height="415" viewBox="0 0 608 415" fill="none" xmlns="http://www.w3.org/2000/svg">
<g clip-path="url(#clip0_316_847)">
<path d="M357.789 304.449C442.051 304.449 510.358 236.296 510.358 152.225C510.358 68.1533 442.051 0 357.789 0C273.528 0 205.22 68.1533 205.22 152.225C205.22 236.296 273.528 304.449 357.789 304.449Z" fill="#F2F2F2"/>
<path d="M86.0482 368.047C90.1924 369.501 94.6419 369.865 98.968 369.105C103.294 368.344 107.351 366.485 110.748 363.706C119.399 356.461 122.112 344.526 124.319 333.474L130.847 300.784L117.18 310.173C107.351 316.926 97.3017 323.894 90.4966 333.674C83.6915 343.454 80.7211 356.805 86.1888 367.388" fill="#E6E6E6"/>
<path d="M87.2165 407.625C85.8332 397.572 84.4109 387.39 85.3811 377.229C86.2429 368.205 89.0021 359.391 94.6196 352.165C97.6014 348.336 101.23 345.056 105.341 342.471C106.413 341.796 107.4 343.491 106.333 344.164C99.2185 348.65 93.7158 355.274 90.6182 363.081C87.1969 371.764 86.6475 381.228 87.2371 390.451C87.5936 396.029 88.3493 401.57 89.1107 407.104C89.1707 407.354 89.1333 407.618 89.0059 407.842C88.8786 408.065 88.6709 408.233 88.4247 408.309C88.1736 408.377 87.9059 408.343 87.6797 408.215C87.4535 408.087 87.2871 407.875 87.2165 407.625Z" fill="#F2F2F2"/>
<path d="M178.758 393.779C180.376 395.685 182.458 397.144 184.805 398.014C187.152 398.885 189.684 399.137 192.157 398.748C198.503 397.674 203.285 392.586 207.563 387.786L220.217 373.591L210.785 374.277C204.002 374.77 197.048 375.306 190.876 378.158C184.705 381.009 179.387 386.719 179.018 393.495" fill="#E6E6E6"/>
<path d="M167.899 413.574C170.123 408.233 172.365 402.818 175.778 398.101C178.809 393.912 182.712 390.372 187.561 388.435C190.134 387.41 192.865 386.841 195.633 386.752C196.356 386.729 196.351 387.846 195.632 387.87C190.838 388.029 186.219 389.704 182.44 392.651C178.25 395.936 175.245 400.432 172.87 405.136C171.434 407.981 170.205 410.923 168.981 413.863C168.938 414.003 168.843 414.122 168.716 414.195C168.589 414.269 168.438 414.291 168.295 414.258C168.152 414.219 168.03 414.125 167.956 413.997C167.882 413.869 167.861 413.717 167.899 413.574H167.899Z" fill="#F2F2F2"/>
<path d="M100.54 389.836C102.317 392.531 104.76 394.724 107.634 396.204C110.507 397.684 113.714 398.4 116.946 398.284C125.251 397.891 132.174 392.108 138.407 386.617L156.842 370.377L144.641 369.795C135.867 369.376 126.866 368.985 118.509 371.685C110.152 374.384 102.445 380.881 100.917 389.512" fill="#E6E6E6"/>
<path d="M83.3073 413.404C89.9651 401.65 97.6876 388.587 111.486 384.411C115.323 383.254 119.346 382.84 123.339 383.19C124.597 383.299 124.283 385.234 123.027 385.126C116.334 384.571 109.655 386.335 104.112 390.119C98.7789 393.741 94.6264 398.776 91.1117 404.116C88.9589 407.387 87.0305 410.797 85.1017 414.202C84.4853 415.29 82.6837 414.505 83.3073 413.404Z" fill="#F2F2F2"/>
<path d="M370.836 212.776C384.074 205.516 400.55 206.973 414.813 211.936C429.076 216.9 442.002 225.031 455.853 231.045C498.179 249.424 549.194 246.46 589.096 223.305C592.87 232.064 588.822 242.082 584.374 250.52C579.927 258.958 574.859 268.103 576.69 277.46C579.032 289.434 591.614 296.613 596.713 307.701C601.552 318.227 598.955 330.589 595.242 341.561C591.529 352.534 586.711 363.588 587.342 375.152C587.973 386.716 596.393 398.943 608 398.953C590.799 401.619 573.259 404.288 556.068 401.555C538.878 398.822 521.777 389.751 513.796 374.316C509.806 366.601 508.268 357.731 503.686 350.351C495.882 337.78 480.905 331.869 466.774 327.414C452.642 322.958 437.52 318.667 427.57 307.708C418.09 297.266 415.087 282.721 410.065 269.553C401.605 247.511 386.913 228.394 367.772 214.524" fill="#6C63FF"/>
<path d="M386.174 158.068C381.527 155.911 375.822 155.204 371.093 157.208C366.364 159.213 363.141 164.35 364.67 168.897C365.363 170.958 366.942 172.986 366.327 175.068C365.853 176.67 364.202 177.728 362.58 178.48C360.958 179.233 359.183 179.865 358.01 181.134C356.837 182.403 356.592 184.587 358.058 185.571C358.541 185.895 359.144 186.049 359.612 186.39C360.011 186.714 360.299 187.153 360.436 187.648C360.572 188.142 360.551 188.667 360.374 189.149C359.984 190.118 359.339 190.965 358.508 191.599C356.844 193.031 354.646 194.669 355.162 196.701C355.354 197.244 355.674 197.733 356.095 198.126C356.517 198.519 357.027 198.805 357.583 198.96C358.737 199.292 359.935 199.45 361.137 199.428L410.225 200.971C411.845 201.092 413.474 201.001 415.071 200.701C415.847 200.559 416.586 200.26 417.241 199.821C417.896 199.382 418.453 198.813 418.878 198.149C419.818 196.413 419.2 194.275 418.04 192.654C416.879 191.033 415.236 189.754 413.878 188.265C412.521 186.777 411.41 184.919 411.649 182.995C411.841 181.455 412.859 180.124 413.589 178.724C414.32 177.325 414.745 175.576 413.798 174.289C412.465 172.475 409.263 172.639 407.746 170.948C406.602 169.673 406.823 167.836 406.709 166.191C406.435 162.234 403.689 158.498 399.781 156.762C397.793 155.911 395.631 155.544 393.474 155.69C391.316 155.837 389.224 156.493 387.37 157.606L386.174 158.068Z" fill="#2F2E41"/>
<path d="M355.154 406.432L347.466 404.128L352.717 373.443L364.064 376.845L355.154 406.432Z" fill="#A0616A"/>
<path d="M354.876 414.456L330.086 407.025L330.181 406.712C330.561 405.448 331.188 404.27 332.024 403.248C332.861 402.225 333.891 401.377 335.056 400.751C336.222 400.126 337.499 399.736 338.815 399.603C340.132 399.47 341.461 399.597 342.728 399.977L342.729 399.977L357.87 404.516L354.876 414.456Z" fill="#2F2E41"/>
<path d="M427.705 406.692L419.677 406.691L415.858 375.797L427.706 375.798L427.705 406.692Z" fill="#A0616A"/>
<path d="M429.752 414.456L403.867 414.455V414.128C403.867 412.808 404.128 411.501 404.634 410.282C405.14 409.062 405.882 407.954 406.818 407.02C407.753 406.087 408.864 405.346 410.086 404.841C411.309 404.336 412.619 404.076 413.942 404.076H413.943L429.752 404.077L429.752 414.456Z" fill="#2F2E41"/>
<path d="M416.561 383.325C415.86 383.325 415.183 383.075 414.65 382.622C414.117 382.168 413.763 381.54 413.652 380.85L401.733 306.662C401.654 306.171 401.416 305.718 401.056 305.374C400.697 305.029 400.234 304.811 399.738 304.753C399.243 304.695 398.742 304.799 398.312 305.051C397.881 305.302 397.545 305.687 397.353 306.146L366.472 380.322C366.184 381.007 365.649 381.559 364.972 381.867C364.295 382.175 363.526 382.217 362.819 381.984L351.665 378.274C350.971 378.046 350.387 377.567 350.027 376.931C349.668 376.295 349.56 375.549 349.723 374.837L375.03 263.105C375.154 262.567 375.427 262.074 375.817 261.682C376.207 261.291 376.699 261.016 377.238 260.889L411.178 253.028C411.595 252.934 412.028 252.93 412.447 253.016C412.866 253.103 413.261 253.279 413.606 253.531C435.954 269.733 434.066 322.667 429.901 380.144C429.849 380.863 429.534 381.539 429.016 382.041C428.497 382.544 427.812 382.839 427.089 382.871L416.69 383.322C416.647 383.324 416.604 383.325 416.561 383.325Z" fill="#2F2E41"/>
<path d="M387.991 200.591C396.873 200.591 404.073 193.407 404.073 184.545C404.073 175.683 396.873 168.499 387.991 168.499C379.108 168.499 371.908 175.683 371.908 184.545C371.908 193.407 379.108 200.591 387.991 200.591Z" fill="#A0616A"/>
<path d="M388.685 267.711C384.824 267.687 381.017 266.809 377.537 265.141L377.418 265.085L377.37 264.962L362.945 227.673L362.671 221.194C362.579 219.027 362.943 216.865 363.739 214.848C364.536 212.83 365.746 211.001 367.294 209.478C368.842 207.955 370.692 206.773 372.725 206.007C374.759 205.241 376.93 204.908 379.1 205.031L394.415 205.891C398.371 206.116 402.092 207.836 404.822 210.701C407.551 213.567 409.083 217.363 409.106 221.316C409.504 222.079 412.329 228.04 406.793 233.642C406.586 234.917 404.65 248.176 411.957 255.467L412.162 255.672L411.983 255.9C411.867 256.048 402.482 267.709 388.685 267.711Z" fill="#3F3D56"/>
<path d="M410.19 270.524C411.095 270.197 411.917 269.676 412.598 268.997C413.279 268.318 413.803 267.499 414.132 266.597C414.462 265.694 414.589 264.731 414.505 263.774C414.42 262.817 414.127 261.89 413.645 261.059L428.94 243.391L416.883 241.825L404.207 258.843C402.86 259.743 401.892 261.105 401.485 262.67C401.078 264.236 401.26 265.895 401.998 267.335C402.735 268.775 403.977 269.895 405.486 270.483C406.996 271.071 408.67 271.085 410.19 270.524Z" fill="#A0616A"/>
<path d="M419.753 256.887C419.178 256.887 418.616 256.719 418.136 256.404L410.571 251.453C409.935 251.039 409.485 250.395 409.314 249.656C409.143 248.918 409.266 248.142 409.655 247.491L415.132 238.311C415.428 237.814 415.616 237.261 415.683 236.687C415.749 236.113 415.693 235.531 415.519 234.98C415.344 234.429 415.055 233.921 414.669 233.489C414.284 233.058 413.811 232.712 413.283 232.476L397.549 225.438C395.614 224.561 394.035 223.055 393.07 221.166C392.105 219.277 391.812 217.117 392.238 215.04C392.532 213.639 393.146 212.325 394.032 211.2C394.918 210.074 396.053 209.168 397.347 208.552C398.642 207.935 400.061 207.625 401.496 207.645C402.93 207.665 404.34 208.015 405.617 208.668L429.486 220.871C431.096 221.694 432.509 222.855 433.628 224.274C434.746 225.693 435.545 227.336 435.968 229.091C436.391 230.846 436.429 232.672 436.079 234.443C435.73 236.214 435 237.889 433.942 239.353L422.142 255.666C421.87 256.044 421.511 256.352 421.095 256.565C420.68 256.777 420.22 256.888 419.753 256.887Z" fill="#3F3D56"/>
<path d="M371.538 182.264C376.616 181.857 380.833 176.795 380.305 171.738C380.246 173.822 380.956 175.856 382.301 177.451C383.646 179.047 385.532 180.093 387.6 180.392C389.93 180.648 392.484 179.945 394.512 181.117C396.758 182.416 397.477 185.57 399.816 186.692C402.077 187.776 404.949 186.298 406.066 184.057C407.182 181.816 406.908 179.124 406.168 176.733C405.112 173.323 403.19 170.244 400.589 167.795C397.987 165.346 394.794 163.61 391.321 162.757C387.848 161.903 384.212 161.961 380.768 162.925C377.324 163.889 374.189 165.725 371.667 168.256C369.531 170.399 367.836 173.131 367.561 176.141C367.286 179.15 368.685 182.416 371.394 183.768L371.538 182.264Z" fill="#2F2E41"/>
<path d="M334.122 137.815C334.969 138.271 335.706 138.906 336.281 139.677C336.855 140.448 337.253 141.335 337.447 142.275C337.641 143.216 337.626 144.188 337.402 145.122C337.179 146.056 336.753 146.93 336.155 147.683L348.7 167.39L336.542 167.182L326.493 148.5C325.293 147.413 324.534 145.924 324.361 144.317C324.187 142.709 324.611 141.093 325.551 139.776C326.491 138.459 327.883 137.532 329.463 137.171C331.042 136.809 332.7 137.039 334.122 137.815V137.815Z" fill="#A0616A"/>
<path d="M344.234 151.848L360.39 189.938L377.329 218.596C378.044 219.806 378.474 221.162 378.587 222.562C378.699 223.962 378.492 225.369 377.98 226.677C377.468 227.985 376.664 229.16 375.63 230.113C374.597 231.066 373.359 231.773 372.012 232.179C369.874 232.811 367.581 232.661 365.545 231.754C363.51 230.847 361.866 229.244 360.912 227.233L328.266 157.633C328.088 157.255 327.994 156.844 327.988 156.426C327.983 156.009 328.066 155.595 328.233 155.212C328.401 154.83 328.648 154.487 328.958 154.207C329.268 153.927 329.635 153.716 330.033 153.588L340.619 150.195C340.819 150.131 341.026 150.088 341.236 150.067C341.861 150.004 342.49 150.143 343.03 150.464C343.569 150.784 343.991 151.27 344.234 151.848Z" fill="#3F3D56"/>
<path d="M495.685 415H0.654801C0.481137 415 0.314585 414.931 0.191786 414.809C0.0689873 414.686 0 414.52 0 414.347C0 414.173 0.0689873 414.007 0.191786 413.885C0.314585 413.762 0.481137 413.693 0.654801 413.693H495.685C495.858 413.693 496.025 413.762 496.148 413.885C496.27 414.007 496.339 414.173 496.339 414.347C496.339 414.52 496.27 414.686 496.148 414.809C496.025 414.931 495.858 415 495.685 415Z" fill="#CCCCCC"/>
<path d="M391.478 70.698V124.271C391.478 124.444 391.409 124.61 391.287 124.733C391.164 124.855 390.997 124.924 390.824 124.924C390.65 124.924 390.483 124.855 390.36 124.733C390.238 124.61 390.169 124.444 390.169 124.271V70.698C390.169 70.5247 390.238 70.3586 390.36 70.236C390.483 70.1135 390.65 70.0447 390.824 70.0447C390.997 70.0447 391.164 70.1135 391.287 70.236C391.409 70.3586 391.478 70.5247 391.478 70.698Z" fill="#CCCCCC"/>
<path d="M448.332 116.146L429.811 134.625C429.688 134.747 429.522 134.816 429.349 134.815C429.175 134.815 429.009 134.746 428.886 134.624C428.764 134.502 428.695 134.336 428.695 134.163C428.694 133.99 428.763 133.824 428.885 133.701L447.406 115.222C447.467 115.162 447.539 115.113 447.618 115.08C447.698 115.047 447.783 115.03 447.869 115.03C447.955 115.03 448.041 115.047 448.12 115.08C448.2 115.112 448.272 115.161 448.333 115.221C448.394 115.282 448.442 115.354 448.475 115.434C448.508 115.513 448.525 115.598 448.525 115.684C448.525 115.77 448.508 115.855 448.475 115.934C448.441 116.014 448.393 116.086 448.332 116.146Z" fill="#CCCCCC"/>
<path d="M333.315 116.146L351.836 134.625C351.959 134.748 352.125 134.817 352.299 134.817C352.472 134.817 352.639 134.748 352.762 134.625C352.885 134.503 352.954 134.336 352.954 134.163C352.954 133.99 352.885 133.824 352.762 133.701L334.241 115.222C334.18 115.162 334.108 115.113 334.029 115.08C333.949 115.047 333.864 115.03 333.778 115.03C333.692 115.03 333.606 115.047 333.527 115.08C333.447 115.112 333.375 115.161 333.314 115.221C333.253 115.282 333.205 115.354 333.172 115.434C333.139 115.513 333.122 115.598 333.122 115.684C333.122 115.77 333.14 115.855 333.173 115.934C333.206 116.014 333.254 116.086 333.315 116.146Z" fill="#CCCCCC"/>
</g>
<defs>
<clipPath id="clip0_316_847">
<rect width="608" height="415" fill="white"/>
</clipPath>
</defs>
</svg>
