<svg width="375" height="225" viewBox="0 0 375 225" fill="none" xmlns="http://www.w3.org/2000/svg">
<path d="M30.0421 154.283C30.0393 153.792 30.1208 153.306 30.2817 152.855C30.4426 152.404 30.6793 151.998 30.9771 151.661C31.2748 151.324 31.6273 151.065 32.0124 150.899C32.3976 150.733 32.8071 150.664 33.2154 150.697C33.6238 150.729 34.0222 150.862 34.3857 151.087C34.7493 151.312 35.0702 151.625 35.3285 152.006C35.5868 152.386 35.7768 152.826 35.8868 153.299C35.9968 153.772 36.0243 154.266 35.9677 154.752L44.5211 168.181C44.8861 169.056 45.0276 170.041 44.9279 171.012C44.8282 171.983 44.4917 172.897 43.9606 173.64L43.2896 174.578L40.2111 173.84L36.7218 170.149L37.1324 165.966L32.8222 157.846L32.8278 157.84C32.0733 157.783 31.3655 157.383 30.8481 156.722C30.3306 156.061 30.0425 155.189 30.0421 154.283Z" fill="#FFB9B9"/>
<path d="M89.1907 219.934L90.5869 213.717L71.2502 204.303L69.1896 213.478L89.1907 219.934Z" fill="#FFB8B8"/>
<path d="M93.8621 223.142L98.3638 203.097L98.1523 203.028C96.4263 202.471 94.5864 202.759 93.0374 203.828C91.4883 204.897 90.3569 206.66 89.8921 208.729L89.892 208.73L87.1425 220.973L93.8621 223.142Z" fill="#2F2E41"/>
<path d="M62.5575 218.941L66.9004 215.154L56.7847 193.269L50.3748 198.857L62.5575 218.941Z" fill="#FFB8B8"/>
<path d="M64.5092 224.954L78.5132 212.745L78.3844 212.532C77.3331 210.799 75.7506 209.638 73.985 209.304C72.2195 208.969 70.4155 209.489 68.9698 210.75L68.9694 210.75L60.4163 218.207L64.5092 224.954Z" fill="#2F2E41"/>
<path d="M25.6385 188.358L36.5675 175.629C37.5214 174.519 38.7777 173.858 40.1054 173.769C41.4331 173.68 42.7429 174.169 43.794 175.146L64.4297 202.629L62.5824 206.074L42.8791 190.08L29.5382 210.995L16.813 203.367L25.6385 188.358Z" fill="#2F2E41"/>
<path d="M30.3585 191.064L38.3631 190.326L44.1599 188.641C44.4874 188.029 44.963 187.551 45.5233 187.271C46.0835 186.992 46.7015 186.924 47.2946 187.078C47.8878 187.231 48.4276 187.598 48.842 188.129C49.2564 188.661 49.5255 189.331 49.6132 190.051C49.701 190.771 49.6032 191.506 49.3331 192.157C49.0629 192.808 48.6332 193.345 48.1016 193.696C47.5699 194.046 46.9616 194.193 46.3581 194.118C45.7546 194.043 45.1847 193.748 44.7248 193.273L44.7256 193.278L41.2364 195.001L26.2537 201.152L24.4065 199.43L30.3585 191.064Z" fill="#FFB9B9"/>
<path d="M11.0663 217.639L15.5817 221.084H20.9181L45.7525 210.011L82.0807 217.885L83.1069 208.534L49.8572 191.064L20.7126 202.629L11.0663 217.639Z" fill="#2F2E41"/>
<path d="M20.7118 157.846C16.291 157.846 12.7072 153.55 12.7072 148.25C12.7072 142.95 16.291 138.654 20.7118 138.654C25.1326 138.654 28.7163 142.95 28.7163 148.25C28.7163 153.55 25.1326 157.846 20.7118 157.846Z" fill="#FFB9B9"/>
<path d="M0.000217438 186.564C0.000312805 192.356 0.761524 198.111 2.25585 203.619L2.85516 205.828L5.72858 221.576L8.80724 222.561L11.0649 219.116L15.5803 215.179L18.8642 208.781L21.6802 203.156L22.5586 201.399L25.6373 182.945L37.3362 175.071L41.2358 174.333L40.4149 171.626L36.9257 165.967L33.4366 165.475L32.4103 164.49L31.5894 164.983L27.0637 167.073L12.3908 159.641L10.244 160.061L2.85519 167.443C0.966301 173.564 -0.00038147 180.038 0.000217438 186.564Z" fill="#CCCCCC"/>
<path opacity="0.1" d="M2.24144 184.421L10.0406 190.572L21.682 203.156L22.5604 201.399L25.0234 186.636H24.4076L18.045 172.61L2.24144 184.421Z" fill="black"/>
<path d="M18.0445 171.134L24.4071 185.159L28.1015 190.08L31.3853 191.065L22.5599 202.629L10.0401 189.096L2.24094 182.944L18.0445 171.134Z" fill="#CCCCCC"/>
<path d="M26.9378 141.115L27.8051 141.515C27.9367 141.408 28.0495 141.271 28.1371 141.112C28.2246 140.953 28.2851 140.775 28.3152 140.588C28.3452 140.4 28.3442 140.208 28.3123 140.021C28.2803 139.834 28.218 139.657 28.1288 139.499C28.1242 139.491 28.1194 139.483 28.1146 139.475L29.7173 139.385C28.6885 137.742 27.3804 136.38 25.8797 135.389C24.3789 134.397 22.7196 133.799 21.0117 133.634C19.3038 133.469 17.5861 133.741 15.9722 134.431C14.3584 135.122 12.8853 136.215 11.6503 137.639C11.5773 137.338 10.7819 137.924 10.4571 138.518C10.348 138.028 9.60219 140.398 9.3384 142.073C9.21627 141.515 8.74672 142.416 9.15809 143.28C8.89744 143.234 8.77971 144.034 8.98149 144.479C8.69631 144.319 8.74439 145.273 9.05357 145.911C8.64666 145.867 9.08829 155.915 15.1947 155.183C15.6199 152.841 15.5001 152.987 16.0007 149.976C16.2337 149.679 16.4888 149.409 16.7436 149.139L18.1214 147.681C19.7235 145.986 21.1809 143.893 23.3152 143.26C24.7819 142.824 25.7094 142.726 24.91 140.744C25.6322 141.106 26.3066 141.643 27.0353 141.979C27.0255 141.702 26.9236 141.392 26.9378 141.115Z" fill="#2F2E41"/>
<path d="M16.7103 151.08C15.9168 151.08 15.2736 150.309 15.2736 149.358C15.2736 148.406 15.9168 147.635 16.7103 147.635C17.5037 147.635 18.147 148.406 18.147 149.358C18.147 150.309 17.5037 151.08 16.7103 151.08Z" fill="#FFB9B9"/>
<path d="M83.708 108.678L84.1465 116.57L77.563 117.096L77.1246 109.203L83.708 108.678Z" fill="#E6E6E6"/>
<path d="M87.9569 112.868L79.9626 113.506L80.495 123.09L88.4893 122.452L87.9569 112.868ZM80.3334 113.895L87.6324 113.313L88.1185 122.063L80.8195 122.646L80.3334 113.895Z" fill="#CCCCCC"/>
<path d="M46.5047 85.2728L52.9556 86.9346L51.5695 94.6682L45.1186 93.0065L46.5047 85.2728Z" fill="#E6E6E6"/>
<path d="M51.0326 81.5273L49.3495 90.9182L57.1826 92.936L58.8657 83.5452L51.0326 81.5273ZM49.7632 90.5976L51.3 82.0234L58.452 83.8657L56.9152 92.44L49.7632 90.5976Z" fill="#CCCCCC"/>
<path d="M53.2831 122.413L58.0986 127.82L53.5881 133.593L48.7725 128.186L53.2831 122.413Z" fill="#E6E6E6"/>
<path d="M48.4245 121.604L54.2719 128.17L59.749 121.16L53.9016 114.594L48.4245 121.604ZM54.2558 127.58L48.9169 121.585L53.9177 115.184L59.2567 121.179L54.2558 127.58Z" fill="#CCCCCC"/>
<path d="M200.4 155.679H200.65C296.786 155.679 375 120.76 375 77.8391C375 34.9184 296.786 0 200.648 0C104.51 0 26.2957 34.9184 26.2957 77.8391C26.3049 88.3673 31.0943 98.7853 40.3745 108.464C49.6548 118.143 63.2333 126.881 80.2899 134.151L45.2125 151.706L47.011 152.046C76.0853 157.55 105.544 150.048 117.585 146.29C143.014 152.443 171.477 155.67 200.4 155.679ZM200.648 1.24999C295.242 1.24999 372.2 35.6078 372.2 77.8391C372.2 120.07 295.242 154.429 200.648 154.429C171.815 154.439 143.443 151.199 118.165 145.007L117.395 144.818L116.68 145.046C105.749 148.518 77.7032 155.941 49.929 151.223L84.1943 134.075L83.197 133.658C66.1243 126.495 52.5167 117.847 43.2123 108.247C33.908 98.6479 29.1038 88.2996 29.0956 77.8398C29.0956 35.6078 106.054 1.24999 200.648 1.24999Z" fill="#3F3D56"/>
<path d="M101.333 54.42C101.333 52.138 101.361 51.466 101.361 51.396C101.361 51.298 101.347 51.284 101.249 51.284C101.165 51.284 100.675 51.312 99.2895 51.312H96.4615C96.7135 50.794 96.8395 50.444 96.9935 50.038C97.0355 49.912 97.1055 49.8 97.2035 49.688C97.2455 49.646 97.2875 49.604 97.2875 49.534C97.2875 49.478 97.2315 49.408 97.1195 49.38C96.8815 49.324 96.5455 49.254 96.2235 49.212C96.2095 49.45 96.1675 49.674 96.1255 49.828C95.9435 50.402 95.7895 50.822 95.5655 51.312H94.7395C93.3535 51.312 92.8635 51.284 92.7795 51.284C92.6815 51.284 92.6675 51.298 92.6675 51.396C92.6675 51.466 92.6955 52.138 92.6955 54.742V57.332C92.6955 61.042 92.6675 61.686 92.6675 61.77C92.6675 61.854 92.6815 61.868 92.7795 61.868H93.4375C93.5355 61.868 93.5495 61.854 93.5495 61.77V60.972H100.479V61.756C100.479 61.84 100.493 61.854 100.591 61.854H101.249C101.347 61.854 101.361 61.84 101.361 61.756C101.361 61.686 101.333 61.042 101.333 57.318V54.42ZM100.479 60.174H93.5495V57.836H100.479V60.174ZM100.479 57.066H93.5495V54.966H100.479V57.066ZM100.479 54.196H93.5495V52.11H100.479V54.196ZM108.742 54.966C107.384 54.966 106.936 54.938 106.866 54.938C106.768 54.938 106.754 54.952 106.754 55.05V55.666C106.754 55.764 106.768 55.778 106.866 55.778C106.936 55.778 107.384 55.75 108.742 55.75H109.372C109.162 58.41 107.762 60.23 105.186 61.238C105.354 61.35 105.522 61.518 105.634 61.7C105.732 61.854 105.774 61.91 105.844 61.91C105.886 61.91 105.942 61.882 106.04 61.84C108.602 60.65 110.058 58.662 110.254 55.75H113.376C113.348 57.542 113.236 58.774 113.068 59.74C112.942 60.482 112.648 60.79 111.99 60.79C111.472 60.79 111.08 60.762 110.394 60.65C110.52 60.818 110.618 61.042 110.674 61.308C110.73 61.616 110.73 61.616 111.01 61.63C111.402 61.672 111.682 61.672 112.13 61.672C113.32 61.672 113.754 61.014 113.922 60.076C114.146 58.676 114.23 57.668 114.258 56.548C114.286 55.96 114.286 55.498 114.314 55.064C114.314 54.966 114.286 54.938 114.188 54.938C114.104 54.938 113.656 54.966 112.284 54.966H108.742ZM109.806 50.248C109.806 50.164 109.75 50.094 109.624 50.038C109.4 49.926 109.036 49.786 108.728 49.702C108.686 49.996 108.63 50.234 108.504 50.528C107.72 52.278 106.208 54.154 104.136 55.414C104.304 55.512 104.486 55.68 104.626 55.876C104.71 56.002 104.766 56.058 104.822 56.058C104.864 56.058 104.92 56.016 105.032 55.932C106.992 54.518 108.308 53.02 109.442 50.71C109.498 50.57 109.596 50.486 109.694 50.402C109.764 50.346 109.806 50.29 109.806 50.248ZM111.696 49.94C111.556 50.01 111.514 50.01 111.57 50.122C112.634 52.376 114.216 54.336 116.358 55.876C116.456 55.946 116.512 55.988 116.554 55.988C116.596 55.988 116.638 55.918 116.722 55.792C116.862 55.568 117.044 55.358 117.212 55.232C115.056 53.972 113.334 51.998 112.34 49.758C112.298 49.646 112.284 49.632 112.116 49.716L111.696 49.94ZM127.449 50.878C128.079 51.326 128.667 51.984 129.073 52.67C129.115 52.74 129.185 52.754 129.255 52.698L129.661 52.362C129.717 52.32 129.731 52.264 129.689 52.208C129.283 51.592 128.667 50.906 128.107 50.514C128.051 50.472 128.023 50.458 127.967 50.5L127.449 50.878ZM128.681 49.94C129.339 50.43 129.941 51.116 130.291 51.69C130.347 51.774 130.403 51.774 130.459 51.718L130.837 51.382C130.907 51.326 130.921 51.284 130.879 51.214C130.473 50.626 129.843 50.01 129.283 49.576C129.227 49.534 129.185 49.548 129.129 49.59L128.681 49.94ZM122.087 53.51C121.429 53.608 120.883 53.692 120.113 53.776C119.707 53.832 119.161 53.86 118.657 53.846C118.755 54.238 118.867 54.56 118.979 54.798C119.063 54.966 119.189 54.966 119.343 54.868C119.455 54.798 119.707 54.728 119.959 54.686C120.659 54.56 121.233 54.462 121.807 54.378C121.121 56.436 120.295 58.368 119.119 60.342C119.077 60.426 119.063 60.496 119.147 60.566C119.301 60.692 119.567 60.874 119.707 60.944C119.805 60.986 119.889 60.972 119.945 60.874C121.079 58.858 121.989 56.674 122.801 54.252C123.291 54.168 123.879 54.098 124.313 54.098C125.069 54.098 125.279 54.49 125.279 55.582C125.279 57.304 124.999 58.718 124.649 59.516C124.383 60.104 124.117 60.244 123.711 60.244C123.221 60.244 122.703 60.118 122.087 59.852C122.213 60.146 122.241 60.454 122.255 60.692C122.255 60.818 122.311 60.888 122.423 60.93C122.773 61.084 123.277 61.182 123.851 61.182C124.537 61.182 125.097 60.846 125.447 60.076C125.909 59.068 126.217 57.402 126.217 55.596C126.217 53.916 125.615 53.3 124.397 53.3C124.061 53.3 123.487 53.342 123.039 53.398C123.249 52.712 123.431 52.054 123.641 51.368C123.711 51.13 123.767 51.018 123.879 50.906C124.019 50.78 123.977 50.612 123.823 50.542C123.459 50.374 123.165 50.276 122.731 50.164C122.745 50.668 122.717 51.018 122.605 51.508C122.423 52.292 122.269 52.852 122.087 53.51ZM127.043 53.09C128.107 54.014 128.807 55.204 129.283 56.632C129.311 56.772 129.409 56.786 129.521 56.716C129.689 56.632 129.955 56.464 130.095 56.338C130.179 56.268 130.165 56.198 130.137 56.1C129.675 54.77 128.863 53.552 127.883 52.712C127.813 52.642 127.757 52.628 127.673 52.656C127.463 52.782 127.239 52.936 127.043 53.09ZM143.131 53.958C143.131 52.824 143.159 52.446 143.159 52.376C143.159 52.278 143.145 52.264 143.047 52.264C142.977 52.264 142.487 52.292 141.073 52.292H138.329V51.102C138.329 50.318 138.371 49.954 138.413 49.828C138.455 49.73 138.483 49.66 138.483 49.576C138.483 49.52 138.399 49.464 138.315 49.45C138.035 49.422 137.699 49.394 137.349 49.38C137.433 49.842 137.447 50.262 137.447 51.172V52.292H134.955C133.555 52.292 133.051 52.264 132.981 52.264C132.883 52.264 132.869 52.278 132.869 52.376C132.869 52.446 132.897 52.838 132.897 54.154V55.47C132.897 57.668 132.869 58.018 132.869 58.102C132.869 58.2 132.883 58.214 132.981 58.214H133.639C133.737 58.214 133.751 58.2 133.751 58.102V57.318H137.447V59.362C137.447 61.056 137.419 61.798 137.419 61.868C137.419 61.966 137.433 61.98 137.531 61.98H138.245C138.343 61.98 138.357 61.966 138.357 61.868C138.357 61.798 138.329 61.042 138.329 59.348V57.318H142.277V58.046C142.277 58.144 142.291 58.158 142.389 58.158H143.047C143.145 58.158 143.159 58.144 143.159 58.046C143.159 57.962 143.131 57.626 143.131 55.428V53.958ZM142.277 56.534H138.329V53.076H142.277V56.534ZM137.447 56.534H133.751V53.076H137.447V56.534ZM155.972 53.566C155.972 51.172 156 50.402 156 50.332C156 50.234 155.986 50.22 155.888 50.22C155.804 50.22 155.314 50.248 153.914 50.248H149.392C148.006 50.248 147.516 50.22 147.432 50.22C147.334 50.22 147.32 50.234 147.32 50.332C147.32 50.416 147.348 51.186 147.348 53.944V56.702C147.348 60.846 147.32 61.602 147.32 61.672C147.32 61.77 147.334 61.784 147.432 61.784H148.104C148.216 61.784 148.23 61.77 148.23 61.672V60.762H155.09V61.63C155.09 61.728 155.104 61.742 155.202 61.742H155.888C155.986 61.742 156 61.728 156 61.63C156 61.56 155.972 60.818 155.972 56.674V53.566ZM155.09 59.964H148.23V57.374H155.09V59.964ZM155.09 56.59H148.23V54.168H155.09V56.59ZM155.09 53.384H148.23V51.046H155.09V53.384ZM171.557 50.206C171.557 50.108 171.557 50.094 171.459 50.094C171.389 50.094 170.913 50.122 169.499 50.122H165.033C163.619 50.122 163.157 50.094 163.087 50.094C162.989 50.094 162.975 50.108 162.975 50.206V50.724C162.975 50.822 162.989 50.836 163.087 50.836C163.157 50.836 163.619 50.808 165.033 50.808H165.733V52.012H165.495C164.151 52.012 163.689 51.984 163.619 51.984C163.521 51.984 163.507 51.998 163.507 52.096C163.507 52.18 163.535 52.362 163.535 53.034V53.86C163.535 54.518 163.507 54.728 163.507 54.798C163.507 54.896 163.521 54.91 163.619 54.91C163.689 54.91 164.165 54.882 165.509 54.882H168.939C170.283 54.882 170.759 54.91 170.829 54.91C170.927 54.91 170.941 54.896 170.941 54.798C170.941 54.728 170.913 54.518 170.913 53.86V53.034C170.913 52.362 170.941 52.18 170.941 52.096C170.941 51.998 170.927 51.984 170.829 51.984C170.759 51.984 170.283 52.012 168.939 52.012H168.617V50.808H169.499C170.913 50.808 171.389 50.836 171.459 50.836C171.557 50.836 171.557 50.822 171.557 50.724V50.206ZM170.157 54.238H168.617V52.656H170.157V54.238ZM165.733 54.238H164.277V52.656H165.733V54.238ZM167.903 54.238H166.447V52.656H167.903V54.238ZM167.903 52.012H166.447V50.808H167.903V52.012ZM162.961 52.488C162.961 52.39 162.947 52.376 162.835 52.376C162.765 52.376 162.513 52.404 161.603 52.404H161.575V51.144C161.575 50.346 161.575 50.094 161.645 49.94C161.687 49.842 161.729 49.772 161.729 49.66C161.729 49.604 161.659 49.562 161.561 49.548C161.281 49.506 161.015 49.478 160.679 49.464C160.763 49.926 160.777 50.332 160.777 51.172V52.404H160.385C159.475 52.404 159.223 52.376 159.153 52.376C159.041 52.376 159.027 52.39 159.027 52.488V53.048C159.027 53.146 159.041 53.16 159.153 53.16C159.223 53.16 159.475 53.132 160.385 53.132H160.637C160.105 55.176 159.587 56.534 158.719 58.074C158.845 58.2 158.971 58.368 159.069 58.592C159.111 58.69 159.153 58.732 159.195 58.732C159.223 58.732 159.265 58.676 159.321 58.578C160.049 57.15 160.511 55.722 160.889 54C160.861 58.158 160.735 61.756 160.735 61.952C160.735 62.036 160.749 62.05 160.847 62.05H161.505C161.603 62.05 161.617 62.036 161.617 61.952C161.617 61.756 161.505 58.2 161.491 53.916C161.771 54.98 162.121 55.68 162.555 56.464C162.611 56.562 162.639 56.604 162.667 56.604C162.695 56.604 162.737 56.562 162.779 56.464C162.877 56.254 163.003 56.1 163.129 55.946C162.527 55.162 162.023 54.294 161.645 53.132C162.513 53.132 162.765 53.16 162.835 53.16C162.947 53.16 162.961 53.146 162.961 53.048V52.488ZM171.627 57.696C171.627 57.584 171.613 57.57 171.529 57.57C171.459 57.57 170.983 57.598 169.555 57.598H164.949C163.535 57.598 163.073 57.57 163.003 57.57C162.891 57.57 162.877 57.584 162.877 57.696V58.2C162.877 58.298 162.891 58.312 163.003 58.312C163.073 58.312 163.535 58.284 164.949 58.284H166.769V60.594C166.769 60.958 166.573 61.14 166.237 61.14C165.943 61.14 165.621 61.112 165.173 61.056C165.285 61.224 165.355 61.42 165.411 61.63C165.481 61.896 165.481 61.896 165.747 61.896C166.755 61.91 167.049 61.812 167.273 61.644C167.525 61.42 167.609 61.182 167.609 60.692C167.609 60.188 167.581 59.6 167.581 59.054V58.284H169.555C170.983 58.284 171.459 58.312 171.529 58.312C171.613 58.312 171.627 58.298 171.627 58.2V57.696ZM170.479 55.988C170.479 55.89 170.465 55.876 170.367 55.876C170.283 55.876 169.877 55.904 168.603 55.904H165.817C164.557 55.904 164.123 55.876 164.053 55.876C163.955 55.876 163.941 55.89 163.941 55.988V56.52C163.941 56.604 163.955 56.618 164.053 56.618C164.123 56.618 164.557 56.59 165.817 56.59H168.603C169.877 56.59 170.283 56.618 170.367 56.618C170.465 56.618 170.479 56.604 170.479 56.52V55.988ZM165.481 59.292C165.481 59.236 165.467 59.194 165.369 59.138C165.187 59.054 164.935 58.928 164.683 58.844C164.613 59.026 164.501 59.222 164.375 59.39C163.927 59.964 163.395 60.468 162.443 61.028C162.583 61.098 162.737 61.21 162.877 61.364C162.989 61.476 163.031 61.532 163.087 61.532C163.129 61.532 163.185 61.49 163.283 61.42C164.123 60.818 164.557 60.398 165.103 59.698C165.187 59.586 165.271 59.488 165.383 59.418C165.453 59.39 165.481 59.334 165.481 59.292ZM169.079 59.138C168.911 59.236 168.911 59.264 168.981 59.362C169.611 60.104 170.269 60.748 171.039 61.322C171.137 61.406 171.193 61.448 171.235 61.448C171.291 61.448 171.333 61.392 171.417 61.252C171.529 61.084 171.655 60.958 171.809 60.832C170.871 60.244 170.241 59.698 169.597 58.942C169.541 58.872 169.513 58.872 169.387 58.956L169.079 59.138ZM180.239 56.618C181.261 56.184 182.143 55.862 183.207 55.414C183.529 55.288 183.809 55.218 183.977 55.19C184.117 55.162 184.229 55.078 184.117 54.868C184.033 54.7 183.753 54.336 183.431 54.056C183.137 54.35 182.773 54.574 182.367 54.77C181.667 55.106 180.869 55.47 180.183 55.778C180.071 54.686 179.455 54.14 178.419 54.14C177.873 54.14 177.257 54.322 176.669 54.742L176.655 54.714C177.159 54.14 177.607 53.482 178.083 52.628C179.203 52.516 180.393 52.362 181.499 52.166C181.653 52.138 181.681 52.096 181.681 51.998C181.667 51.774 181.625 51.578 181.597 51.382C181.569 51.298 181.541 51.298 181.429 51.326C180.463 51.536 179.455 51.69 178.475 51.788C178.657 51.368 178.783 51.074 178.951 50.724C179.063 50.486 179.147 50.388 179.203 50.332C179.315 50.234 179.315 50.094 179.175 50.024C178.937 49.912 178.531 49.786 178.125 49.716C178.139 50.024 178.083 50.234 178.013 50.472C177.873 50.99 177.677 51.452 177.509 51.872C176.375 51.942 175.283 51.942 174.261 51.886C174.275 52.11 174.317 52.418 174.345 52.586C174.359 52.684 174.387 52.726 174.499 52.726C175.381 52.754 176.235 52.754 177.103 52.698C176.291 54.126 175.129 55.484 173.855 56.59C173.771 56.674 173.785 56.702 173.827 56.786C173.939 56.94 174.177 57.206 174.317 57.332C174.387 57.402 174.443 57.402 174.527 57.304C175.017 56.786 175.353 56.422 175.857 55.946C176.753 55.176 177.551 54.826 178.153 54.812C178.979 54.798 179.301 55.176 179.329 56.128C177.005 57.262 176.235 58.214 176.235 59.39C176.235 60.888 177.509 61.392 179.469 61.392C180.785 61.392 181.933 61.322 182.927 61.196C182.983 61.182 183.039 61.126 183.039 61C183.039 60.804 182.997 60.524 182.955 60.314C182.927 60.216 182.871 60.202 182.801 60.216C181.779 60.356 180.631 60.496 179.469 60.496C177.845 60.496 177.075 60.16 177.075 59.334C177.075 58.494 177.831 57.78 179.371 57.01C179.357 57.724 179.357 58.41 179.357 59.026C179.357 59.124 179.399 59.194 179.483 59.194C179.665 59.194 179.945 59.166 180.085 59.138C180.211 59.124 180.239 59.082 180.239 58.97V56.618ZM198.624 58.284C198.624 58.186 198.61 58.172 198.512 58.172C198.442 58.172 197.966 58.2 196.566 58.2H194.676V57.052H195.81C197.084 57.052 197.504 57.08 197.588 57.08C197.686 57.08 197.7 57.066 197.7 56.968V56.464C197.7 56.366 197.686 56.352 197.588 56.352C197.504 56.352 197.084 56.38 195.81 56.38H194.676V55.316H196.412C197.784 55.316 198.246 55.344 198.316 55.344C198.414 55.344 198.428 55.33 198.428 55.218V54.742C198.428 54.644 198.414 54.63 198.316 54.63C198.246 54.63 197.784 54.658 196.412 54.658H195.992C196.104 54.462 196.216 54.266 196.328 54.028C196.37 53.93 196.468 53.79 196.524 53.748C196.58 53.706 196.636 53.65 196.636 53.58C196.636 53.524 196.594 53.482 196.482 53.44C196.272 53.37 196.048 53.314 195.754 53.258C195.726 53.44 195.684 53.622 195.6 53.846C195.502 54.126 195.376 54.392 195.236 54.658H193.346C193.164 54.154 192.982 53.748 192.786 53.398C192.73 53.3 192.702 53.3 192.576 53.342L192.226 53.454C192.072 53.51 192.03 53.524 192.086 53.622C192.254 53.93 192.408 54.266 192.548 54.658H192.492C191.106 54.658 190.658 54.63 190.588 54.63C190.49 54.63 190.476 54.644 190.476 54.742V55.218C190.476 55.33 190.49 55.344 190.588 55.344C190.658 55.344 191.106 55.316 192.492 55.316H193.892V56.38H192.926C191.638 56.38 191.218 56.352 191.148 56.352C191.05 56.352 191.036 56.366 191.036 56.464V56.968C191.036 57.066 191.05 57.08 191.148 57.08C191.218 57.08 191.638 57.052 192.926 57.052H193.892V58.2H192.198C190.812 58.2 190.336 58.172 190.266 58.172C190.168 58.172 190.154 58.186 190.154 58.284V58.788C190.154 58.886 190.168 58.9 190.266 58.9C190.336 58.9 190.812 58.872 192.198 58.872H193.892C193.892 59.866 193.864 60.23 193.864 60.314C193.864 60.412 193.878 60.426 193.976 60.426H194.592C194.69 60.426 194.704 60.412 194.704 60.314C194.704 60.244 194.676 59.838 194.676 58.872H196.566C197.966 58.872 198.442 58.9 198.512 58.9C198.61 58.9 198.624 58.886 198.624 58.788V58.284ZM189.314 56.24C189.314 55.358 189.342 54.994 189.342 54.924C189.342 54.826 189.328 54.812 189.244 54.812C189.16 54.812 188.95 54.84 188.236 54.84H187.522C186.794 54.84 186.626 54.812 186.57 54.812C186.458 54.812 186.444 54.826 186.444 54.924V55.54C186.444 55.638 186.458 55.652 186.57 55.652C186.626 55.652 186.794 55.624 187.522 55.624H188.516V59.124C188.124 59.544 187.662 59.936 187.27 60.23C186.976 60.454 186.738 60.58 186.416 60.748C186.542 61.028 186.668 61.252 186.808 61.462C186.864 61.546 186.92 61.588 186.976 61.588C187.046 61.588 187.088 61.546 187.144 61.462C187.186 61.392 187.284 61.308 187.452 61.168C188.012 60.706 188.46 60.3 188.894 59.824C189.216 60.482 189.622 60.916 190.266 61.224C190.938 61.532 192.184 61.658 193.71 61.658C195.138 61.658 196.874 61.602 198.68 61.49C198.96 61.476 198.96 61.476 199.002 61.182C199.044 60.958 199.128 60.762 199.268 60.58C197.196 60.776 195.152 60.874 193.36 60.874C192.044 60.874 191.078 60.748 190.574 60.524C189.944 60.216 189.58 59.852 189.314 59.138V56.24ZM198.806 52.53C198.806 52.432 198.792 52.418 198.694 52.418C198.61 52.418 198.134 52.432 196.72 52.432H194.676V51.368H195.922C197.238 51.368 197.658 51.396 197.742 51.396C197.826 51.396 197.84 51.382 197.84 51.284V50.794C197.84 50.696 197.826 50.682 197.742 50.682C197.658 50.682 197.238 50.71 195.922 50.71H194.676V50.528C194.676 50.15 194.704 49.912 194.746 49.8C194.788 49.688 194.816 49.632 194.816 49.562C194.816 49.506 194.76 49.464 194.676 49.45C194.438 49.422 194.13 49.394 193.808 49.38C193.878 49.758 193.892 50.052 193.892 50.682V50.71H192.8C191.484 50.71 191.05 50.682 190.966 50.682C190.868 50.682 190.854 50.696 190.854 50.794V51.284C190.854 51.382 190.868 51.396 190.966 51.396C191.05 51.396 191.484 51.368 192.8 51.368H193.892V52.432H192.072C190.658 52.432 190.182 52.418 190.098 52.418C190 52.418 189.986 52.432 189.986 52.53V53.02C189.986 53.118 190 53.132 190.098 53.132C190.182 53.132 190.658 53.104 192.072 53.104H196.72C198.134 53.104 198.61 53.132 198.694 53.132C198.792 53.132 198.806 53.118 198.806 53.02V52.53ZM187.13 50.234C186.99 50.332 186.962 50.36 187.046 50.444C187.634 51.046 188.096 51.662 188.586 52.432C188.628 52.488 188.642 52.516 188.684 52.516C188.712 52.516 188.768 52.488 188.838 52.432L189.216 52.138C189.342 52.04 189.356 52.012 189.3 51.942C188.768 51.172 188.278 50.584 187.69 49.968C187.62 49.912 187.606 49.898 187.48 49.982L187.13 50.234ZM210.317 52.6C211.717 52.6 212.179 52.628 212.263 52.628C212.361 52.628 212.375 52.614 212.375 52.516V51.914C212.375 51.802 212.361 51.788 212.263 51.788C212.179 51.788 211.717 51.816 210.317 51.816H207.965C207.965 51.592 207.951 51.354 207.951 51.102C207.937 50.318 207.979 50.024 208.035 49.884C208.063 49.828 208.091 49.772 208.091 49.66C208.091 49.604 208.021 49.534 207.909 49.52C207.601 49.478 207.307 49.45 206.985 49.436C207.069 49.982 207.069 50.248 207.097 51.144C207.097 51.382 207.111 51.606 207.111 51.816H203.485C202.085 51.816 201.595 51.788 201.525 51.788C201.413 51.788 201.399 51.802 201.399 51.914C201.399 51.984 201.427 52.768 201.427 54.7C201.427 56.142 201.371 57.01 201.245 57.948C201.091 59.082 200.783 60.314 200.041 61.378C200.195 61.462 200.391 61.602 200.545 61.77C200.629 61.868 200.685 61.924 200.727 61.924C200.769 61.924 200.811 61.854 200.881 61.742C201.637 60.524 201.889 59.334 202.071 58.27C202.197 57.444 202.253 56.688 202.267 55.638H204.885C204.843 56.884 204.801 57.822 204.675 58.34C204.549 58.956 204.283 59.054 203.933 59.054C203.541 59.054 203.177 59.012 202.645 58.928C202.757 59.082 202.813 59.292 202.869 59.516C202.925 59.81 202.925 59.824 203.149 59.852C203.499 59.894 203.723 59.894 204.031 59.894C204.801 59.894 205.277 59.502 205.445 58.704C205.599 58.004 205.641 57.346 205.683 56.436C205.711 55.946 205.739 55.47 205.767 54.98C205.767 54.882 205.739 54.854 205.641 54.854C205.571 54.854 205.319 54.882 204.437 54.882H202.281V52.6H207.167C207.321 54.952 207.699 56.716 208.315 58.214C207.405 59.39 206.229 60.454 204.843 61.182C204.983 61.28 205.137 61.392 205.263 61.546C205.375 61.686 205.431 61.742 205.501 61.742C205.557 61.742 205.613 61.714 205.711 61.658C206.887 60.958 207.881 60.076 208.707 59.068C209.533 60.72 210.471 61.714 211.367 61.714C212.123 61.714 212.571 61.042 212.725 59.53C212.753 59.264 212.739 59.25 212.487 59.11C212.319 59.012 212.123 58.886 211.997 58.746C211.941 60.216 211.703 60.748 211.325 60.748C210.807 60.748 209.939 59.838 209.267 58.312C209.883 57.43 210.401 56.492 210.821 55.512C210.975 55.176 211.059 54.952 211.157 54.84C211.227 54.756 211.325 54.672 211.325 54.574C211.325 54.504 211.269 54.448 211.157 54.392C210.975 54.294 210.681 54.182 210.373 54.098C210.317 54.518 210.177 54.924 209.995 55.358C209.715 56.03 209.351 56.73 208.903 57.416C208.413 56.058 208.119 54.532 208.007 52.6H210.317ZM209.407 49.912C209.267 50.024 209.281 50.066 209.379 50.136C209.799 50.43 210.275 50.822 210.681 51.368C210.751 51.466 210.807 51.452 210.947 51.326L211.241 51.088C211.367 50.976 211.367 50.934 211.297 50.864C210.863 50.374 210.373 49.954 209.911 49.66C209.827 49.604 209.799 49.618 209.687 49.702L209.407 49.912ZM216.913 50.15C217.067 50.794 217.053 51.396 217.025 52.264C216.955 54.238 216.829 56.52 216.829 58.508C216.829 60.566 217.683 61.322 219.265 61.322C221.267 61.322 223.129 60.384 224.599 58.97C224.725 58.858 224.767 58.788 224.767 58.704C224.767 58.648 224.739 58.592 224.711 58.508C224.627 58.298 224.515 58.018 224.473 57.696C223.031 59.292 221.211 60.37 219.433 60.37C218.215 60.37 217.781 59.894 217.781 58.326C217.781 56.394 217.865 54.476 217.991 52.362C218.047 51.522 218.103 51.088 218.159 50.92C218.215 50.78 218.271 50.668 218.271 50.556C218.271 50.458 218.201 50.388 218.047 50.346C217.767 50.248 217.333 50.192 216.913 50.15ZM233.785 52.278C231.587 53.44 230.369 55.064 230.369 57.038C230.369 59.866 232.917 60.874 235.283 61.084C235.437 61.098 235.479 61.042 235.507 60.888C235.549 60.692 235.591 60.37 235.591 60.216C235.591 60.104 235.549 60.076 235.367 60.062C233.323 59.894 231.293 59.208 231.293 56.884C231.293 55.008 232.861 53.286 234.905 52.474C235.633 52.18 236.193 52.096 236.949 52.054C237.089 52.04 237.131 52.012 237.131 51.886C237.131 51.704 237.089 51.368 237.047 51.186C237.019 51.102 236.949 51.06 236.809 51.074C233.057 51.536 230.215 51.956 228.129 52.292C227.261 52.418 226.897 52.46 226.393 52.46C226.519 52.838 226.645 53.174 226.785 53.454C226.827 53.524 226.897 53.58 226.981 53.58C227.065 53.58 227.149 53.524 227.247 53.482C227.415 53.398 227.583 53.342 228.087 53.244C229.851 52.88 231.671 52.586 233.771 52.25L233.785 52.278ZM252.015 53.902C252.015 53.804 252.001 53.79 251.903 53.79C251.833 53.79 251.371 53.818 249.999 53.818H246.163C244.791 53.818 244.329 53.79 244.245 53.79C244.147 53.79 244.133 53.804 244.133 53.902V54.518C244.133 54.616 244.147 54.63 244.245 54.63C244.329 54.63 244.791 54.602 246.163 54.602H248.697V60.398C248.697 60.846 248.543 60.93 247.955 60.93C247.437 60.93 247.073 60.916 246.611 60.874C246.751 61.056 246.835 61.28 246.905 61.504C246.975 61.798 246.975 61.798 247.255 61.798C248.557 61.798 248.949 61.728 249.201 61.532C249.481 61.308 249.593 61.014 249.579 60.412C249.579 59.908 249.551 59.236 249.551 57.836V54.602H249.999C251.371 54.602 251.833 54.63 251.903 54.63C252.001 54.63 252.015 54.616 252.015 54.518V53.902ZM241.669 60.062C241.669 61.28 241.641 61.798 241.641 61.868C241.641 61.966 241.655 61.98 241.753 61.98H242.425C242.523 61.98 242.537 61.966 242.537 61.868C242.537 61.798 242.509 61.28 242.509 60.062V54.784C242.789 54.42 243.041 54.042 243.293 53.65C243.391 53.482 243.517 53.37 243.601 53.314C243.657 53.272 243.699 53.216 243.699 53.16C243.699 53.09 243.671 53.048 243.573 52.978C243.363 52.838 243.125 52.698 242.845 52.572C242.789 52.782 242.677 53.034 242.551 53.244C241.851 54.448 240.745 55.666 239.485 56.646C239.639 56.786 239.751 56.94 239.849 57.136C239.905 57.248 239.947 57.304 239.989 57.304C240.031 57.304 240.087 57.262 240.185 57.178C240.745 56.716 241.249 56.226 241.697 55.736C241.683 56.268 241.669 56.996 241.669 57.556V60.062ZM251.287 50.472C251.287 50.374 251.273 50.36 251.175 50.36C251.091 50.36 250.713 50.388 249.439 50.388H246.807C245.547 50.388 245.155 50.36 245.085 50.36C244.987 50.36 244.973 50.374 244.973 50.472V51.088C244.973 51.186 244.987 51.2 245.085 51.2C245.155 51.2 245.547 51.172 246.807 51.172H249.439C250.713 51.172 251.091 51.2 251.175 51.2C251.273 51.2 251.287 51.186 251.287 51.088V50.472ZM243.629 50.01C243.629 49.94 243.587 49.898 243.503 49.842C243.237 49.66 243.027 49.548 242.733 49.422C242.677 49.59 242.607 49.786 242.425 50.038C241.739 50.976 240.703 51.914 239.597 52.628C239.765 52.754 239.891 52.894 240.003 53.062C240.087 53.202 240.143 53.258 240.199 53.258C240.255 53.258 240.311 53.23 240.395 53.16C241.543 52.334 242.453 51.41 243.125 50.556C243.265 50.374 243.377 50.248 243.461 50.192C243.559 50.136 243.629 50.08 243.629 50.01ZM254.748 55.722C254.888 56.03 255.07 56.408 255.252 56.646C255.336 56.744 255.42 56.8 255.504 56.8C255.574 56.8 255.672 56.73 255.77 56.674C255.896 56.59 256.078 56.464 256.428 56.324C258.01 55.68 259.522 55.204 260.558 55.204C261.804 55.204 262.63 55.82 262.63 57.066C262.63 58.158 262.14 58.83 261.23 59.306C260.376 59.754 259.354 60.048 258.024 60.23C258.29 60.426 258.486 60.678 258.556 60.818C258.626 60.944 258.682 60.986 258.836 60.958C260.012 60.762 260.964 60.44 261.734 60.02C262.994 59.334 263.582 58.466 263.582 57.122C263.582 55.47 262.406 54.392 260.67 54.392C259.592 54.392 258.402 54.728 256.89 55.19C255.784 55.526 255.294 55.652 254.748 55.722ZM271.691 52.656C271.845 52.124 271.971 51.55 272.139 50.976C272.209 50.682 272.265 50.556 272.363 50.43C272.433 50.346 272.475 50.276 272.475 50.206C272.475 50.136 272.433 50.08 272.363 50.052C272.069 49.926 271.635 49.8 271.243 49.73C271.271 50.192 271.201 50.654 271.131 51.046C271.033 51.564 270.921 52.068 270.725 52.81C269.829 52.922 268.863 52.978 268.205 52.978C267.827 52.978 267.589 52.978 267.323 52.95C267.365 53.23 267.407 53.524 267.435 53.72C267.463 53.846 267.491 53.86 267.659 53.86C268.611 53.846 269.577 53.79 270.487 53.692C269.829 56.03 269.031 58.214 267.869 60.678C267.841 60.748 267.855 60.818 267.925 60.86C268.107 60.958 268.471 61.126 268.583 61.168C268.681 61.21 268.737 61.21 268.793 61.084C269.787 58.816 270.641 56.38 271.481 53.538C272.335 53.398 273.105 53.216 274.015 52.964C274.141 52.936 274.169 52.894 274.155 52.754C274.141 52.586 274.113 52.348 274.085 52.18C274.071 52.082 274.029 52.054 273.917 52.082C273.133 52.334 272.349 52.544 271.691 52.656ZM272.559 58.564C272.573 59.404 272.755 60.034 273.245 60.454C273.875 61.028 274.813 61.224 276.325 61.224C276.997 61.224 277.725 61.154 278.159 61.084C278.271 61.07 278.313 61.042 278.313 60.902C278.313 60.706 278.285 60.398 278.257 60.23C278.243 60.118 278.201 60.118 278.089 60.132C277.515 60.216 276.731 60.314 276.017 60.314C274.253 60.314 273.469 59.894 273.371 58.634C273.357 58.522 273.329 58.494 273.217 58.494C273.063 58.494 272.797 58.522 272.559 58.564ZM273.609 55.638C274.449 55.456 275.317 55.33 276.185 55.33C276.773 55.33 277.375 55.386 277.977 55.484C278.103 55.512 278.145 55.47 278.159 55.302C278.173 55.12 278.159 54.826 278.145 54.686C278.131 54.602 278.103 54.56 277.935 54.532C277.389 54.462 276.773 54.392 276.199 54.392C275.373 54.392 274.561 54.504 273.749 54.686C273.595 54.728 273.567 54.77 273.567 54.896C273.567 55.064 273.581 55.4 273.609 55.638ZM286.995 56.73C287.051 56.632 287.107 56.534 287.177 56.436C287.303 56.254 287.373 56.142 287.443 56.1C287.527 56.058 287.569 56.002 287.569 55.946C287.569 55.876 287.527 55.82 287.415 55.778C287.219 55.708 286.995 55.652 286.715 55.582C288.171 55.456 289.949 55.288 291.349 55.12C291.573 55.456 291.783 55.806 291.993 56.156C292.049 56.268 292.077 56.254 292.245 56.156L292.609 55.946C292.735 55.862 292.749 55.82 292.707 55.736C292.231 54.91 291.559 54.014 290.663 53.118C290.607 53.062 290.579 53.062 290.453 53.146L290.145 53.342C290.005 53.426 289.977 53.454 290.061 53.538C290.369 53.86 290.649 54.182 290.901 54.504C289.781 54.616 288.535 54.728 287.303 54.798C288.269 53.846 289.137 52.88 289.949 51.872C290.229 51.536 290.341 51.382 290.467 51.326C290.551 51.284 290.621 51.228 290.621 51.158C290.621 51.074 290.565 51.018 290.453 50.948C290.257 50.836 290.033 50.71 289.753 50.598C289.669 50.836 289.529 51.046 289.389 51.228C288.787 52.04 288.185 52.782 287.541 53.496C287.177 53.146 286.785 52.796 286.379 52.46C286.925 51.83 287.415 51.158 287.891 50.486C288.073 50.234 288.171 50.136 288.255 50.08C288.353 50.024 288.409 49.968 288.409 49.898C288.409 49.814 288.353 49.758 288.241 49.702C288.017 49.576 287.765 49.45 287.499 49.352C287.429 49.59 287.303 49.842 287.191 50.038C286.729 50.822 286.239 51.466 285.819 51.998C285.581 51.816 285.343 51.634 285.105 51.466C285.035 51.41 284.993 51.41 284.909 51.522L284.629 51.858C284.531 51.984 284.531 52.012 284.615 52.068C285.469 52.684 286.239 53.328 287.009 54.084L286.239 54.868C285.735 54.896 285.231 54.91 284.741 54.924C284.489 54.938 284.153 54.938 283.845 54.91C283.887 55.19 283.929 55.456 283.985 55.68C284.027 55.806 284.069 55.89 284.153 55.89C284.223 55.89 284.293 55.834 284.377 55.792C284.475 55.75 284.727 55.722 285.091 55.694L286.687 55.582C286.617 55.876 286.421 56.24 286.281 56.436C285.665 57.374 284.783 58.27 283.313 59.068C283.453 59.166 283.579 59.292 283.691 59.432C283.789 59.572 283.831 59.628 283.887 59.628C283.929 59.628 283.985 59.586 284.083 59.53C284.839 59.068 285.497 58.536 286.057 57.934C286.533 58.592 287.051 59.138 287.611 59.6C286.491 60.342 285.105 60.832 283.369 61.168C283.509 61.308 283.607 61.448 283.705 61.63C283.831 61.882 283.831 61.882 284.097 61.826C285.819 61.448 287.149 60.888 288.255 60.062C289.417 60.832 290.761 61.322 292.343 61.742C292.595 61.812 292.595 61.798 292.721 61.532C292.819 61.322 292.931 61.14 293.071 60.986C291.405 60.678 290.019 60.258 288.857 59.572C289.431 59.068 289.935 58.494 290.425 57.808C290.579 57.612 290.649 57.514 290.747 57.458C290.845 57.402 290.873 57.346 290.873 57.262C290.873 57.178 290.817 57.08 290.635 56.912C290.425 56.702 290.341 56.646 290.257 56.646C290.201 56.646 290.173 56.66 290.117 56.688C290.047 56.716 289.963 56.73 289.823 56.73H286.995ZM289.767 57.402C289.319 58.088 288.801 58.662 288.213 59.152C287.569 58.676 287.009 58.116 286.519 57.402H289.767ZM282.011 60.062C282.011 61.28 281.983 61.798 281.983 61.868C281.983 61.966 281.997 61.98 282.081 61.98H282.739C282.837 61.98 282.851 61.966 282.851 61.868C282.851 61.798 282.823 61.28 282.823 60.062V54.84C283.145 54.406 283.439 53.944 283.719 53.482C283.831 53.3 283.943 53.174 284.027 53.132C284.097 53.09 284.125 53.048 284.125 52.978C284.125 52.908 284.083 52.866 283.985 52.796C283.789 52.67 283.551 52.53 283.285 52.418C283.229 52.628 283.117 52.894 283.005 53.104C282.347 54.322 281.339 55.54 280.065 56.604C280.191 56.716 280.289 56.856 280.387 57.038C280.457 57.164 280.499 57.22 280.555 57.22C280.611 57.22 280.667 57.178 280.765 57.094C281.227 56.688 281.647 56.254 282.053 55.792C282.039 56.324 282.011 57.024 282.011 57.556V60.062ZM284.083 49.996C284.083 49.926 284.041 49.87 283.957 49.814C283.747 49.66 283.495 49.52 283.215 49.394C283.159 49.576 283.103 49.758 282.907 50.024C282.235 50.962 281.381 51.858 280.261 52.544C280.401 52.642 280.541 52.796 280.653 52.978C280.723 53.104 280.765 53.16 280.821 53.16C280.877 53.16 280.933 53.118 281.045 53.048C282.137 52.236 282.893 51.424 283.579 50.528C283.705 50.36 283.831 50.22 283.915 50.178C284.013 50.122 284.083 50.066 284.083 49.996ZM296.168 50.612C296.168 51.088 296.098 51.494 295.972 52.166C295.65 53.804 295.398 55.442 295.398 56.94C295.398 58.312 295.636 60.062 296.028 61C296.056 61.084 296.112 61.14 296.182 61.14C296.378 61.112 296.616 61.07 296.812 61C296.882 60.986 296.91 60.93 296.91 60.874C296.91 60.776 296.882 60.692 296.882 60.566C296.882 60.426 296.896 60.3 296.938 60.216C297.232 59.39 297.526 58.704 297.834 57.99C297.876 57.906 297.904 57.85 297.904 57.766C297.904 57.724 297.876 57.668 297.834 57.626C297.722 57.458 297.596 57.29 297.498 57.066C297.092 58.046 296.798 58.648 296.462 59.432C296.308 58.732 296.252 58.046 296.252 57.024C296.252 55.694 296.518 53.846 296.91 52.194C296.98 51.872 297.064 51.634 297.19 51.452C297.26 51.354 297.288 51.298 297.288 51.214C297.288 51.13 297.232 51.074 297.092 50.99C296.896 50.878 296.532 50.724 296.168 50.612ZM299.234 57.71C299.248 58.41 299.416 58.97 299.822 59.376C300.438 60.034 301.334 60.258 302.902 60.258C303.784 60.258 304.568 60.202 305.408 60.104C305.59 60.076 305.59 60.062 305.59 59.936C305.59 59.74 305.562 59.446 305.548 59.278C305.534 59.138 305.506 59.124 305.394 59.138C304.54 59.25 303.63 59.334 302.636 59.334C300.984 59.334 300.13 58.858 300.088 57.794C300.088 57.682 300.06 57.64 299.99 57.654L299.234 57.71ZM299.724 53.216C300.844 53.02 301.866 52.922 302.65 52.922C303.448 52.922 304.358 52.936 304.904 52.992C305.03 53.006 305.058 52.978 305.058 52.866C305.072 52.656 305.072 52.432 305.072 52.208C305.072 52.096 305.044 52.082 304.862 52.068C304.484 52.026 303.686 51.998 302.874 51.998C302.132 51.998 300.788 52.11 299.906 52.25C299.766 52.278 299.738 52.32 299.738 52.446C299.724 52.614 299.724 52.838 299.724 53.216ZM307.721 59.264C307.665 59.334 307.651 59.362 307.651 59.404C307.651 59.432 307.679 59.46 307.749 59.502C308.701 60.146 309.597 61.07 310.325 62.12C310.381 62.218 310.423 62.232 310.479 62.232C310.507 62.232 310.549 62.204 310.619 62.148L311.123 61.728C311.207 61.658 311.221 61.616 311.221 61.56C311.221 61.518 311.207 61.476 311.151 61.392C310.339 60.3 309.485 59.516 308.463 58.872C308.393 58.816 308.351 58.788 308.309 58.788C308.267 58.788 308.211 58.816 308.155 58.872L307.721 59.264ZM107.637 71.43H106.419V81.748H112.747V80.712H107.637V71.43ZM115.392 74.594H114.244V81.748H115.392V74.594ZM115.518 71.836H114.118V73.222H115.518V71.836ZM120.947 71.318C120.597 71.276 120.275 71.248 119.995 71.248C118.721 71.248 118.035 71.892 118.035 73.194V74.594H116.775V75.476H118.035V81.748H119.155V75.476H120.751V74.594H119.155V73.236C119.155 72.438 119.463 72.116 120.191 72.116C120.373 72.116 120.583 72.144 120.807 72.172L120.947 71.318ZM127.765 78.332V78.08C127.765 75.784 126.491 74.426 124.741 74.426C122.963 74.426 121.647 75.91 121.647 78.192C121.647 80.516 122.907 81.916 124.839 81.916C126.337 81.916 127.261 81.244 127.723 79.956L126.673 79.606C126.393 80.614 125.819 81.062 124.853 81.062C123.579 81.062 122.753 80.082 122.753 78.332H127.765ZM122.781 77.52C122.879 76.162 123.649 75.294 124.755 75.294C125.847 75.294 126.547 76.078 126.659 77.52H122.781ZM137.143 74.104C136.653 72.382 135.379 71.248 133.433 71.248C130.969 71.248 129.107 73.208 129.107 76.61C129.107 80.012 130.857 81.944 133.335 81.944C134.637 81.944 135.673 81.3 136.219 80.138L136.359 81.79H137.213V76.554H133.335V77.548H136.065C135.995 79.424 135.155 80.936 133.433 80.936C131.585 80.936 130.395 79.424 130.395 76.596C130.395 73.754 131.669 72.256 133.447 72.256C134.749 72.256 135.603 73.026 135.953 74.412L137.143 74.104ZM142.011 74.44C140.191 74.44 138.931 75.896 138.931 78.206C138.931 80.502 140.177 81.93 141.997 81.93C143.817 81.93 145.077 80.474 145.077 78.164C145.077 75.854 143.803 74.44 142.011 74.44ZM142.011 75.322C143.201 75.322 143.915 76.344 143.915 78.178C143.915 80.04 143.187 81.048 141.997 81.048C140.807 81.048 140.093 80.026 140.093 78.178C140.093 76.344 140.807 75.322 142.011 75.322ZM147.748 76.638C147.986 75.742 148.63 75.28 149.484 75.28C150.562 75.28 150.996 75.728 150.996 76.876V77.254C150.184 77.296 149.4 77.366 148.756 77.478C147.104 77.772 146.404 78.612 146.404 79.83C146.404 81.076 147.216 81.916 148.602 81.916C149.582 81.916 150.45 81.496 151.052 80.614C151.094 81.104 151.136 81.426 151.206 81.748H152.242C152.172 81.216 152.102 80.446 152.102 79.424V76.806C152.102 75.182 151.234 74.426 149.512 74.426C148.084 74.426 147.062 75.056 146.67 76.302L147.748 76.638ZM150.996 79.648C150.422 80.6 149.652 81.062 148.882 81.062C148 81.062 147.51 80.558 147.51 79.774C147.51 78.976 147.958 78.486 149.008 78.262C149.554 78.15 150.226 78.052 150.996 78.038V79.648ZM155.419 71.248H154.285V81.748H155.419V71.248ZM166.476 71.878C167.106 72.326 167.694 72.984 168.1 73.67C168.142 73.74 168.212 73.754 168.282 73.698L168.688 73.362C168.744 73.32 168.758 73.264 168.716 73.208C168.31 72.592 167.694 71.906 167.134 71.514C167.078 71.472 167.05 71.458 166.994 71.5L166.476 71.878ZM167.708 70.94C168.366 71.43 168.968 72.116 169.318 72.69C169.374 72.774 169.43 72.774 169.486 72.718L169.864 72.382C169.934 72.326 169.948 72.284 169.906 72.214C169.5 71.626 168.87 71.01 168.31 70.576C168.254 70.534 168.212 70.548 168.156 70.59L167.708 70.94ZM161.114 74.51C160.456 74.608 159.91 74.692 159.14 74.776C158.734 74.832 158.188 74.86 157.684 74.846C157.782 75.238 157.894 75.56 158.006 75.798C158.09 75.966 158.216 75.966 158.37 75.868C158.482 75.798 158.734 75.728 158.986 75.686C159.686 75.56 160.26 75.462 160.834 75.378C160.148 77.436 159.322 79.368 158.146 81.342C158.104 81.426 158.09 81.496 158.174 81.566C158.328 81.692 158.594 81.874 158.734 81.944C158.832 81.986 158.916 81.972 158.972 81.874C160.106 79.858 161.016 77.674 161.828 75.252C162.318 75.168 162.906 75.098 163.34 75.098C164.096 75.098 164.306 75.49 164.306 76.582C164.306 78.304 164.026 79.718 163.676 80.516C163.41 81.104 163.144 81.244 162.738 81.244C162.248 81.244 161.73 81.118 161.114 80.852C161.24 81.146 161.268 81.454 161.282 81.692C161.282 81.818 161.338 81.888 161.45 81.93C161.8 82.084 162.304 82.182 162.878 82.182C163.564 82.182 164.124 81.846 164.474 81.076C164.936 80.068 165.244 78.402 165.244 76.596C165.244 74.916 164.642 74.3 163.424 74.3C163.088 74.3 162.514 74.342 162.066 74.398C162.276 73.712 162.458 73.054 162.668 72.368C162.738 72.13 162.794 72.018 162.906 71.906C163.046 71.78 163.004 71.612 162.85 71.542C162.486 71.374 162.192 71.276 161.758 71.164C161.772 71.668 161.744 72.018 161.632 72.508C161.45 73.292 161.296 73.852 161.114 74.51ZM166.07 74.09C167.134 75.014 167.834 76.204 168.31 77.632C168.338 77.772 168.436 77.786 168.548 77.716C168.716 77.632 168.982 77.464 169.122 77.338C169.206 77.268 169.192 77.198 169.164 77.1C168.702 75.77 167.89 74.552 166.91 73.712C166.84 73.642 166.784 73.628 166.7 73.656C166.49 73.782 166.266 73.936 166.07 74.09ZM178.645 78.696H178.981C180.353 78.696 180.829 78.724 180.899 78.724C180.997 78.724 181.011 78.71 181.011 78.612C181.011 78.542 180.983 78.066 180.983 76.89V72.9C180.983 71.696 181.011 71.248 181.011 71.164C181.011 71.066 180.997 71.052 180.899 71.052C180.829 71.052 180.353 71.08 178.981 71.08H175.089C173.717 71.08 173.255 71.052 173.171 71.052C173.073 71.052 173.059 71.066 173.059 71.164C173.059 71.248 173.087 71.696 173.087 72.9V76.89C173.087 78.066 173.059 78.528 173.059 78.612C173.059 78.71 173.073 78.724 173.171 78.724C173.255 78.724 173.703 78.696 175.075 78.696H175.243C175.061 80.908 173.591 82.084 170.973 82.196C171.155 82.322 171.295 82.504 171.407 82.714C171.533 82.952 171.547 82.966 171.827 82.938C174.403 82.658 175.873 81.188 176.139 78.696H177.805V81.636C177.805 82.238 178.113 82.42 178.421 82.518C178.799 82.616 179.415 82.658 180.311 82.658C181.389 82.658 182.089 82.546 182.425 82.28C182.803 82.014 182.957 81.706 183.055 80.81C183.083 80.572 183.069 80.544 182.831 80.446C182.607 80.348 182.411 80.236 182.257 80.11C182.229 80.978 182.145 81.426 181.837 81.636C181.641 81.79 181.123 81.86 180.353 81.86C179.681 81.86 179.247 81.846 179.023 81.79C178.771 81.734 178.645 81.622 178.645 81.244V78.696ZM180.143 77.94H173.927V76.33H180.143V77.94ZM180.143 73.362H173.927V71.836H180.143V73.362ZM180.143 75.602H173.927V74.09H180.143V75.602ZM188.966 70.73C188.854 71.01 188.742 71.276 188.686 71.486C188.658 71.584 188.7 71.64 188.77 71.668C189.75 72.13 191.136 72.536 192.326 72.816C192.41 72.83 192.48 72.788 192.508 72.718C192.578 72.564 192.662 72.284 192.718 72.074C192.746 71.934 192.732 71.892 192.606 71.864C191.416 71.598 190.156 71.22 188.966 70.73ZM186.306 75.042C186.418 75.434 186.558 75.784 186.67 76.008C186.726 76.12 186.782 76.176 186.852 76.176C186.936 76.176 186.978 76.162 187.104 76.106C187.216 76.064 187.384 75.98 187.678 75.91C188.868 75.658 190.044 75.42 191.542 75.112C190.17 76.596 189.134 77.744 188.252 78.668C187.622 79.312 186.614 80.348 185.578 81.398C185.508 81.468 185.48 81.58 185.55 81.65C185.704 81.804 185.9 81.986 186.096 82.14C186.18 82.196 186.264 82.182 186.32 82.126C186.95 81.384 187.776 80.404 188.49 79.718C189.036 79.172 189.624 78.906 190.072 78.906C190.716 78.906 190.954 79.438 191.15 80.432C191.43 81.832 192.046 82.28 194.062 82.28C194.706 82.28 195.434 82.21 196.064 82.098C196.19 82.084 196.246 82.042 196.246 81.944C196.246 81.706 196.218 81.426 196.19 81.258C196.176 81.132 196.134 81.09 196.022 81.118C195.308 81.244 194.664 81.328 193.95 81.328C192.438 81.328 192.172 81.118 191.906 79.802C191.71 78.794 191.15 78.248 190.422 78.248C190.114 78.248 189.876 78.318 189.596 78.444C190.59 77.394 191.542 76.372 192.55 75.35C192.732 75.182 192.872 75.07 193.04 74.986C193.138 74.944 193.194 74.846 193.194 74.762C193.194 74.72 193.166 74.622 193.096 74.552C192.942 74.384 192.746 74.23 192.578 74.104C192.508 74.062 192.48 74.034 192.424 74.034C192.354 74.034 192.312 74.048 192.256 74.09C192.144 74.16 192.032 74.202 191.822 74.258C191.178 74.412 190.338 74.58 189.218 74.762C187.916 74.972 187.244 75.042 186.306 75.042ZM205.176 73.278C202.978 74.44 201.76 76.064 201.76 78.038C201.76 80.866 204.308 81.874 206.674 82.084C206.828 82.098 206.87 82.042 206.898 81.888C206.94 81.692 206.982 81.37 206.982 81.216C206.982 81.104 206.94 81.076 206.758 81.062C204.714 80.894 202.684 80.208 202.684 77.884C202.684 76.008 204.252 74.286 206.296 73.474C207.024 73.18 207.584 73.096 208.34 73.054C208.48 73.04 208.522 73.012 208.522 72.886C208.522 72.704 208.48 72.368 208.438 72.186C208.41 72.102 208.34 72.06 208.2 72.074C204.448 72.536 201.606 72.956 199.52 73.292C198.652 73.418 198.288 73.46 197.784 73.46C197.91 73.838 198.036 74.174 198.176 74.454C198.218 74.524 198.288 74.58 198.372 74.58C198.456 74.58 198.54 74.524 198.638 74.482C198.806 74.398 198.974 74.342 199.478 74.244C201.242 73.88 203.062 73.586 205.162 73.25L205.176 73.278ZM212.025 72.438C212.123 72.914 212.137 73.25 212.137 73.782C212.137 74.706 212.193 76.288 212.389 77.688C212.697 79.886 213.579 81.51 214.755 81.51C215.693 81.51 216.449 80.446 216.841 79.312C216.883 79.172 216.841 79.06 216.729 78.962C216.547 78.794 216.421 78.626 216.267 78.262C215.861 79.564 215.329 80.46 214.769 80.46C214.097 80.46 213.495 79.256 213.285 77.604C213.103 76.176 213.089 75.322 213.089 74.426C213.089 73.698 213.145 73.306 213.201 73.138C213.229 73.04 213.257 72.956 213.257 72.886C213.257 72.83 213.215 72.774 213.131 72.732C212.865 72.606 212.417 72.48 212.025 72.438ZM219.193 74.188C220.551 75.42 221.433 76.904 221.825 79.046C221.839 79.144 221.909 79.186 222.007 79.158C222.245 79.074 222.441 78.976 222.651 78.836C222.721 78.794 222.763 78.752 222.749 78.654C222.399 76.778 221.447 75.056 220.019 73.81C219.963 73.754 219.893 73.768 219.809 73.81C219.669 73.88 219.459 74.006 219.193 74.188ZM228.897 76.708C230.297 75.28 231.235 74.3 232.481 72.984C232.803 72.648 232.957 72.55 233.139 72.494C233.279 72.438 233.349 72.34 233.349 72.228C233.349 72.158 233.321 72.074 233.251 71.99C233.125 71.822 232.915 71.612 232.649 71.402C232.537 71.318 232.467 71.29 232.397 71.29C232.341 71.29 232.257 71.346 232.201 71.388C232.103 71.444 231.935 71.486 231.767 71.514C230.535 71.752 229.387 71.906 228.281 72.018C227.903 72.06 227.511 72.06 227.049 72.004C227.161 72.452 227.259 72.718 227.385 72.97C227.441 73.082 227.511 73.138 227.609 73.138C227.665 73.138 227.777 73.11 227.875 73.068C228.015 73.012 228.183 72.97 228.365 72.942C229.611 72.704 230.703 72.494 231.865 72.312C230.787 73.586 229.947 74.482 229.135 75.364C227.791 76.806 227.077 77.52 225.971 78.486C225.873 78.57 225.859 78.626 225.915 78.696C226.055 78.878 226.265 79.088 226.433 79.256C226.531 79.354 226.601 79.34 226.713 79.228C227.133 78.808 227.497 78.43 227.945 78.08C229.023 77.212 230.409 76.498 231.795 76.498C233.125 76.498 234.217 77.366 234.217 78.794C234.217 80.166 233.377 80.95 232.173 81.342C231.907 80.152 231.053 79.34 229.793 79.34C228.799 79.34 228.155 80.04 228.155 80.768C228.155 81.664 228.911 82.42 230.591 82.42C233.559 82.42 235.211 80.908 235.211 78.822C235.211 77.002 233.965 75.756 231.949 75.756C230.941 75.756 229.947 76.092 228.939 76.75L228.897 76.708ZM231.319 81.538C230.997 81.594 230.717 81.608 230.409 81.608C229.471 81.608 228.967 81.216 228.967 80.754C228.967 80.32 229.373 80.096 229.821 80.096C230.619 80.096 231.137 80.74 231.319 81.538ZM245.182 73.166C247.184 73.166 248.794 74.636 248.794 76.708C248.794 79.046 247.198 80.544 244.426 81.09C244.706 81.258 244.888 81.468 244.972 81.608C245.07 81.776 245.168 81.804 245.336 81.762C248.374 80.992 249.788 79.158 249.788 76.876C249.788 74.202 247.926 72.368 244.79 72.368C243.026 72.368 241.626 72.956 240.59 73.922C239.554 74.888 238.966 76.26 238.966 77.548C238.966 79.578 239.96 80.726 241.01 80.726C241.836 80.726 242.466 80.306 243.068 79.284C243.95 77.856 244.664 75.532 244.916 73.166H245.182ZM243.936 73.222C243.754 75.266 243.012 77.436 242.298 78.696C241.892 79.41 241.472 79.718 240.996 79.718C240.492 79.718 239.862 79.06 239.862 77.534C239.862 76.582 240.268 75.434 241.206 74.51C241.878 73.838 242.844 73.362 243.936 73.222ZM259.801 73.362C257.603 74.524 256.385 76.148 256.385 78.122C256.385 80.95 258.933 81.958 261.299 82.168C261.453 82.182 261.495 82.126 261.523 81.972C261.565 81.776 261.607 81.454 261.607 81.3C261.607 81.188 261.565 81.16 261.383 81.146C259.339 80.978 257.309 80.292 257.309 77.968C257.309 76.092 258.877 74.37 260.921 73.558C261.649 73.264 262.209 73.18 262.965 73.138C263.105 73.124 263.147 73.096 263.147 72.97C263.147 72.788 263.105 72.452 263.063 72.27C263.035 72.186 262.965 72.144 262.825 72.158C259.073 72.62 256.231 73.04 254.145 73.376C253.277 73.502 252.913 73.544 252.409 73.544C252.535 73.922 252.661 74.258 252.801 74.538C252.843 74.608 252.913 74.664 252.997 74.664C253.081 74.664 253.165 74.608 253.263 74.566C253.431 74.482 253.599 74.426 254.103 74.328C255.867 73.964 257.687 73.67 259.787 73.334L259.801 73.362ZM260.977 75.686C261.607 76.134 262.195 76.792 262.601 77.478C262.643 77.548 262.713 77.562 262.783 77.506L263.189 77.17C263.245 77.128 263.259 77.072 263.217 77.016C262.811 76.4 262.195 75.714 261.635 75.322C261.579 75.28 261.537 75.28 261.495 75.308L260.977 75.686ZM262.209 74.748C262.867 75.238 263.469 75.924 263.819 76.498C263.875 76.582 263.931 76.582 263.987 76.526L264.365 76.19C264.435 76.134 264.449 76.092 264.407 76.022C264.001 75.434 263.371 74.818 262.811 74.384C262.755 74.342 262.713 74.356 262.657 74.398L262.209 74.748ZM269.981 70.912C270.037 71.164 270.051 71.43 270.023 71.85C269.995 72.214 269.953 72.578 269.897 73.068C268.917 73.11 268.063 73.124 267.181 73.054C267.195 73.306 267.209 73.53 267.237 73.698C267.251 73.838 267.293 73.866 267.419 73.88C267.559 73.908 267.769 73.922 268.077 73.922C268.455 73.922 269.001 73.908 269.799 73.866C269.757 74.566 269.715 75.308 269.687 76.106C267.531 77.142 266.369 78.85 266.369 80.278C266.369 81.048 266.705 81.706 267.629 81.706C268.287 81.706 269.169 81.342 270.261 80.516C270.331 80.768 270.415 80.992 270.499 81.188C270.541 81.286 270.597 81.286 270.681 81.258C270.821 81.202 271.031 81.104 271.199 80.978C271.297 80.908 271.311 80.866 271.269 80.768C271.157 80.488 271.059 80.278 270.975 79.984C271.955 79.004 272.907 77.688 273.691 76.148C274.923 76.302 276.099 77.086 276.099 78.584C276.099 79.76 275.483 80.39 274.895 80.81C274.237 81.244 273.159 81.664 272.165 81.846C272.417 82 272.585 82.224 272.655 82.364C272.739 82.532 272.837 82.56 272.991 82.518C275.091 82.028 277.051 80.908 277.051 78.71C277.051 77.1 275.931 75.784 273.929 75.49C273.999 75.35 274.069 75.252 274.139 75.112C274.195 75.014 274.293 74.93 274.293 74.832C274.293 74.762 274.237 74.692 274.125 74.608C273.957 74.482 273.677 74.356 273.341 74.23C273.341 74.678 273.229 75.042 273.089 75.406C272.263 75.42 271.255 75.588 270.541 75.798C270.555 75.126 270.611 74.538 270.681 73.796C271.941 73.698 273.075 73.544 274.783 73.18C274.881 73.166 274.937 73.11 274.937 73.012C274.937 72.844 274.909 72.634 274.867 72.48C274.839 72.396 274.797 72.354 274.699 72.382C273.271 72.69 272.067 72.886 270.807 72.984C270.849 72.662 270.891 72.396 270.947 72.088C270.989 71.808 271.045 71.654 271.129 71.528C271.185 71.458 271.213 71.402 271.213 71.332C271.213 71.262 271.157 71.206 271.073 71.164C270.849 71.052 270.457 70.968 269.981 70.912ZM270.737 79.13C270.583 78.318 270.499 77.506 270.485 76.54C271.227 76.274 272.123 76.106 272.851 76.106C272.375 77.072 271.395 78.472 270.737 79.13ZM269.701 76.918C269.729 77.926 269.841 78.822 270.009 79.718C269.085 80.46 268.343 80.81 267.853 80.81C267.405 80.81 267.237 80.516 267.237 80.152C267.237 79.158 268.035 77.842 269.701 76.918ZM282.486 70.884C282.584 71.346 282.584 71.822 282.584 72.27C282.57 72.9 282.556 73.516 282.542 74.16C281.688 74.44 281.086 74.608 280.582 74.748C280.274 74.818 279.98 74.874 279.602 74.888C279.742 75.238 279.854 75.49 280.008 75.7C280.064 75.784 280.134 75.84 280.218 75.84C280.302 75.84 280.428 75.714 280.582 75.658C281.156 75.42 281.8 75.21 282.5 75C282.486 75.35 282.486 75.728 282.458 76.218C281.632 77.492 280.806 78.64 279.672 80.11C279.602 80.208 279.56 80.292 279.644 80.362C279.756 80.516 280.022 80.74 280.162 80.838C280.274 80.908 280.316 80.894 280.4 80.768C281.128 79.676 281.786 78.682 282.458 77.73C282.416 78.92 282.43 80.376 282.43 82.434C282.43 82.546 282.472 82.588 282.542 82.588C282.766 82.588 283.074 82.574 283.214 82.56C283.326 82.546 283.354 82.504 283.354 82.42C283.34 80.46 283.298 78.598 283.298 77.142C284.194 76.134 284.782 75.518 285.412 74.93C286.182 74.23 286.77 73.894 287.274 73.894C287.722 73.894 287.918 74.328 287.918 75.098C287.918 75.784 287.876 76.498 287.806 77.506C287.736 78.472 287.694 79.27 287.694 79.9C287.694 81.202 288.24 81.734 289.234 81.734C290.2 81.734 290.998 81.174 291.642 80.138C291.768 79.928 291.74 79.83 291.642 79.69C291.502 79.522 291.418 79.34 291.32 78.976C291.012 79.69 290.704 80.068 290.466 80.306C290.088 80.67 289.696 80.838 289.304 80.838C288.842 80.838 288.604 80.628 288.604 79.746C288.604 79.284 288.674 78.514 288.744 77.436C288.828 76.372 288.87 75.448 288.87 74.832C288.87 73.712 288.338 73.082 287.372 73.082C286.56 73.082 285.748 73.642 284.894 74.468C284.376 74.944 283.886 75.448 283.312 76.106C283.326 75.91 283.326 75.756 283.34 75.574C283.55 75.154 283.732 74.818 283.928 74.496C284.012 74.37 283.998 74.286 283.914 74.216C283.774 74.09 283.634 74.006 283.424 73.894C283.452 73.18 283.48 72.662 283.536 72.018C283.564 71.71 283.578 71.584 283.648 71.472C283.676 71.416 283.718 71.346 283.718 71.29C283.718 71.192 283.648 71.122 283.494 71.066C283.256 70.982 282.878 70.912 282.486 70.884ZM301.109 79.06C300.661 78.962 300.087 78.906 299.639 78.906C298.449 78.906 297.483 79.536 297.483 80.572C297.483 81.594 298.351 82.168 299.667 82.168C301.249 82.168 301.949 81.51 302.005 80.278C302.733 80.628 303.349 81.048 303.965 81.566C304.021 81.622 304.077 81.636 304.133 81.552C304.287 81.37 304.427 81.132 304.511 80.936C304.553 80.838 304.553 80.81 304.483 80.754C303.755 80.166 302.929 79.69 302.019 79.312C301.949 78.052 301.907 76.722 301.893 75.084C302.649 75.014 303.489 74.916 304.203 74.748C304.259 74.734 304.301 74.678 304.301 74.58C304.301 74.412 304.273 74.174 304.245 74.02C304.231 73.922 304.217 73.894 304.105 73.922C303.377 74.062 302.621 74.174 301.893 74.244C301.893 73.67 301.893 73.18 301.921 72.69C301.935 72.424 301.963 72.144 302.033 72.018C302.075 71.934 302.089 71.892 302.089 71.822C302.089 71.752 302.033 71.696 301.935 71.654C301.641 71.556 301.319 71.5 300.857 71.458C300.969 71.934 300.997 72.312 300.997 72.704C300.997 73.264 300.983 73.796 300.983 74.314C299.961 74.384 298.841 74.398 297.679 74.314C297.679 74.566 297.707 74.86 297.735 75.056C297.749 75.168 297.805 75.182 297.889 75.182C298.995 75.252 300.017 75.224 301.011 75.168C301.011 76.61 301.053 77.898 301.109 79.06ZM301.109 80.18C301.109 80.922 300.619 81.37 299.625 81.37C298.785 81.37 298.281 81.076 298.281 80.572C298.281 79.998 298.799 79.676 299.583 79.676C300.073 79.676 300.577 79.76 301.109 79.914V80.18ZM294.655 71.528C294.697 71.92 294.655 72.452 294.585 72.914C294.221 75.056 293.983 76.582 293.983 78.248C293.983 79.424 294.053 81.076 294.515 82.252C294.557 82.364 294.599 82.392 294.697 82.364C294.907 82.322 295.159 82.252 295.327 82.182C295.397 82.14 295.425 82.098 295.397 82C295.369 81.832 295.383 81.622 295.411 81.37C295.467 81.006 295.775 80.222 296.251 79.158C296.307 79.046 296.321 78.976 296.237 78.85C296.125 78.696 296.013 78.542 295.915 78.276C295.551 79.102 295.229 79.802 294.935 80.558C294.823 79.662 294.837 78.934 294.837 78.136C294.837 76.834 295.089 74.986 295.509 72.97C295.579 72.62 295.649 72.41 295.733 72.27C295.831 72.116 295.817 72.004 295.649 71.892C295.453 71.766 295.005 71.598 294.655 71.528ZM302.593 71.108C303.083 71.626 303.559 72.396 303.839 73.054C303.867 73.138 303.923 73.152 304.007 73.11L304.455 72.844C304.511 72.816 304.525 72.76 304.497 72.704C304.203 72.074 303.755 71.332 303.293 70.842C303.237 70.786 303.209 70.786 303.153 70.814L302.593 71.108ZM303.965 70.45C304.483 71.024 304.917 71.738 305.197 72.354C305.239 72.452 305.295 72.452 305.365 72.41L305.771 72.144C305.855 72.088 305.883 72.06 305.841 71.976C305.547 71.388 305.057 70.674 304.609 70.184C304.553 70.128 304.511 70.142 304.455 70.17L303.965 70.45ZM105.855 99.61C106.037 99.442 106.219 99.246 106.415 99.05C106.527 98.924 106.625 98.854 106.737 98.798C106.835 98.756 106.863 98.714 106.863 98.658C106.863 98.588 106.807 98.518 106.723 98.476C106.471 98.336 106.303 98.266 106.023 98.154C105.925 98.364 105.785 98.56 105.631 98.728C104.385 100.072 102.873 101.122 100.311 102.116C100.465 102.242 100.619 102.41 100.731 102.606C100.801 102.746 100.843 102.802 100.913 102.802C100.955 102.802 101.025 102.774 101.123 102.732C102.915 101.92 104.007 101.234 105.043 100.338H108.571C107.941 101.248 107.171 102.088 106.163 102.83C105.575 102.326 105.057 101.962 104.455 101.612C104.357 101.556 104.329 101.556 104.231 101.64L103.895 101.906C103.755 102.032 103.769 102.06 103.853 102.116C104.427 102.452 104.917 102.816 105.463 103.32C104.049 104.202 102.201 104.93 99.6675 105.476C99.7935 105.602 99.9335 105.784 100.031 105.98C100.157 106.204 100.171 106.218 100.437 106.162C105.505 104.916 107.521 103.152 109.397 100.674C109.551 100.492 109.663 100.366 109.761 100.31C109.845 100.254 109.929 100.184 109.929 100.1C109.929 100.016 109.859 99.946 109.663 99.764C109.425 99.554 109.355 99.512 109.243 99.512C109.187 99.512 109.145 99.54 109.089 99.568C109.019 99.596 108.935 99.61 108.725 99.61H105.855ZM103.657 94.682L104.175 94.108C104.287 93.982 104.399 93.884 104.511 93.828C104.595 93.786 104.637 93.744 104.637 93.688C104.637 93.618 104.595 93.576 104.497 93.534C104.259 93.422 104.007 93.338 103.699 93.254C103.615 93.464 103.461 93.702 103.321 93.87C102.215 95.2 100.829 96.236 98.7015 97.188C98.8695 97.314 99.0095 97.44 99.1495 97.622C99.2335 97.734 99.2615 97.79 99.3315 97.79C99.3595 97.79 99.4155 97.762 99.5135 97.72C101.011 96.992 102.033 96.264 102.957 95.396H106.373C105.743 96.264 104.973 97.062 103.965 97.79C103.447 97.384 102.943 97.034 102.397 96.712C102.299 96.656 102.271 96.67 102.187 96.74L101.865 97.006C101.725 97.118 101.725 97.146 101.823 97.216C102.327 97.524 102.789 97.846 103.251 98.252C101.991 99.036 100.423 99.722 98.4215 100.296C98.5615 100.422 98.7015 100.576 98.8135 100.758C98.9535 101.01 98.9535 101.01 99.2055 100.926C103.587 99.512 105.505 97.804 107.227 95.746C107.381 95.55 107.493 95.424 107.591 95.368C107.689 95.312 107.759 95.242 107.759 95.158C107.759 95.074 107.703 94.99 107.465 94.794C107.255 94.626 107.171 94.584 107.073 94.584C107.003 94.584 106.961 94.598 106.905 94.626C106.835 94.654 106.737 94.682 106.527 94.682H103.657ZM117.52 100.128C117.52 100.674 117.338 100.786 116.834 100.786C116.316 100.786 116.008 100.772 115.574 100.716C115.7 100.898 115.784 101.122 115.84 101.36C115.91 101.64 115.91 101.64 116.19 101.64C117.394 101.64 117.688 101.584 118.01 101.374C118.318 101.178 118.43 100.912 118.43 100.338C118.43 99.89 118.402 99.274 118.402 98.546V95.046C118.402 94.388 118.43 94.15 118.486 94.024C118.528 93.926 118.57 93.856 118.57 93.744C118.57 93.688 118.5 93.632 118.388 93.618C118.122 93.59 117.758 93.562 117.422 93.548C117.506 93.94 117.52 94.346 117.52 95.074V100.128ZM121.748 100.296C121.748 100.226 121.706 100.17 121.594 100.086C121.412 99.946 121.104 99.764 120.824 99.624C120.754 99.932 120.628 100.226 120.474 100.478C119.172 102.844 116.596 104.51 112.662 105.224C112.802 105.336 112.97 105.56 113.082 105.784C113.166 105.952 113.194 106.008 113.278 106.008C113.32 106.008 113.376 105.994 113.474 105.966C117.212 105.14 119.662 103.544 121.132 101.136C121.314 100.828 121.454 100.632 121.594 100.506C121.678 100.422 121.748 100.38 121.748 100.296ZM115.672 96.348C115.672 96.264 115.616 96.208 115.518 96.166C115.294 96.054 114.958 95.928 114.636 95.816C114.594 96.11 114.51 96.474 114.37 96.838C113.866 98.042 113.222 99.162 111.962 100.296C112.144 100.366 112.354 100.492 112.522 100.618C112.634 100.716 112.704 100.758 112.746 100.758C112.802 100.758 112.844 100.716 112.942 100.604C114.132 99.428 114.72 98.308 115.294 96.978C115.406 96.754 115.462 96.614 115.56 96.53C115.63 96.46 115.672 96.418 115.672 96.348ZM120.376 95.984C120.194 96.068 120.194 96.096 120.236 96.194C121.034 97.72 121.916 98.952 122.98 100.044C123.064 100.142 123.12 100.184 123.162 100.184C123.218 100.184 123.26 100.142 123.358 100.03C123.526 99.834 123.708 99.68 123.89 99.582C122.77 98.546 121.846 97.426 121.006 95.83C120.964 95.718 120.95 95.718 120.768 95.802L120.376 95.984ZM131.593 99.344V97.342C131.593 96.418 131.635 96.096 131.677 95.928C131.705 95.816 131.775 95.746 131.775 95.662C131.775 95.578 131.677 95.536 131.593 95.522C131.313 95.48 131.005 95.452 130.683 95.438C130.767 95.914 130.781 96.376 130.781 97.37V99.344H128.639V96.922C128.919 96.768 129.171 96.614 129.395 96.46C129.521 96.376 129.689 96.264 129.815 96.222C129.913 96.194 129.997 96.138 129.997 96.068C129.997 95.998 129.955 95.942 129.885 95.886C129.689 95.732 129.535 95.62 129.311 95.48C129.157 95.69 129.045 95.788 128.863 95.928C128.121 96.474 126.805 97.076 125.545 97.44C125.671 97.552 125.769 97.706 125.839 97.86C125.951 98.098 125.979 98.084 126.245 98C126.833 97.804 127.365 97.58 127.855 97.342V98.574C127.855 98.854 127.855 99.106 127.841 99.344H127.351C125.937 99.344 125.461 99.316 125.391 99.316C125.293 99.316 125.279 99.33 125.279 99.428V100.002C125.279 100.1 125.293 100.114 125.391 100.114C125.461 100.114 125.937 100.086 127.351 100.086H127.813C127.743 101.304 127.561 101.962 127.281 102.718C126.875 103.866 126.133 104.622 125.293 105.28C125.447 105.378 125.601 105.504 125.741 105.686C125.839 105.798 125.881 105.854 125.937 105.854C125.993 105.854 126.063 105.798 126.161 105.714C126.959 104.986 127.631 104.132 128.065 102.97C128.415 102.046 128.555 101.234 128.611 100.086H130.781V103.432C130.781 105.056 130.753 105.756 130.753 105.84C130.753 105.938 130.767 105.952 130.865 105.952H131.509C131.607 105.952 131.621 105.938 131.621 105.84C131.621 105.77 131.593 105.056 131.593 103.432V100.086H133.539C133.595 101.822 133.973 103.04 134.365 103.74C135.051 105.028 136.087 105.854 136.955 105.854C137.557 105.854 137.921 105.336 138.131 104.426C138.187 104.132 138.173 104.132 137.963 104.02C137.781 103.922 137.655 103.796 137.515 103.628C137.417 104.538 137.137 104.972 136.913 104.972C136.423 104.972 135.569 104.3 135.107 103.418C134.743 102.732 134.575 102.172 134.463 101.346C134.393 100.842 134.323 100.128 134.351 99.442C134.351 99.344 134.323 99.316 134.225 99.316C134.141 99.316 133.665 99.344 132.237 99.344H131.593ZM128.149 94.122C126.735 94.122 126.259 94.094 126.189 94.094C126.091 94.094 126.077 94.108 126.077 94.206V94.78C126.077 94.878 126.091 94.892 126.189 94.892C126.259 94.892 126.735 94.864 128.149 94.864H133.875C133.903 96.684 134.309 97.818 134.757 98.56C135.331 99.526 136.143 99.82 136.675 99.82C137.319 99.82 137.669 99.274 137.879 98.462C137.949 98.196 137.935 98.168 137.725 98.084C137.571 98.014 137.403 97.874 137.277 97.734C137.165 98.63 136.885 98.994 136.661 98.994C136.409 98.994 135.779 98.756 135.401 98.112C135.009 97.44 134.869 96.754 134.757 96.012C134.687 95.48 134.659 94.892 134.687 94.22C134.687 94.122 134.659 94.094 134.561 94.094C134.491 94.094 134.001 94.122 132.587 94.122H128.149ZM137.249 94.5C137.249 94.444 137.193 94.388 137.109 94.318C136.927 94.164 136.759 94.052 136.577 93.94C136.507 94.108 136.465 94.178 136.297 94.388C136.059 94.682 135.695 95.018 135.233 95.34C135.373 95.424 135.485 95.522 135.597 95.69C135.653 95.774 135.695 95.816 135.737 95.816C135.793 95.816 135.849 95.774 135.947 95.704C136.297 95.41 136.605 95.116 136.829 94.864C136.913 94.766 137.025 94.696 137.109 94.654C137.193 94.612 137.249 94.57 137.249 94.5ZM135.611 102.424C135.499 102.564 135.541 102.592 135.625 102.634C136.227 102.942 136.605 103.208 137.039 103.558C137.137 103.642 137.151 103.642 137.291 103.488L137.529 103.208C137.627 103.082 137.641 103.068 137.543 102.984C137.095 102.648 136.605 102.354 136.031 102.088C135.933 102.046 135.905 102.046 135.821 102.158L135.611 102.424ZM135.527 96.586C135.429 96.74 135.429 96.768 135.541 96.824C136.101 97.09 136.507 97.314 136.941 97.678C137.039 97.762 137.081 97.762 137.165 97.636L137.375 97.342C137.487 97.174 137.487 97.146 137.389 97.076C136.955 96.754 136.437 96.46 135.933 96.236C135.821 96.194 135.793 96.208 135.723 96.306L135.527 96.586ZM136.969 100.478C136.969 100.422 136.927 100.394 136.857 100.338C136.703 100.212 136.521 100.1 136.297 99.988C136.241 100.156 136.157 100.282 136.017 100.464C135.765 100.772 135.541 100.982 135.079 101.346C135.177 101.402 135.289 101.5 135.401 101.626C135.499 101.738 135.555 101.78 135.611 101.78C135.667 101.78 135.723 101.738 135.835 101.64C136.129 101.388 136.367 101.15 136.605 100.87C136.689 100.758 136.773 100.66 136.857 100.618C136.927 100.59 136.969 100.548 136.969 100.478ZM151.475 104.734C151.475 104.65 151.461 104.636 151.363 104.636C151.293 104.636 150.887 104.664 149.627 104.664H148.143V103.474H148.759C150.089 103.474 150.537 103.502 150.607 103.502C150.705 103.502 150.719 103.488 150.719 103.39V102.928C150.719 102.83 150.705 102.816 150.607 102.816C150.537 102.816 150.089 102.844 148.759 102.844H148.143V101.724H148.745C150.061 101.724 150.509 101.752 150.593 101.752C150.691 101.752 150.705 101.738 150.705 101.64V101.178C150.705 101.08 150.691 101.066 150.593 101.066C150.509 101.066 150.061 101.094 148.745 101.094H148.143V100.002H149.333C150.537 100.002 150.943 100.03 151.013 100.03C151.111 100.03 151.125 100.016 151.125 99.918V99.442C151.125 99.344 151.111 99.33 151.013 99.33C150.943 99.33 150.537 99.358 149.333 99.358H148.185C148.283 99.19 148.381 98.994 148.493 98.77C148.535 98.686 148.577 98.644 148.633 98.588C148.689 98.532 148.731 98.49 148.731 98.42C148.731 98.364 148.675 98.322 148.591 98.294C148.409 98.224 148.157 98.154 147.877 98.084C147.849 98.336 147.793 98.518 147.709 98.77C147.667 98.91 147.569 99.134 147.443 99.358H145.343L145.441 99.19C145.595 98.896 145.693 98.686 145.833 98.588C145.903 98.532 145.959 98.476 145.959 98.406C145.959 98.336 145.917 98.308 145.819 98.266C145.595 98.182 145.357 98.112 145.091 98.056C145.049 98.364 144.867 98.784 144.755 99.008C144.391 99.75 143.747 100.702 142.963 101.458C143.103 101.528 143.215 101.612 143.327 101.738C143.425 101.836 143.467 101.878 143.509 101.878C143.551 101.878 143.607 101.836 143.691 101.738C143.971 101.43 144.223 101.122 144.447 100.814C144.433 101.052 144.433 101.276 144.433 101.514V104.664C144.433 105.574 144.405 105.84 144.405 105.91C144.405 106.008 144.419 106.022 144.517 106.022H145.063C145.147 106.022 145.161 106.008 145.161 105.924V105.322H149.627C150.887 105.322 151.293 105.35 151.363 105.35C151.461 105.35 151.475 105.336 151.475 105.238V104.734ZM147.415 104.664H145.161V103.474H147.415V104.664ZM147.415 102.844H145.161V101.724H147.415V102.844ZM147.415 101.094H145.161V100.002H147.415V101.094ZM141.899 100.814H142.543C143.005 100.814 143.103 100.842 143.173 100.842C143.285 100.842 143.299 100.828 143.299 100.73V100.198C143.299 100.1 143.285 100.086 143.173 100.086C143.103 100.086 143.005 100.114 142.543 100.114H141.899V98.07C142.697 98.07 142.949 98.098 143.033 98.098C143.117 98.098 143.131 98.084 143.131 97.986C143.131 97.916 143.117 97.622 143.117 96.796V95.312C143.117 94.486 143.131 94.192 143.131 94.108C143.131 94.01 143.117 93.996 143.033 93.996C142.949 93.996 142.697 94.024 141.815 94.024H140.709C139.855 94.024 139.589 93.996 139.505 93.996C139.407 93.996 139.393 94.01 139.393 94.108C139.393 94.192 139.421 94.486 139.421 95.312V96.796C139.421 97.622 139.393 97.916 139.393 97.986C139.393 98.084 139.407 98.098 139.505 98.098C139.589 98.098 139.855 98.07 140.709 98.07H141.143V103.88C140.849 103.964 140.555 104.048 140.261 104.146V100.954C140.261 100.324 140.275 100.1 140.331 99.974C140.373 99.876 140.415 99.82 140.415 99.722C140.415 99.666 140.345 99.624 140.247 99.61C140.051 99.568 139.729 99.526 139.407 99.512C139.491 99.876 139.505 100.226 139.505 100.94V104.356C139.197 104.44 138.931 104.482 138.679 104.51C138.763 104.804 138.861 105.042 138.959 105.28C139.001 105.364 139.043 105.406 139.099 105.406C139.169 105.406 139.225 105.35 139.281 105.308C139.351 105.252 139.519 105.154 139.813 105.07C141.297 104.608 142.305 104.258 143.327 103.824C143.579 103.712 143.579 103.712 143.579 103.432C143.579 103.264 143.593 103.082 143.621 102.928C143.019 103.208 142.459 103.432 141.899 103.628V100.814ZM142.375 97.384H140.177V94.738H142.375V97.384ZM147.079 95.256C147.079 94.444 147.107 94.122 147.107 94.038C147.107 93.94 147.093 93.926 146.995 93.926C146.925 93.926 146.645 93.954 145.819 93.954H144.965C144.167 93.954 143.957 93.926 143.873 93.926C143.775 93.926 143.761 93.94 143.761 94.038V94.528C143.761 94.626 143.775 94.64 143.873 94.64C143.957 94.64 144.167 94.612 144.965 94.612H146.351V95.578H145.049C144.363 95.578 144.167 95.55 144.097 95.55C143.999 95.55 143.985 95.564 143.985 95.662V96.124C143.985 96.222 143.999 96.236 144.097 96.236C144.167 96.236 144.363 96.208 145.049 96.208H146.351V97.202H144.769C144.139 97.202 143.957 97.174 143.873 97.174C143.775 97.174 143.761 97.188 143.761 97.286V97.748C143.761 97.846 143.775 97.86 143.873 97.86C143.957 97.86 144.139 97.832 144.769 97.832H145.819C146.645 97.832 146.925 97.86 146.995 97.86C147.093 97.86 147.107 97.846 147.107 97.748C147.107 97.664 147.079 97.342 147.079 96.53V95.256ZM151.013 95.256C151.013 94.444 151.041 94.122 151.041 94.038C151.041 93.94 151.027 93.926 150.929 93.926C150.845 93.926 150.579 93.954 149.781 93.954H148.885C148.101 93.954 147.905 93.926 147.821 93.926C147.723 93.926 147.709 93.94 147.709 94.038V94.528C147.709 94.626 147.723 94.64 147.821 94.64C147.905 94.64 148.101 94.612 148.885 94.612H150.271V95.578H148.983C148.311 95.578 148.115 95.55 148.045 95.55C147.947 95.55 147.933 95.564 147.933 95.69V96.124C147.933 96.222 147.947 96.236 148.045 96.236C148.115 96.236 148.311 96.208 148.983 96.208H150.271V97.202H148.703C148.087 97.202 147.905 97.174 147.821 97.174C147.723 97.174 147.709 97.188 147.709 97.286V97.748C147.709 97.846 147.723 97.86 147.821 97.86C147.905 97.86 148.087 97.832 148.703 97.832H149.781C150.579 97.832 150.845 97.86 150.929 97.86C151.027 97.86 151.041 97.846 151.041 97.748C151.041 97.664 151.013 97.342 151.013 96.53V95.256ZM155.762 94.15C155.916 94.794 155.902 95.396 155.874 96.264C155.804 98.238 155.678 100.52 155.678 102.508C155.678 104.566 156.532 105.322 158.114 105.322C160.116 105.322 161.978 104.384 163.448 102.97C163.574 102.858 163.616 102.788 163.616 102.704C163.616 102.648 163.588 102.592 163.56 102.508C163.476 102.298 163.364 102.018 163.322 101.696C161.88 103.292 160.06 104.37 158.282 104.37C157.064 104.37 156.63 103.894 156.63 102.326C156.63 100.394 156.714 98.476 156.84 96.362C156.896 95.522 156.952 95.088 157.008 94.92C157.064 94.78 157.12 94.668 157.12 94.556C157.12 94.458 157.05 94.388 156.896 94.346C156.616 94.248 156.182 94.192 155.762 94.15ZM172.633 96.278C170.435 97.44 169.217 99.064 169.217 101.038C169.217 103.866 171.765 104.874 174.131 105.084C174.285 105.098 174.327 105.042 174.355 104.888C174.397 104.692 174.439 104.37 174.439 104.216C174.439 104.104 174.397 104.076 174.215 104.062C172.171 103.894 170.141 103.208 170.141 100.884C170.141 99.008 171.709 97.286 173.753 96.474C174.481 96.18 175.041 96.096 175.797 96.054C175.937 96.04 175.979 96.012 175.979 95.886C175.979 95.704 175.937 95.368 175.895 95.186C175.867 95.102 175.797 95.06 175.657 95.074C171.905 95.536 169.063 95.956 166.977 96.292C166.109 96.418 165.745 96.46 165.241 96.46C165.367 96.838 165.493 97.174 165.633 97.454C165.675 97.524 165.745 97.58 165.829 97.58C165.913 97.58 165.997 97.524 166.095 97.482C166.263 97.398 166.431 97.342 166.935 97.244C168.699 96.88 170.519 96.586 172.619 96.25L172.633 96.278ZM179.482 95.438C179.58 95.914 179.594 96.25 179.594 96.782C179.594 97.706 179.65 99.288 179.846 100.688C180.154 102.886 181.036 104.51 182.212 104.51C183.15 104.51 183.906 103.446 184.298 102.312C184.34 102.172 184.298 102.06 184.186 101.962C184.004 101.794 183.878 101.626 183.724 101.262C183.318 102.564 182.786 103.46 182.226 103.46C181.554 103.46 180.952 102.256 180.742 100.604C180.56 99.176 180.546 98.322 180.546 97.426C180.546 96.698 180.602 96.306 180.658 96.138C180.686 96.04 180.714 95.956 180.714 95.886C180.714 95.83 180.672 95.774 180.588 95.732C180.322 95.606 179.874 95.48 179.482 95.438ZM186.65 97.188C188.008 98.42 188.89 99.904 189.282 102.046C189.296 102.144 189.366 102.186 189.464 102.158C189.702 102.074 189.898 101.976 190.108 101.836C190.178 101.794 190.22 101.752 190.206 101.654C189.856 99.778 188.904 98.056 187.476 96.81C187.42 96.754 187.35 96.768 187.266 96.81C187.126 96.88 186.916 97.006 186.65 97.188ZM199.966 96.278C197.768 97.44 196.55 99.064 196.55 101.038C196.55 103.866 199.098 104.874 201.464 105.084C201.618 105.098 201.66 105.042 201.688 104.888C201.73 104.692 201.772 104.37 201.772 104.216C201.772 104.104 201.73 104.076 201.548 104.062C199.504 103.894 197.474 103.208 197.474 100.884C197.474 99.008 199.042 97.286 201.086 96.474C201.814 96.18 202.374 96.096 203.13 96.054C203.27 96.04 203.312 96.012 203.312 95.886C203.312 95.704 203.27 95.368 203.228 95.186C203.2 95.102 203.13 95.06 202.99 95.074C199.238 95.536 196.396 95.956 194.31 96.292C193.442 96.418 193.078 96.46 192.574 96.46C192.7 96.838 192.826 97.174 192.966 97.454C193.008 97.524 193.078 97.58 193.162 97.58C193.246 97.58 193.33 97.524 193.428 97.482C193.596 97.398 193.764 97.342 194.268 97.244C196.032 96.88 197.852 96.586 199.952 96.25L199.966 96.278ZM210.455 100.982C211.239 101.01 212.121 101.024 212.849 100.968C212.919 100.968 212.961 100.94 212.975 100.814C212.989 100.646 213.003 100.352 213.003 100.198C213.003 100.114 212.961 100.086 212.835 100.1C212.093 100.17 211.351 100.156 210.567 100.128C210.693 99.274 210.819 98.42 210.931 97.734C211.533 97.762 212.317 97.762 212.975 97.72C213.059 97.72 213.115 97.692 213.115 97.58C213.129 97.384 213.129 97.146 213.129 96.936C213.129 96.852 213.101 96.824 213.045 96.824C212.415 96.88 211.701 96.894 211.085 96.852C211.169 96.264 211.239 95.858 211.337 95.312C211.407 94.934 211.477 94.78 211.589 94.654C211.645 94.584 211.687 94.528 211.687 94.458C211.687 94.374 211.603 94.29 211.477 94.234C211.239 94.122 210.791 93.968 210.385 93.898C210.441 94.29 210.427 94.682 210.371 95.088C210.315 95.69 210.273 96.026 210.161 96.782C209.251 96.684 208.369 96.558 207.473 96.236C207.473 96.516 207.487 96.81 207.501 97.02C207.515 97.16 207.529 97.174 207.627 97.202C208.341 97.44 209.097 97.552 210.007 97.65C209.923 98.378 209.811 99.19 209.685 100.058C208.761 99.96 208.061 99.834 207.207 99.526C207.193 99.778 207.193 100.058 207.221 100.31C207.235 100.436 207.277 100.478 207.347 100.492C208.019 100.688 208.677 100.814 209.573 100.926C209.517 101.514 209.433 102.158 209.433 102.662C209.433 104.51 210.455 105.462 212.639 105.462C214.669 105.462 216.265 104.314 216.265 102.424C216.265 101.598 215.957 100.73 215.103 99.89C215.033 99.834 214.963 99.834 214.865 99.848C214.557 99.89 214.333 99.932 213.997 99.904C215.047 100.954 215.285 101.668 215.285 102.41C215.285 103.88 213.997 104.566 212.485 104.566C211.071 104.566 210.315 104.076 210.315 102.648C210.315 102.214 210.399 101.542 210.455 100.982ZM223.38 97.426C222.722 97.524 222.176 97.608 221.406 97.692C221 97.748 220.454 97.776 219.95 97.762C220.048 98.154 220.16 98.476 220.272 98.714C220.356 98.882 220.482 98.882 220.636 98.784C220.748 98.714 221 98.644 221.252 98.602C221.952 98.476 222.526 98.378 223.1 98.294C222.414 100.352 221.588 102.284 220.412 104.258C220.37 104.342 220.356 104.412 220.44 104.482C220.594 104.608 220.86 104.79 221 104.86C221.098 104.902 221.182 104.888 221.238 104.79C222.372 102.774 223.282 100.59 224.094 98.168C224.584 98.084 225.172 98.014 225.606 98.014C226.362 98.014 226.572 98.406 226.572 99.498C226.572 101.22 226.292 102.634 225.942 103.432C225.676 104.02 225.41 104.16 225.004 104.16C224.514 104.16 223.996 104.034 223.38 103.768C223.506 104.062 223.534 104.37 223.548 104.608C223.548 104.734 223.604 104.804 223.716 104.846C224.066 105 224.57 105.098 225.144 105.098C225.83 105.098 226.39 104.762 226.74 103.992C227.202 102.984 227.51 101.318 227.51 99.47C227.51 97.832 226.908 97.216 225.69 97.216C225.354 97.216 224.78 97.258 224.332 97.314C224.542 96.628 224.724 95.97 224.934 95.284C225.004 95.046 225.06 94.934 225.172 94.822C225.312 94.696 225.27 94.528 225.116 94.458C224.752 94.29 224.458 94.192 224.024 94.08C224.038 94.584 224.01 94.934 223.898 95.424C223.716 96.208 223.562 96.768 223.38 97.426ZM228.406 97.006C229.47 97.93 230.17 99.12 230.646 100.548C230.674 100.688 230.772 100.702 230.884 100.632C231.052 100.548 231.318 100.38 231.458 100.254C231.542 100.184 231.528 100.114 231.5 100.016C231.038 98.686 230.226 97.468 229.246 96.628C229.176 96.558 229.12 96.544 229.036 96.572C228.826 96.698 228.602 96.852 228.406 97.006ZM238.908 102.256C238.502 102.186 237.998 102.144 237.438 102.144C235.814 102.144 234.862 102.942 234.862 103.852C234.862 104.888 235.702 105.518 237.34 105.518C239.034 105.518 239.86 104.902 239.846 103.334C240.966 103.712 241.904 104.23 243.038 105.112C243.122 105.168 243.178 105.154 243.248 105.07C243.388 104.916 243.542 104.65 243.598 104.468C243.64 104.342 243.612 104.286 243.542 104.23C242.38 103.362 241.064 102.774 239.804 102.424C239.748 101.584 239.706 100.856 239.706 99.988C240.826 99.918 241.806 99.792 242.8 99.61C242.898 99.596 242.94 99.554 242.94 99.47C242.94 99.232 242.926 98.966 242.926 98.798C242.912 98.728 242.87 98.7 242.772 98.728C241.694 98.938 240.756 99.064 239.678 99.134C239.664 98.476 239.664 97.748 239.664 97.062C240.952 96.978 242.086 96.838 243.178 96.656C243.22 96.656 243.276 96.628 243.276 96.516C243.276 96.348 243.262 96.124 243.234 95.9C243.22 95.802 243.192 95.774 243.08 95.802C242.086 95.984 240.938 96.166 239.664 96.264C239.678 95.788 239.678 95.48 239.706 95.032C239.72 94.752 239.776 94.542 239.874 94.388C239.944 94.276 239.902 94.122 239.748 94.066C239.482 93.982 239.104 93.926 238.642 93.884C238.726 94.164 238.754 94.402 238.768 94.808C238.768 95.326 238.782 95.718 238.782 96.292C237.438 96.348 236.122 96.334 234.89 96.18C234.89 96.488 234.918 96.698 234.946 96.908C234.96 97.006 234.988 97.034 235.072 97.048C236.22 97.16 237.424 97.174 238.782 97.118C238.782 97.79 238.796 98.518 238.796 99.204C237.704 99.26 236.444 99.232 235.408 99.106C235.408 99.302 235.422 99.638 235.45 99.82C235.464 99.946 235.492 99.988 235.604 99.988C236.612 100.072 237.746 100.072 238.824 100.03C238.838 100.842 238.866 101.458 238.908 102.256ZM238.922 103.096C238.964 103.67 238.838 104.02 238.67 104.23C238.418 104.524 237.886 104.664 237.242 104.664C236.22 104.664 235.674 104.384 235.674 103.796C235.674 103.292 236.262 102.914 237.438 102.914C237.942 102.914 238.432 102.984 238.922 103.096ZM247.815 95.438C247.913 95.914 247.927 96.25 247.927 96.782C247.927 97.706 247.983 99.288 248.179 100.688C248.487 102.886 249.369 104.51 250.545 104.51C251.483 104.51 252.239 103.446 252.631 102.312C252.673 102.172 252.631 102.06 252.519 101.962C252.337 101.794 252.211 101.626 252.057 101.262C251.651 102.564 251.119 103.46 250.559 103.46C249.887 103.46 249.285 102.256 249.075 100.604C248.893 99.176 248.879 98.322 248.879 97.426C248.879 96.698 248.935 96.306 248.991 96.138C249.019 96.04 249.047 95.956 249.047 95.886C249.047 95.83 249.005 95.774 248.921 95.732C248.655 95.606 248.207 95.48 247.815 95.438ZM254.983 97.188C256.341 98.42 257.223 99.904 257.615 102.046C257.629 102.144 257.699 102.186 257.797 102.158C258.035 102.074 258.231 101.976 258.441 101.836C258.511 101.794 258.553 101.752 258.539 101.654C258.189 99.778 257.237 98.056 255.809 96.81C255.753 96.754 255.683 96.768 255.599 96.81C255.459 96.88 255.249 97.006 254.983 97.188ZM266.242 102.256C265.836 102.186 265.332 102.144 264.772 102.144C263.148 102.144 262.196 102.942 262.196 103.852C262.196 104.888 263.036 105.518 264.674 105.518C266.368 105.518 267.194 104.902 267.18 103.334C268.3 103.712 269.238 104.23 270.372 105.112C270.456 105.168 270.512 105.154 270.582 105.07C270.722 104.916 270.876 104.65 270.932 104.468C270.974 104.342 270.946 104.286 270.876 104.23C269.714 103.362 268.398 102.774 267.138 102.424C267.082 101.584 267.04 100.856 267.04 99.988C268.16 99.918 269.14 99.792 270.134 99.61C270.232 99.596 270.274 99.554 270.274 99.47C270.274 99.232 270.26 98.966 270.26 98.798C270.246 98.728 270.204 98.7 270.106 98.728C269.028 98.938 268.09 99.064 267.012 99.134C266.998 98.476 266.998 97.748 266.998 97.062C268.286 96.978 269.42 96.838 270.512 96.656C270.554 96.656 270.61 96.628 270.61 96.516C270.61 96.348 270.596 96.124 270.568 95.9C270.554 95.802 270.526 95.774 270.414 95.802C269.42 95.984 268.272 96.166 266.998 96.264C267.012 95.788 267.012 95.48 267.04 95.032C267.054 94.752 267.11 94.542 267.208 94.388C267.278 94.276 267.236 94.122 267.082 94.066C266.816 93.982 266.438 93.926 265.976 93.884C266.06 94.164 266.088 94.402 266.102 94.808C266.102 95.326 266.116 95.718 266.116 96.292C264.772 96.348 263.456 96.334 262.224 96.18C262.224 96.488 262.252 96.698 262.28 96.908C262.294 97.006 262.322 97.034 262.406 97.048C263.554 97.16 264.758 97.174 266.116 97.118C266.116 97.79 266.13 98.518 266.13 99.204C265.038 99.26 263.778 99.232 262.742 99.106C262.742 99.302 262.756 99.638 262.784 99.82C262.798 99.946 262.826 99.988 262.938 99.988C263.946 100.072 265.08 100.072 266.158 100.03C266.172 100.842 266.2 101.458 266.242 102.256ZM266.256 103.096C266.298 103.67 266.172 104.02 266.004 104.23C265.752 104.524 265.22 104.664 264.576 104.664C263.554 104.664 263.008 104.384 263.008 103.796C263.008 103.292 263.596 102.914 264.772 102.914C265.276 102.914 265.766 102.984 266.256 103.096ZM282.106 97.538C280.818 97.664 279.278 97.846 278.074 98C278.088 97.482 278.088 97.048 278.116 96.474C278.13 96.222 278.144 96.054 278.214 95.858C278.242 95.76 278.298 95.662 278.298 95.564C278.298 95.48 278.214 95.382 278.102 95.354C277.822 95.27 277.402 95.2 276.996 95.172C277.136 95.676 277.15 95.956 277.164 96.544C277.164 97.062 277.164 97.58 277.15 98.126C276.464 98.238 275.764 98.378 275.022 98.476C274.644 98.532 274.294 98.56 273.986 98.56C274.042 98.882 274.154 99.204 274.238 99.428C274.294 99.554 274.378 99.582 274.518 99.54C274.756 99.456 274.966 99.4 275.162 99.358C275.806 99.218 276.408 99.12 277.15 99.008C277.15 100.492 277.15 102.018 277.22 102.634C277.388 104.314 278.06 104.86 280.762 104.86C282.022 104.86 283.338 104.776 284.15 104.664C284.248 104.65 284.276 104.608 284.276 104.468C284.276 104.314 284.262 103.992 284.234 103.81C284.22 103.698 284.178 103.67 284.01 103.684C282.974 103.838 281.798 103.936 280.622 103.936C278.564 103.936 278.2 103.628 278.102 102.466C278.032 101.668 278.046 100.352 278.074 98.868C279.362 98.672 280.762 98.504 282.078 98.392C282.064 99.05 282.008 99.792 281.938 100.324C281.868 100.898 281.686 101.122 281.266 101.122C280.832 101.122 280.398 101.038 279.908 100.898C280.02 101.178 280.104 101.43 280.132 101.682C280.146 101.836 280.174 101.906 280.3 101.934C280.65 101.99 280.972 102.032 281.35 102.032C282.176 102.032 282.68 101.654 282.82 100.632C282.89 100.1 282.946 99.232 282.988 98.322C284.024 98.238 284.948 98.196 285.914 98.196C286.026 98.196 286.054 98.154 286.054 98.028C286.068 97.846 286.068 97.608 286.054 97.412C286.054 97.3 286.026 97.272 285.914 97.272C284.99 97.3 284.094 97.37 283.03 97.454C283.058 96.642 283.072 95.9 283.086 95.06C283.1 94.85 283.128 94.668 283.198 94.556C283.24 94.5 283.282 94.416 283.282 94.332C283.282 94.234 283.24 94.192 283.1 94.15C282.862 94.066 282.526 94.01 282.008 93.94C282.106 94.318 282.134 94.654 282.134 95.102C282.134 95.844 282.134 96.684 282.106 97.538ZM290.274 100.8C291.1 99.33 292.038 97.538 293.004 95.732C293.172 95.41 293.298 95.27 293.424 95.158C293.564 95.018 293.55 94.864 293.396 94.752C293.172 94.584 292.766 94.374 292.388 94.22C292.318 94.668 292.178 95.074 291.842 95.83C290.876 97.888 289.392 100.842 287.586 104.37C287.53 104.468 287.53 104.538 287.614 104.608C287.782 104.748 288.034 104.888 288.23 104.972C288.356 105.028 288.426 105.014 288.482 104.874C289.154 103.404 289.728 102.368 290.204 101.78C290.904 100.954 291.52 100.576 292.136 100.576C292.878 100.576 293.2 101.122 293.354 102.536C293.536 104.244 294.012 105.07 295.356 105.07C296.42 105.07 297.218 104.58 297.806 103.838C298.268 103.292 298.632 102.676 298.912 101.934C298.968 101.766 298.954 101.654 298.842 101.57C298.66 101.416 298.492 101.206 298.338 100.828C298.016 101.892 297.568 102.634 297.162 103.138C296.7 103.684 296.196 104.104 295.37 104.104C294.586 104.104 294.362 103.418 294.25 102.228C294.11 100.814 293.662 99.806 292.276 99.806C291.576 99.806 290.918 100.198 290.302 100.828L290.274 100.8ZM302.485 102.326C301.407 102.326 300.511 103.194 300.511 104.272C300.511 105.35 301.407 106.218 302.485 106.218C303.563 106.218 304.459 105.35 304.459 104.272C304.459 103.194 303.563 102.326 302.485 102.326ZM302.485 103.026C303.185 103.026 303.731 103.586 303.731 104.272C303.731 104.958 303.185 105.518 302.485 105.518C301.799 105.518 301.239 104.958 301.239 104.272C301.239 103.586 301.799 103.026 302.485 103.026Z" fill="black"/>
</svg>
