<svg width="375" height="225" viewBox="0 0 375 225" fill="none" xmlns="http://www.w3.org/2000/svg">
<path d="M54.16 50.902C50.492 48.83 48.924 45.624 48.364 41.858C48.378 41.62 48.378 41.382 48.378 41.13C48.378 40.78 48.434 40.5 48.504 40.346C48.546 40.248 48.588 40.178 48.588 40.066C48.588 39.982 48.504 39.926 48.392 39.898C48.084 39.842 47.678 39.8 47.342 39.786C47.412 40.276 47.426 40.682 47.44 41.452C47.496 45.47 45.564 49.138 41.812 50.944C41.994 51.07 42.176 51.238 42.33 51.448C42.428 51.588 42.47 51.658 42.526 51.658C42.582 51.658 42.638 51.616 42.736 51.56C45.578 49.95 47.482 47.374 48.07 43.86C48.588 46.674 50.1 49.544 53.278 51.574C53.376 51.644 53.432 51.672 53.488 51.672C53.544 51.672 53.586 51.616 53.67 51.476C53.796 51.252 53.964 51.056 54.16 50.902ZM63.8787 47.92C63.4307 47.822 62.8567 47.766 62.4087 47.766C61.2187 47.766 60.2527 48.396 60.2527 49.432C60.2527 50.454 61.1207 51.028 62.4367 51.028C64.0187 51.028 64.7187 50.37 64.7747 49.138C65.5027 49.488 66.1187 49.908 66.7347 50.426C66.7907 50.482 66.8467 50.496 66.9027 50.412C67.0567 50.23 67.1967 49.992 67.2807 49.796C67.3227 49.698 67.3227 49.67 67.2527 49.614C66.5247 49.026 65.6987 48.55 64.7887 48.172C64.7187 46.912 64.6767 45.582 64.6627 43.944C65.4187 43.874 66.2587 43.776 66.9727 43.608C67.0287 43.594 67.0707 43.538 67.0707 43.44C67.0707 43.272 67.0427 43.034 67.0147 42.88C67.0007 42.782 66.9867 42.754 66.8747 42.782C66.1467 42.922 65.3907 43.034 64.6627 43.104C64.6627 42.53 64.6627 42.04 64.6907 41.55C64.7047 41.284 64.7327 41.004 64.8027 40.878C64.8447 40.794 64.8587 40.752 64.8587 40.682C64.8587 40.612 64.8027 40.556 64.7047 40.514C64.4107 40.416 64.0887 40.36 63.6267 40.318C63.7387 40.794 63.7667 41.172 63.7667 41.564C63.7667 42.124 63.7527 42.656 63.7527 43.174C62.7307 43.244 61.6107 43.258 60.4487 43.174C60.4487 43.426 60.4767 43.72 60.5047 43.916C60.5187 44.028 60.5747 44.042 60.6587 44.042C61.7647 44.112 62.7867 44.084 63.7807 44.028C63.7807 45.47 63.8227 46.758 63.8787 47.92ZM63.8787 49.04C63.8787 49.782 63.3887 50.23 62.3947 50.23C61.5547 50.23 61.0507 49.936 61.0507 49.432C61.0507 48.858 61.5687 48.536 62.3527 48.536C62.8427 48.536 63.3467 48.62 63.8787 48.774V49.04ZM57.4247 40.388C57.4667 40.78 57.4247 41.312 57.3547 41.774C56.9907 43.916 56.7527 45.484 56.7527 47.024C56.7527 48.312 56.8227 49.936 57.2847 51.112C57.3267 51.224 57.3687 51.252 57.4667 51.224C57.6767 51.182 57.9287 51.112 58.0967 51.042C58.1667 51 58.1947 50.958 58.1667 50.86C58.1387 50.692 58.1527 50.482 58.1807 50.23C58.2367 49.866 58.5447 49.082 59.0207 48.018C59.0767 47.906 59.0907 47.836 59.0067 47.71C58.8947 47.556 58.7827 47.402 58.6847 47.136C58.3207 47.962 57.9987 48.662 57.7047 49.418C57.5927 48.522 57.6067 47.794 57.6067 46.996C57.6067 45.694 57.8587 43.846 58.2787 41.83C58.3487 41.48 58.4187 41.27 58.5027 41.13C58.6007 40.976 58.5867 40.864 58.4187 40.752C58.2227 40.626 57.7747 40.458 57.4247 40.388ZM76.5513 43.622C77.2093 42.964 77.7133 42.404 78.3013 41.69C78.6513 41.284 78.9173 41.032 79.0853 40.948C79.2533 40.864 79.2813 40.696 79.1413 40.556C78.9313 40.346 78.5533 40.122 78.1753 39.926C78.0493 40.374 77.7973 40.794 77.2093 41.508C76.5513 42.306 75.5573 43.3 74.4933 44.21C73.3313 45.204 71.8753 46.212 70.1393 47.164C70.4053 47.29 70.6573 47.43 70.8393 47.612C70.9373 47.71 71.0353 47.738 71.1613 47.668C72.7153 46.758 74.0873 45.806 75.5573 44.504V48.648C75.5573 49.46 75.5293 50.3 75.5013 51.14C75.5013 51.266 75.5293 51.308 75.6413 51.308C75.8933 51.322 76.2013 51.322 76.4533 51.308C76.5653 51.308 76.6073 51.266 76.5933 51.14C76.5653 50.244 76.5513 49.446 76.5513 48.606V43.622ZM88.4109 44.91C87.5989 44.35 86.5769 43.762 85.7789 43.342C85.6809 43.286 85.6249 43.272 85.5549 43.342C85.4289 43.482 85.2329 43.748 85.0229 44.014C86.0309 44.504 86.9969 45.12 87.8509 45.722C86.3669 47.696 84.6729 49.264 82.4329 50.552C82.7129 50.622 82.9929 50.79 83.2169 50.986C83.3429 51.098 83.4829 51.056 83.6229 50.972C85.4429 49.838 87.1089 48.284 88.6349 46.31C89.3209 46.842 90.0069 47.514 90.6509 48.27C90.7349 48.368 90.8049 48.382 90.9029 48.284C91.0709 48.102 91.2249 47.948 91.3789 47.738C91.4489 47.64 91.4629 47.584 91.3649 47.472C90.6929 46.744 89.9509 46.086 89.1809 45.512C89.8109 44.616 90.4129 43.552 90.9589 42.418C91.2249 41.942 91.3929 41.676 91.5609 41.564C91.6869 41.466 91.7429 41.298 91.5749 41.172C91.3369 40.976 90.8609 40.752 90.4129 40.57C90.3569 41.13 90.2309 41.55 89.9369 42.208C89.5729 43.034 89.0269 43.986 88.4109 44.91ZM103.632 46.31C104.57 46.31 105.606 46.31 106.656 46.338C106.824 46.352 106.866 46.324 106.866 46.17C106.88 45.946 106.88 45.652 106.866 45.442C106.866 45.288 106.824 45.26 106.656 45.274C105.592 45.302 104.556 45.316 103.59 45.316H99.2916C98.1296 45.316 97.0516 45.302 96.1976 45.19C96.2256 45.568 96.2816 46.016 96.3376 46.254C96.3796 46.394 96.4496 46.45 96.5756 46.45C96.6596 46.45 97.2476 46.31 98.4656 46.31H103.632ZM109.948 44.798C110.872 45.148 111.754 45.61 112.524 46.212C112.636 46.31 112.706 46.296 112.79 46.184C112.916 46.016 113.056 45.778 113.154 45.582C113.21 45.47 113.224 45.386 113.084 45.288C112.328 44.77 111.53 44.35 110.62 44.014C110.508 43.986 110.438 44.014 110.382 44.112C110.284 44.252 110.13 44.532 109.948 44.798ZM111.6 41.578C112.51 41.97 113.42 42.53 114.106 43.16C114.218 43.258 114.274 43.286 114.358 43.188C114.498 43.034 114.652 42.768 114.764 42.586C114.834 42.46 114.848 42.404 114.722 42.306C113.966 41.732 113.154 41.214 112.286 40.85C112.16 40.794 112.118 40.794 112.034 40.92C111.894 41.116 111.74 41.382 111.6 41.578ZM111.082 50.02C111.292 50.356 111.558 50.748 111.74 50.958C111.866 51.098 112.006 51.126 112.132 51C112.272 50.846 112.496 50.692 112.804 50.524C114.274 49.698 115.646 48.872 116.892 47.906C118.194 46.912 119.412 45.848 120.588 44.476C120.7 44.35 120.728 44.238 120.658 44.098C120.518 43.776 120.448 43.552 120.392 43.188C119.132 44.77 117.606 46.128 116.402 47.066C115.086 48.074 113.84 48.802 112.552 49.474C112.006 49.754 111.572 49.908 111.082 50.02ZM117.62 40.682C118.25 41.13 118.838 41.788 119.244 42.474C119.286 42.544 119.356 42.558 119.426 42.502L119.832 42.166C119.888 42.124 119.902 42.068 119.86 42.012C119.454 41.396 118.838 40.71 118.278 40.318C118.222 40.276 118.18 40.276 118.124 40.318L117.62 40.682ZM118.852 39.744C119.51 40.234 120.112 40.92 120.462 41.494C120.518 41.578 120.574 41.578 120.63 41.522L121.008 41.186C121.078 41.13 121.092 41.088 121.05 41.018C120.644 40.43 120.014 39.814 119.454 39.38C119.398 39.338 119.356 39.352 119.3 39.394L118.852 39.744ZM130.111 46.618C131.133 46.184 132.015 45.862 133.079 45.414C133.401 45.288 133.681 45.218 133.849 45.19C133.989 45.162 134.101 45.078 133.989 44.868C133.905 44.7 133.625 44.336 133.303 44.056C133.009 44.35 132.645 44.574 132.239 44.77C131.539 45.106 130.741 45.47 130.055 45.778C129.943 44.686 129.327 44.14 128.291 44.14C127.745 44.14 127.129 44.322 126.541 44.742L126.527 44.714C127.031 44.14 127.479 43.482 127.955 42.628C129.075 42.516 130.265 42.362 131.371 42.166C131.525 42.138 131.553 42.096 131.553 41.998C131.539 41.774 131.497 41.578 131.469 41.382C131.441 41.298 131.413 41.298 131.301 41.326C130.335 41.536 129.327 41.69 128.347 41.788C128.529 41.368 128.655 41.074 128.823 40.724C128.935 40.486 129.019 40.388 129.075 40.332C129.187 40.234 129.187 40.094 129.047 40.024C128.809 39.912 128.403 39.786 127.997 39.716C128.011 40.024 127.955 40.234 127.885 40.472C127.745 40.99 127.549 41.452 127.381 41.872C126.247 41.942 125.155 41.942 124.133 41.886C124.147 42.11 124.189 42.418 124.217 42.586C124.231 42.684 124.259 42.726 124.371 42.726C125.253 42.754 126.107 42.754 126.975 42.698C126.163 44.126 125.001 45.484 123.727 46.59C123.643 46.674 123.657 46.702 123.699 46.786C123.811 46.94 124.049 47.206 124.189 47.332C124.259 47.402 124.315 47.402 124.399 47.304C124.889 46.786 125.225 46.422 125.729 45.946C126.625 45.176 127.423 44.826 128.025 44.812C128.851 44.798 129.173 45.176 129.201 46.128C126.877 47.262 126.107 48.214 126.107 49.39C126.107 50.888 127.381 51.392 129.341 51.392C130.657 51.392 131.805 51.322 132.799 51.196C132.855 51.182 132.911 51.126 132.911 51C132.911 50.804 132.869 50.524 132.827 50.314C132.799 50.216 132.743 50.202 132.673 50.216C131.651 50.356 130.503 50.496 129.341 50.496C127.717 50.496 126.947 50.16 126.947 49.334C126.947 48.494 127.703 47.78 129.243 47.01C129.229 47.724 129.229 48.41 129.229 49.026C129.229 49.124 129.271 49.194 129.355 49.194C129.537 49.194 129.817 49.166 129.957 49.138C130.083 49.124 130.111 49.082 130.111 48.97V46.618ZM140.068 47.584H140.992C141.594 47.584 141.762 47.612 141.832 47.612C141.93 47.612 141.944 47.598 141.944 47.514V46.926C141.944 46.828 141.93 46.814 141.832 46.814C141.762 46.814 141.594 46.842 140.992 46.842H140.068V44.798H140.46C141.65 44.798 142.028 44.826 142.098 44.826C142.196 44.826 142.21 44.812 142.21 44.714V44.14C142.21 44.028 142.196 44.014 142.098 44.014C142.028 44.014 141.65 44.042 140.46 44.042H140.012V42.194H140.39C141.482 42.194 141.818 42.222 141.888 42.222C141.986 42.222 142 42.208 142 42.11V41.522C142 41.424 141.986 41.41 141.888 41.41C141.818 41.41 141.482 41.438 140.39 41.438H140.012V41.116C140.012 40.29 140.054 39.968 140.096 39.828C140.138 39.716 140.166 39.66 140.166 39.59C140.166 39.506 140.096 39.492 139.998 39.478C139.732 39.436 139.466 39.408 139.116 39.394C139.2 39.884 139.214 40.234 139.214 41.144V41.438H138.542C137.45 41.438 137.1 41.41 137.03 41.41C136.932 41.41 136.918 41.424 136.918 41.522V42.11C136.918 42.208 136.932 42.222 137.03 42.222C137.1 42.222 137.45 42.194 138.542 42.194H139.214V44.042H138.164C136.988 44.042 136.596 44.014 136.526 44.014C136.428 44.014 136.414 44.028 136.414 44.14V44.714C136.414 44.812 136.428 44.826 136.526 44.826C136.596 44.826 136.988 44.798 138.164 44.798H139.27V49.488C138.724 48.998 138.318 48.424 137.996 47.724C138.038 47.318 138.08 46.912 138.094 46.534C138.108 46.352 138.15 46.142 138.192 46.072C138.234 46.002 138.248 45.946 138.248 45.89C138.248 45.834 138.206 45.792 138.08 45.764C137.87 45.708 137.548 45.638 137.268 45.61C137.296 45.82 137.324 46.03 137.324 46.212C137.324 48.06 136.918 49.852 136.05 51.392C136.204 51.434 136.386 51.546 136.526 51.686C136.61 51.756 136.666 51.798 136.708 51.798C136.764 51.798 136.806 51.728 136.876 51.602C137.324 50.692 137.632 49.698 137.828 48.732C138.234 49.474 138.794 50.104 139.564 50.664C140.586 51.378 141.944 51.672 144.198 51.672C145.668 51.672 147.026 51.616 148.538 51.476C148.818 51.462 148.818 51.462 148.874 51.168C148.916 50.944 149 50.734 149.14 50.538C147.32 50.762 145.878 50.846 144.1 50.846C142.07 50.846 140.936 50.608 140.068 50.09V47.584ZM147.964 46.898C147.964 46.058 147.992 45.764 147.992 45.694C147.992 45.596 147.978 45.582 147.88 45.582C147.796 45.582 147.432 45.61 146.34 45.61H144.534C143.428 45.61 143.078 45.582 143.008 45.582C142.91 45.582 142.896 45.596 142.896 45.694C142.896 45.764 142.924 46.058 142.924 46.898V48.452C142.924 49.292 142.896 49.586 142.896 49.656C142.896 49.754 142.91 49.768 143.008 49.768C143.078 49.768 143.428 49.74 144.534 49.74H146.34C147.432 49.74 147.796 49.768 147.88 49.768C147.978 49.768 147.992 49.754 147.992 49.656C147.992 49.586 147.964 49.292 147.964 48.452V46.898ZM147.18 49.026H143.708V46.324H147.18V49.026ZM144.212 40.192C143.008 40.192 142.63 40.164 142.56 40.164C142.462 40.164 142.448 40.178 142.448 40.276V40.836C142.448 40.934 142.462 40.948 142.56 40.948C142.63 40.948 143.008 40.92 144.212 40.92H144.534C144.464 42.74 143.75 43.748 142.224 44.49C142.392 44.588 142.574 44.742 142.686 44.91C142.742 45.008 142.784 45.05 142.854 45.05C142.896 45.05 142.966 45.022 143.064 44.966C144.618 44 145.234 42.88 145.332 40.92H147.418C147.404 42.026 147.306 43.146 147.11 43.622C147.012 43.874 146.83 43.958 146.494 43.958C146.158 43.958 145.808 43.93 145.36 43.832C145.458 43.972 145.514 44.21 145.542 44.392C145.598 44.7 145.598 44.742 145.878 44.742C146.284 44.77 146.648 44.77 146.942 44.742C147.418 44.7 147.698 44.434 147.866 44C148.09 43.44 148.202 42.18 148.244 40.948C148.258 40.738 148.258 40.514 148.286 40.29C148.286 40.192 148.258 40.164 148.16 40.164C148.09 40.164 147.698 40.192 146.494 40.192H144.212ZM154.476 39.73C154.364 40.01 154.252 40.276 154.196 40.486C154.168 40.584 154.21 40.64 154.28 40.668C155.26 41.13 156.646 41.536 157.836 41.816C157.92 41.83 157.99 41.788 158.018 41.718C158.088 41.564 158.172 41.284 158.228 41.074C158.256 40.934 158.242 40.892 158.116 40.864C156.926 40.598 155.666 40.22 154.476 39.73ZM151.816 44.042C151.928 44.434 152.068 44.784 152.18 45.008C152.236 45.12 152.292 45.176 152.362 45.176C152.446 45.176 152.488 45.162 152.614 45.106C152.726 45.064 152.894 44.98 153.188 44.91C154.378 44.658 155.554 44.42 157.052 44.112C155.68 45.596 154.644 46.744 153.762 47.668C153.132 48.312 152.124 49.348 151.088 50.398C151.018 50.468 150.99 50.58 151.06 50.65C151.214 50.804 151.41 50.986 151.606 51.14C151.69 51.196 151.774 51.182 151.83 51.126C152.46 50.384 153.286 49.404 154 48.718C154.546 48.172 155.134 47.906 155.582 47.906C156.226 47.906 156.464 48.438 156.66 49.432C156.94 50.832 157.556 51.28 159.572 51.28C160.216 51.28 160.944 51.21 161.574 51.098C161.7 51.084 161.756 51.042 161.756 50.944C161.756 50.706 161.728 50.426 161.7 50.258C161.686 50.132 161.644 50.09 161.532 50.118C160.818 50.244 160.174 50.328 159.46 50.328C157.948 50.328 157.682 50.118 157.416 48.802C157.22 47.794 156.66 47.248 155.932 47.248C155.624 47.248 155.386 47.318 155.106 47.444C156.1 46.394 157.052 45.372 158.06 44.35C158.242 44.182 158.382 44.07 158.55 43.986C158.648 43.944 158.704 43.846 158.704 43.762C158.704 43.72 158.676 43.622 158.606 43.552C158.452 43.384 158.256 43.23 158.088 43.104C158.018 43.062 157.99 43.034 157.934 43.034C157.864 43.034 157.822 43.048 157.766 43.09C157.654 43.16 157.542 43.202 157.332 43.258C156.688 43.412 155.848 43.58 154.728 43.762C153.426 43.972 152.754 44.042 151.816 44.042ZM168.059 45.708C169.459 44.28 170.397 43.3 171.643 41.984C171.965 41.648 172.119 41.55 172.301 41.494C172.441 41.438 172.511 41.34 172.511 41.228C172.511 41.158 172.483 41.074 172.413 40.99C172.287 40.822 172.077 40.612 171.811 40.402C171.699 40.318 171.629 40.29 171.559 40.29C171.503 40.29 171.419 40.346 171.363 40.388C171.265 40.444 171.097 40.486 170.929 40.514C169.697 40.752 168.549 40.906 167.443 41.018C167.065 41.06 166.673 41.06 166.211 41.004C166.323 41.452 166.421 41.718 166.547 41.97C166.603 42.082 166.673 42.138 166.771 42.138C166.827 42.138 166.939 42.11 167.037 42.068C167.177 42.012 167.345 41.97 167.527 41.942C168.773 41.704 169.865 41.494 171.027 41.312C169.949 42.586 169.109 43.482 168.297 44.364C166.953 45.806 166.239 46.52 165.133 47.486C165.035 47.57 165.021 47.626 165.077 47.696C165.217 47.878 165.427 48.088 165.595 48.256C165.693 48.354 165.763 48.34 165.875 48.228C166.295 47.808 166.659 47.43 167.107 47.08C168.185 46.212 169.571 45.498 170.957 45.498C172.287 45.498 173.379 46.366 173.379 47.794C173.379 49.166 172.539 49.95 171.335 50.342C171.069 49.152 170.215 48.34 168.955 48.34C167.961 48.34 167.317 49.04 167.317 49.768C167.317 50.664 168.073 51.42 169.753 51.42C172.721 51.42 174.373 49.908 174.373 47.822C174.373 46.002 173.127 44.756 171.111 44.756C170.103 44.756 169.109 45.092 168.101 45.75L168.059 45.708ZM170.481 50.538C170.159 50.594 169.879 50.608 169.571 50.608C168.633 50.608 168.129 50.216 168.129 49.754C168.129 49.32 168.535 49.096 168.983 49.096C169.781 49.096 170.299 49.74 170.481 50.538ZM188.922 48.2C188.922 47.304 188.95 46.954 188.95 46.87C188.95 46.772 188.936 46.758 188.838 46.758C188.754 46.758 188.362 46.786 187.172 46.786H184.946C183.77 46.786 183.378 46.758 183.294 46.758C183.196 46.758 183.182 46.772 183.182 46.87C183.182 46.954 183.21 47.304 183.21 48.368V49.446C183.21 51.42 183.182 51.742 183.182 51.812C183.182 51.91 183.196 51.924 183.294 51.924H183.91C184.008 51.924 184.022 51.91 184.022 51.812V51.014H188.096V51.77C188.096 51.868 188.11 51.882 188.194 51.882H188.838C188.936 51.882 188.95 51.868 188.95 51.77C188.95 51.7 188.922 51.378 188.922 49.418V48.2ZM188.096 50.272H184.022V47.528H188.096V50.272ZM181.208 44.196C181.04 44.28 181.026 44.294 181.068 44.378C181.236 44.7 181.404 45.036 181.544 45.386C180.718 45.456 179.948 45.512 179.192 45.54C179.99 44.504 180.774 43.342 181.558 42.096C181.782 41.732 181.894 41.578 182.034 41.466C182.118 41.41 182.16 41.368 182.16 41.284C182.16 41.214 182.132 41.172 182.034 41.116C181.796 40.99 181.6 40.878 181.292 40.766C181.194 41.074 181.068 41.34 180.872 41.69C180.522 42.292 180.172 42.88 179.808 43.468C179.486 43.09 179.178 42.74 178.856 42.404C179.332 41.732 179.696 41.158 180.172 40.332C180.27 40.164 180.326 40.094 180.424 40.038C180.494 39.996 180.536 39.954 180.536 39.87C180.536 39.814 180.494 39.758 180.396 39.702C180.172 39.576 179.906 39.464 179.64 39.366C179.598 39.59 179.514 39.8 179.29 40.262C179.01 40.808 178.688 41.354 178.338 41.886C178.17 41.704 177.974 41.536 177.792 41.354C177.708 41.27 177.68 41.284 177.582 41.41L177.344 41.704C177.218 41.858 177.232 41.872 177.316 41.956C178.044 42.628 178.702 43.342 179.346 44.154C179.024 44.63 178.688 45.106 178.324 45.582H178.17C177.82 45.596 177.582 45.582 177.26 45.554C177.302 45.876 177.33 46.1 177.372 46.31C177.4 46.436 177.456 46.492 177.526 46.492C177.582 46.492 177.624 46.464 177.68 46.436C177.778 46.38 177.918 46.338 178.226 46.31C178.688 46.282 179.178 46.24 179.682 46.198V49.88C179.682 51.406 179.654 51.84 179.654 51.924C179.654 52.022 179.668 52.022 179.766 52.022H180.396C180.494 52.022 180.508 52.022 180.508 51.924C180.508 51.854 180.48 51.406 180.48 49.88V46.128C180.914 46.086 181.334 46.044 181.768 45.988C181.866 46.24 181.936 46.506 182.02 46.772C182.062 46.898 182.076 46.912 182.272 46.828L182.58 46.702C182.762 46.632 182.776 46.618 182.734 46.492C182.468 45.666 182.146 44.896 181.698 44.098C181.642 44 181.628 44 181.502 44.056L181.208 44.196ZM189.776 41.732C189.776 41.634 189.762 41.62 189.664 41.62C189.594 41.62 189.146 41.648 187.802 41.648H186.36V41.116C186.36 40.346 186.402 39.982 186.444 39.87C186.486 39.772 186.514 39.702 186.514 39.646C186.514 39.562 186.444 39.534 186.346 39.52C186.08 39.478 185.8 39.45 185.45 39.436C185.52 39.898 185.534 40.276 185.534 41.144V41.648H184.386C183.042 41.648 182.608 41.62 182.524 41.62C182.426 41.62 182.412 41.634 182.412 41.732V42.306C182.412 42.39 182.426 42.404 182.524 42.404C182.608 42.404 183.042 42.376 184.386 42.376H185.534V44.518H184.736C183.504 44.518 183.084 44.49 183.014 44.49C182.916 44.49 182.902 44.504 182.902 44.602V45.162C182.902 45.26 182.916 45.274 183.014 45.274C183.084 45.274 183.504 45.246 184.736 45.246H187.354C188.586 45.246 188.992 45.274 189.076 45.274C189.174 45.274 189.188 45.26 189.188 45.162V44.602C189.188 44.504 189.174 44.49 189.076 44.49C188.992 44.49 188.586 44.518 187.354 44.518H186.36V42.376H187.802C189.146 42.376 189.594 42.404 189.664 42.404C189.762 42.404 189.776 42.39 189.776 42.306V41.732ZM178.926 47.528C178.926 47.472 178.87 47.43 178.73 47.388C178.59 47.346 178.31 47.29 178.016 47.234C178.03 47.514 178.016 47.752 177.974 48.102C177.89 48.844 177.708 49.74 177.288 50.678C177.414 50.706 177.666 50.818 177.778 50.888C177.89 50.958 177.946 51 177.988 51C178.044 51 178.072 50.93 178.114 50.804C178.436 49.866 178.618 48.984 178.716 48.242C178.758 47.976 178.814 47.766 178.856 47.71C178.898 47.654 178.926 47.598 178.926 47.528ZM181.32 47.332C181.152 47.388 181.138 47.402 181.166 47.5C181.474 48.312 181.656 49.124 181.782 50.034C181.796 50.16 181.824 50.16 182.02 50.09L182.356 49.978C182.524 49.922 182.524 49.908 182.496 49.782C182.356 48.886 182.146 48.088 181.81 47.29C181.768 47.192 181.754 47.192 181.614 47.234L181.32 47.332ZM201.44 47.43C202.756 47.43 203.19 47.458 203.26 47.458C203.358 47.458 203.372 47.444 203.372 47.332V46.744C203.372 46.646 203.358 46.646 203.26 46.646C203.19 46.646 202.756 46.674 201.44 46.674H197.52V45.386H199.424C200.81 45.386 201.3 45.414 201.384 45.414C201.482 45.414 201.496 45.4 201.496 45.302C201.496 45.232 201.468 44.882 201.468 43.916V41.634C201.468 40.668 201.496 40.318 201.496 40.234C201.496 40.136 201.482 40.122 201.384 40.122C201.3 40.122 200.81 40.15 199.424 40.15H195C193.628 40.15 193.124 40.122 193.054 40.122C192.956 40.122 192.942 40.136 192.942 40.234C192.942 40.318 192.97 40.668 192.97 41.634V43.916C192.97 44.882 192.942 45.232 192.942 45.302C192.942 45.4 192.956 45.414 193.054 45.414C193.124 45.414 193.628 45.386 195 45.386H196.694V46.674H193.04C191.724 46.674 191.29 46.646 191.22 46.646C191.122 46.646 191.108 46.646 191.108 46.744V47.332C191.108 47.444 191.122 47.458 191.22 47.458C191.29 47.458 191.724 47.43 193.04 47.43H196.134C194.86 48.97 193.096 49.95 190.884 50.748C191.052 50.874 191.192 51.042 191.304 51.224C191.444 51.448 191.444 51.462 191.71 51.364C193.768 50.552 195.392 49.53 196.736 47.766C196.722 49.908 196.638 51.574 196.638 51.91C196.638 52.008 196.652 52.022 196.764 52.022H197.45C197.548 52.022 197.562 52.008 197.562 51.91C197.562 51.574 197.478 49.88 197.478 47.724C198.962 49.586 200.754 50.566 202.77 51.294C203.022 51.392 203.05 51.392 203.176 51.14C203.288 50.916 203.414 50.734 203.582 50.58C201.258 49.88 199.382 48.872 198.052 47.43H201.44ZM200.642 44.672H197.52V43.09H200.642V44.672ZM200.642 42.39H197.52V40.864H200.642V42.39ZM196.694 44.672H193.796V43.09H196.694V44.672ZM196.694 42.39H193.796V40.864H196.694V42.39ZM213.091 47.92C212.643 47.822 212.069 47.766 211.621 47.766C210.431 47.766 209.465 48.396 209.465 49.432C209.465 50.454 210.333 51.028 211.649 51.028C213.231 51.028 213.931 50.37 213.987 49.138C214.715 49.488 215.331 49.908 215.947 50.426C216.003 50.482 216.059 50.496 216.115 50.412C216.269 50.23 216.409 49.992 216.493 49.796C216.535 49.698 216.535 49.67 216.465 49.614C215.737 49.026 214.911 48.55 214.001 48.172C213.931 46.912 213.889 45.582 213.875 43.944C214.631 43.874 215.471 43.776 216.185 43.608C216.241 43.594 216.283 43.538 216.283 43.44C216.283 43.272 216.255 43.034 216.227 42.88C216.213 42.782 216.199 42.754 216.087 42.782C215.359 42.922 214.603 43.034 213.875 43.104C213.875 42.53 213.875 42.04 213.903 41.55C213.917 41.284 213.945 41.004 214.015 40.878C214.057 40.794 214.071 40.752 214.071 40.682C214.071 40.612 214.015 40.556 213.917 40.514C213.623 40.416 213.301 40.36 212.839 40.318C212.951 40.794 212.979 41.172 212.979 41.564C212.979 42.124 212.965 42.656 212.965 43.174C211.943 43.244 210.823 43.258 209.661 43.174C209.661 43.426 209.689 43.72 209.717 43.916C209.731 44.028 209.787 44.042 209.871 44.042C210.977 44.112 211.999 44.084 212.993 44.028C212.993 45.47 213.035 46.758 213.091 47.92ZM213.091 49.04C213.091 49.782 212.601 50.23 211.607 50.23C210.767 50.23 210.263 49.936 210.263 49.432C210.263 48.858 210.781 48.536 211.565 48.536C212.055 48.536 212.559 48.62 213.091 48.774V49.04ZM206.637 40.388C206.679 40.78 206.637 41.312 206.567 41.774C206.203 43.916 205.965 45.484 205.965 47.024C205.965 48.312 206.035 49.936 206.497 51.112C206.539 51.224 206.581 51.252 206.679 51.224C206.889 51.182 207.141 51.112 207.309 51.042C207.379 51 207.407 50.958 207.379 50.86C207.351 50.692 207.365 50.482 207.393 50.23C207.449 49.866 207.757 49.082 208.233 48.018C208.289 47.906 208.303 47.836 208.219 47.71C208.107 47.556 207.995 47.402 207.897 47.136C207.533 47.962 207.211 48.662 206.917 49.418C206.805 48.522 206.819 47.794 206.819 46.996C206.819 45.694 207.071 43.846 207.491 41.83C207.561 41.48 207.631 41.27 207.715 41.13C207.813 40.976 207.799 40.864 207.631 40.752C207.435 40.626 206.987 40.458 206.637 40.388ZM228.816 50.174H224.868V45.414H228.424V46.086C228.424 46.184 228.438 46.198 228.536 46.198H229.194C229.292 46.198 229.306 46.184 229.306 46.086C229.306 46.002 229.278 45.652 229.278 44.798V42.908C229.278 42.054 229.32 41.746 229.362 41.578C229.39 41.494 229.432 41.41 229.432 41.34C229.432 41.27 229.362 41.228 229.264 41.214C228.984 41.172 228.69 41.144 228.326 41.13C228.41 41.62 228.424 41.998 228.424 42.88V44.63H224.868V41.214C224.868 40.332 224.91 40.038 224.952 39.884C224.98 39.772 225.022 39.702 225.022 39.632C225.022 39.562 224.952 39.534 224.854 39.52C224.574 39.478 224.252 39.45 223.888 39.436C223.972 39.912 223.986 40.304 223.986 41.228V44.63H220.696V42.95C220.696 42.138 220.724 41.83 220.78 41.676C220.822 41.564 220.836 41.494 220.836 41.424C220.836 41.354 220.78 41.312 220.682 41.298C220.416 41.256 220.108 41.228 219.744 41.214C219.828 41.704 219.842 42.082 219.842 42.964V44.868C219.842 45.708 219.814 46.044 219.814 46.114C219.814 46.212 219.828 46.226 219.926 46.226H220.584C220.682 46.226 220.696 46.212 220.696 46.114V45.414H223.986V50.174H220.29V48.928C220.29 48.144 220.332 47.822 220.388 47.668C220.416 47.57 220.458 47.5 220.458 47.43C220.458 47.36 220.374 47.318 220.276 47.304C220.01 47.262 219.688 47.234 219.338 47.22C219.422 47.696 219.436 48.074 219.436 48.956V50.636C219.436 51.406 219.408 51.714 219.408 51.784C219.408 51.882 219.422 51.896 219.52 51.896H220.178C220.276 51.896 220.29 51.882 220.29 51.784V50.972H228.816V51.742C228.816 51.84 228.83 51.854 228.928 51.854H229.6C229.684 51.854 229.698 51.84 229.698 51.742C229.698 51.672 229.67 51.35 229.67 50.552V48.9C229.67 48.06 229.712 47.738 229.754 47.584C229.782 47.486 229.824 47.402 229.824 47.332C229.824 47.276 229.754 47.234 229.656 47.22C229.39 47.178 229.082 47.15 228.718 47.136C228.802 47.626 228.816 47.99 228.816 48.872V50.174ZM244.064 42.124C244.064 41.984 244.036 41.97 243.91 41.97C242.356 41.97 240.984 41.97 239.43 42.012C239.43 41.396 239.43 41.13 239.458 40.822C239.472 40.64 239.5 40.542 239.556 40.444C239.612 40.346 239.654 40.276 239.654 40.192C239.654 40.094 239.556 40.024 239.402 39.982C239.164 39.926 238.758 39.856 238.338 39.828C238.436 40.192 238.464 40.416 238.478 40.766C238.492 41.214 238.492 41.494 238.506 42.068C236.644 42.18 235.202 42.278 234.068 42.362C233.242 42.432 232.78 42.474 232.304 42.446C232.374 42.824 232.444 43.16 232.528 43.342C232.556 43.44 232.612 43.482 232.696 43.482C232.808 43.482 232.976 43.384 233.312 43.342C234.642 43.174 236.532 43.034 238.534 42.922C238.548 43.58 238.548 44.21 238.562 44.896C238.268 44.574 237.778 44.42 237.246 44.42C236.21 44.42 235.328 45.176 235.328 46.366C235.328 47.696 236.21 48.34 237.176 48.34C237.806 48.34 238.408 48.074 238.716 47.542C238.59 48.956 237.666 50.244 235.664 51.07C235.902 51.154 236.154 51.322 236.308 51.462C236.392 51.532 236.476 51.574 236.56 51.574C236.63 51.574 236.742 51.532 236.882 51.448C238.856 50.384 239.612 48.886 239.612 47.122C239.612 46.59 239.556 46.086 239.444 45.652C239.43 44.714 239.43 43.748 239.43 42.866C241.012 42.81 242.384 42.824 243.882 42.866C244.022 42.866 244.064 42.852 244.064 42.726V42.124ZM237.316 45.12C238.044 45.12 238.562 45.61 238.562 46.31C238.562 46.94 238.072 47.542 237.288 47.542C236.658 47.542 236.154 47.108 236.154 46.338C236.154 45.582 236.7 45.12 237.316 45.12ZM247.566 46.394C247.216 46.912 246.992 47.444 246.992 48.046C246.992 49.852 248.63 50.678 251.346 50.678C253.264 50.678 254.496 50.538 255.588 50.314C255.728 50.286 255.784 50.244 255.77 50.132C255.742 49.908 255.686 49.558 255.644 49.404C255.616 49.292 255.574 49.278 255.448 49.306C254.398 49.558 253.068 49.712 251.43 49.712C249.134 49.712 247.846 49.152 247.846 48.004C247.846 47.612 248.042 47.206 248.224 46.912C248.28 46.828 248.266 46.772 248.182 46.73C247.986 46.618 247.762 46.492 247.566 46.394ZM247.958 41.172C247.944 41.41 247.93 41.704 247.93 41.886C247.93 42.026 247.972 42.068 248.056 42.082C248.91 42.264 249.988 42.334 250.898 42.334C251.332 42.334 251.948 42.32 252.41 42.278C251.682 42.628 250.884 43.076 250.002 43.678C250.226 43.734 250.408 43.832 250.576 43.958C250.702 44.042 250.842 44.028 250.968 43.93C252.13 43.146 253.418 42.502 254.594 42.334C254.734 42.32 254.79 42.278 254.79 42.124C254.79 41.872 254.776 41.676 254.748 41.494C254.734 41.396 254.678 41.354 254.552 41.368C253.586 41.452 252.466 41.494 251.458 41.494C250.114 41.494 248.896 41.382 247.958 41.172ZM262.605 40.038C262.759 40.416 262.829 40.766 262.913 41.41C263.053 42.516 263.347 43.958 263.655 44.994C261.877 46.072 260.925 47.108 260.925 48.452C260.925 50.37 262.675 50.902 265.097 50.902C266.665 50.902 267.673 50.832 268.821 50.706C268.975 50.692 269.031 50.636 269.017 50.51C269.003 50.272 268.975 50.006 268.933 49.782C268.905 49.67 268.863 49.642 268.737 49.656C267.701 49.81 266.441 49.936 265.139 49.95C263.025 49.964 261.849 49.656 261.849 48.41C261.849 47.43 262.507 46.702 263.921 45.876C264.873 45.33 266.077 44.756 267.099 44.28C267.519 44.084 267.981 43.888 268.331 43.832C268.583 43.804 268.611 43.608 268.499 43.44C268.317 43.188 268.065 42.922 267.785 42.656C267.589 42.908 267.421 43.048 266.973 43.3C266.147 43.762 265.307 44.154 264.481 44.56C264.229 43.678 264.061 42.74 263.935 41.732C263.893 41.424 263.865 41.144 263.851 40.836C263.851 40.612 263.921 40.486 263.921 40.346C263.921 40.276 263.865 40.192 263.753 40.164C263.459 40.094 263.025 40.052 262.605 40.038ZM281.76 40.878C282.39 41.326 282.978 41.984 283.384 42.67C283.426 42.74 283.496 42.754 283.566 42.698L283.972 42.362C284.028 42.32 284.042 42.264 284 42.208C283.594 41.592 282.978 40.906 282.418 40.514C282.362 40.472 282.334 40.458 282.278 40.5L281.76 40.878ZM282.992 39.94C283.65 40.43 284.252 41.116 284.602 41.69C284.658 41.774 284.714 41.774 284.77 41.718L285.148 41.382C285.218 41.326 285.232 41.284 285.19 41.214C284.784 40.626 284.154 40.01 283.594 39.576C283.538 39.534 283.496 39.548 283.44 39.59L282.992 39.94ZM276.398 43.51C275.74 43.608 275.194 43.692 274.424 43.776C274.018 43.832 273.472 43.86 272.968 43.846C273.066 44.238 273.178 44.56 273.29 44.798C273.374 44.966 273.5 44.966 273.654 44.868C273.766 44.798 274.018 44.728 274.27 44.686C274.97 44.56 275.544 44.462 276.118 44.378C275.432 46.436 274.606 48.368 273.43 50.342C273.388 50.426 273.374 50.496 273.458 50.566C273.612 50.692 273.878 50.874 274.018 50.944C274.116 50.986 274.2 50.972 274.256 50.874C275.39 48.858 276.3 46.674 277.112 44.252C277.602 44.168 278.19 44.098 278.624 44.098C279.38 44.098 279.59 44.49 279.59 45.582C279.59 47.304 279.31 48.718 278.96 49.516C278.694 50.104 278.428 50.244 278.022 50.244C277.532 50.244 277.014 50.118 276.398 49.852C276.524 50.146 276.552 50.454 276.566 50.692C276.566 50.818 276.622 50.888 276.734 50.93C277.084 51.084 277.588 51.182 278.162 51.182C278.848 51.182 279.408 50.846 279.758 50.076C280.22 49.068 280.528 47.402 280.528 45.596C280.528 43.916 279.926 43.3 278.708 43.3C278.372 43.3 277.798 43.342 277.35 43.398C277.56 42.712 277.742 42.054 277.952 41.368C278.022 41.13 278.078 41.018 278.19 40.906C278.33 40.78 278.288 40.612 278.134 40.542C277.77 40.374 277.476 40.276 277.042 40.164C277.056 40.668 277.028 41.018 276.916 41.508C276.734 42.292 276.58 42.852 276.398 43.51ZM281.354 43.09C282.418 44.014 283.118 45.204 283.594 46.632C283.622 46.772 283.72 46.786 283.832 46.716C284 46.632 284.266 46.464 284.406 46.338C284.49 46.268 284.476 46.198 284.448 46.1C283.986 44.77 283.174 43.552 282.194 42.712C282.124 42.642 282.068 42.628 281.984 42.656C281.774 42.782 281.55 42.936 281.354 43.09ZM294.068 42.362C291.87 43.524 290.652 45.148 290.652 47.122C290.652 49.95 293.2 50.958 295.566 51.168C295.72 51.182 295.762 51.126 295.79 50.972C295.832 50.776 295.874 50.454 295.874 50.3C295.874 50.188 295.832 50.16 295.65 50.146C293.606 49.978 291.576 49.292 291.576 46.968C291.576 45.092 293.144 43.37 295.188 42.558C295.916 42.264 296.476 42.18 297.232 42.138C297.372 42.124 297.414 42.096 297.414 41.97C297.414 41.788 297.372 41.452 297.33 41.27C297.302 41.186 297.232 41.144 297.092 41.158C293.34 41.62 290.498 42.04 288.412 42.376C287.544 42.502 287.18 42.544 286.676 42.544C286.802 42.922 286.928 43.258 287.068 43.538C287.11 43.608 287.18 43.664 287.264 43.664C287.348 43.664 287.432 43.608 287.53 43.566C287.698 43.482 287.866 43.426 288.37 43.328C290.134 42.964 291.954 42.67 294.054 42.334L294.068 42.362ZM295.244 44.686C295.874 45.134 296.462 45.792 296.868 46.478C296.91 46.548 296.98 46.562 297.05 46.506L297.456 46.17C297.512 46.128 297.526 46.072 297.484 46.016C297.078 45.4 296.462 44.714 295.902 44.322C295.846 44.28 295.804 44.28 295.762 44.308L295.244 44.686ZM296.476 43.748C297.134 44.238 297.736 44.924 298.086 45.498C298.142 45.582 298.198 45.582 298.254 45.526L298.632 45.19C298.702 45.134 298.716 45.092 298.674 45.022C298.268 44.434 297.638 43.818 297.078 43.384C297.022 43.342 296.98 43.356 296.924 43.398L296.476 43.748ZM305.285 41.97C304.263 42.124 302.863 42.292 301.533 42.306C301.575 42.558 301.631 42.838 301.659 42.95C301.687 43.076 301.729 43.09 301.841 43.09C303.087 43.048 304.389 42.894 305.523 42.684C305.747 43.244 305.985 43.79 306.209 44.266C304.935 44.504 303.661 44.644 302.219 44.686C302.233 44.896 302.289 45.176 302.345 45.344C302.387 45.47 302.401 45.484 302.513 45.484C303.815 45.442 305.145 45.274 306.559 45.022C307.077 45.974 307.595 46.744 308.141 47.346C307.427 46.996 306.433 46.828 305.243 46.828C303.199 46.828 302.009 47.668 302.009 49.04C302.009 50.65 303.619 51.406 306.419 51.406C306.951 51.406 307.287 51.378 307.651 51.35C307.777 51.336 307.805 51.294 307.833 51.182C307.903 50.972 307.959 50.706 307.987 50.51C308.001 50.412 307.987 50.342 307.875 50.356C307.413 50.398 306.951 50.44 306.447 50.44C304.221 50.44 302.905 50.048 302.905 48.97C302.905 48.004 303.843 47.584 305.299 47.584C306.405 47.584 307.231 47.724 307.973 48.004C308.323 48.144 308.687 48.312 308.967 48.508C309.093 48.62 309.163 48.606 309.275 48.48C309.401 48.326 309.527 48.13 309.611 47.934C309.667 47.822 309.639 47.78 309.555 47.696C308.687 46.968 307.917 45.862 307.371 44.84C308.253 44.644 309.177 44.392 310.031 44.112C310.143 44.07 310.157 44.014 310.143 43.916C310.115 43.734 310.073 43.566 310.017 43.384C309.975 43.286 309.933 43.272 309.821 43.314C308.967 43.65 308.071 43.902 307.035 44.112C306.769 43.566 306.545 43.034 306.377 42.53C307.371 42.306 308.351 42.068 309.387 41.746C309.485 41.718 309.527 41.662 309.513 41.55C309.485 41.396 309.443 41.2 309.387 41.032C309.359 40.934 309.317 40.948 309.233 40.976C308.113 41.354 307.133 41.578 306.139 41.788C306.055 41.494 305.971 41.242 305.873 40.878C305.789 40.542 305.761 40.416 305.761 40.29C305.761 40.206 305.789 40.122 305.789 40.066C305.789 39.968 305.691 39.898 305.551 39.898C305.285 39.898 304.865 39.926 304.459 39.996C304.683 40.276 304.795 40.5 304.921 40.892C305.075 41.34 305.173 41.648 305.285 41.97ZM47.734 69.256C47.328 69.186 46.824 69.144 46.264 69.144C44.64 69.144 43.688 69.942 43.688 70.852C43.688 71.888 44.528 72.518 46.166 72.518C47.86 72.518 48.686 71.902 48.672 70.334C49.792 70.712 50.73 71.23 51.864 72.112C51.948 72.168 52.004 72.154 52.074 72.07C52.214 71.916 52.368 71.65 52.424 71.468C52.466 71.342 52.438 71.286 52.368 71.23C51.206 70.362 49.89 69.774 48.63 69.424C48.574 68.584 48.532 67.856 48.532 66.988C49.652 66.918 50.632 66.792 51.626 66.61C51.724 66.596 51.766 66.554 51.766 66.47C51.766 66.232 51.752 65.966 51.752 65.798C51.738 65.728 51.696 65.7 51.598 65.728C50.52 65.938 49.582 66.064 48.504 66.134C48.49 65.476 48.49 64.748 48.49 64.062C49.778 63.978 50.912 63.838 52.004 63.656C52.046 63.656 52.102 63.628 52.102 63.516C52.102 63.348 52.088 63.124 52.06 62.9C52.046 62.802 52.018 62.774 51.906 62.802C50.912 62.984 49.764 63.166 48.49 63.264C48.504 62.788 48.504 62.48 48.532 62.032C48.546 61.752 48.602 61.542 48.7 61.388C48.77 61.276 48.728 61.122 48.574 61.066C48.308 60.982 47.93 60.926 47.468 60.884C47.552 61.164 47.58 61.402 47.594 61.808C47.594 62.326 47.608 62.718 47.608 63.292C46.264 63.348 44.948 63.334 43.716 63.18C43.716 63.488 43.744 63.698 43.772 63.908C43.786 64.006 43.814 64.034 43.898 64.048C45.046 64.16 46.25 64.174 47.608 64.118C47.608 64.79 47.622 65.518 47.622 66.204C46.53 66.26 45.27 66.232 44.234 66.106C44.234 66.302 44.248 66.638 44.276 66.82C44.29 66.946 44.318 66.988 44.43 66.988C45.438 67.072 46.572 67.072 47.65 67.03C47.664 67.842 47.692 68.458 47.734 69.256ZM47.748 70.096C47.79 70.67 47.664 71.02 47.496 71.23C47.244 71.524 46.712 71.664 46.068 71.664C45.046 71.664 44.5 71.384 44.5 70.796C44.5 70.292 45.088 69.914 46.264 69.914C46.768 69.914 47.258 69.984 47.748 70.096ZM63.5987 64.538C62.3107 64.664 60.7707 64.846 59.5667 65C59.5807 64.482 59.5807 64.048 59.6087 63.474C59.6227 63.222 59.6367 63.054 59.7067 62.858C59.7347 62.76 59.7907 62.662 59.7907 62.564C59.7907 62.48 59.7067 62.382 59.5947 62.354C59.3147 62.27 58.8947 62.2 58.4887 62.172C58.6287 62.676 58.6427 62.956 58.6567 63.544C58.6567 64.062 58.6567 64.58 58.6427 65.126C57.9567 65.238 57.2567 65.378 56.5147 65.476C56.1367 65.532 55.7867 65.56 55.4787 65.56C55.5347 65.882 55.6467 66.204 55.7307 66.428C55.7867 66.554 55.8707 66.582 56.0107 66.54C56.2487 66.456 56.4587 66.4 56.6547 66.358C57.2987 66.218 57.9007 66.12 58.6427 66.008C58.6427 67.492 58.6427 69.018 58.7127 69.634C58.8807 71.314 59.5527 71.86 62.2547 71.86C63.5147 71.86 64.8307 71.776 65.6427 71.664C65.7407 71.65 65.7687 71.608 65.7687 71.468C65.7687 71.314 65.7547 70.992 65.7267 70.81C65.7127 70.698 65.6707 70.67 65.5027 70.684C64.4667 70.838 63.2907 70.936 62.1147 70.936C60.0567 70.936 59.6927 70.628 59.5947 69.466C59.5247 68.668 59.5387 67.352 59.5667 65.868C60.8547 65.672 62.2547 65.504 63.5707 65.392C63.5567 66.05 63.5007 66.792 63.4307 67.324C63.3607 67.898 63.1787 68.122 62.7587 68.122C62.3247 68.122 61.8907 68.038 61.4007 67.898C61.5127 68.178 61.5967 68.43 61.6247 68.682C61.6387 68.836 61.6667 68.906 61.7927 68.934C62.1427 68.99 62.4647 69.032 62.8427 69.032C63.6687 69.032 64.1727 68.654 64.3127 67.632C64.3827 67.1 64.4387 66.232 64.4807 65.322C65.5167 65.238 66.4407 65.196 67.4067 65.196C67.5187 65.196 67.5467 65.154 67.5467 65.028C67.5607 64.846 67.5607 64.608 67.5467 64.412C67.5467 64.3 67.5187 64.272 67.4067 64.272C66.4827 64.3 65.5867 64.37 64.5227 64.454C64.5507 63.642 64.5647 62.9 64.5787 62.06C64.5927 61.85 64.6207 61.668 64.6907 61.556C64.7327 61.5 64.7747 61.416 64.7747 61.332C64.7747 61.234 64.7327 61.192 64.5927 61.15C64.3547 61.066 64.0187 61.01 63.5007 60.94C63.5987 61.318 63.6267 61.654 63.6267 62.102C63.6267 62.844 63.6267 63.684 63.5987 64.538ZM71.7661 67.8C72.5921 66.33 73.5301 64.538 74.4961 62.732C74.6641 62.41 74.7901 62.27 74.9161 62.158C75.0561 62.018 75.0421 61.864 74.8881 61.752C74.6641 61.584 74.2581 61.374 73.8801 61.22C73.8101 61.668 73.6701 62.074 73.3341 62.83C72.3681 64.888 70.8841 67.842 69.0781 71.37C69.0221 71.468 69.0221 71.538 69.1061 71.608C69.2741 71.748 69.5261 71.888 69.7221 71.972C69.8481 72.028 69.9181 72.014 69.9741 71.874C70.6461 70.404 71.2201 69.368 71.6961 68.78C72.3961 67.954 73.0121 67.576 73.6281 67.576C74.3701 67.576 74.6921 68.122 74.8461 69.536C75.0281 71.244 75.5041 72.07 76.8481 72.07C77.9121 72.07 78.7101 71.58 79.2981 70.838C79.7601 70.292 80.1241 69.676 80.4041 68.934C80.4601 68.766 80.4461 68.654 80.3341 68.57C80.1521 68.416 79.9841 68.206 79.8301 67.828C79.5081 68.892 79.0601 69.634 78.6541 70.138C78.1921 70.684 77.6881 71.104 76.8621 71.104C76.0781 71.104 75.8541 70.418 75.7421 69.228C75.6021 67.814 75.1541 66.806 73.7681 66.806C73.0681 66.806 72.4101 67.198 71.7941 67.828L71.7661 67.8ZM83.9767 69.326C82.8987 69.326 82.0027 70.194 82.0027 71.272C82.0027 72.35 82.8987 73.218 83.9767 73.218C85.0547 73.218 85.9507 72.35 85.9507 71.272C85.9507 70.194 85.0547 69.326 83.9767 69.326ZM83.9767 70.026C84.6767 70.026 85.2227 70.586 85.2227 71.272C85.2227 71.958 84.6767 72.518 83.9767 72.518C83.2907 72.518 82.7307 71.958 82.7307 71.272C82.7307 70.586 83.2907 70.026 83.9767 70.026ZM51.92 89.82C53.264 89.82 53.712 89.848 53.796 89.848C53.894 89.848 53.908 89.834 53.908 89.736V89.134C53.908 89.036 53.894 89.022 53.796 89.022C53.712 89.022 53.264 89.05 51.92 89.05H48.308V86.572H50.716C52.144 86.572 52.634 86.6 52.704 86.6C52.802 86.6 52.816 86.586 52.816 86.488V85.872C52.816 85.774 52.802 85.76 52.704 85.76C52.634 85.76 52.144 85.788 50.716 85.788H48.308V84.99C48.308 84.29 48.35 84.038 48.392 83.87C48.42 83.772 48.476 83.688 48.476 83.562C48.476 83.52 48.406 83.464 48.294 83.45C48.028 83.408 47.706 83.38 47.356 83.366C47.454 83.898 47.454 84.122 47.454 85.004V85.788H45.34C43.912 85.788 43.422 85.76 43.352 85.76C43.254 85.76 43.24 85.774 43.24 85.872V86.488C43.24 86.586 43.254 86.6 43.352 86.6C43.422 86.6 43.912 86.572 45.34 86.572H47.454V89.05H44.094C42.764 89.05 42.302 89.022 42.232 89.022C42.134 89.022 42.12 89.036 42.12 89.134V89.736C42.12 89.834 42.134 89.848 42.232 89.848C42.302 89.848 42.764 89.82 44.094 89.82H46.992C45.858 91.584 43.94 93.25 41.644 94.3C41.798 94.426 41.938 94.594 42.05 94.818C42.12 94.958 42.162 95.014 42.232 95.014C42.274 95.014 42.344 94.986 42.442 94.93C44.668 93.698 46.32 92.2 47.496 90.338C47.482 92.858 47.412 95.056 47.412 95.868C47.412 95.966 47.426 95.98 47.524 95.98H48.238C48.336 95.98 48.35 95.966 48.35 95.868C48.35 94.986 48.28 92.802 48.28 90.324C49.512 92.256 51.262 93.754 53.628 94.916C53.74 94.972 53.796 95 53.838 95C53.908 95 53.936 94.944 54.006 94.804C54.132 94.58 54.286 94.398 54.44 94.258C51.948 93.236 49.918 91.57 48.714 89.82H51.92ZM65.6287 90.506C66.9727 90.506 67.4207 90.534 67.4907 90.534C67.5887 90.534 67.6027 90.52 67.6027 90.408V89.834C67.6027 89.736 67.5887 89.722 67.4907 89.722C67.4207 89.722 66.9727 89.75 65.6287 89.75H64.0047C64.3967 89.148 64.7467 88.56 64.9847 88.07C65.1947 87.65 65.3207 87.524 65.3907 87.482C65.4607 87.44 65.5167 87.37 65.5167 87.3C65.5167 87.216 65.4887 87.188 65.3627 87.132C65.0827 87.02 64.8307 86.936 64.5227 86.866C64.4807 87.118 64.3967 87.398 64.2707 87.664C63.9767 88.308 63.6127 89.008 63.1507 89.75H61.9747V86.264H64.8587C66.2727 86.264 66.7207 86.292 66.8047 86.292C66.9027 86.292 66.9167 86.278 66.9167 86.18V85.578C66.9167 85.48 66.9027 85.466 66.8047 85.466C66.7207 85.466 66.2727 85.494 64.8587 85.494H61.9747V84.99C61.9747 84.29 62.0027 84.052 62.0447 83.884C62.0727 83.772 62.1287 83.688 62.1287 83.562C62.1287 83.52 62.0727 83.464 61.9607 83.45C61.6807 83.408 61.3727 83.38 61.0367 83.38C61.1347 83.898 61.1347 84.108 61.1347 84.99V85.494H58.5027C57.0887 85.494 56.6267 85.466 56.5567 85.466C56.4587 85.466 56.4447 85.48 56.4447 85.578V86.18C56.4447 86.278 56.4587 86.292 56.5567 86.292C56.6267 86.292 57.0887 86.264 58.5027 86.264H61.1347V89.75H57.6907C56.3607 89.75 55.8987 89.722 55.8287 89.722C55.7307 89.722 55.7167 89.736 55.7167 89.834V90.408C55.7167 90.52 55.7307 90.534 55.8287 90.534C55.8987 90.534 56.3607 90.506 57.6907 90.506H60.6027C59.4827 92.172 57.7047 93.558 55.4087 94.566C55.5627 94.692 55.6887 94.846 55.8147 95.07C55.8987 95.21 55.9267 95.266 55.9967 95.266C56.0527 95.266 56.1087 95.238 56.2207 95.182C58.4047 94.076 59.9307 92.816 61.1627 90.94C61.1487 93.39 61.0927 95.252 61.0927 95.91C61.0927 96.008 61.1067 96.008 61.2047 96.008H61.8907C61.9887 96.008 62.0027 96.008 62.0027 95.91C62.0027 95.322 61.9467 93.376 61.9327 90.898C63.1927 92.872 64.8447 94.09 67.2387 95.196C67.3367 95.238 67.4067 95.266 67.4487 95.266C67.5187 95.266 67.5467 95.21 67.6307 95.056C67.7427 94.846 67.8967 94.65 68.0647 94.51C65.4887 93.516 63.6827 92.228 62.4507 90.506H65.6287ZM57.8867 87.076C57.7467 87.132 57.7047 87.16 57.7747 87.258C58.1387 87.846 58.4607 88.476 58.7267 89.204C58.7687 89.316 58.7967 89.316 58.9647 89.246L59.4267 89.05C59.5527 88.994 59.5667 88.966 59.5387 88.882C59.2027 88.098 58.9227 87.524 58.5167 86.936C58.4607 86.852 58.4327 86.866 58.3207 86.908L57.8867 87.076ZM76.1313 86.166C78.1333 86.166 79.7433 87.636 79.7433 89.708C79.7433 92.046 78.1473 93.544 75.3753 94.09C75.6553 94.258 75.8373 94.468 75.9213 94.608C76.0193 94.776 76.1173 94.804 76.2853 94.762C79.3233 93.992 80.7373 92.158 80.7373 89.876C80.7373 87.202 78.8753 85.368 75.7393 85.368C73.9753 85.368 72.5753 85.956 71.5393 86.922C70.5033 87.888 69.9153 89.26 69.9153 90.548C69.9153 92.578 70.9093 93.726 71.9593 93.726C72.7853 93.726 73.4153 93.306 74.0173 92.284C74.8993 90.856 75.6133 88.532 75.8653 86.166H76.1313ZM74.8853 86.222C74.7033 88.266 73.9613 90.436 73.2473 91.696C72.8413 92.41 72.4213 92.718 71.9453 92.718C71.4413 92.718 70.8113 92.06 70.8113 90.534C70.8113 89.582 71.2173 88.434 72.1553 87.51C72.8273 86.838 73.7933 86.362 74.8853 86.222ZM90.218 87.622C90.876 86.964 91.38 86.404 91.968 85.69C92.318 85.284 92.584 85.032 92.752 84.948C92.92 84.864 92.948 84.696 92.808 84.556C92.598 84.346 92.22 84.122 91.842 83.926C91.716 84.374 91.464 84.794 90.876 85.508C90.218 86.306 89.224 87.3 88.16 88.21C86.998 89.204 85.542 90.212 83.806 91.164C84.072 91.29 84.324 91.43 84.506 91.612C84.604 91.71 84.702 91.738 84.828 91.668C86.382 90.758 87.754 89.806 89.224 88.504V92.648C89.224 93.46 89.196 94.3 89.168 95.14C89.168 95.266 89.196 95.308 89.308 95.308C89.56 95.322 89.868 95.322 90.12 95.308C90.232 95.308 90.274 95.266 90.26 95.14C90.232 94.244 90.218 93.446 90.218 92.606V87.622ZM102.078 88.91C101.266 88.35 100.244 87.762 99.4456 87.342C99.3476 87.286 99.2916 87.272 99.2216 87.342C99.0956 87.482 98.8996 87.748 98.6896 88.014C99.6976 88.504 100.664 89.12 101.518 89.722C100.034 91.696 98.3396 93.264 96.0996 94.552C96.3796 94.622 96.6596 94.79 96.8836 94.986C97.0096 95.098 97.1496 95.056 97.2896 94.972C99.1096 93.838 100.776 92.284 102.302 90.31C102.988 90.842 103.674 91.514 104.318 92.27C104.402 92.368 104.472 92.382 104.57 92.284C104.738 92.102 104.892 91.948 105.046 91.738C105.116 91.64 105.13 91.584 105.032 91.472C104.36 90.744 103.618 90.086 102.848 89.512C103.478 88.616 104.08 87.552 104.626 86.418C104.892 85.942 105.06 85.676 105.228 85.564C105.354 85.466 105.41 85.298 105.242 85.172C105.004 84.976 104.528 84.752 104.08 84.57C104.024 85.13 103.898 85.55 103.604 86.208C103.24 87.034 102.694 87.986 102.078 88.91ZM117.298 90.31C118.236 90.31 119.272 90.31 120.322 90.338C120.49 90.352 120.532 90.324 120.532 90.17C120.546 89.946 120.546 89.652 120.532 89.442C120.532 89.288 120.49 89.26 120.322 89.274C119.258 89.302 118.222 89.316 117.256 89.316H112.958C111.796 89.316 110.718 89.302 109.864 89.19C109.892 89.568 109.948 90.016 110.004 90.254C110.046 90.394 110.116 90.45 110.242 90.45C110.326 90.45 110.914 90.31 112.132 90.31H117.298ZM123.615 88.798C124.539 89.148 125.421 89.61 126.191 90.212C126.303 90.31 126.373 90.296 126.457 90.184C126.583 90.016 126.723 89.778 126.821 89.582C126.877 89.47 126.891 89.386 126.751 89.288C125.995 88.77 125.197 88.35 124.287 88.014C124.175 87.986 124.105 88.014 124.049 88.112C123.951 88.252 123.797 88.532 123.615 88.798ZM125.267 85.578C126.177 85.97 127.087 86.53 127.773 87.16C127.885 87.258 127.941 87.286 128.025 87.188C128.165 87.034 128.319 86.768 128.431 86.586C128.501 86.46 128.515 86.404 128.389 86.306C127.633 85.732 126.821 85.214 125.953 84.85C125.827 84.794 125.785 84.794 125.701 84.92C125.561 85.116 125.407 85.382 125.267 85.578ZM124.749 94.02C124.959 94.356 125.225 94.748 125.407 94.958C125.533 95.098 125.673 95.126 125.799 95C125.939 94.846 126.163 94.692 126.471 94.524C127.941 93.698 129.313 92.872 130.559 91.906C131.861 90.912 133.079 89.848 134.255 88.476C134.367 88.35 134.395 88.238 134.325 88.098C134.185 87.776 134.115 87.552 134.059 87.188C132.799 88.77 131.273 90.128 130.069 91.066C128.753 92.074 127.507 92.802 126.219 93.474C125.673 93.754 125.239 93.908 124.749 94.02ZM131.287 84.682C131.917 85.13 132.505 85.788 132.911 86.474C132.953 86.544 133.023 86.558 133.093 86.502L133.499 86.166C133.555 86.124 133.569 86.068 133.527 86.012C133.121 85.396 132.505 84.71 131.945 84.318C131.889 84.276 131.847 84.276 131.791 84.318L131.287 84.682ZM132.519 83.744C133.177 84.234 133.779 84.92 134.129 85.494C134.185 85.578 134.241 85.578 134.297 85.522L134.675 85.186C134.745 85.13 134.759 85.088 134.717 85.018C134.311 84.43 133.681 83.814 133.121 83.38C133.065 83.338 133.023 83.352 132.967 83.394L132.519 83.744ZM143.778 90.618C144.8 90.184 145.682 89.862 146.746 89.414C147.068 89.288 147.348 89.218 147.516 89.19C147.656 89.162 147.768 89.078 147.656 88.868C147.572 88.7 147.292 88.336 146.97 88.056C146.676 88.35 146.312 88.574 145.906 88.77C145.206 89.106 144.408 89.47 143.722 89.778C143.61 88.686 142.994 88.14 141.958 88.14C141.412 88.14 140.796 88.322 140.208 88.742L140.194 88.714C140.698 88.14 141.146 87.482 141.622 86.628C142.742 86.516 143.932 86.362 145.038 86.166C145.192 86.138 145.22 86.096 145.22 85.998C145.206 85.774 145.164 85.578 145.136 85.382C145.108 85.298 145.08 85.298 144.968 85.326C144.002 85.536 142.994 85.69 142.014 85.788C142.196 85.368 142.322 85.074 142.49 84.724C142.602 84.486 142.686 84.388 142.742 84.332C142.854 84.234 142.854 84.094 142.714 84.024C142.476 83.912 142.07 83.786 141.664 83.716C141.678 84.024 141.622 84.234 141.552 84.472C141.412 84.99 141.216 85.452 141.048 85.872C139.914 85.942 138.822 85.942 137.8 85.886C137.814 86.11 137.856 86.418 137.884 86.586C137.898 86.684 137.926 86.726 138.038 86.726C138.92 86.754 139.774 86.754 140.642 86.698C139.83 88.126 138.668 89.484 137.394 90.59C137.31 90.674 137.324 90.702 137.366 90.786C137.478 90.94 137.716 91.206 137.856 91.332C137.926 91.402 137.982 91.402 138.066 91.304C138.556 90.786 138.892 90.422 139.396 89.946C140.292 89.176 141.09 88.826 141.692 88.812C142.518 88.798 142.84 89.176 142.868 90.128C140.544 91.262 139.774 92.214 139.774 93.39C139.774 94.888 141.048 95.392 143.008 95.392C144.324 95.392 145.472 95.322 146.466 95.196C146.522 95.182 146.578 95.126 146.578 95C146.578 94.804 146.536 94.524 146.494 94.314C146.466 94.216 146.41 94.202 146.34 94.216C145.318 94.356 144.17 94.496 143.008 94.496C141.384 94.496 140.614 94.16 140.614 93.334C140.614 92.494 141.37 91.78 142.91 91.01C142.896 91.724 142.896 92.41 142.896 93.026C142.896 93.124 142.938 93.194 143.022 93.194C143.204 93.194 143.484 93.166 143.624 93.138C143.75 93.124 143.778 93.082 143.778 92.97V90.618ZM160.174 88.224C161.518 88.224 161.966 88.252 162.036 88.252C162.134 88.252 162.148 88.238 162.148 88.126V87.482C162.148 87.384 162.134 87.37 162.036 87.37C161.966 87.37 161.518 87.398 160.174 87.398H156.408C156.492 86.67 156.534 85.914 156.548 85.13C156.562 84.486 156.59 84.22 156.66 84.08C156.702 83.982 156.744 83.926 156.744 83.814C156.744 83.744 156.688 83.688 156.548 83.66C156.268 83.618 155.876 83.59 155.554 83.576C155.624 83.996 155.638 84.374 155.624 85.158C155.61 85.956 155.582 86.698 155.512 87.398H152.208C150.864 87.398 150.416 87.37 150.346 87.37C150.248 87.37 150.234 87.384 150.234 87.482V88.126C150.234 88.238 150.248 88.252 150.346 88.252C150.416 88.252 150.864 88.224 152.208 88.224H155.414C155.26 89.232 155.008 90.128 154.602 90.968C153.79 92.648 152.306 94.132 149.94 95.112C150.122 95.238 150.304 95.392 150.458 95.588C150.556 95.728 150.598 95.784 150.668 95.784C150.724 95.784 150.78 95.756 150.892 95.714C153.048 94.636 154.448 93.306 155.414 91.318C155.75 90.618 156.002 89.82 156.184 88.952C157.094 91.962 159.124 94.398 161.546 95.672C161.644 95.728 161.714 95.756 161.756 95.756C161.826 95.756 161.868 95.7 161.952 95.546C162.092 95.322 162.274 95.112 162.456 94.958C159.614 93.838 157.57 91.15 156.674 88.224H160.174ZM169.179 85.97C168.157 86.124 166.757 86.292 165.427 86.306C165.469 86.558 165.525 86.838 165.553 86.95C165.581 87.076 165.623 87.09 165.735 87.09C166.981 87.048 168.283 86.894 169.417 86.684C169.641 87.244 169.879 87.79 170.103 88.266C168.829 88.504 167.555 88.644 166.113 88.686C166.127 88.896 166.183 89.176 166.239 89.344C166.281 89.47 166.295 89.484 166.407 89.484C167.709 89.442 169.039 89.274 170.453 89.022C170.971 89.974 171.489 90.744 172.035 91.346C171.321 90.996 170.327 90.828 169.137 90.828C167.093 90.828 165.903 91.668 165.903 93.04C165.903 94.65 167.513 95.406 170.313 95.406C170.845 95.406 171.181 95.378 171.545 95.35C171.671 95.336 171.699 95.294 171.727 95.182C171.797 94.972 171.853 94.706 171.881 94.51C171.895 94.412 171.881 94.342 171.769 94.356C171.307 94.398 170.845 94.44 170.341 94.44C168.115 94.44 166.799 94.048 166.799 92.97C166.799 92.004 167.737 91.584 169.193 91.584C170.299 91.584 171.125 91.724 171.867 92.004C172.217 92.144 172.581 92.312 172.861 92.508C172.987 92.62 173.057 92.606 173.169 92.48C173.295 92.326 173.421 92.13 173.505 91.934C173.561 91.822 173.533 91.78 173.449 91.696C172.581 90.968 171.811 89.862 171.265 88.84C172.147 88.644 173.071 88.392 173.925 88.112C174.037 88.07 174.051 88.014 174.037 87.916C174.009 87.734 173.967 87.566 173.911 87.384C173.869 87.286 173.827 87.272 173.715 87.314C172.861 87.65 171.965 87.902 170.929 88.112C170.663 87.566 170.439 87.034 170.271 86.53C171.265 86.306 172.245 86.068 173.281 85.746C173.379 85.718 173.421 85.662 173.407 85.55C173.379 85.396 173.337 85.2 173.281 85.032C173.253 84.934 173.211 84.948 173.127 84.976C172.007 85.354 171.027 85.578 170.033 85.788C169.949 85.494 169.865 85.242 169.767 84.878C169.683 84.542 169.655 84.416 169.655 84.29C169.655 84.206 169.683 84.122 169.683 84.066C169.683 83.968 169.585 83.898 169.445 83.898C169.179 83.898 168.759 83.926 168.353 83.996C168.577 84.276 168.689 84.5 168.815 84.892C168.969 85.34 169.067 85.648 169.179 85.97ZM184.946 83.926C184.778 84.262 184.61 84.5 184.33 84.794C183.084 86.054 181.558 87.538 180.424 88.742C180.102 89.078 179.934 89.316 179.934 89.652C179.934 89.988 180.102 90.24 180.48 90.534C182.132 91.78 183.938 93.278 185.758 95.28C185.856 95.406 185.912 95.392 186.024 95.308C186.164 95.182 186.388 94.972 186.556 94.776C186.668 94.636 186.64 94.608 186.542 94.496C184.722 92.648 182.86 91.15 181.138 89.876C181.012 89.792 180.956 89.722 180.956 89.624C180.956 89.526 181.012 89.414 181.152 89.274C182.202 88.154 183.91 86.572 185.282 85.326C185.492 85.13 185.632 85.032 185.8 84.962C185.884 84.92 185.94 84.864 185.94 84.78C185.94 84.724 185.898 84.654 185.842 84.598C185.646 84.402 185.268 84.136 184.946 83.926ZM194.118 84.15C194.272 84.794 194.258 85.396 194.23 86.264C194.16 88.238 194.034 90.52 194.034 92.508C194.034 94.566 194.888 95.322 196.47 95.322C198.472 95.322 200.334 94.384 201.804 92.97C201.93 92.858 201.972 92.788 201.972 92.704C201.972 92.648 201.944 92.592 201.916 92.508C201.832 92.298 201.72 92.018 201.678 91.696C200.236 93.292 198.416 94.37 196.638 94.37C195.42 94.37 194.986 93.894 194.986 92.326C194.986 90.394 195.07 88.476 195.196 86.362C195.252 85.522 195.308 85.088 195.364 84.92C195.42 84.78 195.476 84.668 195.476 84.556C195.476 84.458 195.406 84.388 195.252 84.346C194.972 84.248 194.538 84.192 194.118 84.15ZM210.613 92.256C210.207 92.186 209.703 92.144 209.143 92.144C207.519 92.144 206.567 92.942 206.567 93.852C206.567 94.888 207.407 95.518 209.045 95.518C210.739 95.518 211.565 94.902 211.551 93.334C212.671 93.712 213.609 94.23 214.743 95.112C214.827 95.168 214.883 95.154 214.953 95.07C215.093 94.916 215.247 94.65 215.303 94.468C215.345 94.342 215.317 94.286 215.247 94.23C214.085 93.362 212.769 92.774 211.509 92.424C211.453 91.584 211.411 90.856 211.411 89.988C212.531 89.918 213.511 89.792 214.505 89.61C214.603 89.596 214.645 89.554 214.645 89.47C214.645 89.232 214.631 88.966 214.631 88.798C214.617 88.728 214.575 88.7 214.477 88.728C213.399 88.938 212.461 89.064 211.383 89.134C211.369 88.476 211.369 87.748 211.369 87.062C212.657 86.978 213.791 86.838 214.883 86.656C214.925 86.656 214.981 86.628 214.981 86.516C214.981 86.348 214.967 86.124 214.939 85.9C214.925 85.802 214.897 85.774 214.785 85.802C213.791 85.984 212.643 86.166 211.369 86.264C211.383 85.788 211.383 85.48 211.411 85.032C211.425 84.752 211.481 84.542 211.579 84.388C211.649 84.276 211.607 84.122 211.453 84.066C211.187 83.982 210.809 83.926 210.347 83.884C210.431 84.164 210.459 84.402 210.473 84.808C210.473 85.326 210.487 85.718 210.487 86.292C209.143 86.348 207.827 86.334 206.595 86.18C206.595 86.488 206.623 86.698 206.651 86.908C206.665 87.006 206.693 87.034 206.777 87.048C207.925 87.16 209.129 87.174 210.487 87.118C210.487 87.79 210.501 88.518 210.501 89.204C209.409 89.26 208.149 89.232 207.113 89.106C207.113 89.302 207.127 89.638 207.155 89.82C207.169 89.946 207.197 89.988 207.309 89.988C208.317 90.072 209.451 90.072 210.529 90.03C210.543 90.842 210.571 91.458 210.613 92.256ZM210.627 93.096C210.669 93.67 210.543 94.02 210.375 94.23C210.123 94.524 209.591 94.664 208.947 94.664C207.925 94.664 207.379 94.384 207.379 93.796C207.379 93.292 207.967 92.914 209.143 92.914C209.647 92.914 210.137 92.984 210.627 93.096ZM221.452 84.15C221.606 84.794 221.592 85.396 221.564 86.264C221.494 88.238 221.368 90.52 221.368 92.508C221.368 94.566 222.222 95.322 223.804 95.322C225.806 95.322 227.668 94.384 229.138 92.97C229.264 92.858 229.306 92.788 229.306 92.704C229.306 92.648 229.278 92.592 229.25 92.508C229.166 92.298 229.054 92.018 229.012 91.696C227.57 93.292 225.75 94.37 223.972 94.37C222.754 94.37 222.32 93.894 222.32 92.326C222.32 90.394 222.404 88.476 222.53 86.362C222.586 85.522 222.642 85.088 222.698 84.92C222.754 84.78 222.81 84.668 222.81 84.556C222.81 84.458 222.74 84.388 222.586 84.346C222.306 84.248 221.872 84.192 221.452 84.15ZM238.646 93.67C239.444 93.95 240.284 94.384 241.278 95.112C241.348 95.154 241.39 95.14 241.432 95.084C241.53 94.958 241.712 94.636 241.782 94.454C241.81 94.398 241.81 94.356 241.74 94.314C240.634 93.614 239.612 93.124 238.618 92.858C238.534 91.99 238.45 90.842 238.422 89.988C239.416 89.89 240.312 89.75 241.25 89.47C241.348 89.442 241.362 89.4 241.348 89.302C241.306 89.12 241.25 88.924 241.194 88.756C241.166 88.672 241.124 88.658 241.012 88.7C240.256 88.952 239.29 89.134 238.408 89.19C238.394 88.588 238.394 88.056 238.422 87.622C238.436 87.384 238.45 87.272 238.534 87.118C238.562 87.076 238.59 87.006 238.59 86.936C238.59 86.88 238.52 86.838 238.436 86.81C238.226 86.74 237.806 86.684 237.428 86.656C237.512 86.908 237.54 87.244 237.54 87.566C237.554 88.07 237.568 88.756 237.596 89.526C237.624 90.73 237.708 91.934 237.778 92.704C237.372 92.648 236.966 92.648 236.644 92.648C235.412 92.648 234.474 93.208 234.474 94.16C234.474 94.958 235.146 95.588 236.602 95.588C237.932 95.588 238.646 94.972 238.646 93.95V93.67ZM237.806 93.698C237.806 94.468 237.33 94.832 236.574 94.832C235.622 94.832 235.202 94.524 235.202 94.132C235.202 93.642 235.762 93.362 236.644 93.362C236.994 93.362 237.4 93.404 237.806 93.474V93.698ZM250.381 83.786C250.283 84.052 250.199 84.29 250.157 84.556C250.143 84.682 250.157 84.738 250.199 84.752C251.557 85.312 252.621 85.564 254.021 85.802C254.119 85.816 254.133 85.76 254.175 85.648C254.231 85.508 254.315 85.172 254.343 84.99C254.357 84.878 254.315 84.822 254.203 84.808C252.845 84.626 251.599 84.304 250.381 83.786ZM247.945 88.21C248.085 88.546 248.281 88.938 248.393 89.106C248.463 89.218 248.561 89.33 248.659 89.33C248.799 89.33 248.911 89.232 249.107 89.12C249.373 88.966 249.723 88.812 250.367 88.546C251.263 88.224 251.935 88.056 252.411 88.056C253.265 88.056 254.147 88.532 254.147 90.212C254.147 91.36 253.783 92.172 253.349 92.76C252.677 93.67 251.739 94.398 250.367 95.042C250.647 95.168 250.885 95.294 251.067 95.518C251.165 95.644 251.263 95.672 251.543 95.518C252.467 95.014 253.307 94.412 254.021 93.544C254.707 92.718 255.169 91.626 255.169 90.31C255.169 88.126 253.965 87.174 252.579 87.174C251.641 87.174 250.857 87.426 249.541 87.846C248.883 88.056 248.477 88.168 247.945 88.21ZM266.288 84.164H264.804L265.07 92.144H265.966L266.288 84.164ZM266.302 93.74H264.776V95.238H266.302V93.74ZM45.62 107.038C45.774 107.416 45.844 107.766 45.928 108.41C46.068 109.516 46.362 110.958 46.67 111.994C44.892 113.072 43.94 114.108 43.94 115.452C43.94 117.37 45.69 117.902 48.112 117.902C49.68 117.902 50.688 117.832 51.836 117.706C51.99 117.692 52.046 117.636 52.032 117.51C52.018 117.272 51.99 117.006 51.948 116.782C51.92 116.67 51.878 116.642 51.752 116.656C50.716 116.81 49.456 116.936 48.154 116.95C46.04 116.964 44.864 116.656 44.864 115.41C44.864 114.43 45.522 113.702 46.936 112.876C47.888 112.33 49.092 111.756 50.114 111.28C50.534 111.084 50.996 110.888 51.346 110.832C51.598 110.804 51.626 110.608 51.514 110.44C51.332 110.188 51.08 109.922 50.8 109.656C50.604 109.908 50.436 110.048 49.988 110.3C49.162 110.762 48.322 111.154 47.496 111.56C47.244 110.678 47.076 109.74 46.95 108.732C46.908 108.424 46.88 108.144 46.866 107.836C46.866 107.612 46.936 107.486 46.936 107.346C46.936 107.276 46.88 107.192 46.768 107.164C46.474 107.094 46.04 107.052 45.62 107.038ZM63.4587 109.278C61.2607 110.44 60.0427 112.064 60.0427 114.038C60.0427 116.866 62.5907 117.874 64.9567 118.084C65.1107 118.098 65.1527 118.042 65.1807 117.888C65.2227 117.692 65.2647 117.37 65.2647 117.216C65.2647 117.104 65.2227 117.076 65.0407 117.062C62.9967 116.894 60.9667 116.208 60.9667 113.884C60.9667 112.008 62.5347 110.286 64.5787 109.474C65.3067 109.18 65.8667 109.096 66.6227 109.054C66.7627 109.04 66.8047 109.012 66.8047 108.886C66.8047 108.704 66.7627 108.368 66.7207 108.186C66.6927 108.102 66.6227 108.06 66.4827 108.074C62.7307 108.536 59.8887 108.956 57.8027 109.292C56.9347 109.418 56.5707 109.46 56.0667 109.46C56.1927 109.838 56.3187 110.174 56.4587 110.454C56.5007 110.524 56.5707 110.58 56.6547 110.58C56.7387 110.58 56.8227 110.524 56.9207 110.482C57.0887 110.398 57.2567 110.342 57.7607 110.244C59.5247 109.88 61.3447 109.586 63.4447 109.25L63.4587 109.278ZM69.4673 110.874C69.6353 111.224 69.9013 111.63 70.0693 111.84C70.1673 111.952 70.2373 112.008 70.3353 112.008C70.3913 112.008 70.4613 111.98 70.6013 111.882C70.7273 111.784 71.0213 111.616 71.5533 111.392C73.8073 110.44 75.5293 109.894 76.8173 109.894C78.5393 109.894 79.6313 110.888 79.6313 112.442C79.6313 113.842 78.9033 114.752 77.6293 115.41C76.6353 115.928 75.4733 116.292 73.6673 116.502C73.9473 116.684 74.1433 116.936 74.2833 117.16C74.3673 117.286 74.4373 117.356 74.6333 117.328C76.0193 117.09 77.2933 116.74 78.3853 116.138C79.8833 115.326 80.6813 114.22 80.6813 112.484C80.6813 110.412 79.2533 109.04 76.9293 109.04C75.7813 109.04 74.0593 109.418 72.1833 110.104C70.6293 110.678 69.9433 110.818 69.4673 110.874ZM87.614 113.982C88.398 114.01 89.28 114.024 90.008 113.968C90.078 113.968 90.12 113.94 90.134 113.814C90.148 113.646 90.162 113.352 90.162 113.198C90.162 113.114 90.12 113.086 89.994 113.1C89.252 113.17 88.51 113.156 87.726 113.128C87.852 112.274 87.978 111.42 88.09 110.734C88.692 110.762 89.476 110.762 90.134 110.72C90.218 110.72 90.274 110.692 90.274 110.58C90.288 110.384 90.288 110.146 90.288 109.936C90.288 109.852 90.26 109.824 90.204 109.824C89.574 109.88 88.86 109.894 88.244 109.852C88.328 109.264 88.398 108.858 88.496 108.312C88.566 107.934 88.636 107.78 88.748 107.654C88.804 107.584 88.846 107.528 88.846 107.458C88.846 107.374 88.762 107.29 88.636 107.234C88.398 107.122 87.95 106.968 87.544 106.898C87.6 107.29 87.586 107.682 87.53 108.088C87.474 108.69 87.432 109.026 87.32 109.782C86.41 109.684 85.528 109.558 84.632 109.236C84.632 109.516 84.646 109.81 84.66 110.02C84.674 110.16 84.688 110.174 84.786 110.202C85.5 110.44 86.256 110.552 87.166 110.65C87.082 111.378 86.97 112.19 86.844 113.058C85.92 112.96 85.22 112.834 84.366 112.526C84.352 112.778 84.352 113.058 84.38 113.31C84.394 113.436 84.436 113.478 84.506 113.492C85.178 113.688 85.836 113.814 86.732 113.926C86.676 114.514 86.592 115.158 86.592 115.662C86.592 117.51 87.614 118.462 89.798 118.462C91.828 118.462 93.424 117.314 93.424 115.424C93.424 114.598 93.116 113.73 92.262 112.89C92.192 112.834 92.122 112.834 92.024 112.848C91.716 112.89 91.492 112.932 91.156 112.904C92.206 113.954 92.444 114.668 92.444 115.41C92.444 116.88 91.156 117.566 89.644 117.566C88.23 117.566 87.474 117.076 87.474 115.648C87.474 115.214 87.558 114.542 87.614 113.982ZM104.193 115.2C103.759 115.102 103.213 115.032 102.793 115.032C101.421 115.032 100.413 115.746 100.413 116.796C100.413 117.958 101.519 118.504 102.583 118.504C104.389 118.504 105.103 117.734 105.089 116.32C105.831 116.656 106.587 117.09 107.217 117.65C107.301 117.72 107.371 117.734 107.441 117.636C107.553 117.454 107.707 117.202 107.777 117.02C107.819 116.908 107.833 116.866 107.721 116.796C106.881 116.208 106.097 115.802 105.075 115.396C104.977 114.5 104.907 113.66 104.907 112.82C104.907 112.54 104.907 112.316 104.963 112.162C105.019 112.036 105.047 111.966 105.047 111.91C105.047 111.826 104.991 111.77 104.893 111.742C104.599 111.644 104.319 111.602 103.941 111.56C104.011 111.924 104.025 112.176 104.025 112.456C104.039 113.212 104.109 114.332 104.193 115.2ZM104.207 116.04C104.221 116.11 104.221 116.194 104.221 116.376C104.221 117.09 103.801 117.692 102.653 117.692C101.729 117.692 101.211 117.398 101.211 116.754C101.211 116.236 101.715 115.802 102.835 115.802C103.283 115.802 103.773 115.9 104.207 116.04ZM101.225 109.418C101.365 108.928 101.519 108.41 101.673 107.906C101.757 107.654 101.799 107.556 101.869 107.472C101.953 107.388 101.981 107.332 101.981 107.262C101.981 107.192 101.939 107.136 101.855 107.108C101.575 106.996 101.169 106.898 100.763 106.828C100.777 107.234 100.735 107.514 100.651 107.92C100.525 108.508 100.399 109.026 100.231 109.558C99.5447 109.628 98.9707 109.67 98.3267 109.67C98.0327 109.67 97.6687 109.656 97.2207 109.614C97.2347 109.88 97.2627 110.132 97.3047 110.314C97.3327 110.454 97.3467 110.468 97.4727 110.482C97.7947 110.51 98.0047 110.51 98.2147 110.51C98.8167 110.51 99.3767 110.468 99.9787 110.412C99.3067 112.218 98.5087 113.87 97.3467 115.62C97.2767 115.732 97.2767 115.788 97.3607 115.858C97.4867 115.984 97.7107 116.152 97.9207 116.278C98.0047 116.334 98.0747 116.348 98.1447 116.236C99.1387 114.64 100.147 112.526 100.959 110.328C101.785 110.202 102.541 110.076 103.297 109.922C103.409 109.908 103.437 109.88 103.423 109.754C103.409 109.572 103.381 109.32 103.353 109.152C103.339 109.068 103.297 109.04 103.171 109.068C102.457 109.236 101.855 109.334 101.225 109.418ZM104.851 110.174C105.859 110.482 106.895 110.986 107.707 111.602C107.791 111.658 107.833 111.672 107.903 111.574C108.015 111.42 108.141 111.196 108.225 111.014C108.295 110.902 108.295 110.846 108.197 110.762C107.399 110.188 106.391 109.74 105.453 109.446C105.327 109.404 105.285 109.418 105.215 109.53C105.103 109.698 104.991 109.936 104.851 110.174ZM117.733 106.926C117.565 107.262 117.397 107.5 117.117 107.794C115.871 109.054 114.345 110.538 113.211 111.742C112.889 112.078 112.721 112.316 112.721 112.652C112.721 112.988 112.889 113.24 113.267 113.534C114.919 114.78 116.725 116.278 118.545 118.28C118.643 118.406 118.699 118.392 118.811 118.308C118.951 118.182 119.175 117.972 119.343 117.776C119.455 117.636 119.427 117.608 119.329 117.496C117.509 115.648 115.647 114.15 113.925 112.876C113.799 112.792 113.743 112.722 113.743 112.624C113.743 112.526 113.799 112.414 113.939 112.274C114.989 111.154 116.697 109.572 118.069 108.326C118.279 108.13 118.419 108.032 118.587 107.962C118.671 107.92 118.727 107.864 118.727 107.78C118.727 107.724 118.685 107.654 118.629 107.598C118.433 107.402 118.055 107.136 117.733 106.926ZM133.962 111.224C135.306 111.224 135.754 111.252 135.824 111.252C135.922 111.252 135.936 111.238 135.936 111.126V110.482C135.936 110.384 135.922 110.37 135.824 110.37C135.754 110.37 135.306 110.398 133.962 110.398H130.196C130.28 109.67 130.322 108.914 130.336 108.13C130.35 107.486 130.378 107.22 130.448 107.08C130.49 106.982 130.532 106.926 130.532 106.814C130.532 106.744 130.476 106.688 130.336 106.66C130.056 106.618 129.664 106.59 129.342 106.576C129.412 106.996 129.426 107.374 129.412 108.158C129.398 108.956 129.37 109.698 129.3 110.398H125.996C124.652 110.398 124.204 110.37 124.134 110.37C124.036 110.37 124.022 110.384 124.022 110.482V111.126C124.022 111.238 124.036 111.252 124.134 111.252C124.204 111.252 124.652 111.224 125.996 111.224H129.202C129.048 112.232 128.796 113.128 128.39 113.968C127.578 115.648 126.094 117.132 123.728 118.112C123.91 118.238 124.092 118.392 124.246 118.588C124.344 118.728 124.386 118.784 124.456 118.784C124.512 118.784 124.568 118.756 124.68 118.714C126.836 117.636 128.236 116.306 129.202 114.318C129.538 113.618 129.79 112.82 129.972 111.952C130.882 114.962 132.912 117.398 135.334 118.672C135.432 118.728 135.502 118.756 135.544 118.756C135.614 118.756 135.656 118.7 135.74 118.546C135.88 118.322 136.062 118.112 136.244 117.958C133.402 116.838 131.358 114.15 130.462 111.224H133.962ZM142.967 108.97C141.945 109.124 140.545 109.292 139.215 109.306C139.257 109.558 139.313 109.838 139.341 109.95C139.369 110.076 139.411 110.09 139.523 110.09C140.769 110.048 142.071 109.894 143.205 109.684C143.429 110.244 143.667 110.79 143.891 111.266C142.617 111.504 141.343 111.644 139.901 111.686C139.915 111.896 139.971 112.176 140.027 112.344C140.069 112.47 140.083 112.484 140.195 112.484C141.497 112.442 142.827 112.274 144.241 112.022C144.759 112.974 145.277 113.744 145.823 114.346C145.109 113.996 144.115 113.828 142.925 113.828C140.881 113.828 139.691 114.668 139.691 116.04C139.691 117.65 141.301 118.406 144.101 118.406C144.633 118.406 144.969 118.378 145.333 118.35C145.459 118.336 145.487 118.294 145.515 118.182C145.585 117.972 145.641 117.706 145.669 117.51C145.683 117.412 145.669 117.342 145.557 117.356C145.095 117.398 144.633 117.44 144.129 117.44C141.903 117.44 140.587 117.048 140.587 115.97C140.587 115.004 141.525 114.584 142.981 114.584C144.087 114.584 144.913 114.724 145.655 115.004C146.005 115.144 146.369 115.312 146.649 115.508C146.775 115.62 146.845 115.606 146.957 115.48C147.083 115.326 147.209 115.13 147.293 114.934C147.349 114.822 147.321 114.78 147.237 114.696C146.369 113.968 145.599 112.862 145.053 111.84C145.935 111.644 146.859 111.392 147.713 111.112C147.825 111.07 147.839 111.014 147.825 110.916C147.797 110.734 147.755 110.566 147.699 110.384C147.657 110.286 147.615 110.272 147.503 110.314C146.649 110.65 145.753 110.902 144.717 111.112C144.451 110.566 144.227 110.034 144.059 109.53C145.053 109.306 146.033 109.068 147.069 108.746C147.167 108.718 147.209 108.662 147.195 108.55C147.167 108.396 147.125 108.2 147.069 108.032C147.041 107.934 146.999 107.948 146.915 107.976C145.795 108.354 144.815 108.578 143.821 108.788C143.737 108.494 143.653 108.242 143.555 107.878C143.471 107.542 143.443 107.416 143.443 107.29C143.443 107.206 143.471 107.122 143.471 107.066C143.471 106.968 143.373 106.898 143.233 106.898C142.967 106.898 142.547 106.926 142.141 106.996C142.365 107.276 142.477 107.5 142.603 107.892C142.757 108.34 142.855 108.648 142.967 108.97ZM158.859 115.2C158.425 115.102 157.879 115.032 157.459 115.032C156.087 115.032 155.079 115.746 155.079 116.796C155.079 117.958 156.185 118.504 157.249 118.504C159.055 118.504 159.769 117.734 159.755 116.32C160.497 116.656 161.253 117.09 161.883 117.65C161.967 117.72 162.037 117.734 162.107 117.636C162.219 117.454 162.373 117.202 162.443 117.02C162.485 116.908 162.499 116.866 162.387 116.796C161.547 116.208 160.763 115.802 159.741 115.396C159.643 114.5 159.573 113.66 159.573 112.82C159.573 112.54 159.573 112.316 159.629 112.162C159.685 112.036 159.713 111.966 159.713 111.91C159.713 111.826 159.657 111.77 159.559 111.742C159.265 111.644 158.985 111.602 158.607 111.56C158.677 111.924 158.691 112.176 158.691 112.456C158.705 113.212 158.775 114.332 158.859 115.2ZM158.873 116.04C158.887 116.11 158.887 116.194 158.887 116.376C158.887 117.09 158.467 117.692 157.319 117.692C156.395 117.692 155.877 117.398 155.877 116.754C155.877 116.236 156.381 115.802 157.501 115.802C157.949 115.802 158.439 115.9 158.873 116.04ZM155.891 109.418C156.031 108.928 156.185 108.41 156.339 107.906C156.423 107.654 156.465 107.556 156.535 107.472C156.619 107.388 156.647 107.332 156.647 107.262C156.647 107.192 156.605 107.136 156.521 107.108C156.241 106.996 155.835 106.898 155.429 106.828C155.443 107.234 155.401 107.514 155.317 107.92C155.191 108.508 155.065 109.026 154.897 109.558C154.211 109.628 153.637 109.67 152.993 109.67C152.699 109.67 152.335 109.656 151.887 109.614C151.901 109.88 151.929 110.132 151.971 110.314C151.999 110.454 152.013 110.468 152.139 110.482C152.461 110.51 152.671 110.51 152.881 110.51C153.483 110.51 154.043 110.468 154.645 110.412C153.973 112.218 153.175 113.87 152.013 115.62C151.943 115.732 151.943 115.788 152.027 115.858C152.153 115.984 152.377 116.152 152.587 116.278C152.671 116.334 152.741 116.348 152.811 116.236C153.805 114.64 154.813 112.526 155.625 110.328C156.451 110.202 157.207 110.076 157.963 109.922C158.075 109.908 158.103 109.88 158.089 109.754C158.075 109.572 158.047 109.32 158.019 109.152C158.005 109.068 157.963 109.04 157.837 109.068C157.123 109.236 156.521 109.334 155.891 109.418ZM159.517 110.174C160.525 110.482 161.561 110.986 162.373 111.602C162.457 111.658 162.499 111.672 162.569 111.574C162.681 111.42 162.807 111.196 162.891 111.014C162.961 110.902 162.961 110.846 162.863 110.762C162.065 110.188 161.057 109.74 160.119 109.446C159.993 109.404 159.951 109.418 159.881 109.53C159.769 109.698 159.657 109.936 159.517 110.174ZM176.67 113.366C176.67 113.072 176.698 112.918 176.698 112.834C176.698 112.736 176.684 112.722 176.586 112.722C176.516 112.722 176.026 112.75 174.654 112.75H167.36C165.988 112.75 165.498 112.722 165.414 112.722C165.316 112.722 165.302 112.736 165.302 112.834C165.302 112.918 165.33 113.072 165.33 113.422V113.758C165.33 114.766 165.302 114.892 165.302 114.976C165.302 115.074 165.316 115.088 165.414 115.088H166.03C166.128 115.088 166.142 115.074 166.142 114.976V113.45H169.936C168.942 114.668 167.584 115.564 165.946 116.138C166.1 116.25 166.24 116.376 166.352 116.544C166.436 116.67 166.478 116.712 166.548 116.712C166.604 116.712 166.66 116.684 166.772 116.642C167.766 116.18 168.564 115.704 169.264 115.13H173.142C172.512 115.83 171.84 116.404 171.056 116.866C170.51 116.474 169.824 116.054 169.25 115.788C169.166 115.746 169.138 115.76 169.04 115.844L168.774 116.082C168.634 116.194 168.634 116.236 168.746 116.292C169.25 116.544 169.81 116.894 170.3 117.272C169.208 117.776 167.878 118.14 166.114 118.378C166.24 118.49 166.38 118.686 166.464 118.868C166.576 119.106 166.604 119.106 166.856 119.064C170.524 118.392 172.12 117.384 173.912 115.466C174.094 115.284 174.164 115.228 174.29 115.172C174.388 115.13 174.43 115.074 174.43 115.004C174.43 114.934 174.388 114.878 174.178 114.668C173.954 114.444 173.87 114.388 173.758 114.388C173.702 114.388 173.674 114.402 173.604 114.43C173.534 114.458 173.436 114.458 173.324 114.458H170.006C170.314 114.15 170.608 113.814 170.888 113.45H175.844V114.99C175.844 115.088 175.858 115.102 175.956 115.102H176.586C176.684 115.102 176.698 115.088 176.698 114.99C176.698 114.92 176.67 114.78 176.67 113.758V113.366ZM175.536 110.342C175.536 109.74 175.564 109.558 175.564 109.488C175.564 109.39 175.55 109.376 175.452 109.376C175.382 109.376 174.878 109.404 173.464 109.404H168.522C167.108 109.404 166.604 109.376 166.534 109.376C166.436 109.376 166.422 109.39 166.422 109.488C166.422 109.558 166.45 109.74 166.45 110.342V111.056C166.45 111.672 166.422 111.84 166.422 111.924C166.422 112.008 166.436 112.022 166.534 112.022C166.604 112.022 167.108 111.994 168.522 111.994H173.464C174.878 111.994 175.382 112.022 175.452 112.022C175.55 112.022 175.564 112.008 175.564 111.924C175.564 111.84 175.536 111.672 175.536 111.056V110.342ZM174.724 111.378H172.68V110.02H174.724V111.378ZM171.896 111.378H169.936V110.02H171.896V111.378ZM169.152 111.378H167.262V110.02H169.152V111.378ZM177.104 107.57C177.104 107.472 177.09 107.458 176.992 107.458C176.908 107.458 176.474 107.486 175.158 107.486H173.282C173.282 107.136 173.296 106.912 173.352 106.786C173.394 106.702 173.408 106.632 173.408 106.59C173.408 106.506 173.352 106.478 173.268 106.464C173.044 106.436 172.722 106.408 172.414 106.394C172.47 106.73 172.498 107.08 172.498 107.486H169.446C169.446 107.122 169.46 106.898 169.53 106.772C169.572 106.688 169.6 106.632 169.6 106.576C169.6 106.506 169.53 106.464 169.432 106.45C169.208 106.422 168.886 106.394 168.578 106.38C168.648 106.716 168.662 107.066 168.662 107.486H166.856C165.54 107.486 165.092 107.458 165.022 107.458C164.924 107.458 164.91 107.472 164.91 107.57V108.102C164.91 108.2 164.924 108.214 165.022 108.214C165.092 108.214 165.54 108.186 166.856 108.186H168.662C168.662 108.62 168.648 108.844 168.648 108.914C168.648 109.012 168.662 109.026 168.746 109.026H169.362C169.46 109.026 169.474 109.012 169.474 108.914C169.474 108.844 169.446 108.634 169.446 108.186H172.498C172.484 108.648 172.47 108.858 172.47 108.914C172.47 109.012 172.484 109.026 172.582 109.026H173.184C173.296 109.026 173.31 109.012 173.31 108.914C173.31 108.858 173.282 108.648 173.282 108.186H175.158C176.474 108.186 176.908 108.214 176.992 108.214C177.09 108.214 177.104 108.2 177.104 108.102V107.57ZM186.417 109.362C184.219 110.524 183.001 112.148 183.001 114.122C183.001 116.95 185.549 117.958 187.915 118.168C188.069 118.182 188.111 118.126 188.139 117.972C188.181 117.776 188.223 117.454 188.223 117.3C188.223 117.188 188.181 117.16 187.999 117.146C185.955 116.978 183.925 116.292 183.925 113.968C183.925 112.092 185.493 110.37 187.537 109.558C188.265 109.264 188.825 109.18 189.581 109.138C189.721 109.124 189.763 109.096 189.763 108.97C189.763 108.788 189.721 108.452 189.679 108.27C189.651 108.186 189.581 108.144 189.441 108.158C185.689 108.62 182.847 109.04 180.761 109.376C179.893 109.502 179.529 109.544 179.025 109.544C179.151 109.922 179.277 110.258 179.417 110.538C179.459 110.608 179.529 110.664 179.613 110.664C179.697 110.664 179.781 110.608 179.879 110.566C180.047 110.482 180.215 110.426 180.719 110.328C182.483 109.964 184.303 109.67 186.403 109.334L186.417 109.362ZM187.593 111.686C188.223 112.134 188.811 112.792 189.217 113.478C189.259 113.548 189.329 113.562 189.399 113.506L189.805 113.17C189.861 113.128 189.875 113.072 189.833 113.016C189.427 112.4 188.811 111.714 188.251 111.322C188.195 111.28 188.153 111.28 188.111 111.308L187.593 111.686ZM188.825 110.748C189.483 111.238 190.085 111.924 190.435 112.498C190.491 112.582 190.547 112.582 190.603 112.526L190.981 112.19C191.051 112.134 191.065 112.092 191.023 112.022C190.617 111.434 189.987 110.818 189.427 110.384C189.371 110.342 189.329 110.356 189.273 110.398L188.825 110.748ZM196.947 113.982C197.731 114.01 198.613 114.024 199.341 113.968C199.411 113.968 199.453 113.94 199.467 113.814C199.481 113.646 199.495 113.352 199.495 113.198C199.495 113.114 199.453 113.086 199.327 113.1C198.585 113.17 197.843 113.156 197.059 113.128C197.185 112.274 197.311 111.42 197.423 110.734C198.025 110.762 198.809 110.762 199.467 110.72C199.551 110.72 199.607 110.692 199.607 110.58C199.621 110.384 199.621 110.146 199.621 109.936C199.621 109.852 199.593 109.824 199.537 109.824C198.907 109.88 198.193 109.894 197.577 109.852C197.661 109.264 197.731 108.858 197.829 108.312C197.899 107.934 197.969 107.78 198.081 107.654C198.137 107.584 198.179 107.528 198.179 107.458C198.179 107.374 198.095 107.29 197.969 107.234C197.731 107.122 197.283 106.968 196.877 106.898C196.933 107.29 196.919 107.682 196.863 108.088C196.807 108.69 196.765 109.026 196.653 109.782C195.743 109.684 194.861 109.558 193.965 109.236C193.965 109.516 193.979 109.81 193.993 110.02C194.007 110.16 194.021 110.174 194.119 110.202C194.833 110.44 195.589 110.552 196.499 110.65C196.415 111.378 196.303 112.19 196.177 113.058C195.253 112.96 194.553 112.834 193.699 112.526C193.685 112.778 193.685 113.058 193.713 113.31C193.727 113.436 193.769 113.478 193.839 113.492C194.511 113.688 195.169 113.814 196.065 113.926C196.009 114.514 195.925 115.158 195.925 115.662C195.925 117.51 196.947 118.462 199.131 118.462C201.161 118.462 202.757 117.314 202.757 115.424C202.757 114.598 202.449 113.73 201.595 112.89C201.525 112.834 201.455 112.834 201.357 112.848C201.049 112.89 200.825 112.932 200.489 112.904C201.539 113.954 201.777 114.668 201.777 115.41C201.777 116.88 200.489 117.566 198.977 117.566C197.563 117.566 196.807 117.076 196.807 115.648C196.807 115.214 196.891 114.542 196.947 113.982ZM218.272 115.886C218.272 115.788 218.258 115.774 218.16 115.774C218.104 115.774 217.81 115.802 217.04 115.802V114.346C217.04 113.254 217.068 112.778 217.068 112.694C217.068 112.596 217.054 112.582 216.956 112.582C216.872 112.582 216.438 112.61 215.136 112.61H213.946V111.602H216.144C217.558 111.602 218.034 111.63 218.104 111.63C218.202 111.63 218.216 111.616 218.216 111.518V111.098C218.216 111 218.202 110.986 218.104 110.986C218.034 110.986 217.558 111.014 216.158 111.014H215.388V109.95H215.514C216.858 109.95 217.306 109.978 217.376 109.978C217.474 109.978 217.488 109.964 217.488 109.866V109.446C217.488 109.348 217.474 109.334 217.376 109.334C217.306 109.334 216.858 109.362 215.514 109.362H215.388V108.41H215.906C217.292 108.41 217.768 108.438 217.852 108.438C217.936 108.438 217.95 108.424 217.95 108.312V107.906C217.95 107.808 217.936 107.794 217.852 107.794C217.768 107.794 217.292 107.822 215.906 107.822H215.388C215.388 107.248 215.402 106.954 215.458 106.856C215.514 106.758 215.542 106.702 215.542 106.604C215.542 106.562 215.486 106.52 215.374 106.506C215.15 106.464 214.884 106.436 214.562 106.422C214.632 106.73 214.646 107.136 214.646 107.822H212.616C212.616 107.248 212.63 106.982 212.7 106.856C212.742 106.758 212.77 106.702 212.77 106.604C212.77 106.562 212.714 106.52 212.602 106.506C212.392 106.464 212.098 106.436 211.776 106.422C211.846 106.73 211.874 107.136 211.874 107.822C210.516 107.822 210.054 107.794 209.97 107.794C209.872 107.794 209.858 107.808 209.858 107.906V108.312C209.858 108.424 209.872 108.438 209.97 108.438C210.054 108.438 210.516 108.41 211.874 108.41V109.362C210.796 109.362 210.39 109.334 210.334 109.334C210.236 109.334 210.222 109.348 210.222 109.446V109.866C210.222 109.964 210.236 109.978 210.334 109.978C210.39 109.978 210.796 109.964 211.874 109.95V111.014H211.594C210.194 111.014 209.718 110.986 209.648 110.986C209.55 110.986 209.536 111 209.536 111.098V111.518C209.536 111.616 209.55 111.63 209.648 111.63C209.718 111.63 210.194 111.602 211.594 111.602H213.204V112.61H212.224C210.936 112.61 210.488 112.582 210.404 112.582C210.306 112.582 210.292 112.596 210.292 112.694C210.292 112.778 210.32 113.17 210.32 114.262V115.802C209.69 115.788 209.424 115.774 209.382 115.774C209.284 115.774 209.27 115.788 209.27 115.886V116.306C209.27 116.404 209.284 116.418 209.382 116.418C209.424 116.418 209.69 116.404 210.32 116.404V117.356C210.32 118.434 210.292 118.798 210.292 118.868C210.292 118.966 210.306 118.98 210.404 118.98H211.006C211.104 118.98 211.118 118.966 211.118 118.868C211.118 118.798 211.09 118.364 211.09 117.314V116.39H216.27V117.622C216.27 118 216.172 118.126 215.71 118.126C215.304 118.126 214.968 118.112 214.618 118.084C214.716 118.224 214.814 118.392 214.856 118.588C214.926 118.868 214.926 118.868 215.206 118.868C216.242 118.854 216.55 118.798 216.774 118.616C216.97 118.434 217.054 118.21 217.054 117.692C217.054 117.398 217.04 116.908 217.04 116.39C217.81 116.404 218.104 116.418 218.16 116.418C218.258 116.418 218.272 116.404 218.272 116.306V115.886ZM216.27 115.802H213.946V114.738H216.27V115.802ZM216.27 114.206H213.946V113.212H216.27V114.206ZM213.204 115.802H211.09V114.738H213.204V115.802ZM214.646 111.014H212.616V109.95H214.646V111.014ZM213.204 114.206H211.09V113.212H213.204V114.206ZM214.646 109.362H212.616V108.41H214.646V109.362ZM209.774 109.516C209.774 109.404 209.76 109.39 209.662 109.39C209.578 109.39 209.312 109.418 208.416 109.418V108.06C208.416 107.262 208.43 107.01 208.486 106.87C208.528 106.786 208.57 106.716 208.57 106.618C208.57 106.548 208.514 106.506 208.402 106.492C208.15 106.45 207.87 106.422 207.52 106.408C207.618 106.842 207.632 107.248 207.632 108.074V109.418H207.212C206.274 109.418 206.008 109.39 205.938 109.39C205.84 109.39 205.826 109.404 205.826 109.516V110.062C205.826 110.16 205.84 110.174 205.938 110.174C206.008 110.174 206.274 110.146 207.212 110.146H207.52C206.974 112.26 206.246 113.842 205.462 115.144C205.602 115.256 205.742 115.466 205.826 115.69C205.854 115.788 205.896 115.83 205.938 115.83C205.98 115.83 206.022 115.774 206.078 115.676C206.82 114.29 207.31 112.89 207.716 111.252C207.688 115.27 207.576 118.686 207.576 118.896C207.576 118.98 207.59 118.994 207.688 118.994H208.36C208.444 118.994 208.458 118.98 208.458 118.896C208.458 118.686 208.332 115.284 208.318 111.126C208.598 112.134 208.948 113.016 209.354 113.758C209.41 113.856 209.438 113.912 209.48 113.912C209.508 113.912 209.55 113.856 209.606 113.744C209.69 113.576 209.816 113.338 209.956 113.198C209.27 112.358 208.808 111.308 208.43 110.146C209.312 110.146 209.578 110.174 209.662 110.174C209.76 110.174 209.774 110.16 209.774 110.062V109.516ZM220.641 108.438C220.739 108.914 220.753 109.25 220.753 109.782C220.753 110.706 220.809 112.288 221.005 113.688C221.313 115.886 222.195 117.51 223.371 117.51C224.309 117.51 225.065 116.446 225.457 115.312C225.499 115.172 225.457 115.06 225.345 114.962C225.163 114.794 225.037 114.626 224.883 114.262C224.477 115.564 223.945 116.46 223.385 116.46C222.713 116.46 222.111 115.256 221.901 113.604C221.719 112.176 221.705 111.322 221.705 110.426C221.705 109.698 221.761 109.306 221.817 109.138C221.845 109.04 221.873 108.956 221.873 108.886C221.873 108.83 221.831 108.774 221.747 108.732C221.481 108.606 221.033 108.48 220.641 108.438ZM227.809 110.188C229.167 111.42 230.049 112.904 230.441 115.046C230.455 115.144 230.525 115.186 230.623 115.158C230.861 115.074 231.057 114.976 231.267 114.836C231.337 114.794 231.379 114.752 231.365 114.654C231.015 112.778 230.063 111.056 228.635 109.81C228.579 109.754 228.509 109.768 228.425 109.81C228.285 109.88 228.075 110.006 227.809 110.188ZM239.067 115.256C238.661 115.186 238.157 115.144 237.597 115.144C235.973 115.144 235.021 115.942 235.021 116.852C235.021 117.888 235.861 118.518 237.499 118.518C239.193 118.518 240.019 117.902 240.005 116.334C241.125 116.712 242.063 117.23 243.197 118.112C243.281 118.168 243.337 118.154 243.407 118.07C243.547 117.916 243.701 117.65 243.757 117.468C243.799 117.342 243.771 117.286 243.701 117.23C242.539 116.362 241.223 115.774 239.963 115.424C239.907 114.584 239.865 113.856 239.865 112.988C240.985 112.918 241.965 112.792 242.959 112.61C243.057 112.596 243.099 112.554 243.099 112.47C243.099 112.232 243.085 111.966 243.085 111.798C243.071 111.728 243.029 111.7 242.931 111.728C241.853 111.938 240.915 112.064 239.837 112.134C239.823 111.476 239.823 110.748 239.823 110.062C241.111 109.978 242.245 109.838 243.337 109.656C243.379 109.656 243.435 109.628 243.435 109.516C243.435 109.348 243.421 109.124 243.393 108.9C243.379 108.802 243.351 108.774 243.239 108.802C242.245 108.984 241.097 109.166 239.823 109.264C239.837 108.788 239.837 108.48 239.865 108.032C239.879 107.752 239.935 107.542 240.033 107.388C240.103 107.276 240.061 107.122 239.907 107.066C239.641 106.982 239.263 106.926 238.801 106.884C238.885 107.164 238.913 107.402 238.927 107.808C238.927 108.326 238.941 108.718 238.941 109.292C237.597 109.348 236.281 109.334 235.049 109.18C235.049 109.488 235.077 109.698 235.105 109.908C235.119 110.006 235.147 110.034 235.231 110.048C236.379 110.16 237.583 110.174 238.941 110.118C238.941 110.79 238.955 111.518 238.955 112.204C237.863 112.26 236.603 112.232 235.567 112.106C235.567 112.302 235.581 112.638 235.609 112.82C235.623 112.946 235.651 112.988 235.763 112.988C236.771 113.072 237.905 113.072 238.983 113.03C238.997 113.842 239.025 114.458 239.067 115.256ZM239.081 116.096C239.123 116.67 238.997 117.02 238.829 117.23C238.577 117.524 238.045 117.664 237.401 117.664C236.379 117.664 235.833 117.384 235.833 116.796C235.833 116.292 236.421 115.914 237.597 115.914C238.101 115.914 238.591 115.984 239.081 116.096ZM254.932 110.538C253.644 110.664 252.104 110.846 250.9 111C250.914 110.482 250.914 110.048 250.942 109.474C250.956 109.222 250.97 109.054 251.04 108.858C251.068 108.76 251.124 108.662 251.124 108.564C251.124 108.48 251.04 108.382 250.928 108.354C250.648 108.27 250.228 108.2 249.822 108.172C249.962 108.676 249.976 108.956 249.99 109.544C249.99 110.062 249.99 110.58 249.976 111.126C249.29 111.238 248.59 111.378 247.848 111.476C247.47 111.532 247.12 111.56 246.812 111.56C246.868 111.882 246.98 112.204 247.064 112.428C247.12 112.554 247.204 112.582 247.344 112.54C247.582 112.456 247.792 112.4 247.988 112.358C248.632 112.218 249.234 112.12 249.976 112.008C249.976 113.492 249.976 115.018 250.046 115.634C250.214 117.314 250.886 117.86 253.588 117.86C254.848 117.86 256.164 117.776 256.976 117.664C257.074 117.65 257.102 117.608 257.102 117.468C257.102 117.314 257.088 116.992 257.06 116.81C257.046 116.698 257.004 116.67 256.836 116.684C255.8 116.838 254.624 116.936 253.448 116.936C251.39 116.936 251.026 116.628 250.928 115.466C250.858 114.668 250.872 113.352 250.9 111.868C252.188 111.672 253.588 111.504 254.904 111.392C254.89 112.05 254.834 112.792 254.764 113.324C254.694 113.898 254.512 114.122 254.092 114.122C253.658 114.122 253.224 114.038 252.734 113.898C252.846 114.178 252.93 114.43 252.958 114.682C252.972 114.836 253 114.906 253.126 114.934C253.476 114.99 253.798 115.032 254.176 115.032C255.002 115.032 255.506 114.654 255.646 113.632C255.716 113.1 255.772 112.232 255.814 111.322C256.85 111.238 257.774 111.196 258.74 111.196C258.852 111.196 258.88 111.154 258.88 111.028C258.894 110.846 258.894 110.608 258.88 110.412C258.88 110.3 258.852 110.272 258.74 110.272C257.816 110.3 256.92 110.37 255.856 110.454C255.884 109.642 255.898 108.9 255.912 108.06C255.926 107.85 255.954 107.668 256.024 107.556C256.066 107.5 256.108 107.416 256.108 107.332C256.108 107.234 256.066 107.192 255.926 107.15C255.688 107.066 255.352 107.01 254.834 106.94C254.932 107.318 254.96 107.654 254.96 108.102C254.96 108.844 254.96 109.684 254.932 110.538ZM263.099 113.8C263.925 112.33 264.863 110.538 265.829 108.732C265.997 108.41 266.123 108.27 266.249 108.158C266.389 108.018 266.375 107.864 266.221 107.752C265.997 107.584 265.591 107.374 265.213 107.22C265.143 107.668 265.003 108.074 264.667 108.83C263.701 110.888 262.217 113.842 260.411 117.37C260.355 117.468 260.355 117.538 260.439 117.608C260.607 117.748 260.859 117.888 261.055 117.972C261.181 118.028 261.251 118.014 261.307 117.874C261.979 116.404 262.553 115.368 263.029 114.78C263.729 113.954 264.345 113.576 264.961 113.576C265.703 113.576 266.025 114.122 266.179 115.536C266.361 117.244 266.837 118.07 268.181 118.07C269.245 118.07 270.043 117.58 270.631 116.838C271.093 116.292 271.457 115.676 271.737 114.934C271.793 114.766 271.779 114.654 271.667 114.57C271.485 114.416 271.317 114.206 271.163 113.828C270.841 114.892 270.393 115.634 269.987 116.138C269.525 116.684 269.021 117.104 268.195 117.104C267.411 117.104 267.187 116.418 267.075 115.228C266.935 113.814 266.487 112.806 265.101 112.806C264.401 112.806 263.743 113.198 263.127 113.828L263.099 113.8ZM275.31 115.326C274.232 115.326 273.336 116.194 273.336 117.272C273.336 118.35 274.232 119.218 275.31 119.218C276.388 119.218 277.284 118.35 277.284 117.272C277.284 116.194 276.388 115.326 275.31 115.326ZM275.31 116.026C276.01 116.026 276.556 116.586 276.556 117.272C276.556 117.958 276.01 118.518 275.31 118.518C274.624 118.518 274.064 117.958 274.064 117.272C274.064 116.586 274.624 116.026 275.31 116.026Z" fill="#565656"/>
<path d="M344.958 154.283C344.961 153.792 344.879 153.306 344.719 152.855C344.558 152.404 344.321 151.998 344.023 151.661C343.725 151.324 343.373 151.065 342.988 150.899C342.603 150.733 342.193 150.664 341.785 150.697C341.376 150.729 340.978 150.862 340.615 151.087C340.251 151.312 339.93 151.625 339.672 152.006C339.413 152.386 339.223 152.826 339.113 153.299C339.003 153.772 338.976 154.266 339.033 154.752L330.479 168.181C330.114 169.056 329.973 170.041 330.072 171.012C330.172 171.983 330.509 172.897 331.04 173.64L331.711 174.578L334.789 173.84L338.278 170.149L337.868 165.966L342.178 157.846L342.172 157.84C342.927 157.783 343.635 157.383 344.152 156.722C344.67 156.061 344.958 155.189 344.958 154.283V154.283Z" fill="#FFB9B9"/>
<path d="M285.81 219.934L284.414 213.717L303.75 204.303L305.811 213.478L285.81 219.934Z" fill="#FFB8B8"/>
<path d="M281.138 223.142L276.636 203.097L276.848 203.028C278.574 202.471 280.414 202.759 281.963 203.828C283.512 204.897 284.643 206.66 285.108 208.729L285.108 208.73L287.858 220.973L281.138 223.142Z" fill="#2F2E41"/>
<path d="M312.443 218.941L308.1 215.154L318.216 193.269L324.626 198.857L312.443 218.941Z" fill="#FFB8B8"/>
<path d="M310.491 224.954L296.487 212.745L296.616 212.532C297.667 210.799 299.25 209.638 301.015 209.304C302.781 208.969 304.585 209.489 306.031 210.75L306.031 210.75L314.584 218.207L310.491 224.954Z" fill="#2F2E41"/>
<path d="M349.362 188.358L338.433 175.629C337.479 174.519 336.223 173.858 334.895 173.769C333.567 173.68 332.258 174.169 331.206 175.146L310.571 202.629L312.418 206.074L332.121 190.08L345.462 210.995L358.187 203.367L349.362 188.358Z" fill="#2F2E41"/>
<path d="M344.642 191.064L336.638 190.326L330.841 188.641C330.513 188.029 330.038 187.551 329.477 187.271C328.917 186.992 328.299 186.924 327.706 187.078C327.113 187.231 326.573 187.598 326.159 188.129C325.744 188.661 325.475 189.331 325.387 190.051C325.3 190.771 325.397 191.506 325.668 192.157C325.938 192.808 326.367 193.345 326.899 193.696C327.431 194.046 328.039 194.193 328.643 194.118C329.246 194.043 329.816 193.748 330.276 193.273L330.275 193.278L333.764 195.001L348.747 201.152L350.594 199.43L344.642 191.064Z" fill="#FFB9B9"/>
<path d="M363.934 217.639L359.419 221.084H354.082L329.248 210.011L292.92 217.885L291.893 208.534L325.143 191.064L354.288 202.629L363.934 217.639Z" fill="#2F2E41"/>
<path d="M354.289 157.846C358.709 157.846 362.293 153.55 362.293 148.25C362.293 142.95 358.709 138.654 354.289 138.654C349.868 138.654 346.284 142.95 346.284 148.25C346.284 153.55 349.868 157.846 354.289 157.846Z" fill="#FFB9B9"/>
<path d="M375 186.564C375 192.356 374.239 198.111 372.744 203.619L372.145 205.828L369.272 221.576L366.193 222.561L363.935 219.116L359.42 215.179L356.136 208.781L353.32 203.156L352.442 201.399L349.363 182.945L337.664 175.071L333.764 174.333L334.585 171.626L338.075 165.967L341.564 165.475L342.59 164.49L343.411 164.983L347.937 167.073L362.609 159.641L364.756 160.061L372.145 167.443C374.034 173.564 375.001 180.038 375 186.564V186.564Z" fill="#CCCCCC"/>
<path opacity="0.1" d="M372.759 184.421L364.96 190.572L353.319 203.156L352.44 201.399L349.977 186.636H350.593L356.956 172.61L372.759 184.421Z" fill="black"/>
<path d="M356.956 171.134L350.593 185.159L346.899 190.08L343.615 191.065L352.441 202.629L364.96 189.096L372.76 182.944L356.956 171.134Z" fill="#CCCCCC"/>
<path d="M348.063 141.115L347.196 141.515C347.064 141.408 346.951 141.271 346.864 141.112C346.776 140.953 346.716 140.775 346.686 140.588C346.656 140.4 346.656 140.208 346.688 140.021C346.72 139.834 346.783 139.657 346.872 139.499C346.877 139.491 346.881 139.483 346.886 139.475L345.283 139.385C346.312 137.742 347.62 136.38 349.121 135.389C350.622 134.397 352.281 133.799 353.989 133.634C355.697 133.469 357.415 133.741 359.028 134.431C360.642 135.122 362.115 136.215 363.35 137.639C363.423 137.338 364.219 137.924 364.544 138.518C364.653 138.028 365.399 140.398 365.662 142.073C365.784 141.515 366.254 142.416 365.843 143.28C366.103 143.234 366.221 144.034 366.019 144.479C366.304 144.319 366.256 145.273 365.947 145.911C366.354 145.867 365.912 155.915 359.806 155.183C359.381 152.841 359.501 152.987 359 149.976C358.767 149.679 358.512 149.409 358.257 149.139L356.879 147.681C355.277 145.986 353.82 143.893 351.686 143.26C350.219 142.824 349.291 142.726 350.091 140.744C349.369 141.106 348.694 141.643 347.965 141.979C347.975 141.702 348.077 141.392 348.063 141.115Z" fill="#2F2E41"/>
<path d="M358.29 151.08C359.084 151.08 359.727 150.309 359.727 149.358C359.727 148.406 359.084 147.635 358.29 147.635C357.497 147.635 356.854 148.406 356.854 149.358C356.854 150.309 357.497 151.08 358.29 151.08Z" fill="#FFB9B9"/>
<path d="M291.292 108.678L290.854 116.57L297.437 117.096L297.876 109.203L291.292 108.678Z" fill="#E6E6E6"/>
<path d="M287.043 112.868L295.038 113.506L294.505 123.09L286.511 122.452L287.043 112.868ZM294.667 113.895L287.368 113.313L286.882 122.063L294.181 122.646L294.667 113.895Z" fill="#CCCCCC"/>
<path d="M328.495 85.2728L322.045 86.9346L323.431 94.6682L329.881 93.0065L328.495 85.2728Z" fill="#E6E6E6"/>
<path d="M323.968 81.5273L325.651 90.9182L317.818 92.936L316.134 83.5452L323.968 81.5273ZM325.237 90.5976L323.7 82.0234L316.548 83.8657L318.085 92.44L325.237 90.5976Z" fill="#CCCCCC"/>
<path d="M321.717 122.413L316.901 127.82L321.412 133.593L326.227 128.186L321.717 122.413Z" fill="#E6E6E6"/>
<path d="M326.576 121.604L320.728 128.17L315.251 121.16L321.099 114.594L326.576 121.604ZM320.745 127.58L326.083 121.585L321.083 115.184L315.744 121.179L320.745 127.58Z" fill="#CCCCCC"/>
<path d="M174.6 155.679H174.35C78.2138 155.679 0 120.76 0 77.8391C0 34.9184 78.2138 0 174.352 0C270.49 0 348.704 34.9184 348.704 77.8391C348.695 88.3673 343.906 98.7853 334.626 108.464C325.345 118.143 311.767 126.881 294.71 134.151L329.788 151.706L327.989 152.046C298.915 157.55 269.456 150.047 257.415 146.29C231.986 152.443 203.524 155.67 174.6 155.679ZM174.352 1.24999C79.7579 1.24999 2.79979 35.6078 2.79979 77.8391C2.79979 120.07 79.7579 154.429 174.352 154.429C203.185 154.439 231.557 151.199 256.835 145.007L257.605 144.818L258.321 145.046C269.251 148.518 297.297 155.941 325.071 151.223L290.806 134.075L291.803 133.658C308.876 126.495 322.483 117.847 331.788 108.247C341.092 98.6479 345.896 88.2996 345.905 77.8398C345.905 35.6078 268.946 1.24999 174.352 1.24999Z" fill="#3F3D56"/>
</svg>
