<svg width="500" height="451" viewBox="0 0 500 451" fill="none" xmlns="http://www.w3.org/2000/svg">
<g clip-path="url(#clip0_343_836)">
<path d="M123.882 114.403C115.285 88.6725 88.7349 74.3717 71.2689 80.2217C53.8029 86.0717 41.1922 113.489 49.7897 139.22C57.7477 163.037 81.8616 176.786 98.4502 174.333C98.3306 174.541 98.2518 174.77 98.2182 175.008L97.711 179.244C97.6723 179.567 97.7167 179.894 97.84 180.195C97.9633 180.496 98.1613 180.76 98.4153 180.963C98.6693 181.165 98.9709 181.3 99.2913 181.353C99.6117 181.406 99.9404 181.376 100.246 181.267L108.791 178.199C109.097 178.089 109.37 177.903 109.583 177.658C109.797 177.413 109.945 177.118 110.012 176.8C110.08 176.481 110.065 176.151 109.969 175.841C109.873 175.53 109.7 175.249 109.465 175.024L106.385 172.076C106.275 171.976 106.154 171.889 106.024 171.817C120.82 163.834 131.858 138.272 123.882 114.403Z" fill="#F2F2F2"/>
<path d="M92.7589 95.473C99.8987 99.1623 105.351 105.455 107.991 113.053C110.631 120.651 110.257 128.973 106.945 136.302C106.206 137.988 108.925 138.874 109.66 137.2C113.136 129.269 113.49 120.316 110.65 112.136C107.809 103.955 101.985 97.1522 94.3446 93.0911C92.732 92.2356 91.1344 94.6111 92.7589 95.473Z" fill="white"/>
<path d="M471.962 76.8969C463.365 51.1661 436.815 36.8653 419.349 42.7153C401.883 48.5653 389.272 75.9823 397.87 101.713C405.828 125.53 429.942 139.28 446.53 136.826C446.411 137.034 446.332 137.264 446.298 137.502L445.791 141.737C445.752 142.06 445.797 142.388 445.92 142.688C446.043 142.989 446.241 143.254 446.495 143.456C446.749 143.659 447.051 143.793 447.371 143.847C447.692 143.9 448.021 143.87 448.326 143.76L456.871 140.693C457.177 140.583 457.45 140.397 457.664 140.152C457.877 139.907 458.025 139.611 458.092 139.293C458.16 138.975 458.145 138.645 458.049 138.334C457.953 138.023 457.78 137.742 457.545 137.518L454.465 134.57C454.355 134.469 454.234 134.382 454.105 134.31C468.9 126.327 479.938 100.766 471.962 76.8969Z" fill="#F2F2F2"/>
<path d="M440.839 57.9662C447.979 61.6554 453.431 67.9484 456.071 75.546C458.711 83.1437 458.337 91.4662 455.025 98.7955C454.286 100.481 457.005 101.367 457.74 99.6927C461.216 91.7624 461.57 82.8092 458.73 74.6288C455.889 66.4483 450.065 59.6454 442.425 55.5843C440.812 54.7287 439.214 57.1043 440.839 57.9662Z" fill="white"/>
<path d="M269.827 35.4834C261.229 9.75256 234.679 -4.54824 217.213 1.30175C199.747 7.15175 187.137 34.5688 195.734 60.2996C203.692 84.1166 227.806 97.8662 244.395 95.4126C244.275 95.6208 244.196 95.8501 244.163 96.088L243.655 100.324C243.617 100.647 243.661 100.974 243.784 101.275C243.908 101.576 244.106 101.84 244.36 102.043C244.614 102.245 244.915 102.38 245.236 102.433C245.556 102.486 245.885 102.457 246.191 102.347L254.736 99.2791C255.041 99.1693 255.314 98.9832 255.528 98.7382C255.741 98.4933 255.889 98.1977 255.956 97.8796C256.024 97.5615 256.009 97.2314 255.913 96.9206C255.818 96.6098 255.644 96.3288 255.409 96.104L252.329 93.1562C252.22 93.0558 252.099 92.9688 251.969 92.8968C266.764 84.9138 277.802 59.3522 269.827 35.4834Z" fill="#F2F2F2"/>
<path d="M238.702 16.5526C245.842 20.2419 251.295 26.5348 253.935 34.1325C256.574 41.7302 256.2 50.0526 252.889 57.3819C252.149 59.0672 254.868 59.9534 255.603 58.2792C259.08 50.3488 259.433 41.3957 256.593 33.2152C253.753 25.0347 247.928 18.2318 240.288 14.1707C238.675 13.3152 237.078 15.6907 238.702 16.5526Z" fill="white"/>
<path d="M226.706 159.295C227.838 159.295 228.755 158.377 228.755 157.245C228.755 156.112 227.838 155.194 226.706 155.194C225.575 155.194 224.658 156.112 224.658 157.245C224.658 158.377 225.575 159.295 226.706 159.295Z" fill="#CCCCCC"/>
<path d="M222.341 241.559C224.576 241.559 226.387 239.745 226.387 237.508C226.387 235.27 224.576 233.457 222.341 233.457C220.106 233.457 218.295 235.27 218.295 237.508C218.295 239.745 220.106 241.559 222.341 241.559Z" fill="#CCCCCC"/>
<path d="M154.602 225.96C155.893 225.96 156.94 224.912 156.94 223.619C156.94 222.326 155.893 221.278 154.602 221.278C153.31 221.278 152.264 222.326 152.264 223.619C152.264 224.912 153.31 225.96 154.602 225.96Z" fill="#CCCCCC"/>
<path d="M190.122 187.63C191.52 187.63 192.654 186.495 192.654 185.095C192.654 183.695 191.52 182.56 190.122 182.56C188.723 182.56 187.59 183.695 187.59 185.095C187.59 186.495 188.723 187.63 190.122 187.63Z" fill="#CCCCCC"/>
<path d="M314.716 336.052C315.847 336.052 316.764 335.134 316.764 334.001C316.764 332.869 315.847 331.951 314.716 331.951C313.585 331.951 312.668 332.869 312.668 334.001C312.668 335.134 313.585 336.052 314.716 336.052Z" fill="#CCCCCC"/>
<path d="M247.637 293.884C249.872 293.884 251.683 292.071 251.683 289.833C251.683 287.596 249.872 285.782 247.637 285.782C245.402 285.782 243.591 287.596 243.591 289.833C243.591 292.071 245.402 293.884 247.637 293.884Z" fill="#CCCCCC"/>
<path d="M293.713 240.556C295.004 240.556 296.051 239.508 296.051 238.215C296.051 236.922 295.004 235.874 293.713 235.874C292.422 235.874 291.375 236.922 291.375 238.215C291.375 239.508 292.422 240.556 293.713 240.556Z" fill="#CCCCCC"/>
<path d="M309.089 290.868C310.487 290.868 311.621 289.733 311.621 288.333C311.621 286.933 310.487 285.798 309.089 285.798C307.69 285.798 306.557 286.933 306.557 288.333C306.557 289.733 307.69 290.868 309.089 290.868Z" fill="#CCCCCC"/>
<path d="M445.47 421.434C447.705 419.562 444.685 412.267 438.727 405.142C432.768 398.017 426.127 393.759 423.893 395.632C421.659 397.505 424.678 404.799 430.636 411.924C436.595 419.049 443.236 423.307 445.47 421.434Z" fill="#2F2E41"/>
<path d="M398.931 436.343C417.494 436.343 432.543 421.276 432.543 402.69C432.543 384.105 417.494 369.038 398.931 369.038C380.368 369.038 365.319 384.105 365.319 402.69C365.319 421.276 380.368 436.343 398.931 436.343Z" fill="#2F2E41"/>
<path d="M413.158 429.101H402.946V447.418H413.158V429.101Z" fill="#2F2E41"/>
<path d="M392.736 429.101H382.524V447.418H392.736V429.101Z" fill="#2F2E41"/>
<path d="M404.648 450.826C409.348 450.826 413.157 449.395 413.157 447.631C413.157 445.866 409.348 444.436 404.648 444.436C399.948 444.436 396.139 445.866 396.139 447.631C396.139 449.395 399.948 450.826 404.648 450.826Z" fill="#2F2E41"/>
<path d="M384.226 450.399C388.926 450.399 392.735 448.969 392.735 447.205C392.735 445.44 388.926 444.01 384.226 444.01C379.527 444.01 375.717 445.44 375.717 447.205C375.717 448.969 379.527 450.399 384.226 450.399Z" fill="#2F2E41"/>
<path d="M388.378 360.388C391.379 348.287 404.627 341.166 417.968 344.482C431.309 347.799 439.691 360.298 436.69 372.399C433.689 384.5 423.732 384.54 410.39 381.223C397.049 377.906 385.376 372.49 388.378 360.388Z" fill="#E6E6E6"/>
<path d="M376.258 394.286C377.507 391.65 371.721 386.285 363.334 382.302C354.948 378.32 347.137 377.229 345.889 379.865C344.64 382.5 350.426 387.865 358.813 391.848C367.199 395.83 375.009 396.921 376.258 394.286Z" fill="#2F2E41"/>
<path d="M393.906 406.809C400.095 406.809 405.113 401.786 405.113 395.589C405.113 389.393 400.095 384.37 393.906 384.37C387.717 384.37 382.7 389.393 382.7 395.589C382.7 401.786 387.717 406.809 393.906 406.809Z" fill="white"/>
<path d="M389.301 395.307C391.364 395.307 393.036 393.633 393.036 391.568C393.036 389.502 391.364 387.828 389.301 387.828C387.238 387.828 385.565 389.502 385.565 391.568C385.565 393.633 387.238 395.307 389.301 395.307Z" fill="#3F3D56"/>
<path d="M400.936 418.965C401.112 419.931 401.095 420.923 400.888 421.883C400.681 422.843 400.287 423.753 399.729 424.561C399.171 425.368 398.459 426.058 397.635 426.591C396.81 427.123 395.889 427.487 394.924 427.663C393.959 427.839 392.968 427.823 392.009 427.616C391.05 427.409 390.141 427.014 389.335 426.455C388.528 425.896 387.839 425.184 387.307 424.358C386.776 423.533 386.412 422.611 386.236 421.644L386.233 421.63C385.498 417.565 388.637 416.126 392.697 415.391C396.757 414.655 400.201 414.9 400.936 418.965Z" fill="white"/>
<path d="M122.594 379.164C125.908 370.484 126.388 362.602 123.666 361.561C120.944 360.519 116.051 366.712 112.738 375.392C109.424 384.073 108.944 391.954 111.665 392.995C114.387 394.037 119.28 387.844 122.594 379.164Z" fill="#2F2E41"/>
<path d="M86.5982 436.343C105.161 436.343 120.21 421.276 120.21 402.69C120.21 384.105 105.161 369.038 86.5982 369.038C68.0349 369.038 52.9863 384.105 52.9863 402.69C52.9863 421.276 68.0349 436.343 86.5982 436.343Z" fill="#2F2E41"/>
<path d="M81.4924 429.101H71.2812V447.418H81.4924V429.101Z" fill="#2F2E41"/>
<path d="M101.914 429.101H91.7031V447.418H101.914V429.101Z" fill="#2F2E41"/>
<path d="M79.7906 450.826C84.4902 450.826 88.2999 449.395 88.2999 447.631C88.2999 445.866 84.4902 444.436 79.7906 444.436C75.091 444.436 71.2812 445.866 71.2812 447.631C71.2812 449.395 75.091 450.826 79.7906 450.826Z" fill="#2F2E41"/>
<path d="M100.212 450.399C104.912 450.399 108.722 448.969 108.722 447.205C108.722 445.44 104.912 444.01 100.212 444.01C95.5129 444.01 91.7031 445.44 91.7031 447.205C91.7031 448.969 95.5129 450.399 100.212 450.399Z" fill="#2F2E41"/>
<path d="M87.4485 405.672C93.7929 405.672 98.9361 400.522 98.9361 394.17C98.9361 387.818 93.7929 382.669 87.4485 382.669C81.1041 382.669 75.9609 387.818 75.9609 394.17C75.9609 400.522 81.1041 405.672 87.4485 405.672Z" fill="white"/>
<path d="M87.4484 398.005C89.5632 398.005 91.2776 396.288 91.2776 394.171C91.2776 392.053 89.5632 390.337 87.4484 390.337C85.3335 390.337 83.6191 392.053 83.6191 394.171C83.6191 396.288 85.3335 398.005 87.4484 398.005Z" fill="#3F3D56"/>
<path d="M53.993 371.394C51.279 359.225 59.9546 346.929 73.3705 343.929C86.7863 340.93 99.8622 348.364 102.576 360.533C105.29 372.702 96.399 377.19 82.9831 380.189C69.5672 383.189 56.707 383.563 53.993 371.394Z" fill="#E6E6E6"/>
<path d="M63.9241 394.286C65.1727 391.65 59.3866 386.285 51.0003 382.302C42.6141 378.32 34.8035 377.229 33.5548 379.865C32.3062 382.5 38.0923 387.865 46.4786 391.848C54.8648 395.83 62.6754 396.921 63.9241 394.286Z" fill="#2F2E41"/>
<path d="M70.0879 414.831C70.0879 418.124 78.5583 424.628 87.9575 424.628C97.3567 424.628 106.169 415.355 106.169 412.062C106.169 408.768 97.3566 412.701 87.9575 412.701C78.5584 412.701 70.0879 411.537 70.0879 414.831Z" fill="white"/>
<path d="M247.151 404.306C265.714 404.306 280.763 389.239 280.763 370.653C280.763 352.068 265.714 337.001 247.151 337.001C228.588 337.001 213.539 352.068 213.539 370.653C213.539 389.239 228.588 404.306 247.151 404.306Z" fill="#2F2E41"/>
<path d="M242.045 397.064H231.834V415.381H242.045V397.064Z" fill="#2F2E41"/>
<path d="M262.468 397.064H252.257V415.381H262.468V397.064Z" fill="#2F2E41"/>
<path d="M240.343 418.789C245.043 418.789 248.853 417.358 248.853 415.594C248.853 413.829 245.043 412.399 240.343 412.399C235.644 412.399 231.834 413.829 231.834 415.594C231.834 417.358 235.644 418.789 240.343 418.789Z" fill="#2F2E41"/>
<path d="M260.766 418.363C265.466 418.363 269.276 416.932 269.276 415.168C269.276 413.404 265.466 411.973 260.766 411.973C256.067 411.973 252.257 413.404 252.257 415.168C252.257 416.932 256.067 418.363 260.766 418.363Z" fill="#2F2E41"/>
<path d="M214.547 339.358C211.833 327.188 220.508 314.892 233.924 311.893C247.34 308.893 260.416 316.327 263.13 328.496C265.844 340.665 256.953 345.154 243.537 348.153C230.121 351.152 217.261 351.527 214.547 339.358Z" fill="#6C63FF"/>
<path d="M283.371 355.948C290.65 348.654 294.697 340.887 292.41 338.599C290.123 336.311 282.369 340.369 275.089 347.662C267.81 354.956 263.763 362.723 266.05 365.011C268.337 367.299 276.092 363.241 283.371 355.948Z" fill="#2F2E41"/>
<path d="M220.059 367.356C222.346 365.068 218.299 357.301 211.02 350.007C203.74 342.713 195.985 338.655 193.698 340.943C191.412 343.231 195.459 350.999 202.738 358.292C210.017 365.586 217.772 369.644 220.059 367.356Z" fill="#2F2E41"/>
<path d="M451.495 157.075C450.379 122.569 426.774 95.3326 398.772 96.2403C336.451 98.0891 334.929 212.512 395.098 220.731L393.824 230.87L412.407 230.267L410.481 220.232C434.686 214.876 452.506 188.359 451.495 157.075Z" fill="#FF6584"/>
<path d="M367.781 176.206L360.761 176.434C358.009 163.335 357.573 149.854 359.473 136.604L366.493 136.376C363.9 150.246 364.33 163.523 367.781 176.206Z" fill="white"/>
<path d="M413.318 220.075L392.257 220.757L392.408 225.443L413.469 224.76L413.318 220.075Z" fill="#3F3D56"/>
<path d="M352.145 399.502L350.024 398.508L402.168 221.468L404.288 222.462L352.145 399.502Z" fill="#3F3D56"/>
<path d="M494.652 186.254C507.386 154.17 496.602 119.764 470.566 109.405C412.688 86.1938 365.673 190.497 417.564 222.08L412.354 230.866L429.633 237.741L431.867 227.77C456.195 232.532 483.107 215.341 494.652 186.254Z" fill="#6C63FF"/>
<path d="M410.269 170.339L403.741 167.742C406.44 154.632 411.415 142.097 418.44 130.708L424.968 133.305C417.06 144.986 412.161 157.33 410.269 170.339Z" fill="white"/>
<path d="M414.948 220.968L413.219 225.325L432.801 233.116L434.531 228.759L414.948 220.968Z" fill="#3F3D56"/>
<path d="M351.733 394.842L349.698 393.682L422.497 227.35L424.532 228.509L351.733 394.842Z" fill="#3F3D56"/>
<path d="M98.9548 159.305C85.1776 127.656 53.1883 111.086 27.5048 122.293C-29.7191 147.077 11.1147 253.957 70.0564 239.325L72.6163 249.217L89.6606 241.779L84.1656 233.168C104.678 219.233 111.446 187.998 98.9548 159.305Z" fill="#6C63FF"/>
<path d="M28.2346 208.064L21.7956 210.874C14.4019 199.722 9.01939 187.357 5.89258 174.342L12.3316 171.533C15.0435 185.38 20.3445 197.557 28.2346 208.064Z" fill="white"/>
<path d="M86.7429 231.972L67.4258 240.401L69.2967 244.699L88.6138 236.269L86.7429 231.972Z" fill="#3F3D56"/>
<path d="M131.437 399.955C131.136 400.03 130.817 399.982 130.551 399.822C130.285 399.661 130.094 399.402 130.019 399.1L79.1279 237.653L81.4003 237.088L132.291 398.535C132.328 398.685 132.336 398.84 132.313 398.992C132.29 399.144 132.237 399.291 132.158 399.423C132.078 399.554 131.974 399.669 131.85 399.761C131.727 399.852 131.586 399.918 131.437 399.955Z" fill="#3F3D56"/>
<path d="M145.037 451H22.507C22.3 451 22.1015 450.918 21.9552 450.771C21.8088 450.625 21.7266 450.426 21.7266 450.219C21.7266 450.012 21.8088 449.813 21.9552 449.666C22.1015 449.52 22.3 449.438 22.507 449.438H145.037C145.244 449.438 145.443 449.52 145.589 449.666C145.736 449.813 145.818 450.012 145.818 450.219C145.818 450.426 145.736 450.625 145.589 450.771C145.443 450.918 145.244 451 145.037 451Z" fill="#CCCCCC"/>
<path d="M456.437 451H333.906C333.699 451 333.501 450.918 333.355 450.771C333.208 450.625 333.126 450.426 333.126 450.219C333.126 450.012 333.208 449.813 333.355 449.666C333.501 449.52 333.699 449.438 333.906 449.438H456.437C456.644 449.438 456.842 449.52 456.989 449.666C457.135 449.813 457.217 450.012 457.217 450.219C457.217 450.426 457.135 450.625 456.989 450.771C456.842 450.918 456.644 451 456.437 451Z" fill="#CCCCCC"/>
<path d="M310.493 418.963H187.962C187.755 418.963 187.557 418.881 187.41 418.734C187.264 418.588 187.182 418.389 187.182 418.182C187.182 417.975 187.264 417.776 187.41 417.629C187.557 417.483 187.755 417.4 187.962 417.4H310.493C310.7 417.4 310.898 417.483 311.044 417.629C311.191 417.776 311.273 417.975 311.273 418.182C311.273 418.389 311.191 418.588 311.044 418.734C310.898 418.881 310.7 418.963 310.493 418.963Z" fill="#CCCCCC"/>
<path d="M245.737 377.386C252.081 377.386 257.224 372.236 257.224 365.884C257.224 359.532 252.081 354.383 245.737 354.383C239.392 354.383 234.249 359.532 234.249 365.884C234.249 372.236 239.392 377.386 245.737 377.386Z" fill="white"/>
<path d="M245.737 369.718C247.852 369.718 249.567 368.001 249.567 365.884C249.567 363.767 247.852 362.05 245.737 362.05C243.623 362.05 241.908 363.767 241.908 365.884C241.908 368.001 243.623 369.718 245.737 369.718Z" fill="#3F3D56"/>
<path d="M254.856 387.155C255.211 389.107 254.777 391.12 253.649 392.751C252.522 394.383 250.793 395.499 248.844 395.854C246.894 396.209 244.884 395.775 243.255 394.646C241.625 393.517 240.511 391.786 240.156 389.835L240.153 389.82C239.418 385.755 242.557 384.317 246.617 383.581C250.677 382.845 254.121 383.09 254.856 387.155Z" fill="white"/>
</g>
<defs>
<clipPath id="clip0_343_836">
<rect width="500" height="451" fill="white"/>
</clipPath>
</defs>
</svg>
