<svg width="303" height="305" viewBox="0 0 303 305" fill="none" xmlns="http://www.w3.org/2000/svg">
<path d="M76.4331 292.681C76.0988 292.697 75.7678 292.609 75.485 292.43C75.2022 292.251 74.9813 291.99 74.8522 291.681C74.7231 291.373 74.692 291.032 74.7632 290.705C74.8344 290.378 75.0044 290.081 75.2501 289.854C75.2913 289.691 75.3208 289.574 75.362 289.41C75.042 288.598 74.4866 287.9 73.767 287.405C73.0473 286.91 72.1962 286.642 71.3227 286.634C70.4492 286.625 69.5932 286.878 68.8643 287.359C68.1355 287.84 67.567 288.528 67.2317 289.333C65.2972 293.858 62.7934 298.542 64.0386 303.525C55.8139 286.108 58.6109 264.443 70.7659 249.549C74.1257 247.7 76.8489 244.414 77.5578 240.599C75.895 241.162 73.8219 239.811 75.0721 238.061C75.614 237.392 76.1612 236.728 76.703 236.059C70.3867 229.338 62.8608 239.902 69.8133 248.973C67.539 251.822 65.5689 254.901 63.9354 258.16C64.3126 254.7 63.8623 251.2 62.6216 247.947C61.3642 244.916 59.0073 242.364 56.9317 239.744C54.4082 236.551 49.2144 238.024 48.8748 242.075C51.2037 242.84 51.5063 246.201 48.8423 246.662C49.54 254.199 54.4682 261.125 61.2558 264.431C58.7492 271.458 57.7704 278.938 58.3847 286.373C57.1866 277.684 47.8516 275.575 41.3269 272.122C40.9117 271.856 40.4279 271.716 39.9346 271.72C39.4412 271.724 38.9597 271.871 38.5488 272.144C38.1378 272.417 37.8152 272.803 37.6202 273.256C37.4253 273.709 37.3664 274.208 37.4508 274.694C38.3514 275.06 39.2133 275.514 40.024 276.05C40.4038 276.306 40.6954 276.672 40.8587 277.099C41.022 277.526 41.0491 277.994 40.9362 278.437C40.8233 278.88 40.576 279.278 40.2281 279.575C39.8803 279.872 39.4489 280.055 38.9932 280.097C42.2821 288.23 50.7851 293.692 59.5183 293.661C60.3575 297.305 61.5735 300.852 63.1466 304.245H76.1083C76.1548 304.101 76.1966 303.952 76.2384 303.808C75.0387 303.884 73.8342 303.812 72.6519 303.595C75.8261 299.84 78.2809 297.924 76.4335 292.681L76.4331 292.681Z" fill="#F2F2F2"/>
<path d="M191.989 292.681C192.324 292.697 192.655 292.609 192.938 292.43C193.22 292.251 193.441 291.99 193.57 291.681C193.699 291.373 193.731 291.032 193.659 290.705C193.588 290.378 193.418 290.081 193.172 289.854C193.131 289.691 193.102 289.574 193.061 289.41C193.381 288.598 193.936 287.9 194.656 287.405C195.375 286.91 196.226 286.642 197.1 286.634C197.973 286.625 198.829 286.878 199.558 287.359C200.287 287.84 200.856 288.528 201.191 289.333C203.125 293.858 205.629 298.542 204.384 303.525C212.609 286.108 209.812 264.443 197.657 249.549C194.297 247.7 191.574 244.414 190.865 240.599C192.528 241.162 194.601 239.811 193.35 238.061C192.809 237.392 192.261 236.728 191.72 236.059C198.036 229.338 205.562 239.902 198.609 248.973C200.884 251.822 202.854 254.901 204.487 258.16C204.11 254.7 204.56 251.2 205.801 247.947C207.058 244.916 209.415 242.364 211.491 239.744C214.014 236.551 219.208 238.024 219.548 242.075C217.219 242.84 216.916 246.201 219.58 246.662C218.883 254.199 213.954 261.125 207.167 264.431C209.673 271.458 210.652 278.938 210.038 286.373C211.236 277.684 220.571 275.575 227.096 272.122C227.511 271.856 227.995 271.716 228.488 271.72C228.981 271.724 229.463 271.871 229.874 272.144C230.285 272.417 230.607 272.803 230.802 273.256C230.997 273.709 231.056 274.208 230.972 274.694C230.071 275.06 229.209 275.514 228.399 276.05C228.019 276.306 227.727 276.672 227.564 277.099C227.401 277.526 227.374 277.994 227.486 278.437C227.599 278.88 227.847 279.278 228.194 279.575C228.542 279.872 228.974 280.055 229.429 280.097C226.141 288.23 217.637 293.692 208.904 293.661C208.065 297.305 206.849 300.852 205.276 304.245H192.314C192.268 304.101 192.226 303.952 192.184 303.808C193.384 303.884 194.588 303.812 195.771 303.595C192.597 299.84 190.142 297.924 191.989 292.681L191.989 292.681Z" fill="#F2F2F2"/>
<path d="M196.795 294.604L191.213 295.873L183.658 274.964L191.897 273.091L196.795 294.604Z" fill="#FFB6B6"/>
<path d="M198.317 300.378L181.152 304.28L181.102 304.063C180.699 302.293 181.017 300.435 181.984 298.898C182.952 297.361 184.491 296.272 186.263 295.869L186.264 295.869L188.858 292.779L195.249 293.826L196.748 293.485L198.317 300.378Z" fill="#2F2E41"/>
<path d="M286.843 192.686L289.911 197.514L272.731 211.64L268.202 204.513L286.843 192.686Z" fill="#FFB6B6"/>
<path d="M291.776 189.317L301.213 204.165L301.025 204.285C299.491 205.258 297.633 205.583 295.859 205.187C294.086 204.792 292.542 203.708 291.567 202.176L291.567 202.175L287.784 200.77L286.627 194.403L285.803 193.106L291.776 189.317Z" fill="#2F2E41"/>
<path d="M108.907 141.063L107.529 133.078L128.489 123.621L133.016 115.613C132.87 114.911 132.921 114.181 133.163 113.506C133.406 112.83 133.831 112.235 134.391 111.786C134.951 111.336 135.624 111.05 136.337 110.959C137.049 110.868 137.773 110.976 138.428 111.27C139.083 111.564 139.644 112.034 140.049 112.626C140.454 113.219 140.687 113.912 140.723 114.629C140.758 115.346 140.595 116.058 140.25 116.688C139.906 117.318 139.394 117.84 138.771 118.198L131.325 129.7L108.907 141.063Z" fill="#A0616A"/>
<path d="M102.536 134.535L111.975 129.718L114.474 139.092L107.917 143.948L102.536 134.535Z" fill="#6C63FF"/>
<path d="M81.3554 293.878L87.0624 293.878L89.7775 271.882L81.354 271.883L81.3554 293.878Z" fill="#A0616A"/>
<path d="M88.9616 294.391V290.525L87.4612 290.617L81.3536 290.979L79.94 291.065L78.8594 304.013L78.8015 304.707H82.854L82.9842 304.018L83.5728 300.884L85.0925 304.018L85.4254 304.707H96.1692C96.8086 304.703 97.4205 304.447 97.8721 303.995C98.3238 303.543 98.5786 302.931 98.5814 302.292C99.0349 300.176 90.1002 295.601 88.9616 294.391Z" fill="#2F2E41"/>
<path d="M13.6083 206.587L12.2778 212.133L33.0519 219.899L35.0153 211.715L13.6083 206.587Z" fill="#A0616A"/>
<path d="M11.7869 213.858L15.5494 214.759L15.8101 213.28L16.8823 207.262L17.1275 205.868L4.77833 201.799L4.11626 201.581L3.17138 205.519L3.81188 205.806L6.72406 207.108L3.32032 207.854L2.57183 208.017L0.0668001 218.456C-0.0783312 219.078 0.0280212 219.732 0.362784 220.277C0.697547 220.821 1.23368 221.211 1.85475 221.363C3.80854 222.297 10.3439 214.682 11.7869 213.858Z" fill="#2F2E41"/>
<path d="M90.1797 151.524L82.8336 148.093L68.184 165.807L59.2606 168.062C58.6207 167.736 57.903 167.593 57.1869 167.649C56.4708 167.705 55.7841 167.958 55.2028 168.38C54.6214 168.801 54.1679 169.375 53.8924 170.038C53.617 170.701 53.5302 171.427 53.6418 172.136C53.7533 172.845 54.0588 173.509 54.5246 174.055C54.9903 174.602 55.5981 175.009 56.2809 175.232C56.9637 175.455 57.6948 175.485 58.3936 175.318C59.0923 175.152 59.7315 174.796 60.2405 174.29L73.3071 170.141L90.1797 151.524Z" fill="#A0616A"/>
<path d="M194.328 85.95C192.771 85.95 191.248 85.4886 189.954 84.6242C188.659 83.7598 187.65 82.5312 187.054 81.0938C186.458 79.6564 186.302 78.0747 186.606 76.5487C186.91 75.0227 187.66 73.621 188.761 72.5209C189.862 71.4207 191.265 70.6715 192.792 70.368C194.319 70.0644 195.902 70.2202 197.341 70.8156C198.779 71.411 200.009 72.4193 200.874 73.713C201.739 75.0066 202.201 76.5275 202.201 78.0834C202.198 80.169 201.368 82.1686 199.892 83.6433C198.416 85.1181 196.415 85.9477 194.328 85.95ZM194.328 71.1196C192.949 71.1196 191.602 71.528 190.456 72.2932C189.309 73.0584 188.416 74.146 187.889 75.4185C187.361 76.6909 187.223 78.0911 187.492 79.442C187.761 80.7928 188.425 82.0337 189.399 83.0076C190.374 83.9815 191.616 84.6447 192.968 84.9134C194.32 85.1821 195.721 85.0442 196.995 84.5171C198.268 83.9901 199.357 83.0975 200.123 81.9523C200.889 80.8071 201.297 79.4607 201.297 78.0834C201.295 76.2371 200.56 74.4671 199.254 73.1615C197.947 71.856 196.176 71.1217 194.328 71.1196Z" fill="#E6E6E6"/>
<path d="M193.772 81.047C193.756 81.047 193.74 81.0465 193.725 81.0457C193.585 81.039 193.448 81.0021 193.324 80.9376C193.2 80.8732 193.091 80.7826 193.005 80.6722L191.765 79.0791C191.687 78.9785 191.629 78.8635 191.595 78.7407C191.561 78.6178 191.552 78.4895 191.568 78.3631C191.584 78.2366 191.624 78.1145 191.687 78.0038C191.75 77.893 191.835 77.7957 191.935 77.7175L191.98 77.6828C192.08 77.6045 192.196 77.5468 192.319 77.513C192.442 77.4791 192.57 77.4699 192.697 77.4857C192.823 77.5015 192.945 77.542 193.056 77.6051C193.167 77.6681 193.264 77.7523 193.343 77.853C193.405 77.9333 193.485 77.9992 193.575 78.0462C193.666 78.0931 193.765 78.12 193.867 78.1249C193.969 78.1299 194.071 78.1128 194.165 78.0749C194.26 78.037 194.345 77.9791 194.415 77.9052L196.933 75.2489C197.111 75.0623 197.355 74.9536 197.612 74.9466C197.869 74.9397 198.119 75.0349 198.306 75.2116L198.348 75.2509C198.44 75.3385 198.515 75.4435 198.567 75.5599C198.619 75.6762 198.647 75.8017 198.651 75.929C198.654 76.0564 198.632 76.1832 198.587 76.3022C198.541 76.4212 198.472 76.53 198.385 76.6225L194.477 80.744C194.386 80.8397 194.277 80.9159 194.156 80.968C194.035 81.0201 193.904 81.047 193.772 81.047Z" fill="#E6E6E6"/>
<path d="M155.025 181.192C153.468 181.192 151.945 180.73 150.651 179.866C149.356 179.002 148.347 177.773 147.751 176.335C147.155 174.898 146.999 173.316 147.303 171.79C147.607 170.264 148.357 168.863 149.458 167.763C150.559 166.662 151.962 165.913 153.489 165.61C155.016 165.306 156.599 165.462 158.038 166.057C159.476 166.653 160.706 167.661 161.571 168.955C162.436 170.248 162.898 171.769 162.898 173.325C162.895 175.411 162.065 177.41 160.589 178.885C159.113 180.36 157.112 181.189 155.025 181.192ZM155.025 166.361C153.646 166.361 152.299 166.77 151.153 167.535C150.006 168.3 149.113 169.388 148.586 170.66C148.058 171.933 147.92 173.333 148.189 174.684C148.458 176.035 149.122 177.275 150.096 178.249C151.071 179.223 152.313 179.886 153.665 180.155C155.017 180.424 156.418 180.286 157.692 179.759C158.965 179.232 160.054 178.339 160.82 177.194C161.586 176.049 161.994 174.702 161.994 173.325C161.992 171.479 161.257 169.709 159.951 168.403C158.644 167.098 156.873 166.363 155.025 166.361Z" fill="#E6E6E6"/>
<path d="M154.469 176.289C154.453 176.289 154.437 176.288 154.422 176.287C154.282 176.281 154.145 176.244 154.021 176.179C153.897 176.115 153.788 176.024 153.702 175.914L152.462 174.321C152.384 174.22 152.326 174.105 152.292 173.982C152.258 173.86 152.249 173.731 152.265 173.605C152.281 173.478 152.321 173.356 152.384 173.245C152.447 173.135 152.532 173.037 152.632 172.959L152.677 172.924C152.777 172.846 152.893 172.788 153.016 172.755C153.139 172.721 153.267 172.712 153.394 172.727C153.52 172.743 153.642 172.784 153.753 172.847C153.864 172.91 153.962 172.994 154.04 173.095C154.102 173.175 154.182 173.241 154.272 173.288C154.363 173.335 154.462 173.362 154.564 173.367C154.666 173.372 154.768 173.355 154.862 173.317C154.957 173.279 155.042 173.221 155.112 173.147L157.63 170.491C157.808 170.304 158.052 170.195 158.309 170.188C158.567 170.181 158.816 170.277 159.003 170.453L159.045 170.493C159.137 170.58 159.212 170.685 159.264 170.802C159.316 170.918 159.344 171.043 159.348 171.171C159.351 171.298 159.329 171.425 159.284 171.544C159.238 171.663 159.169 171.772 159.082 171.864L155.174 175.986C155.083 176.081 154.974 176.158 154.853 176.21C154.732 176.262 154.601 176.289 154.469 176.289Z" fill="#E6E6E6"/>
<path d="M68.7389 75.1165C67.1817 75.1165 65.6595 74.6551 64.3648 73.7907C63.0701 72.9263 62.0609 71.6977 61.465 70.2603C60.8691 68.8229 60.7132 67.2412 61.017 65.7152C61.3208 64.1892 62.0706 62.7875 63.1717 61.6874C64.2728 60.5872 65.6757 59.838 67.2029 59.5345C68.7301 59.2309 70.3131 59.3867 71.7518 59.9821C73.1904 60.5775 74.42 61.5858 75.2851 62.8794C76.1502 64.1731 76.612 65.694 76.612 67.2499C76.6097 69.3355 75.7794 71.3351 74.3034 72.8098C72.8274 74.2846 70.8262 75.1141 68.7389 75.1165ZM68.7389 60.2861C67.3604 60.2861 66.0129 60.6945 64.8668 61.4597C63.7206 62.2249 62.8273 63.3125 62.2998 64.585C61.7723 65.8574 61.6342 67.2576 61.9032 68.6085C62.1721 69.9593 62.8359 71.2001 63.8106 72.174C64.7853 73.1479 66.0272 73.8112 67.3792 74.0799C68.7311 74.3486 70.1325 74.2107 71.406 73.6836C72.6795 73.1565 73.7681 72.264 74.5339 71.1188C75.2997 69.9736 75.7085 68.6272 75.7085 67.2499C75.7064 65.4036 74.9714 63.6336 73.6648 62.328C72.3582 61.0225 70.5867 60.2882 68.7389 60.2861Z" fill="#E6E6E6"/>
<path d="M68.1832 70.2135C68.1674 70.2135 68.1516 70.213 68.1358 70.2122C67.996 70.2054 67.8593 70.1686 67.7352 70.1041C67.611 70.0397 67.5022 69.9491 67.4164 69.8387L66.1761 68.2456C66.0978 68.145 66.0401 68.03 66.0062 67.9072C65.9724 67.7843 65.9631 67.656 65.9789 67.5296C65.9947 67.4031 66.0353 67.281 66.0983 67.1703C66.1614 67.0595 66.2456 66.9622 66.3463 66.884L66.3909 66.8493C66.4916 66.771 66.6067 66.7133 66.7297 66.6794C66.8527 66.6456 66.9811 66.6364 67.1077 66.6522C67.2343 66.668 67.3565 66.7085 67.4674 66.7716C67.5783 66.8346 67.6756 66.9188 67.7539 67.0195C67.8165 67.0998 67.8958 67.1657 67.9863 67.2127C68.0768 67.2596 68.1763 67.2865 68.2782 67.2914C68.38 67.2964 68.4817 67.2793 68.5763 67.2414C68.6709 67.2034 68.7562 67.1456 68.8264 67.0717L71.3446 64.4154C71.5218 64.2288 71.7659 64.1201 72.0233 64.1132C72.2806 64.1062 72.5303 64.2014 72.7174 64.3781L72.7587 64.4174C72.8513 64.505 72.9257 64.61 72.9777 64.7264C73.0297 64.8427 73.0582 64.9682 73.0616 65.0955C73.0651 65.2229 73.0433 65.3497 72.9977 65.4687C72.9521 65.5877 72.8835 65.6965 72.7957 65.789L68.8879 69.9104C68.7972 70.0062 68.688 70.0824 68.5668 70.1345C68.4457 70.1866 68.3151 70.2135 68.1832 70.2135Z" fill="#E6E6E6"/>
<path d="M131.771 210.44C113.514 210.44 92.5327 190.198 73.9691 199.815C17.7636 228.936 25.5007 180.207 9.35327 162.085L9.88339 161.022C27.7002 176.985 49.945 189.972 74.2132 198.58C96.1441 206.359 118.239 209.963 138.102 209.012L138.137 210.289C136.039 210.39 133.917 210.441 131.771 210.44Z" fill="#F2F2F2"/>
<path d="M106.727 73.5766C108.835 73.5766 110.543 71.2875 110.543 68.4636C110.543 65.6398 108.835 63.3506 106.727 63.3506C104.62 63.3506 102.911 65.6398 102.911 68.4636C102.911 71.2875 104.62 73.5766 106.727 73.5766Z" fill="#E6E6E6"/>
<path d="M150.804 153.341C149.059 154.502 147.274 151.738 149.052 150.628C150.796 149.467 152.582 152.231 150.804 153.341Z" fill="#E6E6E6"/>
<path d="M140.762 60.2732C143.506 60.2732 145.731 58.0502 145.731 55.308C145.731 52.5658 143.506 50.3428 140.762 50.3428C138.017 50.3428 135.792 52.5658 135.792 55.308C135.792 58.0502 138.017 60.2732 140.762 60.2732Z" fill="#FF6584"/>
<path opacity="0.3" d="M158.143 82.5168L186.42 0L155.37 81.529C155.216 81.7225 155.111 81.9499 155.063 82.1921C155.015 82.4344 155.025 82.6846 155.093 82.922C155.161 83.1594 155.285 83.3772 155.454 83.5573C155.623 83.7374 155.833 83.8745 156.066 83.9575C156.299 84.0404 156.548 84.0667 156.793 84.0341C157.038 84.0016 157.272 83.9111 157.475 83.7703C157.678 83.6294 157.844 83.4423 157.96 83.2243C158.077 83.0063 158.139 82.7638 158.143 82.5168H158.143Z" fill="#F0F0F0"/>
<path d="M129.6 183.046C132.271 183.046 134.435 180.884 134.435 178.216C134.435 175.548 132.271 173.385 129.6 173.385C126.93 173.385 124.766 175.548 124.766 178.216C124.766 180.884 126.93 183.046 129.6 183.046Z" fill="#F2F2F2"/>
<path d="M82.7735 180.058C82.7735 180.058 70.7203 187.9 73.9075 193.111C74.0174 193.291 59.51 212.435 59.51 212.435L32.1236 210.698L31.1587 219.857L55.54 226.912C55.54 226.912 61.5047 231.291 66.1125 226.467C70.7204 221.643 86.0685 206.87 86.0685 206.87L86.8089 236.696L79.1041 278.025L90.6082 277.297L101.805 235.833L105.938 188.864L82.7735 180.058Z" fill="#2F2E41"/>
<path d="M91.3592 132.993L86.2907 136.831L80.5135 149.151L86.0687 156.689C86.0687 156.689 90.7416 164.781 83.262 172.618C75.7823 180.454 70.0387 188.824 76.0254 188.525C82.0122 188.226 106.259 200.548 106.419 190.453C106.578 180.358 106.901 172.618 106.901 172.618L113.258 156.507C113.258 156.507 117.046 146.897 114.387 144.02C111.728 141.143 108.167 137.467 108.167 137.467L101.693 130.998H95.8464L91.3592 132.993Z" fill="#6C63FF"/>
<path d="M100.821 109.322C112.192 115.787 102.857 132.845 91.2739 126.771C79.9033 120.306 89.2383 103.248 100.821 109.322Z" fill="#A0616A"/>
<path d="M106.901 112.907C106.104 113.942 104.44 113.457 101.18 114.195C101.187 113.091 101.059 111.991 100.8 110.917C100.557 112.246 100.026 113.506 99.2428 114.606C96.4122 114.92 99.8821 123.512 98.4328 129.829C96.5655 116.502 92.6379 119.994 94.622 122.637C95.8923 124.329 95.0455 129.406 91.2347 126.868C84.9471 129.854 75.9917 115.022 85.9171 108.066C85.7397 104.306 89.9267 103.712 92.505 104.868C98.7621 100.211 105.911 106.179 106.901 112.907Z" fill="#2F2E41"/>
<path d="M77.7259 103.182C75.1943 118.734 61.6251 100.322 55.245 115.627C53.239 121.169 56.6808 125.134 58.8578 129.735C59.3547 133.516 54.4321 135.434 53.9165 138.914C53.773 146.893 66.656 146.405 70.2576 141.371C73.9582 136.101 69.5391 129.031 71.7635 123.375C74.8898 115.522 87.6038 115.464 88.7114 106.327C86.5663 103.275 80.7982 99.7796 77.7259 103.182Z" fill="#2F2E41"/>
<path d="M87.9812 104.702C87.8984 104.737 87.8156 104.771 87.7415 104.811H87.7371C87.6674 104.846 87.5976 104.88 87.5279 104.92C87.5192 104.924 87.5148 104.928 87.5061 104.933C87.4145 104.846 87.323 104.758 87.2271 104.671C87.2023 104.813 87.2083 104.959 87.2445 105.098L87.2576 105.15C87.3448 105.242 87.4363 105.329 87.5323 105.42C87.6194 105.355 87.7023 105.285 87.7894 105.22C87.8418 105.177 87.8941 105.133 87.9507 105.089C87.9594 104.976 87.9725 104.846 87.9856 104.702L87.9812 104.702ZM90.6053 99.8587C88.6612 99.4144 88.0335 101.954 87.8461 103.177C87.1399 98.735 84.202 100.133 85.2176 103.164C85.5414 104.062 86.0508 104.881 86.7128 105.568C86.8043 105.673 86.9046 105.778 87.0092 105.882C86.8915 106.492 87.4843 106.335 88.2863 105.773C88.8786 105.352 89.4263 104.872 89.9209 104.34C91.5207 102.664 92.7673 100.421 90.6053 99.8587ZM90.6663 102.359C90.0665 103.131 89.3936 103.845 88.6569 104.488C88.4258 104.697 88.1904 104.898 87.9507 105.089C87.9463 105.129 87.9463 105.163 87.942 105.194C87.9252 105.236 87.9047 105.277 87.8809 105.316C87.6368 105.756 87.3622 105.516 87.2576 105.15C87.2489 105.137 87.2358 105.124 87.2271 105.111C86.8788 104.752 86.5758 104.351 86.3248 103.918C84.5246 100.799 87.4233 98.6784 87.2794 104.501C87.2529 104.555 87.2353 104.612 87.2271 104.671C87.2023 104.813 87.2083 104.959 87.2445 105.098L87.2576 105.15C87.3448 105.242 87.4363 105.329 87.5323 105.42C87.6194 105.355 87.7023 105.285 87.7894 105.22C87.8418 105.177 87.8941 105.133 87.9507 105.089C87.9594 104.976 87.9725 104.846 87.9856 104.702V104.697C88.0989 103.53 88.4084 101.431 88.9795 100.86C90.2348 99.8979 91.8607 100.939 90.6663 102.359ZM87.9812 104.702C87.8984 104.737 87.8156 104.771 87.7415 104.811H87.7371C87.6674 104.846 87.5976 104.88 87.5279 104.92C87.5192 104.924 87.5148 104.928 87.5061 104.933C87.4145 104.846 87.323 104.758 87.2271 104.671C87.2023 104.813 87.2083 104.959 87.2445 105.098L87.2576 105.15C87.3448 105.242 87.4363 105.329 87.5323 105.42C87.6194 105.355 87.7023 105.285 87.7894 105.22C87.8418 105.177 87.8941 105.133 87.9507 105.089C87.9594 104.976 87.9725 104.846 87.9856 104.702L87.9812 104.702Z" fill="#2F2E41"/>
<path d="M193.08 190.446L188.88 201.39L169.18 240.217L186.49 285.386L195.424 283.03L188.061 240.217L209.187 214.57L234.276 231.572C234.276 231.572 245.402 240.251 249.635 232.023C253.868 223.795 281.258 206.295 281.258 206.295L274.482 199.072L242.941 213.821L221.171 183.205L193.08 190.446Z" fill="#2F2E41"/>
<path d="M214.27 138.829L207.357 131.407L195.499 129.777L180.968 139.941L181.115 151.191L188.298 177.7C188.298 177.7 185.562 196.746 193.204 196.555C200.846 196.364 205.011 192.557 208.123 193.332C211.236 194.107 224.467 197.405 225.305 193.95C226.144 190.496 230.601 192.969 230.405 189.701C230.21 186.433 218.339 162.877 218.339 162.877L221.291 139.319L214.27 138.829Z" fill="#6C63FF"/>
<path d="M258.042 104.668C258.104 105.283 258.03 105.905 257.825 106.488C257.621 107.072 257.29 107.604 256.858 108.047C256.425 108.489 255.901 108.832 255.322 109.05C254.742 109.268 254.122 109.356 253.505 109.309L237.607 139.519L233.339 132.972L249.589 104.461C249.737 103.43 250.258 102.489 251.054 101.817C251.85 101.145 252.865 100.787 253.907 100.813C254.949 100.838 255.946 101.245 256.708 101.955C257.47 102.666 257.944 103.631 258.042 104.668Z" fill="#FFB6B6"/>
<path d="M207.994 144.446C207.994 144.446 207.363 149.819 213.418 151.15C219.472 152.48 236.246 142.903 238.996 141.441C239.857 140.983 241.026 138.738 242.225 135.87C242.763 134.582 243.307 133.169 243.833 131.735C244.137 130.906 245.593 130.68 245.879 129.857C246.164 129.039 245.28 127.624 245.538 126.853C246.763 123.194 247.631 120.29 247.631 120.29L243.618 112.759C238.006 115.723 235.127 122.253 233.01 129.777L207.994 144.446Z" fill="#6C63FF"/>
<path d="M137.285 111.605C137.379 112.216 137.606 112.8 137.95 113.314C138.295 113.828 138.748 114.26 139.277 114.58C139.807 114.901 140.4 115.101 141.016 115.167C141.631 115.234 142.254 115.164 142.839 114.964L165.798 140.237L168.29 132.832L145.417 109.291C145.015 108.33 144.275 107.55 143.336 107.098C142.397 106.646 141.324 106.554 140.322 106.839C139.32 107.124 138.457 107.767 137.897 108.645C137.337 109.524 137.119 110.577 137.285 111.605Z" fill="#FFB6B6"/>
<path d="M195.703 137.603C195.703 137.603 197.659 142.648 192.131 145.45C186.602 148.252 167.963 143.174 164.934 142.445C163.986 142.217 162.292 140.336 160.413 137.859C159.57 136.747 158.689 135.515 157.821 134.259C157.319 133.532 155.852 133.676 155.369 132.952C154.888 132.231 155.39 130.64 154.947 129.958C152.845 126.721 151.277 124.127 151.277 124.127L153.276 115.832C159.452 117.299 163.875 122.901 167.809 129.656L195.703 137.603Z" fill="#6C63FF"/>
<path d="M201.664 127.89C207.896 127.89 212.948 122.842 212.948 116.616C212.948 110.39 207.896 105.342 201.664 105.342C195.433 105.342 190.381 110.39 190.381 116.616C190.381 122.842 195.433 127.89 201.664 127.89Z" fill="#FFB6B6"/>
<path d="M214.544 110.161C213.357 108.326 211.13 107.103 208.971 107.447C208.77 106.07 208.195 104.775 207.308 103.702C206.421 102.629 205.257 101.82 203.942 101.363C202.627 100.905 201.211 100.817 199.849 101.108C198.488 101.399 197.232 102.057 196.219 103.011C195.886 102.777 195.497 102.633 195.092 102.592C194.686 102.552 194.277 102.616 193.904 102.78C193.161 103.118 192.515 103.636 192.024 104.288C190.785 105.832 189.988 107.682 189.718 109.643C189.449 111.603 189.716 113.6 190.492 115.421C190.228 114.462 191.189 113.56 192.16 113.345C193.132 113.13 194.151 113.334 195.136 113.194C196.398 113.014 197.533 112.282 198.797 112.118C199.87 112.048 200.945 112.186 201.965 112.524C202.985 112.863 204.059 113.007 205.131 112.949C206.196 112.823 207.566 116.853 207.548 119.691C207.545 120.229 207.655 120.919 208.182 121.034C208.829 121.174 209.205 120.281 209.821 120.037C210.106 119.956 210.41 119.988 210.671 120.127C210.932 120.265 211.129 120.5 211.221 120.781C211.299 121.066 211.307 121.366 211.245 121.656C211.183 121.945 211.053 122.216 210.866 122.445C210.487 122.899 210.037 123.289 209.533 123.6L209.787 123.811C210.028 124.066 210.35 124.228 210.698 124.272C211.046 124.315 211.399 124.236 211.695 124.048C212.277 123.654 212.749 123.117 213.064 122.49C214.255 120.651 215.105 118.613 215.577 116.475C215.974 114.326 215.731 111.995 214.544 110.161Z" fill="#2F2E41"/>
<path d="M298.017 154.625C283.463 165.639 254.505 162.16 245.519 181.025C218.31 238.146 195.033 194.634 171.21 189.928L170.991 188.761C194.839 190.738 220.42 187.671 244.967 179.893C267.15 172.864 286.942 162.408 302.201 149.667L303 150.665C301.389 152.011 299.728 153.331 298.017 154.625Z" fill="#F2F2F2"/>
<path d="M236.485 304.231C236.138 305.256 38.2346 305.256 37.8606 304.233C38.2068 303.205 236.11 303.205 236.485 304.231Z" fill="#CCCCCC"/>
</svg>
