<svg width="152" height="284" viewBox="0 0 152 284" fill="none" xmlns="http://www.w3.org/2000/svg">
<path d="M75.6871 283.287C117.488 283.287 151.374 281.574 151.374 279.461C151.374 277.349 117.488 275.636 75.6871 275.636C33.8863 275.636 0 277.349 0 279.461C0 281.574 33.8863 283.287 75.6871 283.287Z" fill="#3F3D56"/>
<path d="M47.521 174.234L54.312 169.514L68.387 151.4C68.7884 150.883 68.9681 150.228 68.8866 149.579C68.8051 148.93 68.469 148.34 67.9523 147.939V147.939C67.4357 147.537 66.7807 147.358 66.1316 147.439C65.4824 147.521 64.8922 147.857 64.4908 148.373L50.4159 166.488L47.521 174.234Z" fill="#2F2E41"/>
<path d="M108.139 2.02943C108.139 2.02943 99.5984 -5.62672 88.1125 8.80218C76.6267 23.2311 58.6617 30.2983 54.5386 35.8932C54.5386 35.8932 71.62 28.826 77.5102 25.8813C83.4004 22.9366 83.1059 23.5256 83.1059 23.5256C83.1059 23.5256 75.1542 29.1204 73.6816 34.7153C72.2091 40.3102 73.3871 45.0217 70.7365 50.6166C68.086 56.2114 121.392 54.4446 121.392 54.4446C121.392 54.4446 126.693 45.3161 125.221 35.8932C123.748 26.4702 124.632 3.2073 108.139 2.02943Z" fill="#2F2E41"/>
<path d="M91.3526 24.7034C91.3526 24.7034 93.4141 39.1323 84.5789 42.3714C75.7436 45.6106 78.9832 50.0276 78.9832 50.0276L92.2361 56.5059L106.373 52.0888L111.085 45.0216C111.085 45.0216 103.427 43.2548 105.489 37.9544C107.551 32.654 108.14 30.8872 108.14 30.8872L91.3526 24.7034Z" fill="#FFB9B9"/>
<path opacity="0.1" d="M91.3526 24.7034C91.3526 24.7034 93.4141 39.1323 84.5789 42.3714C75.7436 45.6106 78.9832 50.0276 78.9832 50.0276L92.2361 56.5059L106.373 52.0888L111.085 45.0216C111.085 45.0216 103.427 43.2548 105.489 37.9544C107.551 32.654 108.14 30.8872 108.14 30.8872L91.3526 24.7034Z" fill="black"/>
<path d="M128.461 65.9287C128.461 65.9287 126.399 93.0197 126.988 94.1976C127.577 95.3755 126.988 136.306 126.988 136.306C126.988 136.306 131.111 158.391 125.81 159.569C120.509 160.747 121.687 134.834 121.687 134.834L116.386 100.676L116.975 66.8121L128.461 65.9287Z" fill="#FFB9B9"/>
<path opacity="0.1" d="M128.461 65.9287C128.461 65.9287 126.399 93.0197 126.988 94.1976C127.577 95.3755 126.988 136.306 126.988 136.306C126.988 136.306 131.111 158.391 125.81 159.569C120.509 160.747 121.687 134.834 121.687 134.834L116.386 100.676L116.975 66.8121L128.461 65.9287Z" fill="black"/>
<path d="M71.0314 147.496C71.0314 147.496 61.3126 184.305 61.6071 202.267C61.9017 220.23 65.7303 245.259 65.7303 245.259C65.7303 245.259 66.3193 256.155 65.4358 257.332C64.5522 258.51 69.8534 263.516 69.8534 263.516L75.449 260.277L77.5106 257.921V255.86C77.5106 255.86 74.271 245.848 76.9216 237.898C79.5722 229.947 81.0447 209.923 78.3942 203.739L96.6537 149.557L71.0314 147.496Z" fill="#FFB9B9"/>
<path d="M70.4424 258.805C70.4424 258.805 66.9083 254.388 64.5523 255.86C62.1962 257.333 58.3676 267.344 58.3676 267.344C58.3676 267.344 45.1147 280.007 54.539 280.596C63.9632 281.184 68.0863 277.945 69.2644 275.59C70.4424 273.234 81.3392 267.05 81.3392 267.05C81.3392 267.05 80.1612 255.86 78.3941 255.566C76.6271 255.271 73.9765 259.983 73.9765 259.983L70.4424 258.805Z" fill="#2F2E41"/>
<path d="M103.133 149.852V186.366C103.167 190.797 103.462 195.221 104.016 199.617C104.9 206.095 99.0098 254.388 99.0098 254.388L99.5988 262.928L106.961 262.339L107.845 254.977L118.447 222.586C118.447 222.586 121.981 202.856 120.214 195.495C118.447 188.133 129.344 141.018 129.344 141.018L103.133 149.852Z" fill="#FFB9B9"/>
<path d="M97.2424 260.866L99.4236 260.392C99.4236 260.392 101.071 256.744 103.133 257.627C104.583 258.296 105.958 259.119 107.232 260.083L108.139 261.749C108.139 261.749 110.201 266.167 112.851 269.111C115.502 272.056 118.447 278.534 114.029 279.123C109.612 279.712 103.722 280.007 101.955 278.534C100.188 277.062 101.366 274.706 99.5985 274.117C97.8315 273.528 96.3589 271.761 96.6534 271.172C96.9479 270.584 97.2424 260.866 97.2424 260.866Z" fill="#2F2E41"/>
<path d="M103.133 35.8931C110.94 35.8931 117.269 29.5649 117.269 21.7587C117.269 13.9525 110.94 7.62427 103.133 7.62427C95.3252 7.62427 88.9961 13.9525 88.9961 21.7587C88.9961 29.5649 95.3252 35.8931 103.133 35.8931Z" fill="#FFB9B9"/>
<path d="M78.394 44.7271L82.2842 43.3691C82.2842 43.3691 80.7501 45.905 88.9963 47.3773C97.2426 48.8497 105.783 49.3709 109.612 44.546C109.612 44.546 111.085 43.8437 113.146 45.905C115.208 47.9663 116.386 47.3773 116.386 47.3773L114.913 55.0335L111.968 69.1679L108.139 79.7688L97.2426 77.413L85.4622 68.8735L81.0446 57.3892V46.7884L78.394 44.7271Z" fill="#6C63FF"/>
<path d="M114.324 48.8497L117.269 46.7884C117.269 46.7884 127.282 48.5552 127.871 53.2667L120.214 67.9901C121.776 72.0868 121.67 76.6324 119.92 80.6521C116.975 87.4249 117.269 88.8972 117.269 88.8972L115.207 97.7312L77.8049 100.676C77.8049 100.676 76.3323 97.1423 75.7433 96.5534C75.1543 95.9644 75.1543 93.9032 75.7433 93.9032C76.3323 93.9032 75.7433 93.0198 75.1543 92.1364C74.5653 91.253 74.2708 90.9585 75.1543 89.7806C76.0378 88.6028 73.6817 78.0019 73.6817 78.0019V66.5177L63.6685 53.2667C63.6685 53.2667 67.2025 47.9663 68.9696 47.3773C70.7367 46.7884 79.1424 44.4658 79.1424 44.4658L81.0445 47.266L83.695 68.579L87.5236 81.5355L103.644 78.7969L109.906 68.2845L114.029 55.9169L114.324 48.8497Z" fill="#6C63FF"/>
<path d="M125.516 51.4998L127.872 53.2666C127.872 53.2666 129.933 69.7567 129.344 70.9346C128.755 72.1125 118.447 73.2903 118.153 72.7014C117.858 72.1125 125.516 51.4998 125.516 51.4998Z" fill="#6C63FF"/>
<path d="M61.6068 69.4624C61.6068 69.4624 63.6684 96.5534 63.0794 97.7313C62.4904 98.9092 63.0794 139.84 63.0794 139.84C63.0794 139.84 58.9563 161.925 64.2574 163.103C69.5586 164.281 68.3806 138.368 68.3806 138.368L73.6817 104.21L73.0927 70.3458L61.6068 69.4624Z" fill="#FFB9B9"/>
<path d="M76.9215 43.2548L79.8666 62.6896C79.8666 62.6896 77.216 91.5474 77.805 97.4368L78.394 99.2036C78.394 99.2036 77.216 98.6146 76.9214 99.7925C76.6269 100.97 76.9214 104.798 76.9214 104.798C76.9214 104.798 75.1544 106.565 74.5654 116.283C73.9764 126 66.9082 149.263 69.5587 150.146C72.2093 151.03 88.1128 155.447 96.6535 154.563C105.194 153.68 135.823 143.374 135.529 140.723C135.234 138.073 120.509 100.676 120.509 100.676C120.509 100.676 117.858 96.2589 117.858 95.67C117.858 95.081 121.392 92.7253 120.509 90.3695C119.625 88.0138 114.913 63.2786 114.913 63.2786L118.153 45.6105L113.735 44.4326L110.495 61.5118C110.495 61.5118 97.8316 67.6956 84.5787 62.1007L81.6336 42.0769L76.9215 43.2548Z" fill="#2F2E41"/>
<path d="M66.0244 52.3833L63.6683 53.2667C63.6683 53.2667 59.2507 71.8181 60.4287 71.8181C61.6068 71.8181 75.7432 73.5849 75.7432 72.996C75.7432 72.4071 73.0926 57.9782 73.0926 57.9782L66.0244 52.3833Z" fill="#6C63FF"/>
<path d="M91.9414 9.39107C91.9414 9.39107 113.735 24.4089 119.625 17.6362C125.515 10.8634 109.317 4.97407 109.317 4.97407L95.77 3.50171L91.9414 9.39107Z" fill="#2F2E41"/>
</svg>
