<?xml version="1.0" standalone="no"?>
<!DOCTYPE svg PUBLIC "-//W3C//DTD SVG 20010904//EN"
 "http://www.w3.org/TR/2001/REC-SVG-20010904/DTD/svg10.dtd">
<svg version="1.0" xmlns="http://www.w3.org/2000/svg"
 width="864.000000pt" height="864.000000pt" viewBox="0 0 864.000000 864.000000"
 preserveAspectRatio="xMidYMid meet">
<metadata>
Created by potrace 1.14, written by Peter Selinger 2001-2017
</metadata>
<g transform="translate(0.000000,864.000000) scale(0.100000,-0.100000)"
fill="#000000" stroke="none">
<path d="M2888 8005 c-2 -3 -20 -7 -39 -10 -71 -10 -95 -17 -135 -40 -43 -25
-114 -93 -114 -109 0 -5 -6 -17 -13 -25 -13 -15 -33 -75 -44 -131 -15 -73 0
-194 40 -320 l32 -104 64 -4 c35 -2 78 -10 94 -19 20 -10 59 -16 111 -16 68
-1 90 3 140 26 67 31 128 91 157 155 22 47 37 118 33 148 -12 72 -13 104 -3
109 35 22 45 141 16 199 -23 47 -30 55 -77 83 -46 28 -111 45 -182 48 -31 2
-61 6 -66 9 -5 3 -11 3 -14 1z"/>
<path d="M2624 7135 c-10 -19 -25 -35 -34 -35 -19 0 -65 -48 -74 -78 -4 -12
-11 -22 -15 -22 -13 0 -105 -138 -135 -201 -39 -83 -62 -165 -72 -259 -2 -25
-6 -209 -8 -410 -3 -201 -7 -376 -10 -390 -3 -14 -10 -47 -16 -75 -6 -27 -18
-79 -27 -115 -8 -35 -17 -77 -19 -92 -2 -16 -6 -32 -9 -37 -2 -5 -7 -28 -10
-51 -3 -24 -8 -46 -10 -50 -4 -6 -11 -39 -21 -95 -2 -11 -12 -60 -24 -109 -11
-50 -17 -93 -13 -97 7 -7 37 -14 100 -24 53 -8 61 -15 67 -59 12 -76 17 -104
31 -176 3 -14 7 -38 9 -55 2 -16 6 -37 9 -45 3 -8 8 -33 11 -55 10 -73 17
-110 23 -135 3 -14 7 -34 8 -45 1 -11 8 -47 14 -80 7 -33 14 -73 16 -89 2 -15
7 -35 9 -45 20 -65 27 -198 11 -209 -6 -4 -15 -16 -21 -27 -6 -11 -23 -42 -39
-70 -15 -27 -37 -68 -49 -90 -12 -22 -27 -46 -33 -53 -7 -7 -13 -20 -13 -28 0
-8 -4 -14 -10 -14 -5 0 -10 -5 -10 -10 0 -6 -43 -85 -96 -178 -53 -92 -112
-195 -130 -229 -19 -34 -47 -85 -64 -113 -16 -28 -30 -55 -30 -60 0 -4 -3 -10
-7 -12 -10 -4 -43 -63 -43 -75 0 -6 18 -15 39 -22 l39 -11 -30 -83 c-17 -45
-34 -96 -39 -114 -8 -26 -14 -31 -36 -30 -23 2 -28 -4 -49 -68 -13 -38 -27
-77 -31 -85 -8 -20 -15 -60 -10 -60 3 0 99 -34 213 -75 115 -41 215 -75 223
-75 8 0 11 -3 7 -7 -4 -4 -250 -7 -548 -8 -424 0 -542 -3 -546 -12 -2 -7 0
-14 5 -14 4 -1 685 -2 1513 -4 1043 -1 1519 -5 1550 -13 25 -6 63 -13 85 -16
23 -4 51 -8 64 -11 82 -16 549 -28 576 -16 5 3 28 6 50 7 73 3 213 18 285 30
47 8 85 14 120 18 19 3 46 7 60 10 14 3 41 7 60 10 19 3 46 8 60 11 14 3 36 7
50 10 14 2 39 8 55 11 17 4 39 8 50 10 11 1 21 3 23 4 3 3 10 5 57 15 49 11
47 10 65 17 8 3 44 14 80 23 127 33 308 96 312 108 7 21 1 1770 -6 1812 -16
92 -55 168 -112 221 -30 28 -90 63 -119 70 -42 11 -66 16 -105 24 -25 4 -292
8 -594 7 l-550 -2 -23 -90 c-23 -86 -33 -235 -19 -292 13 -60 60 -119 116
-148 63 -32 125 -38 455 -39 l330 -1 -2 -80 c-1 -44 -3 -306 -4 -582 -1 -358
-5 -505 -13 -511 -41 -31 -397 -104 -518 -106 -27 -1 -48 -4 -48 -7 0 -8 -421
-4 -476 5 -36 5 -163 32 -189 40 -111 33 -208 73 -265 110 -99 64 -127 85
-186 139 -146 135 -265 342 -334 583 -11 38 -23 82 -26 98 -2 16 -7 32 -9 36
-4 6 -13 48 -20 100 -3 14 -7 36 -10 50 -3 14 -7 50 -10 80 -2 30 -7 66 -10
80 -12 61 -27 542 -17 563 2 4 5 55 7 113 2 58 6 122 9 142 3 20 8 55 11 77
25 198 33 238 56 289 10 24 21 65 24 91 11 106 131 358 240 500 64 84 217 225
244 225 6 0 11 4 11 8 0 13 177 97 265 127 175 58 470 75 672 39 63 -12 169
-37 233 -55 56 -16 52 -15 70 -22 8 -3 46 -18 84 -32 38 -14 75 -30 83 -36 7
-6 13 -9 13 -5 0 10 174 -80 253 -131 37 -23 72 -43 76 -43 5 0 11 -4 13 -8 2
-4 18 -18 36 -31 l33 -23 32 25 c57 44 157 150 157 167 0 6 4 10 9 10 15 0 98
175 112 235 14 62 17 56 -41 95 -12 8 -33 23 -45 33 -13 9 -28 17 -33 17 -6 0
-12 3 -14 8 -8 18 -227 134 -345 183 -13 5 -33 13 -45 19 -120 50 -351 116
-518 146 -14 2 -36 7 -50 9 -14 3 -45 7 -70 10 -25 2 -72 7 -105 11 -33 4
-127 7 -210 7 -177 0 -270 -8 -385 -34 -25 -5 -56 -11 -69 -14 -13 -2 -49 -12
-80 -21 -31 -9 -57 -16 -59 -15 -1 1 -18 -5 -37 -13 -20 -9 -36 -15 -38 -15
-2 0 -20 -6 -107 -41 -103 -40 -328 -171 -381 -222 -8 -7 -30 -25 -49 -40 -89
-67 -264 -253 -312 -331 -4 -6 -9 -9 -12 -6 -3 3 -29 82 -56 175 -28 93 -58
189 -66 214 -9 25 -18 54 -20 64 -2 11 -13 47 -24 81 -11 34 -22 70 -25 81 -2
10 -15 53 -27 94 -19 61 -29 77 -53 90 -16 8 -38 25 -48 38 -10 12 -25 22 -33
22 -8 0 -14 4 -14 8 0 14 -169 92 -200 92 -4 0 -15 -16 -26 -35z m222 -3187
c3 -18 9 -55 15 -83 5 -27 11 -60 14 -73 2 -13 7 -31 9 -40 3 -9 8 -93 11
-187 3 -93 7 -240 10 -325 3 -85 7 -227 10 -314 4 -163 8 -178 45 -169 17 4
18 -2 17 -69 -2 -67 -4 -73 -24 -76 -22 -3 -23 -7 -20 -103 1 -59 -2 -100 -8
-102 -9 -3 -582 -1 -595 2 -3 1 -4 18 -2 39 6 66 -15 120 -68 173 -27 27 -55
49 -62 49 -11 0 -115 38 -127 47 -2 2 9 29 25 60 16 32 28 61 26 66 -1 4 2 7
7 7 5 0 15 16 21 35 11 33 14 35 44 29 l33 -6 183 309 c101 169 189 319 197
333 8 14 22 39 32 55 104 170 172 295 181 336 14 56 19 57 26 7z m480 -1096
c38 -43 93 -98 122 -123 29 -24 61 -51 70 -60 68 -62 271 -178 392 -224 41
-16 78 -31 82 -34 6 -5 -437 -7 -464 -2 -3 0 -14 23 -23 50 -18 55 -73 115
-125 138 -21 9 -70 15 -123 16 l-88 2 6 50 c3 28 7 61 9 75 1 15 8 25 18 25 9
0 19 3 22 6 7 7 19 103 17 137 0 12 3 22 8 22 4 0 39 -35 77 -78z"/>
</g>
</svg>
