<svg width="369" height="191" viewBox="0 0 369 191" fill="none" xmlns="http://www.w3.org/2000/svg">
<path d="M256.187 -5.75739e-05L0 151.297L7.70463 164.256L263.891 12.9586L256.187 -5.75739e-05Z" fill="#F2F2F2"/>
<path d="M311.868 12.6845L55.6815 163.982L63.3861 176.941L319.573 25.6432L311.868 12.6845Z" fill="#F2F2F2"/>
<path d="M361.186 26.5582L104.999 177.856L112.704 190.815L368.891 39.5169L361.186 26.5582Z" fill="#F2F2F2"/>
<path d="M166.868 177.357C211.166 177.357 247.077 141.567 247.077 97.417C247.077 53.2672 211.166 17.4767 166.868 17.4767C122.57 17.4767 86.6588 53.2672 86.6588 97.417C86.6588 141.567 122.57 177.357 166.868 177.357Z" fill="white"/>
<path d="M86.0623 97.417C86.0623 53.0099 122.311 16.8821 166.868 16.8821C211.424 16.8821 247.673 53.0099 247.673 97.417C247.673 141.824 211.424 177.952 166.868 177.952C122.311 177.952 86.0623 141.824 86.0623 97.417ZM87.2555 97.417C87.2555 141.168 122.969 176.763 166.868 176.763C210.766 176.763 246.48 141.168 246.48 97.417C246.48 53.6657 210.766 18.0713 166.868 18.0713C122.969 18.0713 87.2554 53.6657 87.2554 97.417H87.2555Z" fill="#3F3D56"/>
<path d="M152.57 97.7646C152.57 94.9461 153.408 92.191 154.979 89.8475C156.55 87.5041 158.784 85.6776 161.396 84.599C164.009 83.5205 166.884 83.2383 169.657 83.7881C172.431 84.3379 174.979 85.6952 176.978 87.6881C178.978 89.681 180.34 92.2202 180.891 94.9844C181.443 97.7487 181.16 100.614 180.078 103.218C178.995 105.822 177.163 108.047 174.811 109.613C172.46 111.179 169.696 112.015 166.868 112.015C163.076 112.015 159.439 110.513 156.758 107.841C154.076 105.169 152.57 101.544 152.57 97.7645V97.7646ZM166.868 84.2094C163.262 84.2135 159.805 85.6429 157.255 88.1841C154.705 90.7253 153.271 94.1708 153.267 97.7646C153.267 100.446 154.065 103.066 155.559 105.295C157.054 107.524 159.178 109.262 161.663 110.288C164.148 111.314 166.883 111.582 169.521 111.059C172.159 110.536 174.583 109.245 176.485 107.349C178.387 105.454 179.682 103.038 180.207 100.409C180.732 97.7796 180.463 95.0541 179.433 92.5772C178.404 90.1004 176.661 87.9833 174.424 86.4939C172.187 85.0044 169.558 84.2094 166.868 84.2094Z" fill="#3F3D56"/>
<path d="M139.667 97.7646C139.667 92.4027 141.262 87.1612 144.251 82.703C147.24 78.2448 151.488 74.77 156.458 72.7181C161.429 70.6662 166.898 70.1293 172.175 71.1753C177.451 72.2214 182.298 74.8034 186.102 78.5948C189.906 82.3863 192.497 87.2168 193.547 92.4757C194.596 97.7346 194.057 103.186 191.999 108.139C189.94 113.093 186.453 117.327 181.98 120.306C177.507 123.285 172.248 124.875 166.868 124.875C163.296 124.875 159.759 124.174 156.458 122.811C153.158 121.449 150.159 119.452 147.634 116.934C145.108 114.417 143.104 111.428 141.737 108.139C140.37 104.85 139.667 101.325 139.667 97.7646V97.7646ZM166.868 71.3495C161.626 71.3495 156.502 72.8988 152.143 75.8013C147.785 78.7038 144.388 82.8293 142.382 87.656C140.375 92.4827 139.851 97.7939 140.873 102.918C141.896 108.042 144.42 112.749 148.127 116.443C151.833 120.137 156.556 122.653 161.697 123.672C166.838 124.691 172.168 124.168 177.01 122.169C181.853 120.17 185.993 116.784 188.905 112.44C191.817 108.096 193.372 102.989 193.372 97.7646C193.364 90.7613 190.569 84.0471 185.6 79.0951C180.631 74.143 173.895 71.3574 166.868 71.3495Z" fill="#CCCCCC"/>
<path d="M113.86 97.7646C113.86 87.3158 116.969 77.1016 122.794 68.4137C128.618 59.7259 136.897 52.9545 146.583 48.9559C156.269 44.9573 166.927 43.9111 177.209 45.9496C187.492 47.9881 196.937 53.0196 204.35 60.4081C211.763 67.7965 216.812 77.2099 218.857 87.458C220.902 97.706 219.853 108.328 215.841 117.982C211.829 127.635 205.034 135.886 196.317 141.691C187.6 147.496 177.352 150.595 166.868 150.595C152.814 150.579 139.341 145.008 129.403 135.104C119.466 125.2 113.876 111.771 113.86 97.7646ZM166.868 45.6296C156.522 45.6296 146.408 48.6873 137.806 54.416C129.203 60.1446 122.499 68.287 118.539 77.8134C114.58 87.3398 113.544 97.8224 115.563 107.936C117.581 118.049 122.563 127.338 129.879 134.63C137.195 141.921 146.515 146.886 156.663 148.898C166.81 150.909 177.328 149.877 186.886 145.931C196.445 141.985 204.614 135.303 210.362 126.729C216.11 118.156 219.178 108.076 219.178 97.7646C219.162 83.9424 213.646 70.6907 203.839 60.9169C194.033 51.1431 180.737 45.6453 166.868 45.6296Z" fill="#CCCCCC"/>
<path d="M166.868 104.021C170.527 104.021 173.494 101.064 173.494 97.417C173.494 93.7698 170.527 90.8132 166.868 90.8132C163.208 90.8132 160.242 93.7698 160.242 97.417C160.242 101.064 163.208 104.021 166.868 104.021Z" fill="#6C63FF"/>
<path d="M149.78 123.137C153.439 123.137 156.406 120.18 156.406 116.533C156.406 112.886 153.439 109.929 149.78 109.929C146.12 109.929 143.154 112.886 143.154 116.533C143.154 120.18 146.12 123.137 149.78 123.137Z" fill="#6C63FF"/>
<path d="M216.446 120.356C220.105 120.356 223.072 117.4 223.072 113.753C223.072 110.106 220.105 107.149 216.446 107.149C212.786 107.149 209.82 110.106 209.82 113.753C209.82 117.4 212.786 120.356 216.446 120.356Z" fill="#6C63FF"/>
<path d="M166.868 100.545C168.601 100.545 170.006 99.1446 170.006 97.417C170.006 95.6894 168.601 94.2889 166.868 94.2889C165.134 94.2889 163.729 95.6894 163.729 97.417C163.729 99.1446 165.134 100.545 166.868 100.545Z" fill="#2F2E41"/>
<path d="M216.446 116.881C218.179 116.881 219.584 115.48 219.584 113.753C219.584 112.025 218.179 110.625 216.446 110.625C214.712 110.625 213.307 112.025 213.307 113.753C213.307 115.48 214.712 116.881 216.446 116.881Z" fill="#2F2E41"/>
<path d="M149.78 120.009C151.513 120.009 152.918 118.608 152.918 116.881C152.918 115.153 151.513 113.753 149.78 113.753C148.046 113.753 146.641 115.153 146.641 116.881C146.641 118.608 148.046 120.009 149.78 120.009Z" fill="#2F2E41"/>
<path d="M20.3992 65.4409C22.1326 65.4409 23.5378 64.0404 23.5378 62.3128C23.5378 60.5852 22.1326 59.1847 20.3992 59.1847C18.6658 59.1847 17.2606 60.5852 17.2606 62.3128C17.2606 64.0404 18.6658 65.4409 20.3992 65.4409Z" fill="#6C63FF"/>
<path d="M166.693 62.4868H28.9429V61.7916H167.391V97.5905H166.693V62.4868Z" fill="#2F2E41"/>
<path d="M11.332 62.3128C11.332 60.5255 11.8638 58.7783 12.8601 57.2922C13.8564 55.8061 15.2725 54.6479 16.9293 53.9639C18.5861 53.2799 20.4092 53.101 22.168 53.4496C23.9269 53.7983 25.5425 54.659 26.8105 55.9228C28.0786 57.1866 28.9422 58.7968 29.292 60.5498C29.6419 62.3027 29.4623 64.1197 28.7761 65.771C28.0898 67.4222 26.9276 68.8336 25.4366 69.8265C23.9455 70.8195 22.1924 71.3495 20.3991 71.3495C19.2084 71.3495 18.0294 71.1158 16.9293 70.6616C15.8292 70.2075 14.8297 69.5419 13.9877 68.7027C13.1458 67.8636 12.4779 66.8674 12.0222 65.771C11.5665 64.6746 11.332 63.4995 11.332 62.3128ZM20.3991 53.9712C18.7438 53.9712 17.1256 54.4604 15.7492 55.377C14.3728 56.2936 13.3001 57.5963 12.6666 59.1206C12.0331 60.6448 11.8674 62.322 12.1903 63.9401C12.5132 65.5582 13.3104 67.0446 14.4809 68.2112C15.6514 69.3778 17.1427 70.1722 18.7663 70.4941C20.3898 70.816 22.0727 70.6508 23.602 70.0194C25.1314 69.3881 26.4386 68.3189 27.3582 66.9471C28.2779 65.5753 28.7688 63.9626 28.7688 62.3128C28.7662 60.1012 27.8836 57.981 26.3146 56.4172C24.7455 54.8534 22.6181 53.9737 20.3991 53.9712Z" fill="#2F2E41"/>
<path d="M41.3233 155.461C43.0567 155.461 44.4619 154.06 44.4619 152.332C44.4619 150.605 43.0567 149.204 41.3233 149.204C39.5899 149.204 38.1847 150.605 38.1847 152.332C38.1847 154.06 39.5899 155.461 41.3233 155.461Z" fill="#6C63FF"/>
<path d="M32.2562 152.332C32.2562 150.545 32.7879 148.798 33.7842 147.312C34.7806 145.826 36.1966 144.668 37.8534 143.984C39.5102 143.3 41.3333 143.121 43.0922 143.469C44.851 143.818 46.4666 144.679 47.7347 145.943C49.0027 147.206 49.8663 148.817 50.2162 150.57C50.566 152.322 50.3865 154.139 49.7002 155.791C49.0139 157.442 47.8518 158.853 46.3607 159.846C44.8696 160.839 43.1166 161.369 41.3233 161.369C38.9185 161.369 36.6123 160.417 34.9119 158.722C33.2115 157.028 32.2562 154.729 32.2562 152.332ZM41.3233 143.991C39.6679 143.991 38.0497 144.48 36.6734 145.397C35.297 146.313 34.2242 147.616 33.5907 149.14C32.9572 150.665 32.7915 152.342 33.1144 153.96C33.4374 155.578 34.2345 157.064 35.405 158.231C36.5755 159.397 38.0669 160.192 39.6904 160.514C41.314 160.836 42.9968 160.67 44.5262 160.039C46.0555 159.408 47.3627 158.339 48.2824 156.967C49.202 155.595 49.6929 153.982 49.6929 152.332C49.6904 150.121 48.8077 148.001 47.2387 146.437C45.6696 144.873 43.5423 143.993 41.3233 143.991Z" fill="#2F2E41"/>
<path d="M313.743 80.0387C315.476 80.0387 316.881 78.6382 316.881 76.9106C316.881 75.183 315.476 73.7825 313.743 73.7825C312.009 73.7825 310.604 75.183 310.604 76.9106C310.604 78.6382 312.009 80.0387 313.743 80.0387Z" fill="#6C63FF"/>
<path d="M304.676 76.9105C304.676 75.1232 305.207 73.3761 306.204 71.89C307.2 70.4039 308.616 69.2456 310.273 68.5617C311.93 67.8777 313.753 67.6987 315.512 68.0474C317.271 68.3961 318.886 69.2568 320.154 70.5206C321.422 71.7844 322.286 73.3946 322.636 75.1475C322.986 76.9005 322.806 78.7175 322.12 80.3687C321.433 82.02 320.271 83.4313 318.78 84.4243C317.289 85.4173 315.536 85.9473 313.743 85.9473C312.552 85.9473 311.373 85.7135 310.273 85.2594C309.173 84.8052 308.173 84.1396 307.331 83.3005C306.489 82.4613 305.821 81.4651 305.366 80.3687C304.91 79.2723 304.676 78.0972 304.676 76.9105ZM313.743 68.5689C311.524 68.5715 309.396 69.4511 307.827 71.0149C306.258 72.5787 305.376 74.699 305.373 76.9105C305.373 78.5603 305.864 80.1731 306.784 81.5449C307.703 82.9166 309.01 83.9858 310.54 84.6172C312.069 85.2485 313.752 85.4137 315.376 85.0918C316.999 84.77 318.49 83.9755 319.661 82.8089C320.832 81.6423 321.629 80.156 321.952 78.5379C322.275 76.9198 322.109 75.2425 321.475 73.7183C320.842 72.1941 319.769 70.8913 318.393 69.9747C317.016 69.0581 315.398 68.5689 313.743 68.5689V68.5689Z" fill="#2F2E41"/>
<path d="M216.097 77.9586L305.019 76.5631L305.03 77.2578L216.794 78.6429V113.753H216.097V77.9586Z" fill="#2F2E41"/>
<path d="M50.0419 151.985H149.431V116.881H150.128V152.68H50.0419V151.985Z" fill="#2F2E41"/>
<path d="M39.5796 78.6484H1.21875V81.0814H39.5796V78.6484Z" fill="#CCCCCC"/>
<path d="M39.5796 85.5997H1.21875V88.0327H39.5796V85.5997Z" fill="#CCCCCC"/>
<path d="M39.5796 92.551H1.21875V94.984H39.5796V92.551Z" fill="#CCCCCC"/>
<path d="M60.5037 168.668H22.1428V171.101H60.5037V168.668Z" fill="#CCCCCC"/>
<path d="M60.5037 175.62H22.1428V178.052H60.5037V175.62Z" fill="#CCCCCC"/>
<path d="M60.5037 182.571H22.1428V185.004H60.5037V182.571Z" fill="#CCCCCC"/>
<path d="M332.923 93.5938H294.562V96.0267H332.923V93.5938Z" fill="#CCCCCC"/>
<path d="M332.923 100.545H294.562V102.978H332.923V100.545Z" fill="#CCCCCC"/>
<path d="M332.923 107.496H294.562V109.929H332.923V107.496Z" fill="#CCCCCC"/>
</svg>
