<svg width="106" height="180" viewBox="0 0 106 180" fill="none" xmlns="http://www.w3.org/2000/svg">
<path d="M81.564 168.243L76.1088 170.186L65.9924 150.139L74.0442 147.271L81.564 168.243Z" fill="#FFB8B8"/>
<path d="M67.2549 179.283L67.1753 179.061C66.5287 177.251 66.6288 175.26 67.4536 173.523C68.2785 171.787 69.7608 170.447 71.5754 169.799L82.3191 165.972L84.8457 173.018L67.2549 179.283Z" fill="#2F2E41"/>
<path d="M46.089 173.621L40.2955 173.62L37.5396 151.349L46.0899 151.349L46.089 173.621Z" fill="#FFB8B8"/>
<path d="M47.5663 179.218L28.886 179.217V178.981C28.886 178.03 29.0741 177.087 29.4395 176.208C29.8049 175.329 30.3405 174.53 31.0157 173.857C31.6909 173.184 32.4924 172.651 33.3745 172.286C34.2567 171.922 35.2022 171.735 36.157 171.735H36.1575L47.5667 171.735L47.5663 179.218Z" fill="#2F2E41"/>
<path d="M59.2921 31.3361L56.7726 26.3743C56.7726 26.3743 47.3865 28.718 46.5332 34.1396L59.2921 31.3361Z" fill="#6C63FF"/>
<path d="M69.6883 88.0713L62.8363 126.179L81.0295 158.246L70.1608 162.484L51.7313 131.4L49.3685 122.923L47.9509 167.194L38.1487 166.897L33.6543 125.559L40.8626 87.1294L69.6883 88.0713Z" fill="#2F2E41"/>
<path d="M36.9623 94.946C36.7497 94.0022 36.1398 65.1933 36.1398 65.1933C36.1398 65.1933 46.2172 32.2214 46.3093 31.9505L46.3453 31.8447L53.9963 28.9858C54.1036 28.937 56.6526 27.8051 58.7386 28.7484C59.2736 29.0079 59.7454 29.3806 60.1209 29.8405C60.4964 30.3005 60.7667 30.8366 60.9128 31.4114C61.7806 32.0558 68.0343 39.0375 68.0343 48.5075L68.2703 70.8546L73.5133 95.0815L73.2815 95.1307C73.1383 95.161 66.7474 97.0799 56.6815 97.0799C51.0886 97.0799 36.9623 94.946 36.9623 94.946Z" fill="#3F3D56"/>
<path d="M48.9469 24.8119C54.658 24.8119 59.2877 20.1977 59.2877 14.5057C59.2877 8.81381 54.658 4.19958 48.9469 4.19958C43.2359 4.19958 38.6061 8.81381 38.6061 14.5057C38.6061 20.1977 43.2359 24.8119 48.9469 24.8119Z" fill="#FFB8B8"/>
<path opacity="0.2" d="M63.6788 59.9102L45.5881 85.0674L42.9163 73.3191L63.6788 59.9102Z" fill="black"/>
<path d="M31.5704 85.6099C32.2186 85.5842 32.8533 85.4172 33.4298 85.1206C34.0063 84.8241 34.5105 84.4051 34.907 83.8933C35.3034 83.3815 35.5824 82.7893 35.7244 82.1584C35.8664 81.5275 35.8678 80.8733 35.7286 80.2417L49.171 72.0237L41.7483 68.5627L30.1211 76.8973C29.0721 77.2007 28.1713 77.877 27.5892 78.7982C27.0071 79.7193 26.7843 80.8212 26.9629 81.8952C27.1416 82.9691 27.7092 83.9404 28.5584 84.625C29.4076 85.3097 30.4793 85.6601 31.5704 85.6099Z" fill="#FFB8B8"/>
<path d="M40.8626 68.7616L36.2585 71.9769L40.1633 78.8875L45.5882 74.4132L40.8626 68.7616Z" fill="#6C63FF"/>
<path d="M38.4523 68.9643L49.2817 56.4537L45.1326 39.1981C44.7037 37.4148 44.9407 35.5369 45.7993 33.915C46.6579 32.2931 48.0794 31.0381 49.7985 30.3842C51.5175 29.7304 53.4166 29.7225 55.141 30.362C56.8655 31.0014 58.2975 32.2445 59.1697 33.8592L59.264 34.0339L63.0872 59.6585L43.8759 79.2842L38.4523 68.9643Z" fill="#3F3D56"/>
<path d="M57.755 23.4539L49.1721 23.7609C48.6489 23.7796 47.229 18.1524 47.0431 16.985C46.8962 16.225 46.4768 15.5443 45.8631 15.07C45.2495 14.5957 44.4836 14.3602 43.7084 14.4076C43.066 14.4681 41.4458 13.2718 39.774 11.8552C36.6001 9.16591 36.7652 4.11492 40.2518 1.84244C40.3471 1.78033 40.4406 1.72361 40.5324 1.6723C42.7319 0.445331 45.3049 0.0333118 47.8253 0.00188877C50.1101 -0.0265907 52.4597 0.260017 54.4726 1.33784C58.0812 3.27015 60.0018 7.49279 60.1705 11.5721C60.3392 15.6514 59.027 19.6403 57.538 23.4438" fill="#2F2E41"/>
<path d="M104.907 179.358H0.472552C0.347224 179.358 0.227035 179.309 0.138414 179.221C0.0497935 179.132 0 179.012 0 178.887C0 178.763 0.0497935 178.643 0.138414 178.554C0.227035 178.466 0.347224 178.417 0.472552 178.417H104.907C105.032 178.417 105.152 178.466 105.241 178.554C105.329 178.643 105.379 178.763 105.379 178.887C105.379 179.012 105.329 179.132 105.241 179.221C105.152 179.309 105.032 179.358 104.907 179.358Z" fill="#3F3D56"/>
</svg>
