<svg width="17" height="17" viewBox="0 0 17 17" fill="none" xmlns="http://www.w3.org/2000/svg">
<path fill-rule="evenodd" clip-rule="evenodd" d="M16.18 8.68174C16.18 8.11447 16.1291 7.56902 16.0345 7.04538H8.5V10.1399H12.8055C12.62 11.1399 12.0564 11.9872 11.2091 12.5545V14.5617H13.7945C15.3073 13.169 16.18 11.1181 16.18 8.68174Z" fill="#4285F4"/>
<path fill-rule="evenodd" clip-rule="evenodd" d="M8.49974 16.5C10.6597 16.5 12.4706 15.7836 13.7943 14.5618L11.2088 12.5545C10.4925 13.0345 9.5761 13.3182 8.49974 13.3182C6.4161 13.3182 4.65247 11.9109 4.02337 10.02H1.35065V12.0927C2.66701 14.7073 5.37247 16.5 8.49974 16.5Z" fill="#34A853"/>
<path fill-rule="evenodd" clip-rule="evenodd" d="M4.02364 10.0201C3.86364 9.54008 3.77273 9.02735 3.77273 8.50008C3.77273 7.9728 3.86364 7.46008 4.02364 6.98008V4.90735H1.35091C0.809091 5.98735 0.5 7.20917 0.5 8.50008C0.5 9.79098 0.809091 11.0128 1.35091 12.0928L4.02364 10.0201Z" fill="#FBBC05"/>
<path fill-rule="evenodd" clip-rule="evenodd" d="M8.49974 3.68182C9.67428 3.68182 10.7288 4.08545 11.5579 4.87818L13.8525 2.58364C12.467 1.29273 10.6561 0.5 8.49974 0.5C5.37247 0.5 2.66701 2.29273 1.35065 4.90727L4.02337 6.98C4.65247 5.08909 6.4161 3.68182 8.49974 3.68182Z" fill="#EA4335"/>
</svg>
