<svg width="40" height="54" viewBox="0 0 40 54" fill="none" xmlns="http://www.w3.org/2000/svg">
<path d="M31.9632 13.498C31.8538 14.1403 31.5942 14.7485 31.1842 15.3225C30.7742 15.8828 30.3573 16.2997 29.9337 16.573C28.9633 15.835 27.8358 15.2268 26.5512 14.7485C25.2665 14.2702 23.9545 14.031 22.6152 14.031C21.1392 14.031 19.7998 14.3932 18.5972 15.1175C17.4082 15.8282 16.4652 17.0035 15.7682 18.6435C15.0712 20.2835 14.7227 22.4838 14.7227 25.2445C14.7227 28.9208 15.406 31.6473 16.7727 33.424C18.153 35.187 20.2167 36.0685 22.9637 36.0685C24.4123 36.0685 25.7653 35.9113 27.0227 35.597C28.2937 35.269 29.2503 34.9547 29.8927 34.654L32.0247 37.7905C31.2047 38.0912 30.248 38.3782 29.1547 38.6515C28.075 38.9112 26.9407 39.123 25.7517 39.287C24.5627 39.451 23.3873 39.533 22.2257 39.533C20.0117 39.533 18.1462 39.1435 16.6292 38.3645C15.1258 37.5855 13.9163 36.5263 13.0007 35.187C12.0987 33.8477 11.4427 32.317 11.0327 30.595C10.6363 28.873 10.4382 27.0758 10.4382 25.2035C10.4382 22.5795 10.7798 20.3382 11.4632 18.4795C12.1465 16.6072 13.0622 15.0833 14.2102 13.908C15.3718 12.7327 16.677 11.8648 18.1257 11.3045C19.5743 10.7442 21.0572 10.464 22.5742 10.464C24.2688 10.464 25.9567 10.7373 27.6377 11.284C29.3187 11.8307 30.7605 12.5687 31.9632 13.498ZM28.0477 30.554C28.0477 29.5973 28.075 28.7295 28.1297 27.9505C28.1843 27.1578 28.2868 26.4608 28.4372 25.8595L32.0247 27.0895V37.7905L28.0477 37.852V30.554ZM29.0317 24.3835C30.1387 24.3835 30.9108 24.6158 31.3482 25.0805C31.7992 25.5452 32.0247 26.2148 32.0247 27.0895V27.971H24.4807C24.1527 27.971 23.8315 27.93 23.5172 27.848C23.2028 27.766 22.9363 27.5952 22.7177 27.3355C22.5127 27.0758 22.4102 26.6863 22.4102 26.167C22.4102 25.8663 22.4443 25.5588 22.5127 25.2445C22.581 24.9302 22.6562 24.6432 22.7382 24.3835H29.0317Z" fill="#7879F1"/>
<path d="M4.66715 36.9738L5.73615 37.3546L7.71857 33.4256L6.14073 32.8635L4.66715 36.9738Z" fill="#FFB8B8"/>
<path d="M7.47036 39.1377L7.48596 39.0942C7.61267 38.7395 7.59305 38.3492 7.43141 38.0088C7.26977 37.6685 6.97929 37.406 6.62371 37.2788L4.51835 36.5288L4.02324 37.9097L7.47036 39.1377Z" fill="#2F2E41"/>
<path d="M11.618 38.0279L12.7533 38.0278L13.2933 33.6628L11.6178 33.6629L11.618 38.0279Z" fill="#FFB8B8"/>
<path d="M11.3292 39.1249L14.9898 39.1247V39.0786C14.9898 38.8921 14.9529 38.7074 14.8813 38.5351C14.8097 38.3627 14.7048 38.2062 14.5725 38.0743C14.4402 37.9424 14.2831 37.8378 14.1102 37.7664C13.9374 37.6951 13.7521 37.6583 13.565 37.6583H13.5649L11.3291 37.6584L11.3292 39.1249Z" fill="#2F2E41"/>
<path d="M9.03105 10.1417L9.52478 9.16919C9.52478 9.16919 11.3641 9.62853 11.5313 10.6911L9.03105 10.1417Z" fill="#6C63FF"/>
<path d="M6.99459 21.261L8.33731 28.7297L4.77214 35.0145L6.90198 35.8453L10.5135 29.7531L10.9765 28.0916L11.2543 36.7683L13.1751 36.7102L14.0558 28.6083L12.6433 21.0764L6.99459 21.261Z" fill="#4F4D70"/>
<path d="M13.4069 22.6084C13.4485 22.4235 13.5681 16.7772 13.5681 16.7772C13.5681 16.7772 11.5933 10.315 11.5752 10.2619L11.5682 10.2412L10.0689 9.68088C10.0478 9.67133 9.54833 9.44949 9.13955 9.63437C9.03471 9.68522 8.94227 9.75826 8.86868 9.84841C8.7951 9.93856 8.74214 10.0436 8.71351 10.1563C8.54345 10.2826 7.31797 11.6509 7.31797 13.507L7.27171 17.8868L6.24429 22.635L6.28971 22.6446C6.31777 22.6506 7.57015 23.0267 9.54267 23.0267C10.6387 23.0267 13.4069 22.6084 13.4069 22.6084Z" fill="#4F4D70"/>
<path d="M11.0589 8.86281C9.93979 8.86281 9.03254 7.95847 9.03254 6.8429C9.03254 5.72734 9.93979 4.823 11.0589 4.823C12.1781 4.823 13.0853 5.72734 13.0853 6.8429C13.0853 7.95847 12.1781 8.86281 11.0589 8.86281Z" fill="#FFB8B8"/>
<path opacity="0.2" d="M8.17225 15.7419L11.7173 20.6725L12.2409 18.37L8.17225 15.7419Z" fill="black"/>
<path d="M14.4633 20.7787C14.3363 20.7737 14.2119 20.7409 14.099 20.6828C13.986 20.6247 13.8872 20.5426 13.8095 20.4423C13.7318 20.342 13.6771 20.2259 13.6493 20.1022C13.6215 19.9786 13.6212 19.8504 13.6485 19.7266L11.0143 18.1159L12.4689 17.4376L14.7473 19.0711C14.9529 19.1306 15.1294 19.2631 15.2435 19.4437C15.3576 19.6242 15.4012 19.8402 15.3662 20.0506C15.3312 20.2611 15.22 20.4515 15.0536 20.5857C14.8872 20.7199 14.6771 20.7885 14.4633 20.7787V20.7787Z" fill="#FFB8B8"/>
<path d="M12.6431 17.4767L13.5453 18.1069L12.7802 19.4613L11.7171 18.5844L12.6431 17.4767Z" fill="#6C63FF"/>
<path d="M13.1155 17.5163L10.9934 15.0644L11.8065 11.6825C11.8905 11.333 11.8441 10.9649 11.6758 10.647C11.5076 10.3292 11.229 10.0832 10.8921 9.95504C10.5553 9.82689 10.1831 9.82534 9.84519 9.95067C9.50726 10.076 9.22665 10.3196 9.05573 10.6361L9.03725 10.6703L8.28806 15.6925L12.0527 19.5389L13.1155 17.5163Z" fill="#6E6C7C"/>
<path d="M9.33227 8.59673L11.0142 8.65691C11.1167 8.66058 11.395 7.55769 11.4314 7.32889C11.4602 7.17994 11.5424 7.04653 11.6626 6.95357C11.7829 6.86061 11.933 6.81446 12.0848 6.82375C12.2108 6.8356 12.5282 6.60114 12.8558 6.32351C13.4778 5.79643 13.4455 4.80648 12.7622 4.3611C12.7435 4.34893 12.7252 4.33781 12.7072 4.32775C12.2762 4.08728 11.772 4.00653 11.2781 4.00037C10.8304 3.99479 10.3699 4.05096 9.9755 4.2622C9.26834 4.64092 8.89199 5.46851 8.85893 6.26802C8.82588 7.06753 9.083 7.8493 9.37479 8.59476" fill="#2F2E41"/>
<path d="M0.0925884 39.1525H20.5576C20.5822 39.1525 20.6057 39.1428 20.6231 39.1255C20.6404 39.1082 20.6502 39.0847 20.6502 39.0602C20.6502 39.0357 20.6404 39.0122 20.6231 38.9949C20.6057 38.9776 20.5822 38.9679 20.5576 38.9679H0.0925884C0.0680289 38.9679 0.0444766 38.9776 0.0271103 38.9949C0.00974411 39.0122 -1.34781e-05 39.0357 -1.34781e-05 39.0602C-1.34781e-05 39.0847 0.00974411 39.1082 0.0271103 39.1255C0.0444766 39.1428 0.0680289 39.1525 0.0925884 39.1525Z" fill="#3F3D56"/>
</svg>
