<svg width="236" height="273" viewBox="0 0 236 273" fill="none" xmlns="http://www.w3.org/2000/svg">
<g clip-path="url(#clip0_302_711)">
<path d="M192.203 170.045C192.203 172.841 192.086 175.609 191.85 178.349C191.665 180.487 191.412 182.606 191.092 184.707C190.752 186.93 190.335 189.127 189.841 191.297V191.3C189.518 192.728 189.163 194.144 188.777 195.549C187.656 199.633 186.263 203.637 184.605 207.535C184.245 208.383 183.873 209.225 183.489 210.061C182.037 213.228 180.411 216.312 178.619 219.3C173.593 227.691 167.319 235.268 160.012 241.773C159.221 242.476 158.419 243.167 157.607 243.847C140.355 258.25 118.581 266.124 96.1017 266.089C43.0255 266.089 0 223.089 0 170.045C0 117 43.0255 74 96.1017 74C117.807 73.9658 138.879 81.3084 155.857 94.8222C156.653 95.4525 157.439 96.0969 158.215 96.7556C162.001 99.9645 165.534 103.46 168.784 107.21H168.786C183.921 124.646 192.238 146.963 192.203 170.045V170.045Z" fill="#F2F2F2"/>
<path d="M28.3691 186.635C19.2143 181.19 12.3046 171.013 13.2016 160.403C21.5714 168.409 32.5048 173.198 44.0675 173.923C48.5278 174.187 53.5162 174.016 56.7994 177.044C58.8424 178.929 59.7934 181.766 59.9494 184.54C60.1053 187.314 59.5493 190.074 58.9961 192.797L59.1865 193.464C48.533 193.504 37.5239 192.081 28.3691 186.635Z" fill="#E6E6E6"/>
<path d="M13.4249 160.392C17.093 168.406 23.1945 175.062 30.8629 179.413C32.5114 180.335 34.264 181.127 36.1265 181.495C37.9446 181.839 39.8219 181.69 41.5631 181.064C43.1984 180.513 44.8072 179.76 46.548 179.616C48.383 179.464 50.0817 180.171 51.4164 181.411C53.0494 182.927 54.0399 184.939 54.9401 186.94C55.9396 189.162 56.9426 191.486 58.8589 193.084C59.0911 193.278 58.7769 193.627 58.5451 193.434C55.211 190.653 54.6668 185.997 52.0016 182.723C50.758 181.195 49.0462 180.032 47.0125 180.063C45.2342 180.09 43.5745 180.865 41.9235 181.437C40.1901 182.038 38.4535 182.32 36.6234 182.056C34.7513 181.785 32.964 181.06 31.2992 180.184C27.5386 178.169 24.1185 175.576 21.1639 172.5C17.7725 169.007 15.0037 164.961 12.9776 160.535C12.8523 160.261 13.3004 160.12 13.4249 160.392H13.4249Z" fill="white"/>
<path d="M28.3112 178.157C27.4061 179.344 26.1083 180.171 24.6497 180.489C23.1911 180.808 21.6666 180.598 20.3485 179.897C20.0823 179.754 20.2917 179.334 20.5583 179.477C21.7845 180.132 23.2046 180.328 24.5622 180.028C25.9199 179.728 27.1257 178.954 27.9619 177.844C28.144 177.603 28.4922 177.918 28.3112 178.157L28.3112 178.157Z" fill="white"/>
<path d="M40.7708 181.453C40.3898 178.427 38.8815 175.655 36.5466 173.69C36.3151 173.496 36.6292 173.147 36.8604 173.341C39.2864 175.39 40.8502 178.278 41.2396 181.428C41.2766 181.728 40.8075 181.752 40.7708 181.453V181.453Z" fill="white"/>
<path d="M18.3547 168.787C18.8007 168.401 19.1437 167.91 19.3529 167.358C19.5621 166.807 19.631 166.212 19.5534 165.628C19.5127 165.328 19.9818 165.305 20.0222 165.603C20.105 166.249 20.0281 166.906 19.7983 167.515C19.5685 168.125 19.1928 168.67 18.704 169.101C18.6613 169.145 18.6033 169.172 18.5417 169.175C18.4801 169.178 18.4196 169.158 18.3724 169.118C18.3264 169.077 18.2987 169.018 18.2954 168.956C18.2921 168.894 18.3134 168.833 18.3547 168.787V168.787Z" fill="white"/>
<path d="M42.8351 139.849C42.8658 140.036 42.8966 140.222 42.9309 140.41C43.3572 142.914 43.9863 145.379 44.8121 147.781C44.873 147.968 44.9375 148.157 45.0036 148.341C47.0548 154.107 50.1593 159.442 54.1592 164.075C55.7526 165.918 57.4839 167.636 59.3382 169.216C61.8991 171.397 64.8494 173.559 66.4913 176.376C66.6659 176.668 66.8223 176.97 66.9595 177.281L59.9859 193.18C59.9519 193.208 59.9215 193.238 59.8874 193.266L59.638 193.914C59.5367 193.839 59.4332 193.759 59.3319 193.684C59.2729 193.641 59.2155 193.595 59.1566 193.551C59.1178 193.522 59.079 193.491 59.0423 193.467C59.0293 193.457 59.0164 193.447 59.0071 193.438C58.9704 193.414 58.9389 193.387 58.9058 193.364C58.3261 192.919 57.7486 192.47 57.1731 192.017C57.1695 192.015 57.1695 192.015 57.1674 192.01C52.7917 188.54 48.6674 184.675 45.2612 180.307C45.1588 180.176 45.0526 180.043 44.9534 179.904C43.429 177.927 42.0688 175.828 40.8865 173.629C40.243 172.423 39.6609 171.185 39.1427 169.92C37.8098 166.649 37 163.189 36.743 159.667C36.2317 152.645 37.9732 145.538 42.4863 140.25C42.6019 140.115 42.7159 139.983 42.8351 139.849Z" fill="#E6E6E6"/>
<path d="M43.0213 139.974C41.1221 148.58 41.9844 157.565 45.4858 165.653C46.2465 167.382 47.1687 169.069 48.4344 170.483C49.6787 171.852 51.2671 172.863 53.0346 173.41C54.6723 173.954 56.4105 174.321 57.8874 175.253C59.4441 176.236 60.3742 177.823 60.6933 179.616C61.0838 181.809 60.6625 184.011 60.1756 186.151C59.6349 188.527 59.0357 190.986 59.6031 193.415C59.6719 193.709 59.2109 193.799 59.1423 193.505C58.1551 189.279 60.5256 185.233 60.3702 181.015C60.2977 179.047 59.6313 177.089 57.989 175.89C56.553 174.841 54.7609 174.461 53.0979 173.925C51.3518 173.362 49.7952 172.542 48.4932 171.23C47.1614 169.887 46.1713 168.233 45.3697 166.532C43.5809 162.66 42.4122 158.532 41.9065 154.298C41.3026 149.468 41.5297 144.571 42.578 139.819C42.643 139.525 43.0859 139.681 43.0213 139.974V139.974Z" fill="white"/>
<path d="M44.205 163.115C42.7674 163.518 41.2333 163.397 39.8767 162.774C38.5201 162.151 37.4293 161.066 36.7991 159.713C36.6725 159.439 37.0928 159.23 37.2196 159.504C37.8041 160.765 38.8202 161.776 40.0847 162.353C41.3492 162.931 42.7786 163.038 44.1151 162.655C44.4056 162.572 44.4939 163.033 44.205 163.115H44.205Z" fill="white"/>
<path d="M52.1679 173.244C53.6869 170.598 54.1524 167.478 53.4715 164.504C53.4038 164.21 53.8647 164.12 53.9323 164.414C54.6351 167.51 54.1441 170.756 52.5573 173.506C52.4059 173.768 52.0172 173.504 52.1679 173.244Z" fill="white"/>
<path d="M41.9002 149.643C42.4889 149.603 43.0585 149.417 43.5577 149.103C44.057 148.788 44.4703 148.355 44.7605 147.842C44.9086 147.578 45.297 147.842 45.15 148.104C44.8267 148.67 44.3696 149.148 43.8188 149.496C43.268 149.845 42.6401 150.053 41.9901 150.103C41.9292 150.113 41.8669 150.1 41.8157 150.065C41.7646 150.031 41.7284 149.978 41.7147 149.918C41.7031 149.857 41.7161 149.794 41.7508 149.742C41.7855 149.691 41.8392 149.655 41.9002 149.643V149.643Z" fill="white"/>
<path d="M66.5704 96.2604L78.3329 233.873L54.808 235.64V98.0112C57.6112 96.1574 61.6351 95.8674 66.5704 96.2604Z" fill="#CCCCCC"/>
<path d="M124.632 96.2604L112.869 233.873L136.394 235.64V98.0112C133.591 96.1574 129.567 95.8674 124.632 96.2604Z" fill="#CCCCCC"/>
<path d="M132.872 241.328H58.0801C56.8808 241.327 55.7311 240.85 54.883 240.002C54.035 239.155 53.558 238.006 53.5567 236.807V100.031C53.558 98.8322 54.0351 97.6832 54.8831 96.8356C55.7311 95.9881 56.8809 95.5114 58.0801 95.51H132.872C134.071 95.5114 135.221 95.9881 136.069 96.8356C136.917 97.6832 137.394 98.8322 137.395 100.031V236.807C137.394 238.006 136.917 239.155 136.069 240.002C135.221 240.85 134.071 241.327 132.872 241.328V241.328ZM58.0801 97.0107C57.279 97.0116 56.5108 97.3301 55.9443 97.8963C55.3778 98.4624 55.0591 99.2301 55.0583 100.031V236.807C55.0591 237.608 55.3778 238.375 55.9443 238.942C56.5108 239.508 57.2789 239.826 58.0801 239.827H132.872C133.673 239.826 134.441 239.508 135.008 238.942C135.574 238.375 135.893 237.608 135.894 236.807V100.031C135.893 99.2301 135.574 98.4625 135.008 97.8963C134.441 97.3301 133.673 97.0116 132.872 97.0107L58.0801 97.0107Z" fill="#CCCCCC"/>
<path d="M136.645 118.271H54.3075V119.771H136.645V118.271Z" fill="#CCCCCC"/>
<path d="M136.645 143.282H54.3075V144.783H136.645V143.282Z" fill="#CCCCCC"/>
<path d="M81.0267 96.2604H79.5251V164.542H81.0267V96.2604Z" fill="#CCCCCC"/>
<path d="M111.427 96.2604H109.925V164.542H111.427V96.2604Z" fill="#CCCCCC"/>
<path d="M146.03 245.455H47.4252C45.6331 245.455 43.9144 244.743 42.6472 243.477C41.3799 242.21 40.668 240.493 40.668 238.702C40.668 236.911 41.3799 235.193 42.6472 233.926C43.9144 232.66 45.6331 231.949 47.4252 231.949H146.03C147.822 231.949 149.54 232.66 150.808 233.926C152.075 235.193 152.787 236.911 152.787 238.702C152.787 240.493 152.075 242.21 150.808 243.477C149.54 244.743 147.822 245.455 146.03 245.455V245.455Z" fill="#CCCCCC"/>
<path d="M136.645 161.041H54.808V166.043H136.645V161.041Z" fill="#CCCCCC"/>
<path d="M81.2597 176.961L81.1558 176.91C75.5771 174.217 68.2715 174.22 57.4674 176.919L57.3521 176.948L57.3175 176.834C56.1746 173.089 54.8799 168.847 57.3121 166.76C57.3462 160.636 62.7214 155.663 69.3237 155.663C75.9247 155.663 81.2992 160.633 81.3352 166.756C84.9534 169.521 83.2291 173.606 81.3181 176.861L81.2597 176.961Z" fill="#2F2E41"/>
<path d="M115.549 163.847C115.449 164.343 115.241 164.811 114.94 165.219C114.64 165.626 114.253 165.963 113.808 166.205C113.363 166.447 112.871 166.588 112.365 166.619C111.86 166.65 111.353 166.57 110.882 166.385L91.167 186.185L89.408 180.037L108.989 161.65C109.353 160.879 109.988 160.269 110.772 159.935C111.557 159.601 112.437 159.566 113.245 159.836C114.054 160.107 114.735 160.665 115.16 161.404C115.584 162.143 115.723 163.012 115.549 163.847L115.549 163.847Z" fill="#FFB6B6"/>
<path d="M66.8227 182.909C66.8227 182.909 65.034 186.96 69.4476 189.458C73.8612 191.956 89.2867 188.505 91.7897 188.023C94.2927 187.541 103.641 173.559 103.641 173.559L102.319 166.702L89.921 177.459L66.8227 182.909Z" fill="#6C63FF"/>
<path d="M63.5673 205.311L63.8175 210.063C63.8175 210.063 63.0789 214.273 63.6864 215.181C64.2893 216.085 80.742 216.199 80.742 216.199C80.742 216.199 81.8291 210.343 82.7655 205.216L63.5673 205.311Z" fill="#FFB6B6"/>
<path d="M110.871 268.146L114.31 267.451L113.326 253.566L108.25 254.591L110.871 268.146Z" fill="#FFB6B6"/>
<path d="M115.798 250.076L118.995 248.64L114.847 235.354L110.128 237.475L115.798 250.076Z" fill="#FFB6B6"/>
<path d="M118.583 242.591L112.562 245.998L97.7136 222.151C87.2897 229.17 77.0964 232.531 66.8207 234.325C63.3466 234.943 59.8044 234.63 59.1375 231.096C59.1063 230.93 59.0814 230.764 59.0629 230.597C58.6526 226.737 63.4571 221.789 64.0678 217.067L77.2168 216.278L78.8383 218.355L94.0447 209.012C97.1028 207.133 101.125 208.149 103.028 211.282C103.129 211.447 103.222 211.617 103.308 211.791L118.583 242.591Z" fill="#2F2E41"/>
<path d="M114.898 258.633L108.009 259.273L95.5172 233.74C83.1302 235.87 71.4442 236.552 61.3363 233.976C57.914 233.116 55.8221 229.584 56.6639 226.088C56.7032 225.924 56.7487 225.763 56.8003 225.603C58.0101 221.914 61.1767 219.304 63.6715 215.247L81.895 215.524L79.8596 222.543L97.5625 220.253C101.123 219.793 104.374 222.368 104.825 226.005C104.848 226.197 104.864 226.39 104.871 226.584L114.898 258.633Z" fill="#2F2E41"/>
<path d="M70.6829 173.331C74.7696 173.331 78.0826 170.02 78.0826 165.935C78.0826 161.851 74.7696 158.54 70.6829 158.54C66.5961 158.54 63.2831 161.851 63.2831 165.935C63.2831 170.02 66.5961 173.331 70.6829 173.331Z" fill="#FFB6B6"/>
<path d="M66.3447 176L73.1296 176.798C73.4158 176.832 73.6843 176.954 73.8977 177.147C74.1112 177.34 74.259 177.596 74.3205 177.877L75.3995 182.811L82.1257 190.728C82.1257 190.728 84.5411 195.254 83.6353 200.383C82.7296 205.513 82.3316 209.325 82.3316 209.325C82.3316 209.325 64.2884 216.086 63.6846 215.18C63.0808 214.275 62.8848 210.163 62.8848 210.163L60.4695 183.309C60.4695 183.309 63.1867 178.783 64.6963 178.783C65.6706 178.75 65.5456 176.558 66.3447 176Z" fill="#6C63FF"/>
<path d="M82.515 210.976C83.4665 210.976 84.2378 210.051 84.2378 208.91C84.2378 207.768 83.4665 206.843 82.515 206.843C81.5635 206.843 80.7922 207.768 80.7922 208.91C80.7922 210.051 81.5635 210.976 82.515 210.976Z" fill="#6C63FF"/>
<path d="M109.164 264.571L114.408 261.944L115.396 264.248L122.027 265.588C122.355 265.654 122.653 265.823 122.877 266.071C123.102 266.318 123.242 266.63 123.276 266.962C123.31 267.295 123.237 267.629 123.068 267.917C122.898 268.205 122.641 268.431 122.334 268.563L115.927 271.307L113.845 269.501L114.392 271.965L111.976 273L109.164 264.571Z" fill="#2F2E41"/>
<path d="M114.297 248.971L119.494 246.253L120.523 248.539L127.176 249.762C127.505 249.823 127.806 249.986 128.035 250.23C128.264 250.473 128.409 250.783 128.449 251.115C128.489 251.446 128.422 251.782 128.258 252.073C128.093 252.363 127.84 252.594 127.536 252.731L121.178 255.588L119.064 253.819L119.654 256.273L117.257 257.35L114.297 248.971Z" fill="#2F2E41"/>
<path d="M66.4551 163.616C64.5001 163.619 62.5921 163.017 60.9929 161.893L60.9395 161.856V161.791C60.9416 159.901 61.6938 158.089 63.0309 156.753C64.3681 155.416 66.181 154.665 68.072 154.662H71.0752C72.9662 154.665 74.7792 155.416 76.1163 156.753C77.4535 158.089 78.2056 159.901 78.2078 161.791C78.2058 162.223 78.0349 162.638 77.7315 162.947C77.4281 163.255 77.0162 163.433 76.5835 163.442L66.6239 163.614C66.5676 163.615 66.5112 163.616 66.4551 163.616Z" fill="#2F2E41"/>
<path d="M78.7083 160.422C79.6659 159.869 79.8259 158.355 79.0657 157.039C78.3055 155.723 76.913 155.104 75.9554 155.656C74.9978 156.209 74.8377 157.724 75.5979 159.04C76.3581 160.356 77.7507 160.974 78.7083 160.422Z" fill="#2F2E41"/>
<path d="M63.7317 158.954C64.8068 157.879 65.0444 156.375 64.2626 155.593C63.4807 154.812 61.9753 155.05 60.9003 156.124C59.8252 157.198 59.5875 158.703 60.3694 159.484C61.1512 160.266 62.6566 160.028 63.7317 158.954Z" fill="#2F2E41"/>
<path d="M129.221 226.571H121.835C121.669 226.571 121.504 226.607 121.353 226.677C121.202 226.746 121.067 226.848 120.96 226.976C120.687 226.926 120.407 226.941 120.142 227.02C119.876 227.099 119.633 227.24 119.433 227.432C119.233 227.623 119.081 227.859 118.989 228.12C118.898 228.381 118.87 228.661 118.908 228.935C118.945 229.209 119.048 229.471 119.206 229.698C119.364 229.925 119.574 230.111 119.819 230.242C120.063 230.372 120.335 230.443 120.612 230.448C120.889 230.453 121.163 230.392 121.412 230.27L122.024 232.26C122.097 232.496 122.243 232.702 122.442 232.848C122.64 232.995 122.881 233.074 123.127 233.074H127.929C128.176 233.074 128.417 232.995 128.615 232.848C128.814 232.702 128.96 232.496 129.032 232.26L130.324 228.064C130.378 227.891 130.389 227.709 130.359 227.531C130.329 227.353 130.257 227.184 130.15 227.039C130.042 226.894 129.902 226.776 129.741 226.695C129.58 226.613 129.402 226.571 129.221 226.571V226.571ZM120.648 229.948C120.316 229.948 119.998 229.816 119.763 229.581C119.529 229.347 119.397 229.029 119.397 228.697C119.397 228.365 119.529 228.047 119.763 227.813C119.998 227.578 120.316 227.446 120.648 227.446C120.671 227.446 120.692 227.452 120.715 227.453C120.665 227.654 120.671 227.866 120.732 228.064L121.261 229.781C121.075 229.889 120.863 229.946 120.648 229.948V229.948Z" fill="#3F3D56"/>
<path d="M96.2399 221.142C95.7356 221.188 95.2271 221.124 94.7503 220.953C94.2736 220.782 93.8402 220.508 93.4806 220.152C93.121 219.795 92.844 219.364 92.6691 218.889C92.4942 218.414 92.4257 217.906 92.4683 217.402L67.8326 204.208L73.221 200.76L96.4638 214.231C97.307 214.359 98.0739 214.791 98.6194 215.446C99.1648 216.101 99.4508 216.934 99.4232 217.786C99.3957 218.637 99.0564 219.45 98.4697 220.068C97.883 220.687 97.0896 221.069 96.2399 221.142V221.142Z" fill="#FFB6B6"/>
<path d="M63.9883 179.961C63.9883 179.961 59.5921 179.411 58.4637 184.353C57.3354 189.295 65.0697 203.073 66.2498 205.331C67.4299 207.589 83.5138 212.528 83.5138 212.528L89.7071 209.295L75.8398 200.511L63.9883 179.961Z" fill="#6C63FF"/>
<path d="M94.9755 159.54H96.4771C97.2072 159.54 97.9074 159.83 98.4237 160.346C98.94 160.862 99.23 161.561 99.23 162.291H92.2226C92.2226 161.561 92.5126 160.862 93.0289 160.346C93.5452 159.83 94.2454 159.54 94.9755 159.54V159.54Z" fill="#CCCCCC"/>
<path d="M47.3605 108.207C55.5764 108.207 62.2367 101.551 62.2367 93.3399C62.2367 85.1289 55.5764 78.4725 47.3605 78.4725C39.1446 78.4725 32.4843 85.1289 32.4843 93.3399C32.4843 101.551 39.1446 108.207 47.3605 108.207Z" fill="#FF6584"/>
<path d="M92.9079 92.5651C88.9709 88.4376 84.3986 84.6722 78.9857 82.6824C77.478 82.1258 75.9146 81.7332 74.3227 81.5113C74.3099 81.5096 74.2977 81.5121 74.285 81.5111C74.2591 81.5044 74.2328 81.4993 74.2063 81.4957C71.9799 81.2122 69.7199 81.3486 67.5438 81.8977C66.4796 82.1646 65.4414 82.526 64.4416 82.9777C63.4383 83.4669 62.4661 84.0175 61.5307 84.6264C59.5507 85.8109 57.3707 86.6237 55.0982 87.0247C53.9576 87.2299 52.8022 87.3432 51.6434 87.3636C50.6379 87.3837 49.6897 87.4186 48.737 87.7817C47.7194 88.1641 46.8053 88.779 46.0677 89.5772C45.33 90.3754 44.7893 91.3349 44.4886 92.3791C44.4654 92.472 44.4724 92.57 44.5085 92.6587C44.5447 92.7475 44.6081 92.8225 44.6896 92.8729C44.9473 93.0573 45.1986 93.2666 45.4693 93.4309C45.7102 93.5411 45.9674 93.6113 46.2309 93.6385C46.6614 93.7293 47.0924 93.8175 47.524 93.9029C49.1138 94.2177 50.7103 94.4964 52.3134 94.739C55.5572 95.2297 58.8185 95.5754 62.0973 95.7761C68.6658 96.1737 75.2567 95.9757 81.7894 95.1846C85.4608 94.7402 89.1073 94.1098 92.7148 93.296C92.7878 93.2747 92.8541 93.2348 92.9072 93.1804C92.9603 93.1259 92.9984 93.0586 93.0179 92.9851C93.0373 92.9115 93.0374 92.8342 93.0181 92.7607C92.9988 92.6871 92.9609 92.6197 92.9079 92.5651V92.5651Z" fill="#E6E6E6"/>
<path d="M48.0665 102.506C46.5588 101.949 44.9954 101.556 43.4035 101.334C43.3907 101.333 43.3786 101.335 43.3658 101.334C43.3399 101.328 43.3137 101.322 43.2872 101.319C41.0607 101.035 38.8008 101.172 36.6246 101.721C35.5604 101.988 34.5222 102.349 33.5224 102.801C32.5191 103.29 31.5469 103.841 30.6115 104.45C28.6315 105.634 26.4515 106.447 24.1791 106.848C23.0384 107.053 21.8831 107.166 20.7243 107.187C19.7188 107.207 18.7705 107.242 17.8179 107.605C16.8002 107.987 15.8861 108.602 15.1485 109.4C14.4109 110.199 13.8701 111.158 13.5694 112.202C13.5462 112.295 13.5532 112.393 13.5893 112.482C13.6255 112.571 13.6889 112.646 13.7705 112.696C14.0282 112.88 14.2794 113.09 14.5502 113.254C14.791 113.364 15.0483 113.434 15.3117 113.462C15.7422 113.552 16.1732 113.641 16.6048 113.726C18.1947 114.041 19.7911 114.32 21.3942 114.562C24.638 115.053 27.8993 115.399 31.1782 115.599C37.7466 115.997 44.3376 115.799 50.8702 115.008C54.5417 114.563 58.1882 113.933 61.7956 113.119C61.8687 113.098 61.935 113.058 61.9881 113.004C62.0412 112.949 62.0793 112.882 62.0987 112.808C62.1181 112.735 62.1182 112.657 62.0989 112.584C62.0797 112.51 62.0417 112.443 61.9887 112.388C58.0518 108.261 53.4794 104.495 48.0665 102.506Z" fill="#E6E6E6"/>
<path d="M155.345 213.34L143.905 198.32L134.878 203.421L154.006 226.122L155.345 213.34Z" fill="#3F3D56"/>
<path d="M181.697 188.923C181.951 195.218 182.927 201.462 184.605 207.535C184.245 208.383 183.873 209.225 183.489 210.061C182.037 213.228 180.411 216.312 178.619 219.3C173.593 227.691 167.319 235.268 160.012 241.773C159.221 242.476 158.419 243.167 157.607 243.847C152.974 237.464 150.474 230.42 149.486 223.172C149.361 222.251 149.258 221.321 149.18 220.396V220.391C148.991 218.142 148.93 215.883 148.998 213.627C149 213.447 149.005 213.265 149.013 213.082C149.1 210.671 149.318 208.255 149.646 205.861V205.859C149.683 205.584 149.721 205.309 149.763 205.033C149.884 204.208 150.019 203.383 150.166 202.562C151.026 197.831 152.225 193.167 153.755 188.608V188.606C153.798 188.473 153.84 188.343 153.888 188.213C154.053 187.718 154.221 187.228 154.393 186.737C154.404 186.699 154.417 186.661 154.433 186.625C154.656 185.985 154.884 185.349 155.117 184.719C155.179 184.544 155.244 184.369 155.312 184.194C155.575 183.491 155.842 182.793 156.115 182.105C156.2 181.885 156.288 181.665 156.375 181.448C156.443 181.28 156.508 181.112 156.578 180.947V180.945C156.976 179.962 157.379 178.998 157.787 178.053C158.931 175.397 160.107 172.899 161.253 170.595L161.256 170.592C166.013 161.056 170.338 154.863 170.338 154.863L186.577 160.115C184.64 163.549 183.141 168.614 182.32 174.589C181.688 179.339 181.479 184.135 181.697 188.921L181.697 188.923Z" fill="#3F3D56"/>
<path d="M154.706 187.395C154.611 187.173 154.504 186.955 154.393 186.738C153.822 185.633 153.088 184.621 152.214 183.736C152.083 183.604 151.948 183.471 151.808 183.346C150.301 181.958 148.468 180.973 146.478 180.481C144.489 179.988 142.407 180.005 140.426 180.53L140.416 180.535L140.341 180.555L140.359 180.64C140.434 181.036 140.542 181.425 140.684 181.803C140.721 181.905 140.764 182.003 140.806 182.1C140.824 182.145 140.847 182.185 140.867 182.23C140.867 182.23 140.864 182.233 140.869 182.233C140.869 182.235 140.872 182.238 140.872 182.24C140.919 182.333 140.964 182.428 141.014 182.518C140.912 182.421 140.814 182.32 140.719 182.218C140.626 182.123 140.541 182.023 140.456 181.923C140.164 181.583 139.901 181.22 139.668 180.837L139.628 180.77L139.558 180.797C138.613 181.124 137.712 181.565 136.875 182.11L136.785 182.17C136.145 182.59 135.425 182.87 134.67 182.994C133.915 183.117 133.142 183.08 132.403 182.886C131.236 182.585 130.02 182.53 128.832 182.724C127.643 182.919 126.508 183.358 125.498 184.014C124.829 184.45 124.224 184.977 123.701 185.579C123.656 185.632 123.611 185.687 123.566 185.74C123.471 185.855 123.381 185.972 123.293 186.092C122.352 187.349 121.775 188.84 121.624 190.402L121.619 190.459L121.666 190.492C122.513 191.072 123.471 191.47 124.479 191.662C123.846 191.751 123.204 191.767 122.567 191.71H122.565C122.276 191.686 121.988 191.646 121.704 191.59L121.651 191.58H121.649L121.584 191.567L121.594 191.687C121.668 193.216 122.15 194.696 122.988 195.977L123.013 196.012C123.022 196.025 123.03 196.038 123.038 196.052C123.393 196.595 123.688 197.174 123.919 197.78C124.504 199.286 124.633 200.931 124.289 202.51C123.9 204.198 124.029 205.965 124.66 207.579C125.29 209.193 126.392 210.58 127.823 211.559C129.079 212.423 130.544 212.937 132.065 213.047C132.272 213.065 132.483 213.075 132.693 213.075C133.896 213.078 135.087 212.831 136.189 212.347L136.229 212.332L136.239 212.287C136.451 211.603 136.749 210.95 137.125 210.341C137.002 210.821 136.94 211.314 136.94 211.809V211.974L137.083 211.892C137.205 211.819 137.33 211.742 137.443 211.669C138.119 211.228 138.731 210.696 139.262 210.088C139.47 209.848 139.68 209.616 139.901 209.383L139.903 209.381C140.331 208.925 140.784 208.48 141.254 208.055C142.255 207.156 143.327 206.339 144.458 205.611C145.588 204.886 146.77 204.244 147.994 203.69H147.997C148.134 203.625 148.274 203.563 148.412 203.503C149.021 203.238 149.608 202.923 150.166 202.562C150.186 202.55 150.204 202.54 150.221 202.527C152.641 200.944 154.419 198.554 155.241 195.783C156.062 193.012 155.873 190.04 154.706 187.395L154.706 187.395Z" fill="#6C63FF"/>
<path opacity="0.15" d="M124.701 206.061C124.633 206.365 124.581 206.673 124.546 206.982C124.08 205.511 124.013 203.942 124.351 202.436C124.403 202.206 124.442 201.973 124.472 201.738C124.935 203.133 125.014 204.626 124.701 206.061Z" fill="black"/>
<path opacity="0.15" d="M124.891 195.212C124.149 195.314 123.398 195.318 122.655 195.222C122.461 194.856 122.293 194.476 122.153 194.085C122.98 194.643 123.911 195.026 124.891 195.212V195.212Z" fill="black"/>
<path opacity="0.15" d="M122.596 191.629C122.322 192.329 122.14 193.061 122.055 193.807C121.827 193.096 121.692 192.359 121.654 191.614L121.648 191.493L121.766 191.516C122.041 191.568 122.317 191.606 122.596 191.629Z" fill="black"/>
<path opacity="0.15" d="M125.562 183.939C126.571 183.282 127.706 182.843 128.894 182.648C130.082 182.454 131.298 182.509 132.463 182.81C133.203 183.006 133.976 183.043 134.732 182.92C135.487 182.797 136.208 182.516 136.848 182.096L136.938 182.036C137.775 181.49 138.675 181.048 139.619 180.72L139.692 180.695L139.731 180.76C140.104 181.377 140.557 181.943 141.076 182.442C140.761 181.854 140.54 181.221 140.421 180.564L140.404 180.477L140.49 180.455C142.348 179.963 144.296 179.918 146.175 180.322C148.054 180.726 149.811 181.569 151.302 182.781C152.793 183.993 153.977 185.54 154.756 187.296C155.535 189.052 155.887 190.967 155.785 192.886C155.391 191.322 154.69 189.852 153.723 188.56C152.756 187.269 151.543 186.182 150.153 185.363C148.763 184.544 147.224 184.009 145.625 183.789C144.027 183.568 142.4 183.667 140.84 184.08L140.755 184.102L140.772 184.189C140.89 184.845 141.111 185.479 141.427 186.067C140.907 185.567 140.455 185.002 140.082 184.385L140.042 184.32L139.97 184.345C139.026 184.673 138.126 185.115 137.289 185.661L137.198 185.721C136.559 186.141 135.838 186.422 135.082 186.545C134.327 186.668 133.554 186.63 132.814 186.435C130.877 185.932 128.825 186.117 127.008 186.958C125.192 187.798 123.724 189.242 122.853 191.044C122.466 190.858 122.091 190.648 121.729 190.416L121.68 190.385L121.686 190.327C121.81 189.04 122.223 187.797 122.895 186.691C123.566 185.585 124.478 184.645 125.562 183.939V183.939Z" fill="black"/>
<path d="M218.601 120.031L218.364 119.874L218.191 120.099C216.854 121.781 215.791 123.662 215.04 125.674C215.144 123.356 215.549 121.062 216.246 118.848L216.321 118.616L216.106 118.493C213.306 116.909 210.322 115.672 207.222 114.812L206.884 114.721C204.508 114.07 202.295 112.925 200.392 111.361C198.488 109.798 196.935 107.851 195.835 105.647C193.278 100.59 189.239 96.4324 184.256 93.7291C179.273 91.0259 173.584 89.9056 167.948 90.5177H167.945C167.885 90.5227 167.823 90.5302 167.763 90.5377C167.66 90.5477 167.56 90.5602 167.46 90.5727C167.254 90.6002 167.054 90.6277 166.854 90.6578C166.684 90.6828 166.511 90.7103 166.341 90.7403C166.251 90.7528 166.163 90.7678 166.076 90.7853C165.988 90.8003 165.898 90.8153 165.81 90.8328H165.808C164.128 91.1505 162.48 91.6236 160.888 92.246H160.885V92.2485L160.482 92.4061C160.067 92.5761 159.655 92.7562 159.246 92.9463C159.153 92.9888 159.063 93.0339 158.971 93.0764C158.946 93.0889 158.918 93.1014 158.893 93.1164C158.63 93.2414 158.37 93.3715 158.112 93.5091C158.075 93.5266 158.037 93.5466 158 93.5666L157.759 93.6942C157.231 93.9793 156.713 94.2819 156.203 94.6021C156.16 94.6271 156.12 94.6521 156.078 94.6796C156.033 94.7096 155.985 94.7396 155.94 94.7697C155.912 94.7847 155.885 94.8047 155.857 94.8222C155.78 94.8697 155.705 94.9197 155.63 94.9723C155.48 95.0698 155.329 95.1698 155.182 95.2724C155.029 95.3749 154.879 95.4825 154.729 95.59L154.579 95.6976L154.606 95.8827C154.631 96.0352 154.654 96.1878 154.681 96.3379C154.706 96.488 154.731 96.6355 154.759 96.7831C154.801 97.0307 154.849 97.2758 154.896 97.5134C154.929 97.671 154.959 97.8261 154.994 97.9787C155.027 98.1362 155.062 98.2938 155.099 98.4514C155.172 98.7765 155.249 99.0917 155.332 99.4018C155.372 99.5569 155.414 99.712 155.46 99.8645C155.485 99.9571 155.51 100.05 155.537 100.14C155.557 100.202 155.577 100.265 155.597 100.327C155.602 100.347 155.607 100.37 155.615 100.392C155.62 100.413 155.627 100.434 155.635 100.455C155.662 100.547 155.69 100.637 155.717 100.725C155.732 100.772 155.747 100.82 155.765 100.865C155.8 100.973 155.837 101.083 155.875 101.188C155.915 101.308 155.958 101.428 156 101.545C156.01 101.575 156.02 101.603 156.03 101.633C156.038 101.655 156.045 101.678 156.055 101.7C156.065 101.725 156.075 101.753 156.085 101.778C156.128 101.89 156.17 102.006 156.215 102.118C156.23 102.158 156.245 102.201 156.263 102.241C156.669 103.26 157.167 104.239 157.752 105.167C157.104 104.612 156.48 104.023 155.88 103.401C154.954 102.44 154.101 101.41 153.327 100.322C153.265 100.237 153.202 100.15 153.145 100.062C153.027 99.8945 152.912 99.727 152.799 99.5569C152.679 99.3818 152.564 99.1992 152.451 99.0191C152.376 98.8991 152.301 98.7765 152.229 98.6565C152.156 98.5414 152.088 98.4289 152.023 98.3138L151.828 97.9787H151.826V97.9812L151.55 98.2513C151.44 98.3588 151.33 98.4664 151.223 98.5739C147.859 101.956 145.422 106.147 144.148 110.742L144.11 110.88L144.072 111.022C144 111.277 143.927 111.525 143.85 111.778V111.78C143.775 112.03 143.695 112.28 143.609 112.525C143.532 112.758 143.452 112.988 143.367 113.218C143.339 113.296 143.309 113.373 143.277 113.451C143.224 113.601 143.167 113.748 143.109 113.899C143.081 113.966 143.054 114.036 143.026 114.104C142.959 114.269 142.891 114.434 142.824 114.596C142.814 114.621 142.801 114.649 142.789 114.674C142.769 114.724 142.746 114.774 142.726 114.821C142.674 114.942 142.618 115.064 142.566 115.184C142.528 115.262 142.493 115.342 142.458 115.419C142.443 115.454 142.426 115.489 142.411 115.524C142.318 115.724 142.223 115.922 142.123 116.117C142.01 116.347 141.895 116.577 141.773 116.802C141.665 117.013 141.552 117.218 141.435 117.423C141.232 117.785 141.019 118.146 140.799 118.496C140.714 118.631 140.629 118.766 140.541 118.901C140.521 118.933 140.501 118.966 140.481 118.996C140.409 119.113 140.334 119.226 140.256 119.341C140.203 119.419 140.151 119.496 140.098 119.571C140.011 119.706 139.918 119.836 139.823 119.964C139.798 120.004 139.77 120.041 139.743 120.079C139.603 120.274 139.463 120.464 139.32 120.654C139.315 120.657 139.315 120.659 139.312 120.662C139.307 120.662 139.307 120.664 139.305 120.667C139.242 120.749 139.18 120.832 139.115 120.912C139.03 121.029 138.937 121.144 138.844 121.257C138.694 121.447 138.537 121.64 138.376 121.827C138.371 121.832 138.369 121.837 138.364 121.84C137.535 122.813 136.636 123.726 135.676 124.571C135.659 124.586 135.646 124.601 135.629 124.614C135.493 124.731 135.358 124.849 135.218 124.964C135.161 125.011 135.103 125.059 135.045 125.106C134.95 125.186 134.853 125.266 134.758 125.339C134.746 125.35 134.734 125.36 134.72 125.369C134.635 125.439 134.552 125.504 134.467 125.569C134.365 125.652 134.262 125.729 134.157 125.807C133.661 126.182 133.153 126.536 132.63 126.87C132.553 126.922 132.47 126.975 132.39 127.025C132.343 127.055 132.295 127.085 132.25 127.11C132.06 127.227 131.87 127.342 131.679 127.452C131.489 127.565 131.294 127.672 131.101 127.778C130.688 128.003 130.28 128.238 129.882 128.483C129.682 128.608 129.482 128.733 129.284 128.861C128.499 129.371 127.742 129.917 127.014 130.499C126.287 131.081 125.59 131.7 124.925 132.352C124.842 132.432 124.76 132.515 124.677 132.6C124.512 132.762 124.352 132.927 124.199 133.093C123.954 133.345 123.718 133.605 123.486 133.868C122.258 135.26 121.172 136.769 120.242 138.375C119.775 139.177 119.351 140.002 118.971 140.849C118.683 141.481 118.42 142.129 118.183 142.785C118.025 143.222 117.877 143.664 117.74 144.11C117.672 144.333 117.607 144.558 117.544 144.783C117.332 145.546 117.154 146.316 117.009 147.089C116.891 147.709 116.796 148.33 116.724 148.952C116.686 149.265 116.656 149.578 116.628 149.888C116.564 150.65 116.531 151.413 116.53 152.177C116.525 154.468 116.804 156.751 117.359 158.975C117.482 159.465 117.618 159.953 117.767 160.438C117.842 160.68 117.922 160.92 118.002 161.161C118.205 161.761 118.43 162.355 118.676 162.944C118.823 163.297 118.978 163.647 119.141 163.994C120.175 166.205 121.494 168.27 123.065 170.137C123.323 170.445 123.589 170.748 123.864 171.045C123.866 171.045 123.864 171.048 123.864 171.048C124.545 171.79 125.266 172.495 126.023 173.159H126.026C126.329 173.426 126.637 173.686 126.949 173.937C126.952 173.934 126.952 173.937 126.952 173.937C127.267 174.192 127.585 174.437 127.91 174.674C128.073 174.792 128.238 174.909 128.406 175.027C128.734 175.26 129.068 175.484 129.409 175.7H129.412C129.752 175.92 130.098 176.13 130.448 176.33C131.151 176.733 131.872 177.11 132.613 177.453L132.738 177.511L132.866 177.453C134.053 176.919 135.278 176.47 136.53 176.11C136.805 176.03 137.083 175.957 137.358 175.887C138.054 175.715 138.754 175.57 139.46 175.452C138.772 175.797 138.109 176.187 137.473 176.62C136.98 176.953 136.494 177.316 136.006 177.716C135.844 177.848 135.681 177.986 135.518 178.126L135.113 178.476L135.621 178.644C135.806 178.704 135.991 178.764 136.177 178.819C136.429 178.899 136.68 178.971 136.925 179.039C137.46 179.189 137.999 179.322 138.542 179.437C138.674 179.464 138.804 179.492 138.937 179.519C139.195 179.569 139.455 179.619 139.715 179.664C139.726 179.667 139.737 179.669 139.748 179.669C140.018 179.714 140.291 179.757 140.561 179.794C141.064 179.867 141.567 179.924 142.07 179.967C142.125 179.974 142.18 179.977 142.238 179.979C142.361 179.989 142.481 179.999 142.603 180.007C142.874 180.024 143.147 180.037 143.419 180.047C143.439 180.047 143.457 180.049 143.477 180.049C143.614 180.054 143.752 180.059 143.89 180.062C143.89 180.062 143.89 180.064 143.892 180.062C144.03 180.064 144.168 180.067 144.305 180.067H145.066C145.209 180.067 145.351 180.069 145.496 180.069C145.697 180.069 145.899 180.072 146.1 180.074C146.152 180.074 146.207 180.077 146.262 180.077C146.583 180.082 146.903 180.089 147.223 180.097C147.243 180.097 147.263 180.099 147.283 180.099C147.604 180.109 147.924 180.119 148.244 180.134C148.314 180.137 148.385 180.139 148.457 180.144C148.765 180.157 149.073 180.172 149.381 180.189C149.468 180.194 149.558 180.202 149.648 180.207C149.881 180.219 150.116 180.234 150.349 180.252C150.487 180.259 150.622 180.269 150.76 180.282C151.315 180.324 151.868 180.372 152.424 180.427C152.609 180.442 152.794 180.462 152.979 180.482C153.475 180.535 153.972 180.592 154.471 180.655C154.694 180.68 154.916 180.71 155.139 180.74C155.164 180.742 155.189 180.745 155.214 180.75C155.49 180.787 155.762 180.825 156.038 180.865C156.218 180.89 156.398 180.917 156.578 180.945C156.763 180.972 156.949 181 157.134 181.032C157.234 181.047 157.334 181.065 157.437 181.082C157.677 181.12 157.92 181.16 158.162 181.205C158.184 181.207 158.206 181.21 158.227 181.215C158.743 181.305 159.261 181.4 159.777 181.503C160.079 181.56 160.38 181.62 160.68 181.683C160.915 181.73 161.151 181.78 161.386 181.83C161.426 181.838 161.466 181.848 161.506 181.858C161.515 181.86 161.524 181.862 161.533 181.863C161.889 181.94 162.247 182.02 162.602 182.105C163.836 182.39 165.068 182.707 166.299 183.056C166.581 183.133 166.864 183.216 167.147 183.298C167.267 183.333 167.385 183.368 167.502 183.403C167.748 183.476 167.99 183.548 168.236 183.626C168.451 183.691 168.669 183.759 168.884 183.829C169.019 183.871 169.154 183.914 169.289 183.959C169.499 184.024 169.71 184.091 169.917 184.164C170.095 184.219 170.27 184.276 170.445 184.339C170.696 184.421 170.948 184.506 171.199 184.596C171.271 184.621 171.346 184.647 171.419 184.674C171.724 184.779 172.03 184.887 172.335 184.999C172.633 185.107 172.931 185.217 173.226 185.327C173.431 185.404 173.636 185.479 173.839 185.559C174.067 185.647 174.294 185.735 174.52 185.825C174.845 185.952 175.173 186.082 175.498 186.215C175.799 186.335 176.096 186.457 176.397 186.585C176.452 186.607 176.509 186.63 176.564 186.655C176.825 186.763 177.085 186.875 177.343 186.988C177.51 187.058 177.676 187.13 177.841 187.203C178.561 187.518 179.281 187.844 180.001 188.181H180.003C180.453 188.393 180.911 188.596 181.372 188.788C181.48 188.833 181.587 188.878 181.697 188.921C181.88 188.999 182.065 189.071 182.25 189.146C182.371 189.194 182.491 189.241 182.613 189.286C182.791 189.356 182.971 189.424 183.151 189.489C183.342 189.559 183.529 189.629 183.722 189.694C183.79 189.719 183.857 189.741 183.927 189.766C184.15 189.841 184.373 189.916 184.598 189.989C184.62 189.997 184.643 190.004 184.668 190.012C184.903 190.087 185.138 190.162 185.376 190.232C185.395 190.239 185.414 190.244 185.434 190.249C185.689 190.327 185.949 190.402 186.207 190.474C186.587 190.579 186.97 190.679 187.353 190.772C187.423 190.789 187.493 190.807 187.564 190.822C187.769 190.872 187.971 190.919 188.177 190.964C188.394 191.014 188.615 191.059 188.832 191.105C189.053 191.15 189.273 191.195 189.491 191.235C189.608 191.257 189.726 191.28 189.841 191.3L190.149 191.352C190.361 191.39 190.574 191.422 190.789 191.457C190.795 191.457 190.801 191.458 190.807 191.46C191.05 191.497 191.29 191.532 191.533 191.562C191.765 191.595 191.998 191.622 192.231 191.65C192.279 191.655 192.329 191.66 192.379 191.665C192.571 191.687 192.764 191.71 192.957 191.727C193.012 191.732 193.067 191.737 193.122 191.742C193.312 191.76 193.502 191.777 193.693 191.79C193.731 191.795 193.769 191.797 193.808 191.797C193.978 191.812 194.148 191.825 194.318 191.832C194.438 191.842 194.556 191.847 194.676 191.855C194.739 191.857 194.799 191.86 194.861 191.862C195.026 191.872 195.192 191.877 195.359 191.882C195.562 191.89 195.765 191.895 195.965 191.9C196.208 191.905 196.453 191.907 196.696 191.907H196.701C196.938 191.907 197.179 191.905 197.416 191.9H197.507L197.769 191.892C197.904 191.89 198.04 191.885 198.172 191.88C198.428 191.87 198.68 191.857 198.933 191.842C199.033 191.837 199.136 191.83 199.236 191.825C199.281 191.822 199.328 191.817 199.374 191.815C199.531 191.805 199.686 191.795 199.844 191.782C200.007 191.77 200.172 191.755 200.335 191.737C200.545 191.717 200.755 191.695 200.965 191.672C201.13 191.655 201.296 191.635 201.458 191.615C201.48 191.613 201.502 191.609 201.523 191.605C201.681 191.587 201.839 191.567 201.994 191.545C202.179 191.52 202.362 191.492 202.544 191.465C202.564 191.462 202.582 191.46 202.602 191.457C202.917 191.407 203.235 191.357 203.553 191.3C203.886 191.24 204.219 191.175 204.549 191.107C204.672 191.082 204.792 191.055 204.914 191.029C204.982 191.014 205.052 191.002 205.117 190.987C205.22 190.964 205.32 190.942 205.42 190.917C205.437 190.914 205.458 190.909 205.475 190.907C205.615 190.877 205.753 190.842 205.893 190.807C206.173 190.739 206.449 190.669 206.724 190.594C206.846 190.564 206.969 190.532 207.087 190.499C207.122 190.489 207.157 190.479 207.189 190.469C207.697 190.327 208.201 190.176 208.701 190.017C208.921 189.946 209.139 189.874 209.357 189.796C209.825 189.636 210.288 189.468 210.748 189.291C210.871 189.246 210.993 189.196 211.116 189.149C211.296 189.076 211.476 189.004 211.654 188.931C211.814 188.863 211.974 188.796 212.137 188.726C212.217 188.693 212.297 188.658 212.377 188.623C212.618 188.518 212.858 188.411 213.096 188.303C213.256 188.228 213.413 188.156 213.571 188.081C213.821 187.961 214.069 187.838 214.317 187.715C214.379 187.683 214.44 187.65 214.5 187.62C214.657 187.54 214.815 187.458 214.975 187.378C215.228 187.243 215.481 187.108 215.731 186.968C215.816 186.923 215.899 186.875 215.984 186.828C216.259 186.672 216.532 186.515 216.802 186.355C217.4 185.997 217.99 185.624 218.571 185.234C218.717 185.139 218.862 185.039 219.004 184.942C219.275 184.757 219.54 184.566 219.805 184.376C219.833 184.356 219.858 184.336 219.885 184.319C220.018 184.221 220.151 184.124 220.283 184.024C220.558 183.816 220.831 183.606 221.104 183.391C221.109 183.388 221.117 183.381 221.124 183.376C221.247 183.278 221.369 183.181 221.489 183.083C221.862 182.781 222.23 182.473 222.591 182.155C222.768 182.003 222.944 181.845 223.116 181.688C223.246 181.57 223.376 181.453 223.504 181.332C223.762 181.09 224.015 180.85 224.265 180.605C224.39 180.485 224.513 180.36 224.638 180.234C224.76 180.109 224.886 179.984 225.008 179.857C225.051 179.814 225.093 179.769 225.136 179.724C225.261 179.592 225.386 179.457 225.511 179.324C225.619 179.209 225.724 179.089 225.832 178.969C226.012 178.769 226.194 178.569 226.372 178.366C226.382 178.355 226.392 178.344 226.402 178.334C226.412 178.321 226.422 178.311 226.43 178.301H226.427C230.065 174.097 232.768 169.169 234.357 163.843C235.946 158.516 236.385 152.913 235.645 147.405C234.906 141.896 233.004 136.607 230.065 131.888C227.127 127.17 223.22 123.128 218.601 120.031L218.601 120.031Z" fill="#6C63FF"/>
<g opacity="0.15">
<path opacity="0.15" d="M167.946 90.5157C168.445 92.3067 169.195 94.0178 170.175 95.5981C168.535 94.1898 167.069 92.5902 165.81 90.8335C166.517 90.6998 167.229 90.5939 167.946 90.5157Z" fill="black"/>
<path opacity="0.15" d="M143.526 118.213C141.673 119.223 139.941 120.44 138.363 121.84C141.028 118.69 142.976 114.999 144.071 111.022C144.084 110.974 144.098 110.926 144.111 110.879L144.148 110.743C145.464 105.997 148.019 101.685 151.549 98.249L151.827 97.9787L152.023 98.3127C153.105 100.152 154.4 101.858 155.882 103.394C153.612 109.796 149.195 115.123 143.526 118.213Z" fill="black"/>
<path opacity="0.15" d="M156.571 101.176L156.534 101.312C156.521 101.359 156.508 101.407 156.495 101.455C156.422 101.718 156.344 101.98 156.264 102.24C155.472 100.19 154.916 98.0577 154.607 95.8827L154.577 95.6982L154.729 95.5897C156.634 94.2221 158.702 93.0984 160.886 92.2448C158.925 94.9402 157.464 97.9652 156.571 101.176Z" fill="black"/>
<path opacity="0.15" d="M131.102 127.78C132.741 126.883 134.276 125.807 135.676 124.571C132.878 127.827 130.872 131.686 129.816 135.847C128.76 140.007 128.682 144.356 129.588 148.552C130.495 152.747 132.361 156.676 135.041 160.03C137.721 163.385 141.142 166.073 145.035 167.885L145.162 167.943L145.288 167.887C147.391 166.937 149.608 166.264 151.884 165.885C150.464 166.608 149.139 167.506 147.942 168.559L147.538 168.909L148.046 169.077C148.484 169.222 148.923 169.355 149.349 169.473C151.853 170.17 154.443 170.517 157.043 170.502C168.856 170.426 180.76 173.156 192.426 178.614C194.426 179.549 196.501 180.315 198.629 180.906C207.903 183.486 217.803 182.558 226.434 178.299C221.568 183.923 215.205 188.053 208.084 190.208C200.963 192.363 193.377 192.455 186.206 190.473C184.078 189.882 182.003 189.116 180.002 188.181C168.337 182.723 156.432 179.993 144.619 180.069C142.019 180.084 139.43 179.737 136.925 179.04C136.499 178.922 136.061 178.789 135.622 178.644L135.114 178.476L135.519 178.126C136.716 177.073 138.04 176.175 139.461 175.452C137.185 175.831 134.967 176.504 132.864 177.454L132.738 177.51L132.612 177.452C127.936 175.277 123.957 171.846 121.119 167.543C118.281 163.24 116.695 158.233 116.539 153.081C116.382 147.929 117.661 142.835 120.232 138.368C122.804 133.9 126.567 130.234 131.102 127.78L131.102 127.78Z" fill="black"/>
</g>
</g>
<path d="M53.2414 43.84C52.4974 44.368 51.7294 44.86 50.9374 45.316C50.1694 45.772 49.3054 46.132 48.3454 46.396C47.4094 46.66 46.3054 46.792 45.0334 46.792C42.8494 46.792 40.9174 46.324 39.2374 45.388C37.5814 44.428 36.2854 43.096 35.3494 41.392C34.4134 39.688 33.9454 37.696 33.9454 35.416C33.9454 33.136 34.3894 31.144 35.2774 29.44C36.1654 27.736 37.4374 26.416 39.0934 25.48C40.7734 24.52 42.7774 24.04 45.1054 24.04C46.5934 24.04 47.9494 24.244 49.1734 24.652C50.3974 25.036 51.4534 25.552 52.3414 26.2L53.5294 31.384L49.7494 32.356L48.8854 28.612C48.2854 28.3 47.6734 28.096 47.0494 28C46.4494 27.88 45.8374 27.82 45.2134 27.82C44.0854 27.82 43.0294 28.132 42.0454 28.756C41.0614 29.38 40.2694 30.268 39.6694 31.42C39.0694 32.548 38.7694 33.88 38.7694 35.416C38.7694 36.88 39.0214 38.176 39.5254 39.304C40.0534 40.408 40.7854 41.272 41.7214 41.896C42.6574 42.496 43.7374 42.796 44.9614 42.796C45.7054 42.796 46.3774 42.712 46.9774 42.544C47.6014 42.376 48.2134 42.172 48.8134 41.932V38.512H44.2054V34.912H53.2414V43.84ZM64.8935 28.936C66.7655 28.936 68.3495 29.296 69.6455 30.016C70.9415 30.712 71.9255 31.732 72.5975 33.076C73.2695 34.396 73.6055 35.992 73.6055 37.864C73.6055 40.648 72.8495 42.82 71.3375 44.38C69.8255 45.94 67.6775 46.72 64.8935 46.72C63.0695 46.72 61.5095 46.372 60.2135 45.676C58.9415 44.98 57.9695 43.972 57.2975 42.652C56.6495 41.308 56.3255 39.712 56.3255 37.864C56.3255 35.992 56.6495 34.396 57.2975 33.076C57.9695 31.732 58.9415 30.712 60.2135 30.016C61.5095 29.296 63.0695 28.936 64.8935 28.936ZM64.9295 32.644C63.5615 32.644 62.5295 33.088 61.8335 33.976C61.1375 34.864 60.7895 36.16 60.7895 37.864C60.7895 39.568 61.1375 40.864 61.8335 41.752C62.5295 42.64 63.5615 43.084 64.9295 43.084C66.3215 43.084 67.3655 42.64 68.0615 41.752C68.7815 40.864 69.1415 39.568 69.1415 37.864C69.1415 36.16 68.7815 34.864 68.0615 33.976C67.3655 33.088 66.3215 32.644 64.9295 32.644ZM88.0904 45.388C86.3624 46.276 84.6344 46.72 82.9064 46.72C80.5784 46.72 78.8144 46.288 77.6144 45.424C76.4144 44.536 75.8144 43.252 75.8144 41.572C75.8144 38.14 78.0944 36.424 82.6544 36.424H86.4344C86.4344 35.032 86.1344 34.012 85.5344 33.364C84.9584 32.692 84.2384 32.356 83.3744 32.356C82.8464 32.356 82.3544 32.392 81.8984 32.464C81.4664 32.536 81.0344 32.644 80.6024 32.788L80.2784 34.48L76.4984 34.012L77.1824 29.98C78.1664 29.644 79.1744 29.392 80.2064 29.224C81.2624 29.032 82.3784 28.936 83.5544 28.936C85.9544 28.936 87.7904 29.572 89.0624 30.844C90.3584 32.092 91.0064 33.94 91.0064 36.388V42.256L93.9224 43.192L92.6624 46.936L88.0904 45.388ZM82.7624 39.268C82.0184 39.268 81.4424 39.472 81.0344 39.88C80.6504 40.264 80.4584 40.804 80.4584 41.5C80.4584 42.772 81.3224 43.408 83.0504 43.408C84.2504 43.408 85.3784 43.096 86.4344 42.472V39.268H82.7624ZM95.4096 46V42.364H98.4336V26.38L95.0136 25.228L96.2016 21.556L103.006 23.86V42.364H106.03V46H95.4096ZM107.589 24.796H126.993V32.464H122.961V28.828H119.613V41.968H122.529V46H111.981V41.968H114.933V28.828H111.621V32.464H107.589V24.796ZM136.017 28.936C137.889 28.936 139.473 29.296 140.769 30.016C142.065 30.712 143.049 31.732 143.721 33.076C144.393 34.396 144.729 35.992 144.729 37.864C144.729 40.648 143.973 42.82 142.461 44.38C140.949 45.94 138.801 46.72 136.017 46.72C134.193 46.72 132.633 46.372 131.337 45.676C130.065 44.98 129.093 43.972 128.421 42.652C127.773 41.308 127.449 39.712 127.449 37.864C127.449 35.992 127.773 34.396 128.421 33.076C129.093 31.732 130.065 30.712 131.337 30.016C132.633 29.296 134.193 28.936 136.017 28.936ZM136.053 32.644C134.685 32.644 133.653 33.088 132.957 33.976C132.261 34.864 131.913 36.16 131.913 37.864C131.913 39.568 132.261 40.864 132.957 41.752C133.653 42.64 134.685 43.084 136.053 43.084C137.445 43.084 138.489 42.64 139.185 41.752C139.905 40.864 140.265 39.568 140.265 37.864C140.265 36.16 139.905 34.864 139.185 33.976C138.489 33.088 137.445 32.644 136.053 32.644ZM165.47 46.936L160.934 45.388C159.59 46.276 157.982 46.72 156.11 46.72C153.35 46.72 151.202 45.94 149.666 44.38C148.13 42.796 147.362 40.588 147.362 37.756C147.362 34.972 148.13 32.812 149.666 31.276C151.202 29.716 153.35 28.936 156.11 28.936C156.566 28.936 157.058 28.984 157.586 29.08C158.138 29.176 158.678 29.308 159.206 29.476V26.668L155.606 25.408L156.902 21.52L163.778 23.86V42.004L166.73 43.012L165.47 46.936ZM156.146 43.084C156.626 43.084 157.142 43.024 157.694 42.904C158.27 42.76 158.774 42.568 159.206 42.328V33.292C158.822 33.1 158.342 32.944 157.766 32.824C157.214 32.704 156.674 32.644 156.146 32.644C154.898 32.644 153.89 33.112 153.122 34.048C152.378 34.984 152.006 36.22 152.006 37.756C152.006 39.364 152.378 40.66 153.122 41.644C153.89 42.604 154.898 43.084 156.146 43.084ZM177.257 28.936C179.129 28.936 180.713 29.296 182.009 30.016C183.305 30.712 184.289 31.732 184.961 33.076C185.633 34.396 185.969 35.992 185.969 37.864C185.969 40.648 185.213 42.82 183.701 44.38C182.189 45.94 180.041 46.72 177.257 46.72C175.433 46.72 173.873 46.372 172.577 45.676C171.305 44.98 170.333 43.972 169.661 42.652C169.013 41.308 168.689 39.712 168.689 37.864C168.689 35.992 169.013 34.396 169.661 33.076C170.333 31.732 171.305 30.712 172.577 30.016C173.873 29.296 175.433 28.936 177.257 28.936ZM177.293 32.644C175.925 32.644 174.893 33.088 174.197 33.976C173.501 34.864 173.153 36.16 173.153 37.864C173.153 39.568 173.501 40.864 174.197 41.752C174.893 42.64 175.925 43.084 177.293 43.084C178.685 43.084 179.729 42.64 180.425 41.752C181.145 40.864 181.505 39.568 181.505 37.864C181.505 36.16 181.145 34.864 180.425 33.976C179.729 33.088 178.685 32.644 177.293 32.644Z" fill="black"/>
<path d="M84.684 9.776C84.684 8.84 84.684 8.048 84.72 7.508C84.756 7.058 84.792 6.788 84.936 6.536C84.99 6.446 85.026 6.356 85.026 6.266C85.026 6.122 84.936 6.014 84.738 5.96C83.982 5.798 83.208 5.69 82.434 5.636C82.614 6.14 82.668 6.68 82.686 7.274C82.704 8.192 82.722 9.11 82.74 9.758C82.776 11.468 82.83 13.178 83.046 15.536C82.65 15.482 82.11 15.482 81.534 15.482C79.302 15.482 77.592 16.616 77.592 18.236C77.592 19.892 79.212 20.882 81.426 20.882C83.838 20.882 84.99 19.73 85.062 18.182C85.08 18.038 85.08 17.876 85.08 17.768C86.628 18.398 87.744 19.046 89.076 20.036C89.22 20.144 89.274 20.09 89.382 19.982C89.706 19.586 90.066 19.028 90.336 18.47C90.408 18.326 90.39 18.236 90.264 18.164C88.572 17.138 86.916 16.382 85.044 15.842C84.864 14.132 84.774 13.142 84.738 11.684C86.25 11.54 87.78 11.288 89.292 10.874C89.4 10.838 89.472 10.802 89.436 10.604C89.346 10.118 89.148 9.506 89.004 9.074C88.968 8.966 88.896 8.93 88.788 8.966C87.564 9.38 86.178 9.65 84.684 9.776ZM83.1 17.534C83.154 18.29 82.56 19.082 81.21 19.082C80.076 19.082 79.356 18.776 79.356 18.164C79.356 17.516 80.166 17.102 81.426 17.102C81.93 17.102 82.434 17.156 83.082 17.282L83.1 17.534ZM99.6687 5.096C99.4527 5.636 99.2547 6.122 99.1287 6.788C99.0747 7.022 99.1647 7.112 99.2547 7.148C101.109 7.868 102.513 8.21 104.475 8.534C104.619 8.552 104.673 8.462 104.727 8.282C104.853 7.94 105.051 7.076 105.123 6.698C105.159 6.554 105.087 6.41 104.889 6.374C103.035 6.104 101.343 5.762 99.6687 5.096ZM96.1767 11.036C96.4647 11.756 96.8427 12.548 97.0947 12.926C97.2027 13.088 97.3647 13.322 97.5987 13.322C97.7427 13.322 97.8507 13.25 97.9947 13.142C98.2107 12.98 98.4627 12.8 99.5247 12.278C100.551 11.774 101.343 11.504 102.351 11.504C103.395 11.504 104.025 12.278 104.025 13.772C104.025 15.23 103.557 16.22 103.035 16.958C102.279 18.02 101.055 19.028 99.0747 19.964C99.6867 20.198 100.173 20.54 100.569 20.918C100.731 21.08 100.839 21.152 101.001 21.152C101.091 21.152 101.181 21.116 101.307 21.062C102.729 20.306 103.935 19.352 104.781 18.2C105.609 17.102 106.239 15.662 106.239 13.898C106.239 11.252 104.853 9.614 102.441 9.614C101.073 9.614 99.8307 10.01 98.3187 10.514C97.3467 10.82 96.9147 10.964 96.1767 11.036ZM114.473 13.754C113.789 14.816 113.519 15.59 113.519 16.328C113.519 18.668 115.589 19.964 119.621 19.964C121.907 19.964 123.311 19.838 124.985 19.532C125.201 19.496 125.309 19.424 125.291 19.262C125.255 18.812 125.093 17.84 125.003 17.498C124.967 17.336 124.877 17.282 124.625 17.336C123.149 17.66 121.493 17.858 119.747 17.858C116.651 17.858 115.481 17.3 115.481 16.166C115.481 15.806 115.679 15.212 115.949 14.798C116.039 14.654 116.021 14.564 115.859 14.474C115.391 14.222 114.941 13.988 114.473 13.754ZM114.869 6.95C114.833 7.598 114.797 8.12 114.797 8.552C114.797 8.768 114.869 8.84 115.031 8.876C116.039 9.056 117.497 9.182 118.181 9.182C118.703 9.182 119.261 9.182 119.657 9.128C119.027 9.506 118.235 10.01 117.299 10.622C117.821 10.766 118.199 10.964 118.559 11.198C118.685 11.27 118.811 11.306 118.937 11.306C119.081 11.306 119.243 11.252 119.387 11.144C120.845 10.208 122.087 9.614 123.797 9.362C124.013 9.344 124.103 9.236 124.103 8.984C124.103 8.372 124.067 7.868 124.013 7.454C123.995 7.31 123.923 7.238 123.743 7.256C122.591 7.328 121.241 7.418 119.927 7.418C117.965 7.418 116.237 7.274 114.869 6.95ZM137.144 13.322C135.668 14.15 134.948 15.644 134.948 16.796C134.948 18.974 136.424 20.522 139.808 20.864C140.24 20.918 140.654 20.972 140.996 20.972C141.248 20.972 141.356 20.864 141.392 20.576C141.446 20.252 141.59 19.514 141.626 19.064C141.644 18.83 141.536 18.74 141.356 18.74C138.746 18.74 136.856 18.218 136.856 16.49C136.856 15.194 137.846 13.916 139.934 13.196C141.032 12.836 141.95 12.71 143.282 12.62C143.48 12.602 143.588 12.548 143.57 12.368C143.534 11.702 143.444 11.18 143.372 10.91C143.336 10.712 143.264 10.586 143.03 10.622C139.79 11.162 137.324 11.738 134.354 12.602L134.318 12.548C136.37 11 137.9 9.668 139.772 8.012C140.006 7.796 140.24 7.634 140.51 7.472C140.726 7.364 140.834 7.238 140.834 7.058C140.834 6.896 140.762 6.734 140.618 6.554C140.348 6.212 140.006 5.87 139.736 5.654C139.52 5.474 139.412 5.384 139.25 5.384C139.142 5.384 139.034 5.42 138.908 5.51C138.656 5.654 138.44 5.744 137.954 5.816C136.37 6.05 135.056 6.266 133.85 6.356C133.256 6.392 132.662 6.374 132.068 6.32C132.302 7.13 132.554 7.814 132.716 8.102C132.842 8.336 132.986 8.498 133.148 8.498C133.31 8.498 133.49 8.372 133.652 8.318C133.922 8.246 134.066 8.228 134.336 8.174C135.47 7.958 136.442 7.778 137.54 7.472C135.65 9.362 133.958 10.982 132.41 12.188C131.618 12.782 131.024 13.106 130.682 13.25C130.304 13.376 130.142 13.43 129.746 13.538C129.962 14.15 130.16 14.654 130.34 15.014C130.43 15.248 130.61 15.374 130.7 15.374C130.826 15.374 131.096 15.23 131.222 15.176C132.752 14.636 134.462 13.988 137.144 13.286V13.322Z" fill="black"/>
<defs>
<clipPath id="clip0_302_711">
<rect width="236" height="199" fill="white" transform="translate(0 74)"/>
</clipPath>
</defs>
</svg>
